<svg width="24" height="24" viewBox="0 0 24 24" fill="none" xmlns="http://www.w3.org/2000/svg">
<path fill-rule="evenodd" clip-rule="evenodd" d="M4 21H20C21.654 21 23 19.654 23 18V12C23 11.9861 22.9997 11.9721 22.9991 11.9582C22.9951 11.8622 22.9774 11.7671 22.9465 11.6765C22.9322 11.6342 22.915 11.5929 22.895 11.553L19.446 4.665C18.936 3.639 17.906 3.001 16.76 3H7.24C6.094 3.001 5.065 3.638 4.556 4.663L1.11308 11.5379C1.04506 11.6681 1.00488 11.8151 1.00042 11.971C1.00014 11.9806 1 11.9903 1 12V18C1 19.654 2.346 21 4 21ZM3 13V18C3 18.552 3.449 19 4 19H20C20.552 19 21 18.552 21 18V13H3ZM3.61911 11H20.381L17.655 5.557C17.484 5.213 17.142 5 16.759 5H7.24C6.858 5 6.516 5.213 6.346 5.555C6.346 5.5557 6.34552 5.55639 6.34522 5.55709C6.34509 5.55739 6.345 5.5577 6.345 5.558L3.61911 11Z" fill="black"/>
<path d="M6.00988 17C5.45788 17 5.00488 16.553 5.00488 16C5.00488 15.447 5.44788 15 5.99988 15H6.00988C6.56188 15 7.00988 15.447 7.00988 16C7.00988 16.553 6.56188 17 6.00988 17Z" fill="black"/>
<path d="M10.0099 17C9.45788 17 9.00488 16.553 9.00488 16C9.00488 15.447 9.44788 15 9.99988 15H10.0099C10.5619 15 11.0099 15.447 11.0099 16C11.0099 16.553 10.5619 17 10.0099 17Z" fill="black"/>
</svg>
