<svg width="22" height="18" viewBox="0 0 22 18" fill="none" xmlns="http://www.w3.org/2000/svg">
<path fill-rule="evenodd" clip-rule="evenodd" d="M3 18H19C20.654 18 22 16.654 22 15V9C22 8.98606 21.9997 8.97212 21.9991 8.9582C21.9951 8.86219 21.9774 8.76709 21.9465 8.67648C21.9322 8.63422 21.915 8.59294 21.895 8.553L18.446 1.665C17.936 0.639 16.906 0.000999928 15.76 0H6.24C5.094 0.000999928 4.065 0.638 3.556 1.663L0.113075 8.53787C0.0450584 8.66806 0.00487542 8.81506 0.000421405 8.97095C0.000140667 8.98063 0 8.99031 0 9V15C0 16.654 1.346 18 3 18ZM2 10V15C2 15.552 2.449 16 3 16H19C19.552 16 20 15.552 20 15V10H2ZM2.61911 8H19.381L16.655 2.557C16.484 2.213 16.142 2 15.759 2H6.24C5.858 2 5.516 2.213 5.346 2.555C5.346 2.5557 5.34552 2.55639 5.34522 2.55709C5.34509 2.55739 5.345 2.5577 5.345 2.558L2.61911 8Z" fill="black"/>
<path d="M5.00988 14C4.45788 14 4.00488 13.553 4.00488 13C4.00488 12.447 4.44788 12 4.99988 12H5.00988C5.56188 12 6.00988 12.447 6.00988 13C6.00988 13.553 5.56188 14 5.00988 14Z" fill="black"/>
<path d="M9.00988 14C8.45788 14 8.00488 13.553 8.00488 13C8.00488 12.447 8.44788 12 8.99988 12H9.00988C9.56188 12 10.0099 12.447 10.0099 13C10.0099 13.553 9.56188 14 9.00988 14Z" fill="black"/>
</svg>
