<svg width="22" height="22" viewBox="0 0 22 22" fill="none" xmlns="http://www.w3.org/2000/svg">
<path fill-rule="evenodd" clip-rule="evenodd" d="M10.4221 6L12.6453 2.15005C15.0739 2.5987 17.1607 4.0224 18.4845 6H13.3284C13.3157 5.99976 13.3029 5.99976 13.2902 6H10.4221ZM6.38028 8.99989L7.81542 6.51463C7.82064 6.50526 7.826 6.49598 7.8315 6.48679L10.4115 2.01893C7.91175 2.18027 5.68993 3.36218 4.15842 5.15228L6.38028 8.99989ZM5.53159 11.5296L6.95815 14H2.51212C2.18046 13.0617 2 12.0519 2 11C2 9.57042 2.33331 8.21869 2.92646 7.01829L5.49815 11.4717C5.50863 11.4913 5.51978 11.5107 5.53159 11.5296ZM11.578 16H8.7085C8.69702 16.0002 8.68554 16.0002 8.67408 16H3.51555C4.83932 17.9776 6.92611 19.4013 9.35474 19.85L11.578 16ZM12.7329 14H9.26767L7.53503 10.9996L9.26719 8H12.7329L14.4653 11L12.7329 14ZM14.1704 15.5101C14.1746 15.503 14.1788 15.4958 14.1828 15.4885L15.6201 12.9997L17.8419 16.8473C16.3104 18.6376 14.0885 19.8197 11.5886 19.9811L14.1704 15.5101ZM9.83719 21.9393C10.2193 21.9794 10.6072 22 11 22C14.5954 22 17.7879 20.2751 19.7951 17.6076C19.8372 17.5607 19.8743 17.5102 19.9064 17.4571C21.2233 15.6437 22 13.4126 22 11C22 9.45847 21.6829 7.99101 21.1104 6.65927C21.0958 6.61907 21.0788 6.58008 21.0594 6.54247C19.5165 3.06585 16.2242 0.537957 12.2998 0.0759837C12.2541 0.0676387 12.2081 0.062562 12.1622 0.0606653C11.7803 0.0205612 11.3925 0 11 0C7.40283 0 4.20894 1.72665 2.20192 4.39637C2.16254 4.44077 2.12753 4.48828 2.09706 4.5382C0.778023 6.35241 0 8.58535 0 11C0 12.5416 0.317137 14.0092 0.889731 15.341C0.90424 15.381 0.921228 15.4198 0.940511 15.4573C2.48342 18.9343 5.77612 21.4624 9.70107 21.9241C9.7463 21.9323 9.79178 21.9374 9.83719 21.9393ZM16.4939 10.5135L19.0738 14.9811C19.6668 13.7809 20 12.4294 20 11C20 9.94809 19.8195 8.93834 19.4879 8H15.0425L16.4773 10.4847C16.483 10.4942 16.4885 10.5038 16.4939 10.5135Z" fill="black"/>
</svg>
