<svg width="24" height="24" viewBox="0 0 24 24" fill="none" xmlns="http://www.w3.org/2000/svg">
<path fill-rule="evenodd" clip-rule="evenodd" d="M1.70711 0.292893C1.31658 -0.0976311 0.683418 -0.0976311 0.292893 0.292893C-0.0976311 0.683418 -0.0976311 1.31658 0.292893 1.70711L5.58027 6.99449L5 8.00108C4.99985 11.3531 4.28286 13.4348 3.6221 14.6461C3.29031 15.2544 2.96723 15.6535 2.7428 15.8904C2.63032 16.0091 2.54194 16.0878 2.48872 16.1322C2.4621 16.1544 2.44425 16.168 2.43655 16.1737L2.43369 16.1758C2.0752 16.4221 1.91657 16.8725 2.04291 17.2898C2.17061 17.7115 2.55933 18 3 18H16.5858L22.2929 23.7071C22.6834 24.0976 23.3166 24.0976 23.7071 23.7071C24.0976 23.3166 24.0976 22.6834 23.7071 22.2929L6.98063 5.56642C6.97141 5.55682 6.962 5.5474 6.95238 5.53816L1.70711 0.292893ZM6.99664 8.41086C6.94036 11.83 6.18515 14.1239 5.3779 15.6039C5.3018 15.7434 5.22541 15.8753 5.14932 16H14.5858L6.99664 8.41086ZM15.3065 1.82122C14.1888 1.22224 12.9294 0.938119 11.6627 0.999221C10.3961 1.06032 9.16989 1.46435 8.11503 2.16814C7.65561 2.47466 7.53166 3.09558 7.83818 3.55499C8.1447 4.01441 8.76561 4.13836 9.22503 3.83184C9.9785 3.32913 10.8544 3.04054 11.7591 2.9969C12.6638 2.95325 13.5634 3.15619 14.3618 3.58404C15.1602 4.01189 15.8273 4.64857 16.292 5.42609C16.7536 6.19856 16.9982 7.08122 17 7.98092L17 7.98403C16.9715 9.76643 17.1954 11.5439 17.6652 13.2635C17.8107 13.7963 18.3606 14.1102 18.8933 13.9647C19.4261 13.8191 19.74 13.2693 19.5945 12.7365C19.1762 11.2051 18.9759 9.62245 18.9994 8.0352C18.9998 8.02401 19 8.01276 19 8.00148C19.0019 6.73338 18.6593 5.4886 18.0087 4.40008C17.3582 3.31157 16.4242 2.42021 15.3065 1.82122Z" fill="black"/>
<path fill-rule="evenodd" clip-rule="evenodd" d="M9.76841 20.135C10.2461 19.8579 10.8581 20.0205 11.1352 20.4982C11.2231 20.6497 11.3493 20.7755 11.5011 20.863C11.6529 20.9504 11.825 20.9964 12.0002 20.9964C12.1754 20.9964 12.3475 20.9504 12.4993 20.863C12.6511 20.7755 12.7773 20.6497 12.8652 20.4982C13.1423 20.0205 13.7542 19.8579 14.232 20.135C14.7097 20.4121 14.8723 21.024 14.5952 21.5018C14.3315 21.9564 13.9529 22.3337 13.4975 22.596C13.0421 22.8584 12.5258 22.9964 12.0002 22.9964C11.4746 22.9964 10.9583 22.8584 10.5028 22.596C10.0474 22.3337 9.6689 21.9564 9.40518 21.5018C9.12806 21.024 9.29069 20.4121 9.76841 20.135Z" fill="black"/>
</svg>
