<svg width="20" height="23" viewBox="0 0 20 23" fill="none" xmlns="http://www.w3.org/2000/svg">
<path fill-rule="evenodd" clip-rule="evenodd" d="M10 0.0020752C9.47421 0.0020752 8.95768 0.14026 8.50214 0.402763L5.30627 2.22897C5.0963 2.27056 4.90043 2.37901 4.7529 2.54518L1.50386 4.40177L1.5 4.404C1.12981 4.61773 0.810569 4.90751 0.562653 5.25297C0.502548 5.3132 0.4492 5.38214 0.404578 5.45928C0.366183 5.52566 0.336267 5.59461 0.314496 5.66488C0.108491 6.0786 0.000475763 6.53515 0 6.999V10.999V15.0011C0.000539601 15.5271 0.139414 16.0438 0.402692 16.4993C0.66597 16.9548 1.04439 17.333 1.5 17.5961L1.50386 17.5983L4.7535 19.4552C4.8958 19.6148 5.08851 19.7285 5.30663 19.7713L8.5 21.5961L8.50185 21.5971C8.81907 21.78 9.16589 21.9025 9.52482 21.9601C9.66617 22.0366 9.82801 22.08 10 22.08C10.172 22.08 10.3338 22.0366 10.4752 21.9601C10.8341 21.9025 11.181 21.7799 11.4982 21.5971L11.5 21.5961L14.6933 19.7713C14.9116 19.7286 15.1045 19.6148 15.2468 19.455L18.4961 17.5983L18.5 17.5961C18.9556 17.333 19.334 16.9548 19.5973 16.4993C19.8606 16.0438 19.9995 15.5271 20 15.0011V11.0173C20.0002 11.0051 20.0002 10.993 20 10.9808V6.999C19.9995 6.53588 19.8918 6.08004 19.6865 5.66684C19.6647 5.59589 19.6345 5.52627 19.5958 5.45928C19.5509 5.38161 19.4971 5.31225 19.4365 5.25173C19.1887 4.90681 18.8697 4.61747 18.5 4.40399L15.2478 2.54559C15.1001 2.37905 14.9039 2.2704 14.6935 2.22886L11.5 0.403999L11.4979 0.402795C11.0424 0.140271 10.5258 0.0020752 10 0.0020752ZM11 19.5783L13.5 18.1497V13.6C13.5 13.2428 13.6905 12.9128 13.9997 12.7341L18 10.4228V7.53765L11 11.5869V19.5783ZM9 11.5867L2 7.53744V10.4228L6.00044 12.7341C6.30969 12.9128 6.50017 13.2428 6.50017 13.6V18.1498L9 19.5783V11.5867ZM10.0002 9.85475L16.9611 5.8281L14.4506 4.39355L10.5004 6.67587C10.1909 6.85472 9.80943 6.85472 9.49989 6.67587L5.54956 4.39346L3.03909 5.828L10.0002 9.85475ZM15.5 17.0069L17.5 15.864L17.5016 15.8631C17.6527 15.7754 17.7783 15.6497 17.8658 15.4984C17.9535 15.3466 17.9998 15.1744 18 14.999V12.7327L15.5 14.1771V17.0069ZM2 14.9994V12.7326L4.50017 14.1771V17.0069L2.5 15.864L2.49842 15.8631C2.34726 15.7754 2.22169 15.6497 2.13423 15.4984C2.04654 15.3467 2.00025 15.1746 2 14.9994ZM12.4407 3.24502L10.5 2.13606C10.348 2.04829 10.1755 2.00208 10 2.00208C9.82446 2.00208 9.65202 2.04828 9.5 2.13605L9.49614 2.13828L7.5595 3.24493L10.0002 4.65509L12.4407 3.24502Z" fill="black"/>
</svg>
