<svg width="22" height="22" viewBox="0 0 22 22" fill="none" xmlns="http://www.w3.org/2000/svg">
<path fill-rule="evenodd" clip-rule="evenodd" d="M0 11C0 4.92487 4.92487 0 11 0C17.0751 0 22 4.92487 22 11C22 17.0751 17.0751 22 11 22C4.92487 22 0 17.0751 0 11ZM12 19.9451V17C12 16.4477 11.5523 16 11 16C10.4477 16 10 16.4477 10 17V19.9451C5.82838 19.4839 2.51608 16.1716 2.05493 12H5C5.55228 12 6 11.5523 6 11C6 10.4477 5.55228 10 5 10H2.05493C2.51608 5.82838 5.82838 2.51608 10 2.05493V5C10 5.55228 10.4477 6 11 6C11.5523 6 12 5.55228 12 5V2.05493C16.1716 2.51608 19.4839 5.82838 19.9451 10H17C16.4477 10 16 10.4477 16 11C16 11.5523 16.4477 12 17 12H19.9451C19.4839 16.1716 16.1716 19.4839 12 19.9451Z" fill="black"/>
</svg>
