<svg width="22" height="23" viewBox="0 0 22 23" fill="none" xmlns="http://www.w3.org/2000/svg">
<path fill-rule="evenodd" clip-rule="evenodd" d="M10.0429 3.04287C11.3563 1.72949 13.1376 0.991638 14.995 0.991638C16.8524 0.991638 18.6337 1.72949 19.9471 3.04287C21.2605 4.35625 21.9983 6.13757 21.9983 7.99497C21.9983 9.85201 21.2608 11.633 19.9479 12.9463L19.9471 12.9471L17.2938 15.6083C17.2409 15.6771 17.1793 15.7389 17.1106 15.792L13.2082 19.706C13.0205 19.8942 12.7657 20 12.5 20H4.41424L1.70711 22.7071C1.31658 23.0976 0.683418 23.0976 0.292893 22.7071C-0.0976311 22.3166 -0.0976311 21.6834 0.292893 21.2929L3 18.5858V10.5C3 10.2348 3.10536 9.9804 3.29289 9.79287L10.0429 3.04287ZM16.0731 14L18.5318 11.5339L18.5329 11.5329C19.4712 10.5946 19.9983 9.32194 19.9983 7.99497C19.9983 6.66801 19.4712 5.39539 18.5329 4.45708C17.5946 3.51877 16.322 2.99164 14.995 2.99164C13.668 2.99164 12.3954 3.51877 11.4571 4.45708L5 10.9142V16.5858L14.2929 7.29289C14.6834 6.90237 15.3166 6.90237 15.7071 7.29289C16.0976 7.68342 16.0976 8.31658 15.7071 8.70711L10.4142 14H16.0731ZM8.41421 16H14.079L12.0849 18H6.41424L8.41421 16Z" fill="black"/>
</svg>
