<svg width="18" height="22" viewBox="0 0 18 22" fill="none" xmlns="http://www.w3.org/2000/svg">
<path fill-rule="evenodd" clip-rule="evenodd" d="M3 0C2.20435 0 1.44129 0.31607 0.87868 0.87868C0.31607 1.44129 0 2.20435 0 3V19C0 19.7957 0.31607 20.5587 0.87868 21.1213C1.44129 21.6839 2.20435 22 3 22H15C15.7957 22 16.5587 21.6839 17.1213 21.1213C17.6839 20.5587 18 19.7957 18 19V7C18 6.73478 17.8946 6.48043 17.7071 6.29289L11.7075 0.293258L11.7072 0.292994L11.7071 0.292893C11.5261 0.111929 11.2761 0 11 0H3ZM2.29289 2.29289C2.48043 2.10536 2.73478 2 3 2H10V7C10 7.55228 10.4477 8 11 8H16V19C16 19.2652 15.8946 19.5196 15.7071 19.7071C15.5196 19.8946 15.2652 20 15 20H3C2.73478 20 2.48043 19.8946 2.29289 19.7071C2.10536 19.5196 2 19.2652 2 19V3C2 2.73478 2.10536 2.48043 2.29289 2.29289ZM14.5858 6L12 3.41421V6H14.5858Z" fill="black"/>
<path d="M13 14H5C4.448 14 4 13.553 4 13C4 12.448 4.448 12 5 12H13C13.553 12 14 12.448 14 13C14 13.553 13.553 14 13 14Z" fill="black"/>
<path d="M13 18H5C4.448 18 4 17.553 4 17C4 16.447 4.448 16 5 16H13C13.553 16 14 16.447 14 17C14 17.553 13.553 18 13 18Z" fill="black"/>
<path d="M7 10H5C4.448 10 4 9.552 4 9C4 8.448 4.448 8 5 8H7C7.552 8 8 8.448 8 9C8 9.552 7.552 10 7 10Z" fill="black"/>
</svg>
