<svg width="22" height="22" viewBox="0 0 22 22" fill="none" xmlns="http://www.w3.org/2000/svg">
<path fill-rule="evenodd" clip-rule="evenodd" d="M6 22H16H18.82C20.573 22 22 20.573 22 18.82V16V11V6V3.18C22 1.427 20.573 0 18.82 0H16H6H3.18C1.427 0 0 1.427 0 3.18V6V11V16V18.82C0 20.573 1.427 22 3.18 22H6ZM20 5V3.18C20 2.529 19.471 2 18.82 2H17V5H20ZM17 7H20V10H17V7ZM15 6V10H7V6V2H15V6ZM20 12V15H17V12H20ZM20 17H17V20H18.82C19.47 20 20 19.471 20 18.82V17ZM15 12V16V20H7V16V12H15ZM2 17V18.82C2 19.471 2.529 20 3.18 20H5V17H2ZM5 15H2V12H5V15ZM2 10V7H5V10H2ZM2 5H5V2H3.18C2.529 2 2 2.529 2 3.18V5Z" fill="black"/>
</svg>
