<svg width="20" height="22" viewBox="0 0 20 22" fill="none" xmlns="http://www.w3.org/2000/svg">
<path fill-rule="evenodd" clip-rule="evenodd" d="M13 22H17C18.654 22 20 20.654 20 19V8C20 7.691 19.857 7.4 19.614 7.21L10.614 0.21C10.253 -0.07 9.746 -0.07 9.386 0.21L0.386 7.21C0.143 7.4 0 7.691 0 8V19C0 20.654 1.346 22 3 22H7H13ZM14 20H17C17.552 20 18 19.552 18 19V8.489L10 2.267L2 8.489V19C2 19.552 2.449 20 3 20H6V11C6 10.448 6.448 10 7 10H13C13.553 10 14 10.448 14 11V20ZM8 20V12H12V20H8Z" fill="black"/>
</svg>
