<svg width="22" height="18" viewBox="0 0 22 18" fill="none" xmlns="http://www.w3.org/2000/svg">
<path fill-rule="evenodd" clip-rule="evenodd" d="M0 15C0 16.654 1.34619 18 3 18H19C20.6538 18 22 16.654 22 15V3.03485C22.001 3.0072 22.001 2.97937 21.9995 2.95166C21.9736 1.31989 20.6377 0 19 0H3C1.34619 0 0 1.34601 0 3V15ZM19.894 2.55273C19.7295 2.22534 19.3911 2 19 2H3C2.60986 2 2.27051 2.22522 2.10596 2.55237L11 8.77899L19.894 2.55273ZM20 4.92096L11.5742 10.819C11.4009 10.939 11.2012 11 11 11C10.7988 11 10.5991 10.939 10.4268 10.819L2 4.92023V15C2 15.552 2.44922 16 3 16H19C19.5518 16 20 15.552 20 15V4.92096Z" fill="black"/>
</svg>
