<svg width="24" height="22" viewBox="0 0 24 22" fill="none" xmlns="http://www.w3.org/2000/svg">
<path fill-rule="evenodd" clip-rule="evenodd" d="M16 22C15.998 22 15.9956 22 15.9937 22C15.8281 21.999 15.6724 21.9579 15.5356 21.8862L8.03223 18.134L1.49707 21.868C1.18701 22.045 0.807129 22.043 0.499023 21.865C0.189941 21.686 0 21.356 0 21V5C0 4.64099 0.191895 4.30999 0.503906 4.13201L7.48535 0.142451L7.50391 0.132014C7.64893 0.048518 7.81006 0.00451169 7.97217 0.000117157C8.01953 -0.00116458 8.06689 0.000971649 8.11377 0.00640378C8.24512 0.0211743 8.36768 0.0612744 8.47852 0.121882L15.9678 3.867L22.5029 0.132991C22.5518 0.104792 22.6025 0.0811108 22.6543 0.0619458C22.9307 -0.0399219 23.2407 -0.0147144 23.501 0.135981C23.6348 0.212703 23.7461 0.317683 23.8291 0.440791C23.939 0.603328 24 0.797419 24 0.999995V17C24 17.358 23.8081 17.69 23.4961 17.868L16.5298 21.8489C16.4639 21.8901 16.3921 21.9234 16.3169 21.9484C16.2144 21.9828 16.1074 22 16 22ZM15 19.3821V5.61743L9 2.6184V16.3816L15 19.3821ZM17 19.2764L22 16.42V2.72302L17 5.58001V19.2764ZM2 5.58001L7 2.72296V16.4189L2 19.276V5.58001Z" fill="black"/>
</svg>
