<svg width="24" height="25" viewBox="0 0 24 25" fill="none" xmlns="http://www.w3.org/2000/svg">
<path fill-rule="evenodd" clip-rule="evenodd" d="M11.9979 16.997C10.933 16.997 9.93005 16.582 9.17371 15.828C8.41785 15.073 8.00085 14.069 7.99988 13.001V10.414L0.292847 2.70697C-0.0982666 2.31598 -0.0982666 1.68402 0.292847 1.29303C0.68396 0.901978 1.3158 0.901978 1.70691 1.29303L14.8192 14.4052L14.827 14.413L14.8344 14.4206L17.494 17.08C17.5487 17.1109 17.601 17.1472 17.6498 17.1891C17.6669 17.2037 17.6835 17.219 17.7001 17.235C17.746 17.28 17.7865 17.3284 17.8221 17.3793C17.8397 17.4047 17.8558 17.4307 17.871 17.4572L23.7069 23.293C24.098 23.684 24.098 24.316 23.7069 24.707C23.5121 24.902 23.2557 25 22.9999 25C22.744 25 22.4877 24.902 22.2928 24.707L16.9349 19.3489C15.7684 20.2642 14.4032 20.8103 12.9999 20.9857V23H15.9999C16.5531 23 16.9999 23.447 16.9999 24C16.9999 24.553 16.5531 25 15.9999 25H11.9999H7.99988C7.44812 25 6.99988 24.553 6.99988 24C6.99988 23.447 7.44812 23 7.99988 23H10.9999V20.9858C9.32312 20.7763 7.70007 20.0375 6.40173 18.767C4.85974 17.256 3.98376 15.151 3.99988 12.993V11C3.99988 10.448 4.44812 10 4.99988 10C5.55164 10 5.99988 10.448 5.99988 11V13C5.98767 14.626 6.6449 16.205 7.80066 17.338C8.89343 18.4075 10.2933 18.9745 11.7118 19.0421C11.8031 19.0147 11.8998 19 11.9999 19C12.1 19 12.1976 19.0146 12.2889 19.0421C13.4247 18.9878 14.5463 18.6135 15.5067 17.9205L14.0316 16.4456C13.4232 16.8054 12.7269 16.997 12.0018 16.997H11.9979ZM12.5165 14.9305L9.99988 12.414V13C9.99988 13.534 10.2089 14.035 10.5868 14.413C10.9637 14.79 11.4657 14.997 12.0009 14.997C12.1776 14.997 12.3505 14.9744 12.5165 14.9305ZM14.9999 11.34C14.4467 11.34 13.9999 10.892 13.9999 10.34V5C13.9999 4.87512 13.9886 4.75195 13.9667 4.63171C13.9442 4.50781 13.91 4.38702 13.8646 4.27063C13.7655 4.01617 13.6141 3.78278 13.4159 3.58398C13.038 3.20599 12.536 2.99799 11.9999 2.99701C11.0531 2.99701 10.2289 3.66998 10.0399 4.599C9.93005 5.14001 9.40369 5.48798 8.86072 5.38C8.3197 5.27002 7.97009 4.742 8.07996 4.20099C8.45691 2.34399 10.1049 0.997009 11.9999 0.997009H12.0038C13.0717 0.997986 14.077 1.41498 14.8309 2.17102C15.5858 2.927 16.0009 3.93201 15.9999 5.00098V10.34C15.9999 10.892 15.5531 11.34 14.9999 11.34ZM18.7118 15.214C18.7728 15.225 18.8319 15.23 18.891 15.23C19.3651 15.23 19.786 14.892 19.8739 14.408C19.9579 13.943 19.9999 13.47 19.9999 13V11C19.9999 10.448 19.5531 10 18.9999 10C18.4467 10 17.9999 10.448 17.9999 11V13C17.9999 13.351 17.9677 13.705 17.9047 14.052C17.808 14.596 18.1688 15.115 18.7118 15.214Z" fill="black"/>
</svg>
