<svg width="20" height="23" viewBox="0 0 20 23" fill="none" xmlns="http://www.w3.org/2000/svg">
<path fill-rule="evenodd" clip-rule="evenodd" d="M9.10205 21.8599C9.20166 21.891 9.30273 21.9169 9.40479 21.9374C9.44385 21.9453 9.48291 21.9524 9.52197 21.9587C9.66406 22.0361 9.82715 22.08 10 22.08C10.1724 22.08 10.335 22.0363 10.4766 21.9593C10.8315 21.9028 11.1772 21.7826 11.4961 21.599L18.501 17.596C19.4238 17.063 19.999 16.068 20 15V6.99902C20 6.53283 19.8896 6.08056 19.6885 5.67437C19.6665 5.6007 19.6353 5.52844 19.5952 5.45898C19.5483 5.37774 19.4927 5.30633 19.4287 5.24383C19.1841 4.906 18.8687 4.61712 18.4961 4.40197L11.5 0.403985C10.5742 -0.130012 9.42383 -0.130988 8.50391 0.401971L5.30957 2.22717C5.09717 2.2683 4.89941 2.37798 4.75098 2.54638L1.5 4.40398C1.22705 4.56194 0.983887 4.76019 0.777344 4.98858C0.703613 5.07006 0.634766 5.15539 0.570801 5.24413C0.507324 5.30639 0.450684 5.37817 0.403809 5.45898C0.377441 5.50506 0.35498 5.55242 0.336426 5.60052C0.32666 5.62493 0.318359 5.64953 0.311035 5.67431C0.109863 6.08062 0 6.5332 0 6.99999V15.001C0.000976562 16.068 0.576172 17.062 1.50391 17.599L8.50098 21.597C8.69287 21.7074 8.89453 21.7951 9.10205 21.8599ZM9 19.5785V11.5867L2 7.53747V15C2 15.202 2.0625 15.3972 2.17334 15.5607C2.25684 15.6836 2.36768 15.7886 2.5 15.865L9 19.5785ZM11 19.5789L17.5039 15.862C17.8081 15.686 17.999 15.354 18 14.999V7.53698L15.0522 9.234L11 11.5849V19.5789ZM10.5039 2.13799L16.9604 5.82769L14.5044 7.24835L7.56006 3.24371L9.5 2.135C9.65381 2.04699 9.82617 2.00201 9.99902 2.00201C10.1729 2.00201 10.3472 2.04797 10.5039 2.13799ZM5.54932 4.39288L12.5059 8.40441L10 9.854L3.03857 5.82781L5.54932 4.39288Z" fill="black"/>
</svg>
