<svg width="22" height="22" viewBox="0 0 22 22" fill="none" xmlns="http://www.w3.org/2000/svg">
<path fill-rule="evenodd" clip-rule="evenodd" d="M9.77773 10.8079L17.1942 3.39155L3.71083 8.11103L9.77773 10.8079ZM20.6293 0.070811L0.668841 7.05702C0.283099 7.19203 0.017962 7.55 0.000872139 7.96003C-0.0162177 8.37001 0.219134 8.74702 0.594134 8.91401L9.24208 12.758L13.0858 21.406C13.247 21.769 13.6059 22 13.9999 22C14.0141 22 14.0268 22 14.0399 22.001C14.4491 21.984 14.807 21.72 14.9428 21.332L21.9301 1.36824C22.0726 1.00886 21.9979 0.584178 21.7069 0.29304C21.4149 0.00129195 20.9892 -0.0728047 20.6293 0.070811ZM18.6088 4.80531L11.1923 12.2218L13.8891 18.289L18.6088 4.80531Z" fill="black"/>
</svg>
