<svg xmlns="http://www.w3.org/2000/svg" fill="currentColor" width="24" height="21.355" viewBox="0 0 24 21.355">
  <g id="_9159770461553750379" data-name="9159770461553750379" transform="translate(-18.5 -50.212)">
    <circle id="Elipse_1" data-name="Elipse 1" cx="2.212" cy="2.212" r="2.212" transform="translate(28.292 58.654)"/>
    <g id="Grupo_428" data-name="Grupo 428" transform="translate(18.5 55.841)">
      <path id="Caminho_51" data-name="Caminho 51" d="M30.5,195.693a23.584,23.584,0,0,1-7.613-1.062,9.583,9.583,0,0,1-3.136-1.732,3.16,3.16,0,0,1-1.256-2.274c0-1.463,1.555-2.9,4.165-3.83A23.994,23.994,0,0,1,30.5,185.6a23.778,23.778,0,0,1,7.732,1.172,9.734,9.734,0,0,1,3.033,1.648,3.028,3.028,0,0,1,1.235,2.2c0,1.521-1.739,3.059-4.541,4.015A23.942,23.942,0,0,1,30.5,195.693Zm0-9.035a23.3,23.3,0,0,0-7.5,1.133c-2.4.864-3.477,2.045-3.477,2.834,0,.82,1.158,2.111,3.7,3.006a22.675,22.675,0,0,0,7.279,1,22.854,22.854,0,0,0,7.134-1c2.636-.9,3.841-2.195,3.841-3.01a2.064,2.064,0,0,0-.867-1.393,8.706,8.706,0,0,0-2.708-1.463A22.976,22.976,0,0,0,30.5,186.658Z" transform="translate(-18.5 -185.6)"/>
    </g>
    <g id="Grupo_429" data-name="Grupo 429" transform="translate(22.909 50.212)">
      <path id="Caminho_52" data-name="Caminho 52" d="M129.735,71.554a2.382,2.382,0,0,1-1.181-.282c-1.265-.709-1.706-2.751-1.172-5.464a24.185,24.185,0,0,1,3.006-7.365,24.723,24.723,0,0,1,5-6.13,10.115,10.115,0,0,1,2.993-1.828,3.09,3.09,0,0,1,2.543,0c1.318.735,1.754,2.99,1.137,5.878a24.311,24.311,0,0,1-2.931,6.972,24.489,24.489,0,0,1-4.844,6.079,10.047,10.047,0,0,1-3.116,1.875A4.416,4.416,0,0,1,129.735,71.554ZM130.841,58.7l.458.256A23.439,23.439,0,0,0,128.417,66c-.489,2.5-.018,4,.661,4.383a1.338,1.338,0,0,0,.657.145,6.709,6.709,0,0,0,3.852-1.888,23.473,23.473,0,0,0,4.623-5.818,23.244,23.244,0,0,0,2.812-6.664c.577-2.721.079-4.387-.63-4.785a2.12,2.12,0,0,0-1.653.077,9.047,9.047,0,0,0-2.662,1.64,23.688,23.688,0,0,0-4.777,5.87Z" transform="translate(-127.159 -50.212)"/>
    </g>
    <g id="Grupo_430" data-name="Grupo 430" transform="translate(22.913 50.234)">
      <path id="Caminho_53" data-name="Caminho 53" d="M139.894,72.03a7.353,7.353,0,0,1-4.306-2.025,24.771,24.771,0,0,1-5.082-6.2h0a24.082,24.082,0,0,1-2.984-7.262,9.5,9.5,0,0,1-.141-3.426,2.892,2.892,0,0,1,1.269-2.14c1.313-.739,3.548.021,5.822,1.982a24.8,24.8,0,0,1,4.764,5.942,23.851,23.851,0,0,1,3.015,7.1,9.471,9.471,0,0,1,.123,3.554,3.024,3.024,0,0,1-1.322,2.191A2.321,2.321,0,0,1,139.894,72.03Zm-8.471-8.74a24.03,24.03,0,0,0,4.857,5.938c1.988,1.657,3.565,2.016,4.249,1.632.71-.4,1.23-2.025.692-4.656a22.991,22.991,0,0,0-2.9-6.788,23.77,23.77,0,0,0-4.553-5.69c-2.142-1.845-3.878-2.26-4.588-1.863a1.977,1.977,0,0,0-.758,1.427,8.474,8.474,0,0,0,.137,3.054,23.107,23.107,0,0,0,2.86,6.946Z" transform="translate(-127.284 -50.696)"/>
    </g>
  </g>
</svg>
