<?xml version="1.0" encoding="iso-8859-1"?>
<!-- Generator: Adobe Illustrator 24.2.1, SVG Export Plug-In . SVG Version: 6.00 Build 0)  -->
<svg version="1.1" id="Camada_1" xmlns="http://www.w3.org/2000/svg" xmlns:xlink="http://www.w3.org/1999/xlink" x="0px" y="0px"
	 viewBox="0 0 24 24" style="enable-background:new 0 0 24 24;" xml:space="preserve">
<g>
	<path d="M15,22c-0.431,0-0.812-0.275-0.948-0.684L9,6.162l-2.051,6.154C6.812,12.725,6.431,13,6,13H2c-0.552,0-1-0.448-1-1
		s0.448-1,1-1h3.279l2.772-8.316C8.188,2.275,8.569,2,9,2s0.812,0.275,0.949,0.684L15,17.838l2.052-6.154
		C17.188,11.275,17.569,11,18,11h4c0.553,0,1,0.448,1,1s-0.447,1-1,1h-3.279l-2.772,8.316C15.812,21.725,15.431,22,15,22z"/>
</g>
</svg>
