<?xml version="1.0" encoding="iso-8859-1"?>
<!-- Generator: Adobe Illustrator 24.2.1, SVG Export Plug-In . SVG Version: 6.00 Build 0)  -->
<svg version="1.1" id="Camada_1" xmlns="http://www.w3.org/2000/svg" xmlns:xlink="http://www.w3.org/1999/xlink" x="0px" y="0px"
	 viewBox="0 0 24 24" style="enable-background:new 0 0 24 24;" xml:space="preserve">
<g>
	<path d="M20,18h-1c-0.553,0-1-0.447-1-1s0.447-1,1-1h1c0.552,0,1-0.448,1-1V5c0-0.551-0.448-1-1-1H4C3.449,4,3,4.449,3,5v10
		c0,0.552,0.449,1,1,1h1c0.552,0,1,0.447,1,1s-0.448,1-1,1H4c-1.654,0-3-1.346-3-3V5c0-1.654,1.346-3,3-3h16c1.654,0,3,1.346,3,3v10
		C23,16.654,21.654,18,20,18z"/>
</g>
<g>
	<path d="M17,22H7c-0.388,0-0.741-0.225-0.906-0.576c-0.165-0.351-0.111-0.766,0.138-1.064l5-6c0.38-0.455,1.156-0.455,1.536,0l5,6
		c0.248,0.299,0.302,0.714,0.137,1.064C17.741,21.775,17.388,22,17,22z M9.135,20h5.73L12,16.562L9.135,20z"/>
</g>
</svg>
