<?xml version="1.0" encoding="iso-8859-1"?>
<!-- Generator: Adobe Illustrator 24.2.1, SVG Export Plug-In . SVG Version: 6.00 Build 0)  -->
<svg version="1.1" id="Camada_1" xmlns="http://www.w3.org/2000/svg" xmlns:xlink="http://www.w3.org/1999/xlink" x="0px" y="0px"
	 viewBox="0 0 24 24" style="enable-background:new 0 0 24 24;" xml:space="preserve">
<g>
	<path d="M12,9C9.794,9,8,7.206,8,5s1.794-4,4-4c2.206,0,4,1.794,4,4S14.206,9,12,9z M12,3c-1.103,0-2,0.897-2,2s0.897,2,2,2
		c1.103,0,2-0.897,2-2S13.103,3,12,3z"/>
</g>
<g>
	<path d="M12,23c-0.552,0-1-0.447-1-1V8c0-0.552,0.448-1,1-1s1,0.448,1,1v14C13,22.553,12.552,23,12,23z"/>
</g>
<g>
	<path d="M12,23C5.935,23,1,18.065,1,12c0-0.552,0.448-1,1-1h3c0.552,0,1,0.448,1,1s-0.448,1-1,1H3.055c0.499,4.494,4.32,8,8.945,8
		c4.625,0,8.445-3.506,8.944-8H19c-0.553,0-1-0.448-1-1s0.447-1,1-1h3c0.553,0,1,0.448,1,1C23,18.065,18.065,23,12,23z"/>
</g>
</svg>
