<svg width="24" height="24" viewBox="0 0 24 24" fill="none" xmlns="http://www.w3.org/2000/svg">
<path fill-rule="evenodd" clip-rule="evenodd" d="M10.6981 22.9234C6.79594 22.4611 3.51299 19.9478 1.96078 16.4949C1.92642 16.4346 1.89813 16.3704 1.87678 16.3031C1.31247 14.9807 1 13.5261 1 12C1 9.60619 1.76878 7.38842 3.0724 5.58063C3.11596 5.50067 3.17071 5.42614 3.23595 5.35966C5.24666 2.71248 8.42727 1 12 1C12.3886 1 12.7725 1.02026 13.1508 1.05977C13.2045 1.06137 13.2583 1.06732 13.3117 1.07777C17.2096 1.54307 20.4884 4.0552 22.0393 7.5053C22.0736 7.56551 22.1018 7.62962 22.1232 7.69681C22.6875 9.01924 23 10.4738 23 12C23 14.3933 22.2316 16.6106 20.9285 18.4182C20.8846 18.4989 20.8294 18.5741 20.7634 18.6411C18.7527 21.2879 15.5724 23 12 23C11.6078 23 11.2204 22.9794 10.8388 22.9391C10.7919 22.9372 10.7449 22.932 10.6981 22.9234ZM10.3552 20.8494C7.93127 20.3999 5.84501 18.9757 4.52001 17H9.68244L9.69097 17L9.69947 17H12.578L10.3552 20.8494ZM12.5886 20.981C15.0851 20.8191 17.3073 19.6349 18.8398 17.8438L16.62 13.9998L15.1854 16.484C15.1797 16.4944 15.1738 16.5047 15.1677 16.5149L12.5886 20.981ZM13.733 15L15.4653 12.0001L13.7328 9H10.2673L8.53484 12L10.2672 15H13.733ZM17.5058 11.5344C17.4934 11.5108 17.4801 11.4877 17.4658 11.4651L16.0423 9H20.4859C20.8188 9.93877 21 10.9486 21 12C21 13.4275 20.666 14.7783 20.0721 15.9786L17.5058 11.5344ZM7.95775 15H3.51408C3.18123 14.0613 3 13.0514 3 12C3 10.5728 3.33406 9.22202 3.92809 8.0218L6.50052 12.4765C6.50944 12.493 6.51884 12.5093 6.5287 12.5253L7.95775 15ZM7.38011 10.0004L8.81598 7.51387C8.82082 7.50519 8.82579 7.49659 8.83088 7.48807L11.4116 3.01903C8.91546 3.18095 6.69315 4.36545 5.16051 6.15668L7.38011 10.0004ZM11.4222 7L13.645 3.15066C16.0691 3.60021 18.1551 5.02451 19.48 7H14.3081H14.3074H11.4222Z" fill="black"/>
</svg>
