<?xml version="1.0" encoding="iso-8859-1"?>
<!-- Generator: Adobe Illustrator 24.2.1, SVG Export Plug-In . SVG Version: 6.00 Build 0)  -->
<svg version="1.1" id="Camada_1" xmlns="http://www.w3.org/2000/svg" xmlns:xlink="http://www.w3.org/1999/xlink" x="0px" y="0px"
	 viewBox="0 0 24 24" style="enable-background:new 0 0 24 24;" xml:space="preserve">
<g>
	<path d="M12,23C5.935,23,1,18.065,1,12S5.935,1,12,1s11,4.935,11,11S18.065,23,12,23z M12,3c-4.962,0-9,4.038-9,9
		c0,4.963,4.038,9,9,9c4.963,0,9-4.037,9-9C21,7.038,16.963,3,12,3z"/>
</g>
<g>
	<path d="M20.051,18.94c-0.346,0-0.682-0.179-0.867-0.5l-5.74-9.94c-0.276-0.478-0.112-1.09,0.366-1.366
		c0.476-0.276,1.089-0.112,1.366,0.366l5.74,9.94c0.276,0.479,0.112,1.09-0.366,1.366C20.393,18.897,20.221,18.94,20.051,18.94z"/>
</g>
<g>
	<path d="M21.17,9H9.69c-0.552,0-1-0.448-1-1s0.448-1,1-1h11.48c0.553,0,1,0.448,1,1S21.723,9,21.17,9z"/>
</g>
<g>
	<path d="M7.379,13c-0.169,0-0.342-0.043-0.499-0.134C6.401,12.59,6.238,11.978,6.514,11.5l5.74-9.94
		c0.276-0.479,0.889-0.643,1.366-0.366c0.479,0.276,0.643,0.888,0.366,1.366l-5.74,9.94C8.061,12.821,7.725,13,7.379,13z"/>
</g>
<g>
	<path d="M9.691,17c-0.346,0-0.682-0.179-0.867-0.5l-5.74-9.94C2.808,6.082,2.972,5.47,3.45,5.194
		C3.927,4.917,4.54,5.082,4.816,5.56l5.74,9.94c0.276,0.479,0.112,1.09-0.366,1.366C10.033,16.957,9.86,17,9.691,17z"/>
</g>
<g>
	<path d="M14.31,17H2.83c-0.552,0-1-0.447-1-1s0.448-1,1-1H14.31c0.553,0,1,0.447,1,1S14.862,17,14.31,17z"/>
</g>
<g>
	<path d="M10.879,22.94c-0.169,0-0.342-0.043-0.499-0.134c-0.479-0.276-0.642-0.888-0.366-1.366l5.74-9.94
		c0.276-0.479,0.889-0.643,1.366-0.366c0.479,0.276,0.643,0.888,0.366,1.366l-5.74,9.94C11.561,22.762,11.225,22.94,10.879,22.94z"
		/>
</g>
</svg>
