<?xml version="1.0" encoding="iso-8859-1"?>
<!-- Generator: Adobe Illustrator 24.2.1, SVG Export Plug-In . SVG Version: 6.00 Build 0)  -->
<svg version="1.1" id="Camada_1" xmlns="http://www.w3.org/2000/svg" xmlns:xlink="http://www.w3.org/1999/xlink" x="0px" y="0px"
	 viewBox="0 0 24 24" style="enable-background:new 0 0 24 24;" xml:space="preserve">
<g>
	<path d="M21,22H3c-0.552,0-1-0.447-1-1V8c0-0.552,0.448-1,1-1s1,0.448,1,1v12h16V8c0-0.552,0.447-1,1-1s1,0.448,1,1v13
		C22,21.553,21.553,22,21,22z"/>
</g>
<g>
	<path d="M23,9H1C0.448,9,0,8.552,0,8V3c0-0.552,0.448-1,1-1h22c0.553,0,1,0.448,1,1v5C24,8.552,23.553,9,23,9z M2,7h20V4H2V7z"/>
</g>
<g>
	<path d="M14,13h-4c-0.552,0-1-0.448-1-1s0.448-1,1-1h4c0.553,0,1,0.448,1,1S14.553,13,14,13z"/>
</g>
</svg>
