<?xml version="1.0" encoding="iso-8859-1"?>
<!-- Generator: Adobe Illustrator 24.2.1, SVG Export Plug-In . SVG Version: 6.00 Build 0)  -->
<svg version="1.1" id="Camada_1" xmlns="http://www.w3.org/2000/svg" xmlns:xlink="http://www.w3.org/1999/xlink" x="0px" y="0px"
	 viewBox="0 0 24 24" style="enable-background:new 0 0 24 24;" xml:space="preserve">
<g>
	<path d="M12,20c-0.552,0-1-0.447-1-1V5c0-0.552,0.448-1,1-1s1,0.448,1,1v14C13,19.553,12.552,20,12,20z"/>
</g>
<g>
	<path d="M12,20c-0.256,0-0.512-0.098-0.707-0.293l-7-7c-0.391-0.391-0.391-1.023,0-1.414s1.023-0.391,1.414,0L12,17.586
		l6.293-6.293c0.391-0.391,1.023-0.391,1.414,0s0.391,1.023,0,1.414l-7,7C12.512,19.902,12.256,20,12,20z"/>
</g>
</svg>
