<?xml version="1.0" encoding="iso-8859-1"?>
<!-- Generator: Adobe Illustrator 24.2.1, SVG Export Plug-In . SVG Version: 6.00 Build 0)  -->
<svg version="1.1" id="Camada_1" xmlns="http://www.w3.org/2000/svg" xmlns:xlink="http://www.w3.org/1999/xlink" x="0px" y="0px"
	 viewBox="0 0 24 24" style="enable-background:new 0 0 24 24;" xml:space="preserve">
<g>
	<path d="M12,20c-0.552,0-1-0.447-1-1V5c0-0.552,0.448-1,1-1s1,0.448,1,1v14C13,19.553,12.552,20,12,20z"/>
</g>
<g>
	<path d="M19,13c-0.256,0-0.512-0.098-0.707-0.293L12,6.414l-6.293,6.293c-0.391,0.391-1.023,0.391-1.414,0s-0.391-1.023,0-1.414
		l7-7c0.391-0.391,1.023-0.391,1.414,0l7,7c0.391,0.391,0.391,1.023,0,1.414C19.512,12.902,19.256,13,19,13z"/>
</g>
</svg>
