<?xml version="1.0" encoding="iso-8859-1"?>
<!-- Generator: Adobe Illustrator 24.2.1, SVG Export Plug-In . SVG Version: 6.00 Build 0)  -->
<svg version="1.1" id="Camada_1" xmlns="http://www.w3.org/2000/svg" xmlns:xlink="http://www.w3.org/1999/xlink" x="0px" y="0px"
	 viewBox="0 0 24 24" style="enable-background:new 0 0 24 24;" xml:space="preserve">
<g>
	<path d="M7,18c-0.256,0-0.512-0.098-0.707-0.293c-0.391-0.391-0.391-1.023,0-1.414l10-10c0.391-0.391,1.023-0.391,1.414,0
		s0.391,1.023,0,1.414l-10,10C7.512,17.902,7.256,18,7,18z"/>
</g>
<g>
	<path d="M17,18c-0.553,0-1-0.447-1-1V8H7C6.448,8,6,7.552,6,7s0.448-1,1-1h10c0.553,0,1,0.448,1,1v10C18,17.553,17.553,18,17,18z"
		/>
</g>
</svg>
