<?xml version="1.0" encoding="iso-8859-1"?>
<!-- Generator: Adobe Illustrator 24.2.1, SVG Export Plug-In . SVG Version: 6.00 Build 0)  -->
<svg version="1.1" id="Camada_1" xmlns="http://www.w3.org/2000/svg" xmlns:xlink="http://www.w3.org/1999/xlink" x="0px" y="0px"
	 viewBox="0 0 24 24" style="enable-background:new 0 0 24 24;" xml:space="preserve">
<g>
	<path d="M12,17c-2.757,0-5-2.243-5-5s2.243-5,5-5s5,2.243,5,5S14.757,17,12,17z M12,9c-1.654,0-3,1.346-3,3s1.346,3,3,3
		s3-1.346,3-3S13.654,9,12,9z"/>
</g>
<g>
	<path d="M12,23.001c-6.065,0-11-4.935-11-11c0-2.938,1.144-5.701,3.221-7.778C6.299,2.145,9.061,1.001,12,1c6.066,0,11,4.935,11,11
		v1c0,2.206-1.794,4-4,4s-4-1.794-4-4V8c0-0.552,0.447-1,1-1s1,0.448,1,1v5c0,1.103,0.897,2,2,2s2-0.897,2-2v-1c0-4.962-4.038-9-9-9
		C9.596,3,7.335,3.937,5.636,5.637C3.936,7.337,3,9.597,3,12.001c0,4.962,4.038,9,9,9c1.966,0,3.91-0.658,5.472-1.854
		c0.438-0.335,1.067-0.253,1.401,0.187c0.336,0.438,0.253,1.065-0.187,1.401C16.778,22.196,14.403,23.001,12,23.001z"/>
</g>
</svg>
