<?xml version="1.0" encoding="iso-8859-1"?>
<!-- Generator: Adobe Illustrator 24.2.1, SVG Export Plug-In . SVG Version: 6.00 Build 0)  -->
<svg version="1.1" id="Camada_1" xmlns="http://www.w3.org/2000/svg" xmlns:xlink="http://www.w3.org/1999/xlink" x="0px" y="0px"
	 viewBox="0 0 24 24" style="enable-background:new 0 0 24 24;" xml:space="preserve">
<g>
	<path d="M12,16c-4.411,0-8-3.589-8-8s3.589-8,8-8s8,3.589,8,8S16.411,16,12,16z M12,2C8.691,2,6,4.691,6,8s2.691,6,6,6s6-2.691,6-6
		S15.309,2,12,2z"/>
</g>
<g>
	<path d="M17,24c-0.178,0-0.355-0.047-0.515-0.143L12,21.166l-4.485,2.691c-0.329,0.197-0.743,0.189-1.063-0.021
		c-0.321-0.211-0.493-0.587-0.442-0.968l1.21-9.11c0.073-0.548,0.574-0.93,1.123-0.859c0.547,0.073,0.932,0.575,0.859,1.123
		l-0.937,7.054l3.221-1.933c0.317-0.189,0.712-0.189,1.029,0l3.222,1.933l-0.938-7.063c-0.072-0.548,0.312-1.05,0.859-1.123
		c0.553-0.074,1.051,0.312,1.123,0.859l1.21,9.12c0.051,0.381-0.121,0.757-0.442,0.968C17.383,23.945,17.191,24,17,24z"/>
</g>
</svg>
