<?xml version="1.0" encoding="iso-8859-1"?>
<!-- Generator: Adobe Illustrator 24.2.1, SVG Export Plug-In . SVG Version: 6.00 Build 0)  -->
<svg version="1.1" id="Camada_1" xmlns="http://www.w3.org/2000/svg" xmlns:xlink="http://www.w3.org/1999/xlink" x="0px" y="0px"
	 viewBox="0 0 24 24" style="enable-background:new 0 0 24 24;" xml:space="preserve">
<g>
	<path d="M12,21c-0.552,0-1-0.447-1-1V10c0-0.552,0.448-1,1-1s1,0.448,1,1v10C13,20.553,12.552,21,12,21z"/>
</g>
<g>
	<path d="M18,21c-0.553,0-1-0.447-1-1V4c0-0.552,0.447-1,1-1s1,0.448,1,1v16C19,20.553,18.553,21,18,21z"/>
</g>
<g>
	<path d="M6,21c-0.552,0-1-0.447-1-1v-4c0-0.553,0.448-1,1-1s1,0.447,1,1v4C7,20.553,6.552,21,6,21z"/>
</g>
</svg>
