<?xml version="1.0" encoding="iso-8859-1"?>
<!-- Generator: Adobe Illustrator 24.2.1, SVG Export Plug-In . SVG Version: 6.00 Build 0)  -->
<svg version="1.1" id="Camada_1" xmlns="http://www.w3.org/2000/svg" xmlns:xlink="http://www.w3.org/1999/xlink" x="0px" y="0px"
	 viewBox="0 0 24 24" style="enable-background:new 0 0 24 24;" xml:space="preserve">
<g>
	<path d="M17,19h-3.19c-0.553,0-1-0.447-1-1s0.447-1,1-1H17c0.552,0,1-0.448,1-1V8c0-0.551-0.448-1-1-1h-2c-0.553,0-1-0.448-1-1
		s0.447-1,1-1h2c1.654,0,3,1.346,3,3v8C20,17.654,18.654,19,17,19z M5,19H3c-1.654,0-3-1.346-3-3V8c0-1.654,1.346-3,3-3h3.19
		c0.552,0,1,0.448,1,1s-0.448,1-1,1H3C2.449,7,2,7.449,2,8v8c0,0.552,0.449,1,1,1h2c0.552,0,1,0.447,1,1S5.552,19,5,19z"/>
</g>
<g>
	<path d="M23,14c-0.553,0-1-0.447-1-1v-2c0-0.552,0.447-1,1-1s1,0.448,1,1v2C24,13.553,23.553,14,23,14z"/>
</g>
<g>
	<path d="M8.999,19c-0.19,0-0.383-0.055-0.554-0.168c-0.459-0.307-0.583-0.927-0.277-1.387L11.131,13H7
		c-0.369,0-0.708-0.203-0.882-0.528c-0.174-0.325-0.155-0.72,0.05-1.026l4-6c0.306-0.459,0.927-0.584,1.387-0.277
		c0.459,0.306,0.583,0.927,0.277,1.387L8.869,11H13c0.369,0,0.708,0.203,0.882,0.528s0.154,0.72-0.05,1.026l-4,6
		C9.639,18.844,9.322,19,8.999,19z"/>
</g>
</svg>
