<?xml version="1.0" encoding="iso-8859-1"?>
<!-- Generator: Adobe Illustrator 24.2.1, SVG Export Plug-In . SVG Version: 6.00 Build 0)  -->
<svg version="1.1" id="Camada_1" xmlns="http://www.w3.org/2000/svg" xmlns:xlink="http://www.w3.org/1999/xlink" x="0px" y="0px"
	 viewBox="0 0 24 24" style="enable-background:new 0 0 24 24;" xml:space="preserve">
<g>
	<path d="M17,19H3c-1.654,0-3-1.346-3-3V8c0-1.654,1.346-3,3-3h14c1.654,0,3,1.346,3,3v8C20,17.654,18.654,19,17,19z M3,7
		C2.449,7,2,7.449,2,8v8c0,0.552,0.449,1,1,1h14c0.552,0,1-0.448,1-1V8c0-0.551-0.448-1-1-1H3z"/>
</g>
<g>
	<path d="M23,14c-0.553,0-1-0.447-1-1v-2c0-0.552,0.447-1,1-1s1,0.448,1,1v2C24,13.553,23.553,14,23,14z"/>
</g>
</svg>
