<?xml version="1.0" encoding="iso-8859-1"?>
<!-- Generator: Adobe Illustrator 24.2.1, SVG Export Plug-In . SVG Version: 6.00 Build 0)  -->
<svg version="1.1" id="Camada_1" xmlns="http://www.w3.org/2000/svg" xmlns:xlink="http://www.w3.org/1999/xlink" x="0px" y="0px"
	 viewBox="0 0 24 24" style="enable-background:new 0 0 24 24;" xml:space="preserve">
<g>
	<path d="M21,18H3c-0.44,0-0.83-0.288-0.957-0.71c-0.128-0.422,0.036-0.878,0.402-1.122C2.458,16.158,5,14.27,5,8c0-3.86,3.14-7,7-7
		c3.859,0,7,3.14,7,7c0,6.27,2.542,8.158,2.567,8.177c0.354,0.253,0.511,0.71,0.378,1.124S21.435,18,21,18z M5.14,16h13.719
		C17.955,14.518,17,12.004,17,8c0-2.757-2.243-5-5-5S7,5.243,7,8C7,12.004,6.045,14.518,5.14,16z"/>
</g>
<g>
	<path d="M11.995,22.995c-0.511,0-1.027-0.13-1.5-0.403c-0.452-0.263-0.829-0.64-1.09-1.091c-0.277-0.478-0.114-1.09,0.364-1.366
		c0.479-0.278,1.089-0.113,1.367,0.364c0.087,0.149,0.212,0.275,0.363,0.362c0.477,0.278,1.09,0.112,1.367-0.363
		c0.278-0.478,0.89-0.639,1.367-0.362c0.478,0.277,0.641,0.889,0.362,1.366C14.039,22.46,13.03,22.995,11.995,22.995z"/>
</g>
</svg>
