<?xml version="1.0" encoding="iso-8859-1"?>
<!-- Generator: Adobe Illustrator 24.2.1, SVG Export Plug-In . SVG Version: 6.00 Build 0)  -->
<svg version="1.1" id="Camada_1" xmlns="http://www.w3.org/2000/svg" xmlns:xlink="http://www.w3.org/1999/xlink" x="0px" y="0px"
	 viewBox="0 0 24 24" style="enable-background:new 0 0 24 24;" xml:space="preserve">
<g>
	<path d="M11.995,22.995c-0.511,0-1.027-0.13-1.5-0.403c-0.452-0.263-0.829-0.64-1.09-1.091c-0.277-0.478-0.114-1.09,0.364-1.366
		c0.479-0.278,1.089-0.113,1.367,0.364c0.087,0.149,0.212,0.275,0.363,0.362c0.477,0.278,1.09,0.112,1.367-0.363
		c0.278-0.478,0.89-0.639,1.367-0.362c0.478,0.277,0.641,0.889,0.362,1.366C14.039,22.46,13.03,22.995,11.995,22.995z"/>
</g>
<g>
	<path d="M18.629,14c-0.439,0-0.843-0.292-0.964-0.736c-0.47-1.723-0.693-3.5-0.665-5.28C17.009,7.437,17.455,7,18,7
		c0.005,0,0.011,0,0.017,0C18.568,7.009,19.009,7.464,19,8.016c-0.026,1.592,0.174,3.18,0.595,4.721
		c0.146,0.533-0.169,1.083-0.701,1.228C18.805,13.988,18.717,14,18.629,14z"/>
</g>
<g>
	<path d="M17,18H3c-0.44,0-0.83-0.288-0.957-0.71c-0.128-0.422,0.036-0.878,0.402-1.122C2.458,16.158,5,14.27,5,8
		C4.998,7.313,5.101,6.627,5.304,5.966c0.162-0.528,0.722-0.822,1.25-0.662c0.528,0.163,0.824,0.722,0.662,1.25
		C7.071,7.023,6.999,7.509,7,7.998C7,12.003,6.045,14.517,5.14,16H17c0.553,0,1,0.447,1,1S17.553,18,17,18z"/>
</g>
<g>
	<path d="M18,9c0,0-0.001,0-0.002,0C17.446,8.999,16.999,8.551,17,7.999c0.002-1.335-0.517-2.592-1.459-3.538
		c-0.943-0.946-2.198-1.468-3.534-1.47c-0.003,0-0.005,0-0.008,0c-0.991,0-1.95,0.291-2.774,0.841
		C8.764,4.138,8.144,4.013,7.838,3.555C7.532,3.096,7.655,2.475,8.115,2.168c1.154-0.77,2.497-1.177,3.884-1.177
		c0.004,0,0.007,0,0.011,0c3.86,0.006,6.996,3.15,6.99,7.01C18.999,8.553,18.552,9,18,9z"/>
</g>
<g>
	<path d="M23,24c-0.256,0-0.512-0.098-0.707-0.293l-22-22c-0.391-0.391-0.391-1.023,0-1.414s1.023-0.391,1.414,0l22,22
		c0.391,0.391,0.391,1.023,0,1.414C23.512,23.902,23.256,24,23,24z"/>
</g>
</svg>
