<?xml version="1.0" encoding="iso-8859-1"?>
<!-- Generator: Adobe Illustrator 24.2.1, SVG Export Plug-In . SVG Version: 6.00 Build 0)  -->
<svg version="1.1" id="Camada_1" xmlns="http://www.w3.org/2000/svg" xmlns:xlink="http://www.w3.org/1999/xlink" x="0px" y="0px"
	 viewBox="0 0 24 24" style="enable-background:new 0 0 24 24;" xml:space="preserve">
<g>
	<path d="M12,24c-0.129,0-0.259-0.024-0.383-0.076C11.244,23.77,11,23.404,11,23v-8.586l-3.793,3.793
		c-0.391,0.391-1.023,0.391-1.414,0s-0.391-1.023,0-1.414L10.586,12L5.793,7.207c-0.391-0.391-0.391-1.023,0-1.414
		s1.023-0.391,1.414,0L11,9.586V1c0-0.404,0.244-0.769,0.617-0.924c0.374-0.155,0.803-0.07,1.09,0.217l5.5,5.5
		c0.391,0.391,0.391,1.023,0,1.414L13.414,12l4.793,4.793c0.391,0.391,0.391,1.023,0,1.414l-5.5,5.5C12.516,23.898,12.26,24,12,24z
		 M13,14.414v6.172l3.086-3.086L13,14.414z M13,3.414v6.172L16.086,6.5L13,3.414z"/>
</g>
</svg>
