<?xml version="1.0" encoding="iso-8859-1"?>
<!-- Generator: Adobe Illustrator 24.2.1, SVG Export Plug-In . SVG Version: 6.00 Build 0)  -->
<svg version="1.1" id="Camada_1" xmlns="http://www.w3.org/2000/svg" xmlns:xlink="http://www.w3.org/1999/xlink" x="0px" y="0px"
	 viewBox="0 0 24 24" style="enable-background:new 0 0 24 24;" xml:space="preserve">
<g>
	<path d="M14,13H6c-0.552,0-1-0.448-1-1V4c0-0.552,0.448-1,1-1h8c2.757,0,5,2.243,5,5S16.757,13,14,13z M7,11h7c1.654,0,3-1.346,3-3
		s-1.346-3-3-3H7V11z"/>
</g>
<g>
	<path d="M15,21H6c-0.552,0-1-0.447-1-1v-8c0-0.552,0.448-1,1-1h9c2.757,0,5,2.243,5,5S17.757,21,15,21z M7,19h8
		c1.654,0,3-1.346,3-3s-1.346-3-3-3H7V19z"/>
</g>
</svg>
