<?xml version="1.0" encoding="iso-8859-1"?>
<!-- Generator: Adobe Illustrator 24.2.1, SVG Export Plug-In . SVG Version: 6.00 Build 0)  -->
<svg version="1.1" id="Camada_1" xmlns="http://www.w3.org/2000/svg" xmlns:xlink="http://www.w3.org/1999/xlink" x="0px" y="0px"
	 viewBox="0 0 24 24" style="enable-background:new 0 0 24 24;" xml:space="preserve">
<g>
	<path d="M4,20.5c-0.552,0-1-0.447-1-1C3,17.57,4.57,16,6.5,16H20c0.553,0,1,0.447,1,1s-0.447,1-1,1H6.5C5.673,18,5,18.673,5,19.5
		C5,20.053,4.552,20.5,4,20.5z"/>
</g>
<g>
	<path d="M20,23H6.5C4.57,23,3,21.43,3,19.5v-15C3,2.57,4.57,1,6.5,1H20c0.553,0,1,0.448,1,1v20C21,22.553,20.553,23,20,23z M6.5,3
		C5.673,3,5,3.673,5,4.5v15C5,20.327,5.673,21,6.5,21H19V3H6.5z"/>
</g>
</svg>
