<?xml version="1.0" encoding="iso-8859-1"?>
<!-- Generator: Adobe Illustrator 24.2.1, SVG Export Plug-In . SVG Version: 6.00 Build 0)  -->
<svg version="1.1" id="Camada_1" xmlns="http://www.w3.org/2000/svg" xmlns:xlink="http://www.w3.org/1999/xlink" x="0px" y="0px"
	 viewBox="0 0 24 24" style="enable-background:new 0 0 24 24;" xml:space="preserve">
<g>
	<path d="M12,22c-0.552,0-1-0.447-1-1c0-1.103-0.897-2-2-2H2c-0.552,0-1-0.447-1-1V3c0-0.552,0.448-1,1-1h6c2.757,0,5,2.243,5,5v14
		C13,21.553,12.552,22,12,22z M3,17h6c0.728,0,1.411,0.195,2,0.537V7c0-1.654-1.346-3-3-3H3V17z"/>
</g>
<g>
	<path d="M12,22c-0.552,0-1-0.447-1-1V7c0-2.757,2.243-5,5-5h6c0.553,0,1,0.448,1,1v15c0,0.553-0.447,1-1,1h-7c-1.103,0-2,0.897-2,2
		C13,21.553,12.552,22,12,22z M16,4c-1.654,0-3,1.346-3,3v10.537C13.589,17.195,14.272,17,15,17h6V4H16z"/>
</g>
</svg>
