<?xml version="1.0" encoding="iso-8859-1"?>
<!-- Generator: Adobe Illustrator 24.2.1, SVG Export Plug-In . SVG Version: 6.00 Build 0)  -->
<svg version="1.1" id="Camada_1" xmlns="http://www.w3.org/2000/svg" xmlns:xlink="http://www.w3.org/1999/xlink" x="0px" y="0px"
	 viewBox="0 0 24 24" style="enable-background:new 0 0 24 24;" xml:space="preserve">
<g>
	<path d="M19,22c-0.205,0-0.408-0.062-0.581-0.187L12,17.229l-6.419,4.585c-0.304,0.219-0.706,0.248-1.039,0.076S4,21.375,4,21V5
		c0-1.654,1.346-3,3-3h10c1.654,0,3,1.346,3,3v16c0,0.375-0.209,0.718-0.542,0.89C19.313,21.963,19.156,22,19,22z M12,15
		c0.204,0,0.407,0.062,0.581,0.187L18,19.057V5c0-0.551-0.448-1-1-1H7C6.449,4,6,4.449,6,5v14.057l5.419-3.87
		C11.593,15.062,11.796,15,12,15z"/>
</g>
</svg>
