<svg width="20" height="23" viewBox="0 0 20 23" fill="none" xmlns="http://www.w3.org/2000/svg">
<path fill-rule="evenodd" clip-rule="evenodd" d="M8.50214 0.402763C8.95768 0.14026 9.47421 0.0020752 10 0.0020752C10.5258 0.0020752 11.0424 0.140271 11.4979 0.402795L11.5 0.403999L18.5 4.40399C18.8697 4.61747 19.1887 4.90681 19.4365 5.25173C19.4971 5.31225 19.5509 5.38161 19.5958 5.45928C19.6345 5.52627 19.6647 5.59589 19.6865 5.66684C19.8918 6.08004 19.9995 6.53588 20 6.999V15.0011C19.9995 15.5271 19.8606 16.0438 19.5973 16.4993C19.334 16.9548 18.9556 17.333 18.5 17.5961L18.4961 17.5983L11.5 21.5961L11.4982 21.5971C11.181 21.7799 10.8341 21.9025 10.4752 21.9601C10.3338 22.0366 10.172 22.08 10 22.08C9.82801 22.08 9.66617 22.0366 9.52482 21.9601C9.16589 21.9025 8.81907 21.78 8.50185 21.5971L8.5 21.5961L1.50386 17.5983L1.5 17.5961C1.04439 17.333 0.66597 16.9548 0.402692 16.4993C0.139414 16.0438 0.000539601 15.5271 0 15.0011V6.999C0.000475763 6.53515 0.108491 6.0786 0.314496 5.66488C0.336267 5.59461 0.366183 5.52566 0.404578 5.45928C0.4492 5.38214 0.502548 5.3132 0.562653 5.25297C0.810569 4.90751 1.12981 4.61773 1.5 4.404L1.50386 4.40177L8.50214 0.402763ZM11 19.5783L17.5 15.864L17.5016 15.8631C17.6527 15.7754 17.7783 15.6497 17.8658 15.4984C17.9535 15.3466 17.9998 15.1744 18 14.999V7.53765L11 11.5869V19.5783ZM9 11.5867V19.5783L2.5 15.864L2.49842 15.8631C2.34726 15.7754 2.22169 15.6497 2.13423 15.4984C2.04654 15.3467 2.00025 15.1746 2 14.9994V7.53744L9 11.5867ZM10.5 2.13606L16.9611 5.8281L10.0002 9.85475L3.03909 5.828L9.49614 2.13828L9.5 2.13605C9.65202 2.04828 9.82446 2.00208 10 2.00208C10.1755 2.00208 10.348 2.04829 10.5 2.13606Z" fill="black"/>
</svg>
