<?xml version="1.0" encoding="iso-8859-1"?>
<!-- Generator: Adobe Illustrator 24.2.1, SVG Export Plug-In . SVG Version: 6.00 Build 0)  -->
<svg version="1.1" id="Camada_1" xmlns="http://www.w3.org/2000/svg" xmlns:xlink="http://www.w3.org/1999/xlink" x="0px" y="0px"
	 viewBox="0 0 24 24" style="enable-background:new 0 0 24 24;" xml:space="preserve">
<g>
	<path d="M20,22H4c-1.654,0-3-1.346-3-3V9c0-1.654,1.346-3,3-3h16c1.654,0,3,1.346,3,3v10C23,20.654,21.654,22,20,22z M4,8
		C3.449,8,3,8.449,3,9v10c0,0.552,0.449,1,1,1h16c0.552,0,1-0.448,1-1V9c0-0.551-0.448-1-1-1H4z"/>
</g>
<g>
	<path d="M16,22c-0.553,0-1-0.447-1-1V5c0-0.551-0.448-1-1-1h-4C9.449,4,9,4.449,9,5v16c0,0.553-0.448,1-1,1s-1-0.447-1-1V5
		c0-1.654,1.346-3,3-3h4c1.654,0,3,1.346,3,3v16C17,21.553,16.553,22,16,22z"/>
</g>
</svg>
