<?xml version="1.0" encoding="iso-8859-1"?>
<!-- Generator: Adobe Illustrator 24.2.1, SVG Export Plug-In . SVG Version: 6.00 Build 0)  -->
<svg version="1.1" id="Camada_1" xmlns="http://www.w3.org/2000/svg" xmlns:xlink="http://www.w3.org/1999/xlink" x="0px" y="0px"
	 viewBox="0 0 24 24" style="enable-background:new 0 0 24 24;" xml:space="preserve">
<g>
	<path d="M19,23H5c-1.654,0-3-1.346-3-3V6c0-1.654,1.346-3,3-3h14c1.654,0,3,1.346,3,3v14C22,21.654,20.654,23,19,23z M5,5
		C4.449,5,4,5.449,4,6v14c0,0.552,0.449,1,1,1h14c0.552,0,1-0.448,1-1V6c0-0.551-0.448-1-1-1H5z"/>
</g>
<g>
	<path d="M16,7c-0.553,0-1-0.448-1-1V2c0-0.552,0.447-1,1-1s1,0.448,1,1v4C17,6.552,16.553,7,16,7z"/>
</g>
<g>
	<path d="M8,7C7.448,7,7,6.552,7,6V2c0-0.552,0.448-1,1-1s1,0.448,1,1v4C9,6.552,8.552,7,8,7z"/>
</g>
<g>
	<path d="M21,11H3c-0.552,0-1-0.448-1-1s0.448-1,1-1h18c0.553,0,1,0.448,1,1S21.553,11,21,11z"/>
</g>
</svg>
