<svg width="20" height="22" viewBox="0 0 20 22" fill="none" xmlns="http://www.w3.org/2000/svg">
<path fill-rule="evenodd" clip-rule="evenodd" d="M13 5C13 5.552 13.447 6 14 6C14.553 6 15 5.552 15 5V4H17C17.552 4 18 4.449 18 5V8H2V5C2 4.449 2.449 4 3 4H5V5C5 5.552 5.448 6 6 6C6.552 6 7 5.552 7 5V4H13V5ZM2 10H18V19C18 19.552 17.552 20 17 20H3C2.449 20 2 19.552 2 19V10ZM20 9V5C20 3.346 18.654 2 17 2H15V1C15 0.448 14.553 0 14 0C13.447 0 13 0.448 13 1V2H7V1C7 0.448 6.552 0 6 0C5.448 0 5 0.448 5 1V2H3C1.346 2 0 3.346 0 5V9V19C0 20.654 1.346 22 3 22H17C18.654 22 20 20.654 20 19V9Z" fill="black"/>
</svg>
