<?xml version="1.0" encoding="iso-8859-1"?>
<!-- Generator: Adobe Illustrator 24.2.1, SVG Export Plug-In . SVG Version: 6.00 Build 0)  -->
<svg version="1.1" id="Camada_1" xmlns="http://www.w3.org/2000/svg" xmlns:xlink="http://www.w3.org/1999/xlink" x="0px" y="0px"
	 viewBox="0 0 24 24" style="enable-background:new 0 0 24 24;" xml:space="preserve">
<g>
	<path d="M23,24c-0.256,0-0.512-0.098-0.707-0.293l-22-22c-0.391-0.391-0.391-1.023,0-1.414s1.023-0.391,1.414,0l22,22
		c0.391,0.391,0.391,1.023,0,1.414C23.512,23.902,23.256,24,23,24z"/>
</g>
<g>
	<path d="M21,22H3c-1.654,0-3-1.346-3-3V8c0-1.654,1.346-3,3-3h3c0.552,0,1,0.448,1,1S6.552,7,6,7H3C2.449,7,2,7.449,2,8v11
		c0,0.552,0.449,1,1,1h18c0.553,0,1,0.447,1,1S21.553,22,21,22z M23,18.34c-0.553,0-1-0.447-1-1V8c0-0.551-0.448-1-1-1h-4
		c-0.334,0-0.646-0.167-0.832-0.445L14.465,4H9C8.448,4,8,3.552,8,3s0.448-1,1-1h6c0.334,0,0.646,0.167,0.832,0.445L17.535,5H21
		c1.654,0,3,1.346,3,3v9.34C24,17.893,23.553,18.34,23,18.34z M11.968,18.022c-0.998,0-1.972-0.299-2.813-0.875
		c-1.102-0.754-1.845-1.892-2.091-3.205C6.818,12.63,7.098,11.3,7.853,10.197c0.352-0.513,0.79-0.952,1.303-1.303
		c0.457-0.311,1.079-0.194,1.39,0.261c0.312,0.456,0.195,1.078-0.261,1.39c-0.308,0.21-0.571,0.473-0.782,0.781
		c-0.453,0.661-0.62,1.459-0.473,2.247c0.148,0.787,0.593,1.471,1.254,1.923c0.662,0.453,1.459,0.622,2.247,0.473
		c0.788-0.147,1.47-0.593,1.923-1.254c0.311-0.456,0.936-0.573,1.39-0.261c0.456,0.312,0.572,0.935,0.261,1.39
		c-0.755,1.103-1.893,1.845-3.206,2.091C12.589,17.994,12.278,18.022,11.968,18.022z"/>
</g>
</svg>
