<?xml version="1.0" encoding="iso-8859-1"?>
<!-- Generator: Adobe Illustrator 24.2.1, SVG Export Plug-In . SVG Version: 6.00 Build 0)  -->
<svg version="1.1" id="Camada_1" xmlns="http://www.w3.org/2000/svg" xmlns:xlink="http://www.w3.org/1999/xlink" x="0px" y="0px"
	 viewBox="0 0 24 24" style="enable-background:new 0 0 24 24;" xml:space="preserve">
<g>
	<path d="M21,22H3c-1.654,0-3-1.346-3-3V8c0-1.654,1.346-3,3-3h3.465l1.703-2.555C8.354,2.167,8.666,2,9,2h6
		c0.334,0,0.646,0.167,0.832,0.445L17.535,5H21c1.654,0,3,1.346,3,3v11C24,20.654,22.654,22,21,22z M3,7C2.449,7,2,7.449,2,8v11
		c0,0.552,0.449,1,1,1h18c0.552,0,1-0.448,1-1V8c0-0.551-0.448-1-1-1h-4c-0.334,0-0.646-0.167-0.832-0.445L14.465,4h-4.93
		L7.832,6.555C7.646,6.833,7.334,7,7,7H3z"/>
</g>
<g>
	<path d="M12,18c-2.757,0-5-2.243-5-5s2.243-5,5-5s5,2.243,5,5S14.757,18,12,18z M12,10c-1.654,0-3,1.346-3,3s1.346,3,3,3
		s3-1.346,3-3S13.654,10,12,10z"/>
</g>
</svg>
