<?xml version="1.0" encoding="iso-8859-1"?>
<!-- Generator: Adobe Illustrator 24.2.1, SVG Export Plug-In . SVG Version: 6.00 Build 0)  -->
<svg version="1.1" id="Camada_1" xmlns="http://www.w3.org/2000/svg" xmlns:xlink="http://www.w3.org/1999/xlink" x="0px" y="0px"
	 viewBox="0 0 24 24" style="enable-background:new 0 0 24 24;" xml:space="preserve">
<g>
	<path d="M5.899,21c-0.465,0-0.882-0.326-0.979-0.8c-0.321-1.574-1.545-2.799-3.12-3.121c-0.541-0.11-0.89-0.639-0.78-1.18
		c0.111-0.541,0.64-0.892,1.18-0.779c2.361,0.482,4.198,2.319,4.68,4.68c0.11,0.542-0.239,1.069-0.78,1.18
		C6.032,20.993,5.965,21,5.899,21z M9.949,21c-0.502,0-0.936-0.378-0.992-0.89c-0.417-3.744-3.323-6.65-7.067-7.066
		c-0.549-0.062-0.945-0.556-0.883-1.104c0.061-0.549,0.558-0.948,1.104-0.883c4.681,0.521,8.313,4.153,8.833,8.833
		c0.062,0.549-0.334,1.043-0.883,1.104C10.023,20.998,9.986,21,9.949,21z M20,21h-6c-0.553,0-1-0.447-1-1s0.447-1,1-1h6
		c0.552,0,1-0.448,1-1V6c0-0.551-0.448-1-1-1H4C3.449,5,3,5.449,3,6v2c0,0.552-0.448,1-1,1S1,8.552,1,8V6c0-1.654,1.346-3,3-3h16
		c1.654,0,3,1.346,3,3v12C23,19.654,21.654,21,20,21z"/>
</g>
<g>
	<path d="M2.01,21c-0.552,0-1.005-0.447-1.005-1S1.448,19,2,19h0.01c0.552,0,1,0.447,1,1S2.562,21,2.01,21z"/>
</g>
</svg>
