<?xml version="1.0" encoding="iso-8859-1"?>
<!-- Generator: Adobe Illustrator 24.2.1, SVG Export Plug-In . SVG Version: 6.00 Build 0)  -->
<svg version="1.1" id="Camada_1" xmlns="http://www.w3.org/2000/svg" xmlns:xlink="http://www.w3.org/1999/xlink" x="0px" y="0px"
	 viewBox="0 0 24 24" style="enable-background:new 0 0 24 24;" xml:space="preserve">
<g>
	<path d="M12,22.994c-0.002,0-0.004,0-0.006,0C5.929,22.991,0.997,18.054,1,11.988C1.003,5.925,5.938,0.994,12,0.994
		c0.002,0,0.004,0,0.006,0c1.55,0.001,3.055,0.321,4.471,0.952c0.504,0.225,0.731,0.816,0.506,1.32
		c-0.224,0.504-0.813,0.73-1.32,0.507c-1.158-0.516-2.39-0.778-3.658-0.779c-0.002,0-0.003,0-0.005,0c-4.961,0-8.998,4.034-9,8.995
		c-0.002,4.963,4.032,9.002,8.995,9.005c0.001,0,0.003,0,0.005,0c4.96,0,8.998-4.034,9-8.995V11.08c0-0.552,0.447-1,1-1s1,0.448,1,1
		V12C22.997,18.063,18.062,22.994,12,22.994z"/>
</g>
<g>
	<path d="M12,15.01c-0.265,0-0.52-0.105-0.707-0.293l-3-3c-0.391-0.391-0.391-1.023,0-1.414s1.023-0.391,1.414,0L12,12.595
		l9.293-9.302c0.391-0.392,1.023-0.391,1.414-0.001c0.391,0.391,0.391,1.023,0,1.414l-10,10.01C12.52,14.904,12.266,15.01,12,15.01z
		"/>
</g>
</svg>
