<?xml version="1.0" encoding="iso-8859-1"?>
<!-- Generator: Adobe Illustrator 24.2.1, SVG Export Plug-In . SVG Version: 6.00 Build 0)  -->
<svg version="1.1" id="Camada_1" xmlns="http://www.w3.org/2000/svg" xmlns:xlink="http://www.w3.org/1999/xlink" x="0px" y="0px"
	 viewBox="0 0 24 24" style="enable-background:new 0 0 24 24;" xml:space="preserve">
<g>
	<path d="M12,15c-0.256,0-0.512-0.098-0.707-0.293l-3-3c-0.391-0.391-0.391-1.023,0-1.414s1.023-0.391,1.414,0L12,12.586
		l9.293-9.293c0.391-0.391,1.023-0.391,1.414,0s0.391,1.023,0,1.414l-10,10C12.512,14.902,12.256,15,12,15z"/>
</g>
<g>
	<path d="M19,22H5c-1.654,0-3-1.346-3-3V5c0-1.654,1.346-3,3-3h11c0.553,0,1,0.448,1,1s-0.447,1-1,1H5C4.449,4,4,4.449,4,5v14
		c0,0.552,0.449,1,1,1h14c0.552,0,1-0.448,1-1v-7c0-0.552,0.447-1,1-1s1,0.448,1,1v7C22,20.654,20.654,22,19,22z"/>
</g>
</svg>
