<?xml version="1.0" encoding="iso-8859-1"?>
<!-- Generator: Adobe Illustrator 24.2.1, SVG Export Plug-In . SVG Version: 6.00 Build 0)  -->
<svg version="1.1" id="Camada_1" xmlns="http://www.w3.org/2000/svg" xmlns:xlink="http://www.w3.org/1999/xlink" x="0px" y="0px"
	 viewBox="0 0 24 24" style="enable-background:new 0 0 24 24;" xml:space="preserve">
<g>
	<path d="M13,18c-0.256,0-0.512-0.098-0.707-0.293c-0.391-0.391-0.391-1.023,0-1.414L16.586,12l-4.293-4.293
		c-0.391-0.391-0.391-1.023,0-1.414s1.023-0.391,1.414,0l5,5c0.391,0.391,0.391,1.023,0,1.414l-5,5C13.512,17.902,13.256,18,13,18z"
		/>
</g>
<g>
	<path d="M6,18c-0.256,0-0.512-0.098-0.707-0.293c-0.391-0.391-0.391-1.023,0-1.414L9.586,12L5.293,7.707
		c-0.391-0.391-0.391-1.023,0-1.414s1.023-0.391,1.414,0l5,5c0.391,0.391,0.391,1.023,0,1.414l-5,5C6.512,17.902,6.256,18,6,18z"/>
</g>
</svg>
