<?xml version="1.0" encoding="iso-8859-1"?>
<!-- Generator: Adobe Illustrator 24.2.1, SVG Export Plug-In . SVG Version: 6.00 Build 0)  -->
<svg version="1.1" id="Camada_1" xmlns="http://www.w3.org/2000/svg" xmlns:xlink="http://www.w3.org/1999/xlink" x="0px" y="0px"
	 viewBox="0 0 24 24" style="enable-background:new 0 0 24 24;" xml:space="preserve">
<g>
	<path d="M12,19c-0.256,0-0.512-0.098-0.707-0.293l-5-5c-0.391-0.391-0.391-1.023,0-1.414s1.023-0.391,1.414,0L12,16.586
		l4.293-4.293c0.391-0.391,1.023-0.391,1.414,0s0.391,1.023,0,1.414l-5,5C12.512,18.902,12.256,19,12,19z"/>
</g>
<g>
	<path d="M12,12c-0.256,0-0.512-0.098-0.707-0.293l-5-5c-0.391-0.391-0.391-1.023,0-1.414s1.023-0.391,1.414,0L12,9.586l4.293-4.293
		c0.391-0.391,1.023-0.391,1.414,0s0.391,1.023,0,1.414l-5,5C12.512,11.902,12.256,12,12,12z"/>
</g>
</svg>
