<svg width="22" height="22" viewBox="0 0 22 22" fill="none" xmlns="http://www.w3.org/2000/svg">
<path fill-rule="evenodd" clip-rule="evenodd" d="M11 2C8.26171 2 5.80904 3.2229 4.15835 5.15237L6.40173 9.03308C7.16565 7.24953 8.9369 6 11 6H18.4845C16.8699 3.58803 14.1204 2 11 2ZM0 11C0 8.58716 0.776855 6.35576 2.09409 4.54229C2.12593 4.48954 2.16283 4.43947 2.20457 4.39285C4.21175 1.72514 7.40441 0 11 0C15.4881 0 19.3484 2.68785 21.059 6.54165C21.0787 6.57978 21.096 6.61934 21.1108 6.66014C21.683 7.99165 22 9.45881 22 11C22 17.0751 17.0751 22 11 22C10.6073 22 10.2193 21.9794 9.83721 21.9393C9.79179 21.9374 9.74629 21.9323 9.70106 21.9241C4.23811 21.2815 0 16.6357 0 11ZM11.5876 19.9811C16.2843 19.6785 20 15.7732 20 11C20 9.94809 19.8195 8.93834 19.4879 8H15.0004C15.6281 8.83566 16 9.87439 16 11C16 11.9831 15.7162 12.9 15.2262 13.6732L11.5876 19.9811ZM11.5954 15.9649L9.3544 19.8499C5.16969 19.0767 2 15.4085 2 11C2 9.57027 2.33338 8.2184 2.92665 7.0179L6.56842 13.3176C7.40403 14.9121 9.07497 16 11 16C11.2015 16 11.4001 15.9881 11.5954 15.9649ZM13.6363 12.4329C13.6214 12.4546 13.6072 12.4771 13.5938 12.5003L13.5195 12.6293C12.9849 13.4542 12.0562 14 11 14C9.91763 14 8.96914 13.4268 8.44152 12.5674C8.43051 12.5445 8.41855 12.5219 8.40562 12.4995L8.32738 12.3642C8.11807 11.9549 8 11.4912 8 11C8 9.34315 9.34315 8 11 8C12.6569 8 14 9.34315 14 11C14 11.519 13.8682 12.0071 13.6363 12.4329Z" fill="black"/>
</svg>
