<?xml version="1.0" encoding="iso-8859-1"?>
<!-- Generator: Adobe Illustrator 24.2.1, SVG Export Plug-In . SVG Version: 6.00 Build 0)  -->
<svg version="1.1" id="Camada_1" xmlns="http://www.w3.org/2000/svg" xmlns:xlink="http://www.w3.org/1999/xlink" x="0px" y="0px"
	 viewBox="0 0 24 24" style="enable-background:new 0 0 24 24;" xml:space="preserve">
<g>
	<path d="M12,23C5.935,23,1,18.065,1,12S5.935,1,12,1s11,4.935,11,11S18.065,23,12,23z M12,3c-4.962,0-9,4.038-9,9
		c0,4.963,4.038,9,9,9c4.963,0,9-4.037,9-9C21,7.038,16.963,3,12,3z"/>
</g>
<g>
	<path d="M12,17c-2.757,0-5-2.243-5-5s2.243-5,5-5s5,2.243,5,5S14.757,17,12,17z M12,9c-1.654,0-3,1.346-3,3s1.346,3,3,3
		s3-1.346,3-3S13.654,9,12,9z"/>
</g>
<g>
	<path d="M21.17,9H12c-0.552,0-1-0.448-1-1s0.448-1,1-1h9.17c0.553,0,1,0.448,1,1S21.723,9,21.17,9z"/>
</g>
<g>
	<path d="M8.541,15c-0.346,0-0.682-0.179-0.867-0.5l-4.59-7.939C2.808,6.083,2.972,5.471,3.45,5.194
		C3.927,4.917,4.54,5.082,4.816,5.56l4.59,7.94c0.276,0.478,0.113,1.089-0.365,1.366C8.883,14.957,8.711,15,8.541,15z"/>
</g>
<g>
	<path d="M10.879,22.94c-0.169,0-0.341-0.043-0.499-0.134c-0.479-0.276-0.643-0.888-0.367-1.366l4.58-7.94
		c0.276-0.479,0.886-0.643,1.366-0.366c0.479,0.276,0.643,0.888,0.366,1.366l-4.58,7.94C11.561,22.761,11.225,22.94,10.879,22.94z"
		/>
</g>
</svg>
