<?xml version="1.0" encoding="iso-8859-1"?>
<!-- Generator: Adobe Illustrator 24.2.1, SVG Export Plug-In . SVG Version: 6.00 Build 0)  -->
<svg version="1.1" id="Camada_1" xmlns="http://www.w3.org/2000/svg" xmlns:xlink="http://www.w3.org/1999/xlink" x="0px" y="0px"
	 viewBox="0 0 24 24" style="enable-background:new 0 0 24 24;" xml:space="preserve">
<g>
	<path d="M18,23H6c-1.654,0-3-1.346-3-3V6c0-1.654,1.346-3,3-3h2c0.552,0,1,0.448,1,1S8.552,5,8,5H6C5.449,5,5,5.449,5,6v14
		c0,0.552,0.449,1,1,1h12c0.552,0,1-0.448,1-1V6c0-0.551-0.448-1-1-1h-2c-0.553,0-1-0.448-1-1s0.447-1,1-1h2c1.654,0,3,1.346,3,3v14
		C21,21.654,19.654,23,18,23z"/>
</g>
<g>
	<path d="M15,7H9C7.897,7,7,6.103,7,5V3c0-1.103,0.897-2,2-2h6c1.103,0,2,0.897,2,2v2C17,6.103,16.103,7,15,7z M9,3H8.999L9,5h6V3H9
		z"/>
</g>
</svg>
