<?xml version="1.0" encoding="iso-8859-1"?>
<!-- Generator: Adobe Illustrator 24.2.1, SVG Export Plug-In . SVG Version: 6.00 Build 0)  -->
<svg version="1.1" id="Camada_1" xmlns="http://www.w3.org/2000/svg" xmlns:xlink="http://www.w3.org/1999/xlink" x="0px" y="0px"
	 viewBox="0 0 24 24" style="enable-background:new 0 0 24 24;" xml:space="preserve">
<g>
	<path d="M12,23C5.935,23,1,18.065,1,12S5.935,1,12,1s11,4.935,11,11S18.065,23,12,23z M12,3c-4.962,0-9,4.038-9,9
		c0,4.963,4.038,9,9,9c4.963,0,9-4.037,9-9C21,7.038,16.963,3,12,3z"/>
</g>
<g>
	<path d="M15.999,15c-0.15,0-0.303-0.034-0.446-0.105l-4-2C11.214,12.725,11,12.379,11,12V6c0-0.552,0.448-1,1-1s1,0.448,1,1v5.382
		l3.447,1.724c0.494,0.247,0.694,0.848,0.447,1.342C16.719,14.798,16.366,15,15.999,15z"/>
</g>
</svg>
