<?xml version="1.0" encoding="iso-8859-1"?>
<!-- Generator: Adobe Illustrator 24.2.1, SVG Export Plug-In . SVG Version: 6.00 Build 0)  -->
<svg version="1.1" id="Camada_1" xmlns="http://www.w3.org/2000/svg" xmlns:xlink="http://www.w3.org/1999/xlink" x="0px" y="0px"
	 viewBox="0 0 24 24" style="enable-background:new 0 0 24 24;" xml:space="preserve">
<g>
	<path d="M20.001,18.58c-0.386,0-0.753-0.224-0.917-0.599c-0.222-0.506,0.009-1.096,0.515-1.317
		c0.979-0.429,1.731-1.213,2.121-2.208c0.389-0.995,0.367-2.082-0.062-3.061C21.021,9.942,19.585,9.002,17.999,9H16.74
		c-0.456,0-0.854-0.309-0.968-0.75c-0.966-3.736-4.792-5.992-8.529-5.027C3.507,4.188,1.251,8.013,2.216,11.75
		c0.376,1.458,1.231,2.779,2.408,3.718c0.432,0.345,0.502,0.974,0.157,1.405c-0.345,0.432-0.975,0.501-1.405,0.157
		c-1.513-1.208-2.612-2.906-3.096-4.781C-0.961,7.445,1.939,2.527,6.744,1.286C11.295,0.112,15.945,2.648,17.479,7H18
		c2.381,0.003,4.535,1.413,5.49,3.593c0.643,1.468,0.676,3.099,0.092,4.592c-0.583,1.492-1.713,2.669-3.181,3.312
		C20.271,18.554,20.135,18.58,20.001,18.58z"/>
</g>
<g>
	<path d="M8.01,17c-0.552,0-1.005-0.447-1.005-1S7.448,15,8,15h0.01c0.552,0,1,0.447,1,1S8.562,17,8.01,17z"/>
</g>
<g>
	<path d="M8.01,21c-0.552,0-1.005-0.447-1.005-1S7.448,19,8,19h0.01c0.552,0,1,0.447,1,1S8.562,21,8.01,21z"/>
</g>
<g>
	<path d="M12.01,19c-0.552,0-1.005-0.447-1.005-1s0.443-1,0.995-1h0.01c0.552,0,1,0.447,1,1S12.562,19,12.01,19z"/>
</g>
<g>
	<path d="M12.01,23c-0.552,0-1.005-0.447-1.005-1s0.443-1,0.995-1h0.01c0.552,0,1,0.447,1,1S12.562,23,12.01,23z"/>
</g>
<g>
	<path d="M16.01,17c-0.553,0-1.005-0.447-1.005-1s0.442-1,0.995-1h0.01c0.553,0,1,0.447,1,1S16.562,17,16.01,17z"/>
</g>
<g>
	<path d="M16.01,21c-0.553,0-1.005-0.447-1.005-1s0.442-1,0.995-1h0.01c0.553,0,1,0.447,1,1S16.562,21,16.01,21z"/>
</g>
</svg>
