<?xml version="1.0" encoding="iso-8859-1"?>
<!-- Generator: Adobe Illustrator 24.2.1, SVG Export Plug-In . SVG Version: 6.00 Build 0)  -->
<svg version="1.1" id="Camada_1" xmlns="http://www.w3.org/2000/svg" xmlns:xlink="http://www.w3.org/1999/xlink" x="0px" y="0px"
	 viewBox="0 0 24 24" style="enable-background:new 0 0 24 24;" xml:space="preserve">
<g>
	<path d="M8.854,21.001c-3.261,0-6.269-1.77-7.858-4.645c-1.164-2.104-1.438-4.535-0.773-6.845s2.19-4.223,4.294-5.386
		C5,3.858,5.608,4.033,5.875,4.516C6.143,5,5.967,5.608,5.484,5.875c-1.636,0.905-2.822,2.393-3.34,4.189
		c-0.517,1.797-0.304,3.688,0.601,5.323C4,17.658,6.37,19.07,8.984,19H18c0.464-0.001,0.922-0.082,1.359-0.24
		c0.523-0.188,1.093,0.081,1.281,0.6c0.188,0.52-0.081,1.093-0.6,1.281c-0.656,0.237-1.342,0.358-2.039,0.359H9
		C8.951,21.001,8.902,21.001,8.854,21.001z M22.61,17.95c-0.131,0-0.263-0.025-0.39-0.079c-0.509-0.215-0.746-0.802-0.531-1.311
		c0.859-2.031-0.093-4.384-2.123-5.244C19.069,11.106,18.545,11,18.008,11c-0.003,0-0.004,0-0.007,0H16.74
		c-0.457,0-0.856-0.311-0.969-0.754c-0.731-2.878-3.211-4.988-6.169-5.25c-0.55-0.049-0.957-0.534-0.908-1.084
		c0.049-0.55,0.533-0.954,1.084-0.908C13.318,3.317,16.325,5.688,17.482,9H18c0.793-0.045,1.599,0.158,2.346,0.475
		c3.046,1.29,4.475,4.818,3.186,7.865C23.37,17.722,22.999,17.95,22.61,17.95z"/>
</g>
<g>
	<path d="M23,24c-0.256,0-0.512-0.098-0.707-0.293l-22-22c-0.391-0.391-0.391-1.023,0-1.414s1.023-0.391,1.414,0l22,22
		c0.391,0.391,0.391,1.023,0,1.414C23.512,23.902,23.256,24,23,24z"/>
</g>
</svg>
