<?xml version="1.0" encoding="iso-8859-1"?>
<!-- Generator: Adobe Illustrator 24.2.1, SVG Export Plug-In . SVG Version: 6.00 Build 0)  -->
<svg version="1.1" id="Camada_1" xmlns="http://www.w3.org/2000/svg" xmlns:xlink="http://www.w3.org/1999/xlink" x="0px" y="0px"
	 viewBox="0 0 24 24" style="enable-background:new 0 0 24 24;" xml:space="preserve">
<g>
	<path d="M8.993,21c-4.104,0-7.687-2.774-8.713-6.75c-0.601-2.328-0.26-4.75,0.961-6.821c1.221-2.071,3.175-3.542,5.503-4.144
		c2.327-0.602,4.75-0.259,6.821,0.961C15.409,5.334,16.778,7.003,17.48,9H18c3.309,0,6,2.691,6,6s-2.691,6-6,6H9
		C8.998,21,8.995,21,8.993,21z M8.993,4.999c-0.578,0-1.165,0.072-1.749,0.223c-1.811,0.467-3.331,1.612-4.28,3.223
		s-1.215,3.495-0.748,5.305C3.015,16.842,5.801,19,8.994,19c0.002,0,0.003,0,0.005,0H18c2.206,0,4-1.794,4-4c0-2.206-1.794-4-4-4
		h-1.26c-0.456,0-0.854-0.309-0.968-0.75C14.958,7.097,12.108,4.999,8.993,4.999z"/>
</g>
</svg>
