<?xml version="1.0" encoding="iso-8859-1"?>
<!-- Generator: Adobe Illustrator 24.2.1, SVG Export Plug-In . SVG Version: 6.00 Build 0)  -->
<svg version="1.1" id="Camada_1" xmlns="http://www.w3.org/2000/svg" xmlns:xlink="http://www.w3.org/1999/xlink" x="0px" y="0px"
	 viewBox="0 0 24 24" style="enable-background:new 0 0 24 24;" xml:space="preserve">
<g>
	<path d="M18.999,17.9c-0.466,0-0.883-0.327-0.979-0.801c-0.109-0.541,0.24-1.069,0.781-1.179c2.161-0.439,3.562-2.556,3.124-4.717
		C21.548,9.347,19.899,8,18.005,8c-0.001,0-0.003,0-0.004,0H16.74c-0.456,0-0.854-0.309-0.968-0.75
		c-0.967-3.737-4.792-5.991-8.529-5.027c-1.81,0.468-3.33,1.612-4.28,3.223c-0.949,1.611-1.215,3.495-0.747,5.305
		c0.479,1.853,1.713,3.448,3.387,4.374c0.483,0.268,0.659,0.876,0.391,1.359c-0.267,0.481-0.875,0.66-1.359,0.391
		c-2.153-1.191-3.741-3.24-4.356-5.624c-0.601-2.328-0.26-4.75,0.961-6.821c1.221-2.071,3.175-3.543,5.502-4.144
		C11.292-0.89,15.944,1.648,17.479,6H18c0.002,0,0.004,0,0.006,0c2.842,0,5.313,2.02,5.88,4.806
		c0.657,3.242-1.445,6.416-4.687,7.074C19.132,17.894,19.064,17.9,18.999,17.9z"/>
</g>
<g>
	<path d="M10.999,24c-0.19,0-0.383-0.055-0.554-0.168c-0.459-0.307-0.583-0.927-0.277-1.387L13.132,18H9
		c-0.369,0-0.708-0.203-0.882-0.528c-0.174-0.325-0.155-0.72,0.05-1.026l4-6c0.306-0.46,0.925-0.584,1.387-0.277
		c0.46,0.306,0.584,0.927,0.277,1.387L10.869,16H15c0.369,0,0.708,0.203,0.882,0.528s0.154,0.72-0.05,1.026l-4,6
		C11.639,23.844,11.322,24,10.999,24z"/>
</g>
</svg>
