<?xml version="1.0" encoding="iso-8859-1"?>
<!-- Generator: Adobe Illustrator 24.2.1, SVG Export Plug-In . SVG Version: 6.00 Build 0)  -->
<svg version="1.1" id="Camada_1" xmlns="http://www.w3.org/2000/svg" xmlns:xlink="http://www.w3.org/1999/xlink" x="0px" y="0px"
	 viewBox="0 0 24 24" style="enable-background:new 0 0 24 24;" xml:space="preserve">
<g>
	<path d="M16,19c-0.256,0-0.512-0.098-0.707-0.293c-0.391-0.391-0.391-1.023,0-1.414L20.586,12l-5.293-5.293
		c-0.391-0.391-0.391-1.023,0-1.414s1.023-0.391,1.414,0l6,6c0.391,0.391,0.391,1.023,0,1.414l-6,6C16.512,18.902,16.256,19,16,19z"
		/>
</g>
<g>
	<path d="M8,19c-0.256,0-0.512-0.098-0.707-0.293l-6-6c-0.391-0.391-0.391-1.023,0-1.414l6-6c0.391-0.391,1.023-0.391,1.414,0
		s0.391,1.023,0,1.414L3.414,12l5.293,5.293c0.391,0.391,0.391,1.023,0,1.414C8.512,18.902,8.256,19,8,19z"/>
</g>
</svg>
