<?xml version="1.0" encoding="iso-8859-1"?>
<!-- Generator: Adobe Illustrator 24.2.1, SVG Export Plug-In . SVG Version: 6.00 Build 0)  -->
<svg version="1.1" id="Camada_1" xmlns="http://www.w3.org/2000/svg" xmlns:xlink="http://www.w3.org/1999/xlink" x="0px" y="0px"
	 viewBox="0 0 24 24" style="enable-background:new 0 0 24 24;" xml:space="preserve">
<g>
	<path d="M12.001,22.997c-0.519,0-1.038-0.134-1.5-0.4l-6.997-3.998C2.576,18.062,2.001,17.068,2,16.001V8
		c0-1.068,0.576-2.062,1.5-2.596l7.004-4.002c0.92-0.533,2.07-0.532,2.996,0.002l6.996,3.998c0.928,0.536,1.503,1.53,1.504,2.597V16
		v0.001c-0.001,1.067-0.576,2.062-1.499,2.595l-7.005,4.003C13.036,22.864,12.519,22.997,12.001,22.997z M11.999,3.002
		c-0.173,0-0.345,0.045-0.499,0.133L4.496,7.138C4.192,7.314,4,7.646,4,8v8c0,0.354,0.192,0.687,0.5,0.865l6.996,3.997
		c0.311,0.179,0.694,0.18,1.005,0.002l7.003-4.002c0.304-0.176,0.495-0.508,0.496-0.863V8c-0.001-0.354-0.192-0.686-0.5-0.864
		l-6.996-3.998C12.347,3.048,12.173,3.002,11.999,3.002z M21,16h0.01H21z"/>
</g>
<g>
	<path d="M12,7.81c-0.173,0-0.346-0.045-0.5-0.134L7,5.076C6.521,4.799,6.358,4.188,6.634,3.709C6.91,3.231,7.521,3.066,8,3.344
		l4,2.311l4-2.311c0.477-0.278,1.089-0.113,1.366,0.365c0.276,0.479,0.112,1.09-0.366,1.366l-4.5,2.6
		C12.346,7.765,12.173,7.81,12,7.81z"/>
</g>
<g>
	<path d="M7.5,20.79c-0.552,0-1-0.447-1-1v-4.613l-4-2.311C2.021,12.59,1.858,11.978,2.134,11.5
		c0.276-0.479,0.887-0.643,1.366-0.366L8,13.733c0.31,0.179,0.5,0.509,0.5,0.866v5.19C8.5,20.343,8.052,20.79,7.5,20.79z"/>
</g>
<g>
	<path d="M16.5,20.79c-0.553,0-1-0.447-1-1V14.6c0-0.357,0.19-0.688,0.5-0.866l4.5-2.599c0.477-0.277,1.089-0.113,1.366,0.366
		c0.276,0.478,0.112,1.09-0.366,1.366l-4,2.311v4.613C17.5,20.343,17.053,20.79,16.5,20.79z"/>
</g>
<g>
	<path d="M12,13.01c-0.173,0-0.346-0.045-0.5-0.134l-8.73-5.05C2.291,7.549,2.128,6.938,2.404,6.459
		c0.277-0.479,0.89-0.642,1.366-0.365L12,10.854l8.229-4.76c0.479-0.278,1.091-0.113,1.366,0.365
		c0.277,0.478,0.113,1.089-0.364,1.366l-8.731,5.05C12.346,12.965,12.173,13.01,12,13.01z"/>
</g>
<g>
	<path d="M12,23.08c-0.552,0-1-0.447-1-1V12c0-0.552,0.448-1,1-1s1,0.448,1,1v10.08C13,22.633,12.552,23.08,12,23.08z"/>
</g>
</svg>
