<?xml version="1.0" encoding="iso-8859-1"?>
<!-- Generator: Adobe Illustrator 24.2.1, SVG Export Plug-In . SVG Version: 6.00 Build 0)  -->
<svg version="1.1" id="Camada_1" xmlns="http://www.w3.org/2000/svg" xmlns:xlink="http://www.w3.org/1999/xlink" x="0px" y="0px"
	 viewBox="0 0 24 24" style="enable-background:new 0 0 24 24;" xml:space="preserve">
<g>
	<path d="M12,23c-0.189,0-0.379-0.054-0.545-0.161l-10-6.5C1.171,16.154,1,15.839,1,15.5v-7c0-0.338,0.171-0.654,0.455-0.838l10-6.5
		c0.331-0.216,0.759-0.216,1.09,0l10,6.5C22.829,7.846,23,8.162,23,8.5v7c0,0.339-0.171,0.654-0.455,0.839l-10,6.5
		C12.379,22.946,12.189,23,12,23z M3,14.957l9,5.851l9-5.851V9.042l-9-5.85l-9,5.85V14.957z"/>
</g>
<g>
	<path d="M12,23c-0.552,0-1-0.447-1-1v-6.5c0-0.553,0.448-1,1-1s1,0.447,1,1V22C13,22.553,12.552,23,12,23z"/>
</g>
<g>
	<path d="M12,16.5c-0.201,0-0.401-0.061-0.573-0.181l-10-7c-0.453-0.317-0.562-0.94-0.246-1.393c0.317-0.452,0.94-0.562,1.393-0.246
		L12,14.279l9.427-6.599c0.45-0.316,1.076-0.207,1.393,0.246c0.316,0.452,0.207,1.076-0.246,1.393l-10,7
		C12.401,16.439,12.201,16.5,12,16.5z"/>
</g>
<g>
	<path d="M21.999,16.5c-0.198,0-0.397-0.059-0.572-0.181L12,9.721l-9.427,6.599c-0.452,0.318-1.075,0.207-1.393-0.246
		c-0.316-0.452-0.207-1.076,0.246-1.393l10-7c0.344-0.241,0.803-0.241,1.146,0l10,7c0.453,0.316,0.562,0.94,0.246,1.393
		C22.625,16.352,22.314,16.5,21.999,16.5z"/>
</g>
<g>
	<path d="M12,9.5c-0.552,0-1-0.448-1-1V2c0-0.552,0.448-1,1-1s1,0.448,1,1v6.5C13,9.052,12.552,9.5,12,9.5z"/>
</g>
</svg>
