<svg width="22" height="22" viewBox="0 0 22 22" fill="none" xmlns="http://www.w3.org/2000/svg">
<path fill-rule="evenodd" clip-rule="evenodd" d="M0.471381 6.65092C0.391924 6.70034 0.318511 6.76157 0.253937 6.8341C0.312301 6.7687 0.379692 6.71051 0.455012 6.66156L0.471381 6.65092ZM0.122515 7.0204C0.0399033 7.17111 -2.74627e-05 7.33589 2.28971e-07 7.49932C0.000115078 7.3293 0.0434317 7.16509 0.122515 7.0204ZM2 12.5794L4.25627 11L2 9.42062V8.04269L2.78769 7.53069L6.00007 9.77936L10.4266 6.68077C10.7709 6.43974 11.2292 6.43974 11.5735 6.68077L16.0001 9.77936L19.2124 7.53075L20 8.04269V9.42074L17.7439 11L20 12.5793V13.9573L19.2124 14.4693L16.0001 12.2207L11.5735 15.3193C11.2292 15.5603 10.7709 15.5603 10.4266 15.3193L6.00007 12.2207L2.78771 14.4693L2 13.9573V12.5794ZM0.245041 15.1558C0.222481 15.1298 0.201044 15.1023 0.180854 15.0735C0.161473 15.0458 0.143691 15.0174 0.127487 14.9886C0.045142 14.8415 0 14.6738 0 14.5M0.245041 15.1558C0.30542 15.2253 0.375834 15.287 0.455012 15.3384L0.472243 15.3496M21.5245 15.3518C21.6375 15.2823 21.7384 15.189 21.8193 15.0735C21.9453 14.8935 22.0038 14.6864 22 14.4823V14.5C22 14.8385 21.8288 15.154 21.545 15.3384L21.5245 15.3518ZM22 7.51769C22.0038 7.31363 21.9453 7.10656 21.8193 6.92656C21.7386 6.81122 21.6379 6.71813 21.5252 6.64869L21.545 6.66156C21.8288 6.84602 22 7.16152 22 7.5V7.51769ZM11.0001 13.2794L7.74386 11L11.0001 8.72066L14.2563 11L11.0001 13.2794Z" fill="black"/>
<path fill-rule="evenodd" clip-rule="evenodd" d="M11 0C10.8104 0 10.6207 0.0538521 10.455 0.161556L10.443 0.169385C10.6022 0.0624153 10.7938 0 11 0ZM11.557 0.169384L11.545 0.161556C11.3793 0.0538521 11.1896 0 11 0C11.2062 0 11.3978 0.0624151 11.557 0.169384ZM12 2.84269L11 2.19269L10 2.84269V6.9794L10.4266 6.68077C10.7709 6.43974 11.2292 6.43974 11.5735 6.68077L12 6.97928V2.84269Z" fill="black"/>
<path fill-rule="evenodd" clip-rule="evenodd" d="M10.4425 21.8303C10.6018 21.9375 10.7936 22 11 22C11.2064 22 11.3982 21.9375 11.5575 21.8303L11.545 21.8384C11.2136 22.0539 10.7864 22.0539 10.455 21.8384L10.4425 21.8303ZM10 19.1573V15.0206L10.4266 15.3193C10.7709 15.5603 11.2292 15.5603 11.5735 15.3193L12 15.0208V19.1573L11 19.8073L10 19.1573Z" fill="black"/>
<path fill-rule="evenodd" clip-rule="evenodd" d="M10.455 0.161556C10.7864 -0.0538521 11.2136 -0.0538521 11.545 0.161556L21.545 6.66156C21.8288 6.84602 22 7.16152 22 7.5V14.5C22 14.8385 21.8288 15.154 21.545 15.3384L11.545 21.8384C11.2136 22.0539 10.7864 22.0539 10.455 21.8384L0.455012 15.3384C0.171219 15.154 0 14.8385 0 14.5V7.5C0 7.16152 0.171219 6.84602 0.455012 6.66156L10.455 0.161556ZM2 8.04269V13.9573L11 19.8073L20 13.9573V8.04269L11 2.19269L2 8.04269Z" fill="black"/>
</svg>
