<?xml version="1.0" encoding="iso-8859-1"?>
<!-- Generator: Adobe Illustrator 24.2.1, SVG Export Plug-In . SVG Version: 6.00 Build 0)  -->
<svg version="1.1" id="Camada_1" xmlns="http://www.w3.org/2000/svg" xmlns:xlink="http://www.w3.org/1999/xlink" x="0px" y="0px"
	 viewBox="0 0 24 24" style="enable-background:new 0 0 24 24;" xml:space="preserve">
<g>
	<path d="M19,17h-1c-0.553,0-1-0.447-1-1s0.447-1,1-1h1c1.654,0,3-1.346,3-3s-1.346-3-3-3h-1c-0.553,0-1-0.448-1-1s0.447-1,1-1h1
		c2.757,0,5,2.243,5,5S21.757,17,19,17z"/>
</g>
<g>
	<path d="M14,22H6c-2.757,0-5-2.243-5-5V8c0-0.552,0.448-1,1-1h16c0.553,0,1,0.448,1,1v9C19,19.757,16.757,22,14,22z M3,9v8
		c0,1.654,1.346,3,3,3h8c1.654,0,3-1.346,3-3V9H3z"/>
</g>
<g>
	<path d="M6,5C5.448,5,5,4.552,5,4V1c0-0.552,0.448-1,1-1s1,0.448,1,1v3C7,4.552,6.552,5,6,5z"/>
</g>
<g>
	<path d="M10,5C9.448,5,9,4.552,9,4V1c0-0.552,0.448-1,1-1s1,0.448,1,1v3C11,4.552,10.552,5,10,5z"/>
</g>
<g>
	<path d="M14,5c-0.553,0-1-0.448-1-1V1c0-0.552,0.447-1,1-1s1,0.448,1,1v3C15,4.552,14.553,5,14,5z"/>
</g>
</svg>
