<?xml version="1.0" encoding="iso-8859-1"?>
<!-- Generator: Adobe Illustrator 24.2.1, SVG Export Plug-In . SVG Version: 6.00 Build 0)  -->
<svg version="1.1" id="Camada_1" xmlns="http://www.w3.org/2000/svg" xmlns:xlink="http://www.w3.org/1999/xlink" x="0px" y="0px"
	 viewBox="0 0 24 24" style="enable-background:new 0 0 24 24;" xml:space="preserve">
<g>
	<path d="M19,22H5c-1.654,0-3-1.346-3-3V5c0-1.654,1.346-3,3-3h14c1.654,0,3,1.346,3,3v14C22,20.654,20.654,22,19,22z M13,20h6
		c0.552,0,1-0.448,1-1V5c0-0.551-0.448-1-1-1h-6V20z M5,4C4.449,4,4,4.449,4,5v14c0,0.552,0.449,1,1,1h6V4H5z"/>
</g>
</svg>
