<?xml version="1.0" encoding="iso-8859-1"?>
<!-- Generator: Adobe Illustrator 24.2.1, SVG Export Plug-In . SVG Version: 6.00 Build 0)  -->
<svg version="1.1" id="Camada_1" xmlns="http://www.w3.org/2000/svg" xmlns:xlink="http://www.w3.org/1999/xlink" x="0px" y="0px"
	 viewBox="0 0 24 24" style="enable-background:new 0 0 24 24;" xml:space="preserve">
<g>
	<path d="M18,22c-2.206,0-4-1.794-4-4v-2h-4v2c0,2.206-1.794,4-4,4s-4-1.794-4-4s1.794-4,4-4h2v-4H6c-2.206,0-4-1.794-4-4
		s1.794-4,4-4s4,1.794,4,4v2h4V6c0-2.206,1.794-4,4-4s4,1.794,4,4s-1.794,4-4,4h-2v4h2c2.206,0,4,1.794,4,4S20.206,22,18,22z M16,16
		v2c0,1.103,0.897,2,2,2s2-0.897,2-2s-0.897-2-2-2H16z M6,16c-1.103,0-2,0.897-2,2s0.897,2,2,2s2-0.897,2-2v-2H6z M10,14h4v-4h-4V14
		z M16,8h2c1.103,0,2-0.897,2-2s-0.897-2-2-2s-2,0.897-2,2V8z M6,4C4.897,4,4,4.897,4,6s0.897,2,2,2h2V6C8,4.897,7.103,4,6,4z"/>
</g>
</svg>
