<?xml version="1.0" encoding="iso-8859-1"?>
<!-- Generator: Adobe Illustrator 24.2.1, SVG Export Plug-In . SVG Version: 6.00 Build 0)  -->
<svg version="1.1" id="Camada_1" xmlns="http://www.w3.org/2000/svg" xmlns:xlink="http://www.w3.org/1999/xlink" x="0px" y="0px"
	 viewBox="0 0 24 24" style="enable-background:new 0 0 24 24;" xml:space="preserve">
<g>
	<path d="M12,23C5.935,23,1,18.065,1,12S5.935,1,12,1s11,4.935,11,11S18.065,23,12,23z M12,3c-4.962,0-9,4.038-9,9
		c0,4.963,4.038,9,9,9c4.963,0,9-4.037,9-9C21,7.038,16.963,3,12,3z"/>
</g>
<g>
	<path d="M7.76,17.24c-0.261,0-0.517-0.103-0.707-0.293c-0.268-0.268-0.361-0.664-0.242-1.023l2.12-6.36
		c0.1-0.298,0.334-0.533,0.632-0.632l6.36-2.12c0.36-0.12,0.756-0.026,1.023,0.242c0.268,0.268,0.361,0.664,0.241,1.023l-2.12,6.36
		c-0.099,0.299-0.333,0.533-0.632,0.632l-6.36,2.12C7.972,17.224,7.866,17.24,7.76,17.24z M10.67,10.67l-1.33,3.989l3.988-1.33
		l1.33-3.988L10.67,10.67z"/>
</g>
</svg>
