<?xml version="1.0" encoding="iso-8859-1"?>
<!-- Generator: Adobe Illustrator 24.2.1, SVG Export Plug-In . SVG Version: 6.00 Build 0)  -->
<svg version="1.1" id="Camada_1" xmlns="http://www.w3.org/2000/svg" xmlns:xlink="http://www.w3.org/1999/xlink" x="0px" y="0px"
	 viewBox="0 0 24 24" style="enable-background:new 0 0 24 24;" xml:space="preserve">
<g>
	<path d="M20,23h-9c-1.654,0-3-1.346-3-3v-9c0-1.654,1.346-3,3-3h9c1.654,0,3,1.346,3,3v9C23,21.654,21.654,23,20,23z M11,10
		c-0.551,0-1,0.449-1,1v9c0,0.552,0.449,1,1,1h9c0.552,0,1-0.448,1-1v-9c0-0.551-0.448-1-1-1H11z"/>
</g>
<g>
	<path d="M5,16H4c-1.654,0-3-1.346-3-3V4c0-1.654,1.346-3,3-3h9c1.654,0,3,1.346,3,3v1c0,0.552-0.447,1-1,1s-1-0.448-1-1V4
		c0-0.551-0.448-1-1-1H4C3.449,3,3,3.449,3,4v9c0,0.552,0.449,1,1,1h1c0.552,0,1,0.447,1,1S5.552,16,5,16z"/>
</g>
</svg>
