<?xml version="1.0" encoding="iso-8859-1"?>
<!-- Generator: Adobe Illustrator 24.2.1, SVG Export Plug-In . SVG Version: 6.00 Build 0)  -->
<svg version="1.1" id="Camada_1" xmlns="http://www.w3.org/2000/svg" xmlns:xlink="http://www.w3.org/1999/xlink" x="0px" y="0px"
	 viewBox="0 0 24 24" style="enable-background:new 0 0 24 24;" xml:space="preserve">
<g>
	<path d="M15,21c-0.256,0-0.512-0.098-0.707-0.293l-5-5c-0.391-0.391-0.391-1.023,0-1.414s1.023-0.391,1.414,0L15,18.586
		l4.293-4.293c0.391-0.391,1.023-0.391,1.414,0s0.391,1.023,0,1.414l-5,5C15.512,20.902,15.256,21,15,21z"/>
</g>
<g>
	<path d="M15,21c-0.553,0-1-0.447-1-1V8c0-1.654-1.346-3-3-3H4C3.448,5,3,4.552,3,4s0.448-1,1-1h7c2.757,0,5,2.243,5,5v12
		C16,20.553,15.553,21,15,21z"/>
</g>
</svg>
