<?xml version="1.0" encoding="iso-8859-1"?>
<!-- Generator: Adobe Illustrator 24.2.1, SVG Export Plug-In . SVG Version: 6.00 Build 0)  -->
<svg version="1.1" id="Camada_1" xmlns="http://www.w3.org/2000/svg" xmlns:xlink="http://www.w3.org/1999/xlink" x="0px" y="0px"
	 viewBox="0 0 24 24" style="enable-background:new 0 0 24 24;" xml:space="preserve">
<g>
	<path d="M9,21c-0.256,0-0.512-0.098-0.707-0.293l-5-5c-0.391-0.391-0.391-1.023,0-1.414s1.023-0.391,1.414,0L9,18.586l4.293-4.293
		c0.391-0.391,1.023-0.391,1.414,0s0.391,1.023,0,1.414l-5,5C9.512,20.902,9.256,21,9,21z"/>
</g>
<g>
	<path d="M9,21c-0.552,0-1-0.447-1-1V8c0-2.757,2.243-5,5-5h7c0.553,0,1,0.448,1,1s-0.447,1-1,1h-7c-1.654,0-3,1.346-3,3v12
		C10,20.553,9.552,21,9,21z"/>
</g>
</svg>
