<?xml version="1.0" encoding="iso-8859-1"?>
<!-- Generator: Adobe Illustrator 24.2.1, SVG Export Plug-In . SVG Version: 6.00 Build 0)  -->
<svg version="1.1" id="Camada_1" xmlns="http://www.w3.org/2000/svg" xmlns:xlink="http://www.w3.org/1999/xlink" x="0px" y="0px"
	 viewBox="0 0 24 24" style="enable-background:new 0 0 24 24;" xml:space="preserve">
<g>
	<path d="M15,15c-0.256,0-0.512-0.098-0.707-0.293c-0.391-0.391-0.391-1.023,0-1.414L18.586,9l-4.293-4.293
		c-0.391-0.391-0.391-1.023,0-1.414s1.023-0.391,1.414,0l5,5c0.391,0.391,0.391,1.023,0,1.414l-5,5C15.512,14.902,15.256,15,15,15z"
		/>
</g>
<g>
	<path d="M4,21c-0.552,0-1-0.447-1-1v-7c0-2.757,2.243-5,5-5h12c0.553,0,1,0.448,1,1s-0.447,1-1,1H8c-1.654,0-3,1.346-3,3v7
		C5,20.553,4.552,21,4,21z"/>
</g>
</svg>
