<?xml version="1.0" encoding="iso-8859-1"?>
<!-- Generator: Adobe Illustrator 24.2.1, SVG Export Plug-In . SVG Version: 6.00 Build 0)  -->
<svg version="1.1" id="Camada_1" xmlns="http://www.w3.org/2000/svg" xmlns:xlink="http://www.w3.org/1999/xlink" x="0px" y="0px"
	 viewBox="0 0 24 24" style="enable-background:new 0 0 24 24;" xml:space="preserve">
<g>
	<path d="M9,21c-0.256,0-0.512-0.098-0.707-0.293l-5-5c-0.391-0.391-0.391-1.023,0-1.414l5-5c0.391-0.391,1.023-0.391,1.414,0
		s0.391,1.023,0,1.414L5.414,15l4.293,4.293c0.391,0.391,0.391,1.023,0,1.414C9.512,20.902,9.256,21,9,21z"/>
</g>
<g>
	<path d="M16,16H4c-0.552,0-1-0.447-1-1s0.448-1,1-1h12c1.654,0,3-1.346,3-3V4c0-0.552,0.447-1,1-1s1,0.448,1,1v7
		C21,13.757,18.757,16,16,16z"/>
</g>
</svg>
