<?xml version="1.0" encoding="iso-8859-1"?>
<!-- Generator: Adobe Illustrator 24.2.1, SVG Export Plug-In . SVG Version: 6.00 Build 0)  -->
<svg version="1.1" id="Camada_1" xmlns="http://www.w3.org/2000/svg" xmlns:xlink="http://www.w3.org/1999/xlink" x="0px" y="0px"
	 viewBox="0 0 24 24" style="enable-background:new 0 0 24 24;" xml:space="preserve">
<g>
	<path d="M14,10c-0.256,0-0.512-0.098-0.707-0.293L9,5.414L4.707,9.707c-0.391,0.391-1.023,0.391-1.414,0s-0.391-1.023,0-1.414l5-5
		c0.391-0.391,1.023-0.391,1.414,0l5,5c0.391,0.391,0.391,1.023,0,1.414C14.512,9.902,14.256,10,14,10z"/>
</g>
<g>
	<path d="M20,21h-7c-2.757,0-5-2.243-5-5V4c0-0.552,0.448-1,1-1s1,0.448,1,1v12c0,1.654,1.346,3,3,3h7c0.553,0,1,0.447,1,1
		S20.553,21,20,21z"/>
</g>
</svg>
