<?xml version="1.0" encoding="iso-8859-1"?>
<!-- Generator: Adobe Illustrator 24.2.1, SVG Export Plug-In . SVG Version: 6.00 Build 0)  -->
<svg version="1.1" id="Camada_1" xmlns="http://www.w3.org/2000/svg" xmlns:xlink="http://www.w3.org/1999/xlink" x="0px" y="0px"
	 viewBox="0 0 24 24" style="enable-background:new 0 0 24 24;" xml:space="preserve">
<g>
	<path d="M20,10c-0.256,0-0.512-0.098-0.707-0.293L15,5.414l-4.293,4.293c-0.391,0.391-1.023,0.391-1.414,0s-0.391-1.023,0-1.414
		l5-5c0.391-0.391,1.023-0.391,1.414,0l5,5c0.391,0.391,0.391,1.023,0,1.414C20.512,9.902,20.256,10,20,10z"/>
</g>
<g>
	<path d="M11,21H4c-0.552,0-1-0.447-1-1s0.448-1,1-1h7c1.654,0,3-1.346,3-3V4c0-0.552,0.447-1,1-1s1,0.448,1,1v12
		C16,18.757,13.757,21,11,21z"/>
</g>
</svg>
