<?xml version="1.0" encoding="iso-8859-1"?>
<!-- Generator: Adobe Illustrator 24.2.1, SVG Export Plug-In . SVG Version: 6.00 Build 0)  -->
<svg version="1.1" id="Camada_1" xmlns="http://www.w3.org/2000/svg" xmlns:xlink="http://www.w3.org/1999/xlink" x="0px" y="0px"
	 viewBox="0 0 24 24" style="enable-background:new 0 0 24 24;" xml:space="preserve">
<g>
	<path d="M18,21H6c-1.654,0-3-1.346-3-3V6c0-1.654,1.346-3,3-3h12c1.654,0,3,1.346,3,3v12C21,19.654,19.654,21,18,21z M6,5
		C5.449,5,5,5.449,5,6v12c0,0.552,0.449,1,1,1h12c0.552,0,1-0.448,1-1V6c0-0.551-0.448-1-1-1H6z"/>
</g>
<g>
	<path d="M15,16H9c-0.552,0-1-0.447-1-1V9c0-0.552,0.448-1,1-1h6c0.553,0,1,0.448,1,1v6C16,15.553,15.553,16,15,16z M10,14h4v-4h-4
		V14z"/>
</g>
<g>
	<path d="M9,5C8.448,5,8,4.552,8,4V1c0-0.552,0.448-1,1-1s1,0.448,1,1v3C10,4.552,9.552,5,9,5z"/>
</g>
<g>
	<path d="M15,5c-0.553,0-1-0.448-1-1V1c0-0.552,0.447-1,1-1s1,0.448,1,1v3C16,4.552,15.553,5,15,5z"/>
</g>
<g>
	<path d="M9,24c-0.552,0-1-0.447-1-1v-3c0-0.553,0.448-1,1-1s1,0.447,1,1v3C10,23.553,9.552,24,9,24z"/>
</g>
<g>
	<path d="M15,24c-0.553,0-1-0.447-1-1v-3c0-0.553,0.447-1,1-1s1,0.447,1,1v3C16,23.553,15.553,24,15,24z"/>
</g>
<g>
	<path d="M23,10h-3c-0.553,0-1-0.448-1-1s0.447-1,1-1h3c0.553,0,1,0.448,1,1S23.553,10,23,10z"/>
</g>
<g>
	<path d="M23,15h-3c-0.553,0-1-0.447-1-1s0.447-1,1-1h3c0.553,0,1,0.447,1,1S23.553,15,23,15z"/>
</g>
<g>
	<path d="M4,10H1c-0.552,0-1-0.448-1-1s0.448-1,1-1h3c0.552,0,1,0.448,1,1S4.552,10,4,10z"/>
</g>
<g>
	<path d="M4,15H1c-0.552,0-1-0.447-1-1s0.448-1,1-1h3c0.552,0,1,0.447,1,1S4.552,15,4,15z"/>
</g>
</svg>
