<?xml version="1.0" encoding="iso-8859-1"?>
<!-- Generator: Adobe Illustrator 24.2.1, SVG Export Plug-In . SVG Version: 6.00 Build 0)  -->
<svg version="1.1" id="Camada_1" xmlns="http://www.w3.org/2000/svg" xmlns:xlink="http://www.w3.org/1999/xlink" x="0px" y="0px"
	 viewBox="0 0 24 24" style="enable-background:new 0 0 24 24;" xml:space="preserve">
<g>
	<path d="M21,21H3c-1.654,0-3-1.346-3-3V6c0-1.654,1.346-3,3-3h18c1.654,0,3,1.346,3,3v12C24,19.654,22.654,21,21,21z M3,5
		C2.449,5,2,5.449,2,6v12c0,0.552,0.449,1,1,1h18c0.552,0,1-0.448,1-1V6c0-0.551-0.448-1-1-1H3z"/>
</g>
<g>
	<path d="M23,11H1c-0.552,0-1-0.448-1-1s0.448-1,1-1h22c0.553,0,1,0.448,1,1S23.553,11,23,11z"/>
</g>
</svg>
