<?xml version="1.0" encoding="iso-8859-1"?>
<!-- Generator: Adobe Illustrator 24.2.1, SVG Export Plug-In . SVG Version: 6.00 Build 0)  -->
<svg version="1.1" id="Camada_1" xmlns="http://www.w3.org/2000/svg" xmlns:xlink="http://www.w3.org/1999/xlink" x="0px" y="0px"
	 viewBox="0 0 24 24" style="enable-background:new 0 0 24 24;" xml:space="preserve">
<g>
	<path d="M23,19H8c-1.654,0-3-1.346-3-3L5.13,0.991C5.135,0.442,5.582,0,6.13,0c0.003,0,0.006,0,0.009,0
		C6.691,0.005,7.135,0.457,7.13,1.009l-0.13,15C7,16.552,7.449,17,8,17h15c0.553,0,1,0.447,1,1S23.553,19,23,19z"/>
</g>
<g>
	<path d="M18,24c-0.553,0-1-0.447-1-1V8c0-0.551-0.448-1-1-1L1.009,7.13c-0.003,0-0.006,0-0.009,0c-0.548,0-0.995-0.442-1-0.991
		C-0.005,5.586,0.439,5.135,0.991,5.13l15-0.13C17.654,5,19,6.346,19,8v15C19,23.553,18.553,24,18,24z"/>
</g>
</svg>
