<?xml version="1.0" encoding="iso-8859-1"?>
<!-- Generator: Adobe Illustrator 24.2.1, SVG Export Plug-In . SVG Version: 6.00 Build 0)  -->
<svg version="1.1" id="Camada_1" xmlns="http://www.w3.org/2000/svg" xmlns:xlink="http://www.w3.org/1999/xlink" x="0px" y="0px"
	 viewBox="0 0 24 24" style="enable-background:new 0 0 24 24;" xml:space="preserve">
<g>
	<path d="M12,9C7.184,9,2,7.748,2,5s5.184-4,10-4s10,1.252,10,4S16.816,9,12,9z M12,3C6.75,3,4,4.486,4,5s2.75,2,8,2
		c5.249,0,8-1.486,8-2S17.249,3,12,3z"/>
</g>
<g>
	<path d="M12,16c-4.816,0-10-1.252-10-4c0-0.552,0.448-1,1-1s1,0.448,1,1c0,0.466,2.494,2,8,2c5.506,0,8-1.534,8-2
		c0-0.552,0.447-1,1-1s1,0.448,1,1C22,14.748,16.816,16,12,16z"/>
</g>
<g>
	<path d="M12,23c-4.816,0-10-1.252-10-4V5c0-0.552,0.448-1,1-1s1,0.448,1,1v14c0,0.466,2.494,2,8,2c5.506,0,8-1.534,8-2V5
		c0-0.552,0.447-1,1-1s1,0.448,1,1v14C22,21.748,16.816,23,12,23z"/>
</g>
</svg>
