<?xml version="1.0" encoding="iso-8859-1"?>
<!-- Generator: Adobe Illustrator 24.2.1, SVG Export Plug-In . SVG Version: 6.00 Build 0)  -->
<svg version="1.1" id="Camada_1" xmlns="http://www.w3.org/2000/svg" xmlns:xlink="http://www.w3.org/1999/xlink" x="0px" y="0px"
	 viewBox="0 0 24 24" style="enable-background:new 0 0 24 24;" xml:space="preserve">
<g>
	<path d="M21,21H8c-0.289,0-0.562-0.124-0.752-0.342l-7-8c-0.33-0.377-0.33-0.94,0-1.317l7-8C7.438,3.125,7.711,3,8,3h13
		c1.654,0,3,1.346,3,3v12C24,19.654,22.654,21,21,21z M8.454,19H21c0.552,0,1-0.448,1-1V6c0-0.551-0.448-1-1-1H8.454l-6.125,7
		L8.454,19z"/>
</g>
<g>
	<path d="M12,16c-0.256,0-0.512-0.098-0.707-0.293c-0.391-0.391-0.391-1.023,0-1.414l6-6c0.391-0.391,1.023-0.391,1.414,0
		s0.391,1.023,0,1.414l-6,6C12.512,15.902,12.256,16,12,16z"/>
</g>
<g>
	<path d="M18,16c-0.256,0-0.512-0.098-0.707-0.293l-6-6c-0.391-0.391-0.391-1.023,0-1.414s1.023-0.391,1.414,0l6,6
		c0.391,0.391,0.391,1.023,0,1.414C18.512,15.902,18.256,16,18,16z"/>
</g>
</svg>
