<?xml version="1.0" encoding="iso-8859-1"?>
<!-- Generator: Adobe Illustrator 24.2.1, SVG Export Plug-In . SVG Version: 6.00 Build 0)  -->
<svg version="1.1" id="Camada_1" xmlns="http://www.w3.org/2000/svg" xmlns:xlink="http://www.w3.org/1999/xlink" x="0px" y="0px"
	 viewBox="0 0 24 24" style="enable-background:new 0 0 24 24;" xml:space="preserve">
<g>
	<path d="M12,24c-0.552,0-1-0.447-1-1V1c0-0.552,0.448-1,1-1s1,0.448,1,1v22C13,23.553,12.552,24,12,24z"/>
</g>
<g>
	<path d="M14.5,20H6c-0.552,0-1-0.447-1-1s0.448-1,1-1h8.5c1.379,0,2.5-1.121,2.5-2.5S15.879,13,14.5,13h-5C7.019,13,5,10.981,5,8.5
		S7.019,4,9.5,4H17c0.553,0,1,0.448,1,1s-0.447,1-1,1H9.5C8.122,6,7,7.122,7,8.5S8.122,11,9.5,11h5c2.481,0,4.5,2.019,4.5,4.5
		S16.981,20,14.5,20z"/>
</g>
</svg>
