<?xml version="1.0" encoding="iso-8859-1"?>
<!-- Generator: Adobe Illustrator 24.2.1, SVG Export Plug-In . SVG Version: 6.00 Build 0)  -->
<svg version="1.1" id="Camada_1" xmlns="http://www.w3.org/2000/svg" xmlns:xlink="http://www.w3.org/1999/xlink" x="0px" y="0px"
	 viewBox="0 0 24 24" style="enable-background:new 0 0 24 24;" xml:space="preserve">
<g>
	<path d="M12,22c-0.256,0-0.512-0.098-0.707-0.293l-4-4c-0.391-0.391-0.391-1.023,0-1.414s1.023-0.391,1.414,0L12,19.586
		l3.293-3.293c0.391-0.391,1.023-0.391,1.414,0s0.391,1.023,0,1.414l-4,4C12.512,21.902,12.256,22,12,22z"/>
</g>
<g>
	<path d="M12,22c-0.552,0-1-0.447-1-1v-9c0-0.552,0.448-1,1-1s1,0.448,1,1v9C13,21.553,12.552,22,12,22z"/>
</g>
<g>
	<path d="M20.881,19.09c-0.314,0-0.624-0.148-0.819-0.425c-0.317-0.452-0.209-1.075,0.243-1.394c0.874-0.614,1.456-1.532,1.64-2.585
		s-0.054-2.113-0.669-2.987C20.528,10.635,19.306,10,18.005,10c-0.002,0-0.003,0-0.004,0H16.74c-0.456,0-0.855-0.309-0.969-0.751
		c-0.96-3.739-4.781-6-8.521-5.041C5.44,4.672,3.918,5.815,2.966,7.424c-0.952,1.609-1.22,3.493-0.755,5.304
		c0.274,1.07,0.806,2.073,1.538,2.899c0.366,0.414,0.328,1.046-0.085,1.412c-0.414,0.365-1.046,0.327-1.412-0.086
		c-0.941-1.063-1.625-2.353-1.978-3.729c-0.597-2.328-0.252-4.75,0.972-6.819c1.224-2.069,3.18-3.538,5.509-4.135
		C11.301,1.104,15.952,3.646,17.481,8H18c0.002,0,0.004,0,0.006,0c1.95,0,3.784,0.953,4.906,2.549
		c0.922,1.31,1.278,2.902,1.003,4.481s-1.149,2.956-2.46,3.878C21.28,19.031,21.079,19.09,20.881,19.09z"/>
</g>
</svg>
