<?xml version="1.0" encoding="iso-8859-1"?>
<!-- Generator: Adobe Illustrator 24.2.1, SVG Export Plug-In . SVG Version: 6.00 Build 0)  -->
<svg version="1.1" id="Camada_1" xmlns="http://www.w3.org/2000/svg" xmlns:xlink="http://www.w3.org/1999/xlink" x="0px" y="0px"
	 viewBox="0 0 24 24" style="enable-background:new 0 0 24 24;" xml:space="preserve">
<g>
	<path d="M12.005,23.009c-2.403,0-4.663-0.936-6.362-2.635c-1.7-1.699-2.637-3.959-2.638-6.362c0-2.404,0.935-4.665,2.634-6.365
		c0.006-0.006,0.013-0.012,0.019-0.018l5.635-5.645C11.479,1.796,11.734,1.69,12,1.69h0c0.265,0,0.52,0.105,0.707,0.293l5.66,5.66
		c3.51,3.507,3.512,9.217,0.004,12.728c-1.699,1.7-3.959,2.637-6.363,2.638C12.007,23.009,12.006,23.009,12.005,23.009z M7.04,9.075
		c-1.313,1.321-2.035,3.073-2.035,4.936c0,1.87,0.729,3.627,2.052,4.949c1.322,1.321,3.079,2.049,4.948,2.049
		c0.001,0,0.001,0,0.002,0c1.87,0,3.627-0.729,4.95-2.052c2.728-2.73,2.727-7.171-0.004-9.899L12,4.105L7.058,9.057
		C7.052,9.062,7.045,9.069,7.04,9.075z M6.35,8.35h0.01H6.35z"/>
</g>
</svg>
