<?xml version="1.0" encoding="iso-8859-1"?>
<!-- Generator: Adobe Illustrator 24.2.1, SVG Export Plug-In . SVG Version: 6.00 Build 0)  -->
<svg version="1.1" id="Camada_1" xmlns="http://www.w3.org/2000/svg" xmlns:xlink="http://www.w3.org/1999/xlink" x="0px" y="0px"
	 viewBox="0 0 24 24" style="enable-background:new 0 0 24 24;" xml:space="preserve">
<g>
	<path d="M2,23c-0.262,0-0.517-0.103-0.707-0.293c-0.254-0.254-0.352-0.624-0.258-0.97l1.5-5.5c0.046-0.168,0.135-0.321,0.258-0.444
		l13.5-13.5c1.492-1.493,3.922-1.493,5.414,0c1.493,1.493,1.493,3.921,0,5.414l-13.5,13.5c-0.123,0.123-0.276,0.212-0.444,0.258
		l-5.5,1.5C2.176,22.988,2.088,23,2,23z M4.395,17.02l-0.97,3.556l3.555-0.97L20.293,6.293c0.713-0.713,0.713-1.873,0-2.586
		s-1.873-0.713-2.586,0L4.395,17.02z M7.5,20.5h0.01H7.5z"/>
</g>
</svg>
