<?xml version="1.0" encoding="iso-8859-1"?>
<!-- Generator: Adobe Illustrator 24.2.1, SVG Export Plug-In . SVG Version: 6.00 Build 0)  -->
<svg version="1.1" id="Camada_1" xmlns="http://www.w3.org/2000/svg" xmlns:xlink="http://www.w3.org/1999/xlink" x="0px" y="0px"
	 viewBox="0 0 24 24" style="enable-background:new 0 0 24 24;" xml:space="preserve">
<g>
	<path d="M18,23H4c-1.654,0-3-1.346-3-3V6c0-1.654,1.346-3,3-3h7c0.552,0,1,0.448,1,1s-0.448,1-1,1H4C3.449,5,3,5.449,3,6v14
		c0,0.552,0.449,1,1,1h14c0.552,0,1-0.448,1-1v-7c0-0.552,0.447-1,1-1s1,0.448,1,1v7C21,21.654,19.654,23,18,23z"/>
</g>
<g>
	<path d="M8,17c-0.262,0-0.517-0.104-0.707-0.293c-0.249-0.248-0.348-0.608-0.263-0.949l1-4c0.044-0.176,0.135-0.336,0.263-0.464
		l9.5-9.5c1.178-1.18,3.236-1.18,4.414,0c1.217,1.217,1.217,3.197,0,4.414l-9.5,9.5c-0.128,0.128-0.289,0.219-0.464,0.263l-4,1
		C8.162,16.99,8.081,17,8,17z M9.903,12.511l-0.528,2.115l2.114-0.529l9.304-9.304c0.437-0.437,0.437-1.149,0-1.586
		c-0.424-0.424-1.162-0.424-1.586,0l0,0L9.903,12.511z M18.5,2.5h0.01H18.5z"/>
</g>
</svg>
