<?xml version="1.0" encoding="iso-8859-1"?>
<!-- Generator: Adobe Illustrator 24.2.1, SVG Export Plug-In . SVG Version: 6.00 Build 0)  -->
<svg version="1.1" id="Camada_1" xmlns="http://www.w3.org/2000/svg" xmlns:xlink="http://www.w3.org/1999/xlink" x="0px" y="0px"
	 viewBox="0 0 24 24" style="enable-background:new 0 0 24 24;" xml:space="preserve">
<g>
	<path d="M21,21h-9c-0.552,0-1-0.447-1-1s0.448-1,1-1h9c0.553,0,1,0.447,1,1S21.553,21,21,21z"/>
</g>
<g>
	<path d="M3,21c-0.262,0-0.517-0.104-0.707-0.293c-0.249-0.248-0.348-0.608-0.263-0.949l1-4c0.044-0.176,0.135-0.337,0.263-0.465
		l12.5-12.5c1.178-1.18,3.236-1.18,4.414,0c1.217,1.217,1.217,3.197,0,4.414l-12.5,12.5c-0.128,0.128-0.289,0.219-0.464,0.263l-4,1
		C3.162,20.99,3.081,21,3,21z M4.903,16.512l-0.528,2.114l2.114-0.529L18.793,5.793c0.437-0.437,0.437-1.149,0-1.586
		c-0.424-0.424-1.162-0.424-1.586,0l0,0L4.903,16.512z M16.5,3.5h0.01H16.5z"/>
</g>
</svg>
