<?xml version="1.0" encoding="iso-8859-1"?>
<!-- Generator: Adobe Illustrator 24.2.1, SVG Export Plug-In . SVG Version: 6.00 Build 0)  -->
<svg version="1.1" id="Camada_1" xmlns="http://www.w3.org/2000/svg" xmlns:xlink="http://www.w3.org/1999/xlink" x="0px" y="0px"
	 viewBox="0 0 24 24" style="enable-background:new 0 0 24 24;" xml:space="preserve">
<g>
	<path d="M16,22H5c-1.654,0-3-1.346-3-3V8c0-1.654,1.346-3,3-3h6c0.552,0,1,0.448,1,1s-0.448,1-1,1H5C4.449,7,4,7.449,4,8v11
		c0,0.552,0.449,1,1,1h11c0.552,0,1-0.448,1-1v-6c0-0.552,0.447-1,1-1s1,0.448,1,1v6C19,20.654,17.654,22,16,22z"/>
</g>
<g>
	<path d="M21,10c-0.553,0-1-0.448-1-1V4h-5c-0.553,0-1-0.448-1-1s0.447-1,1-1h6c0.553,0,1,0.448,1,1v6C22,9.552,21.553,10,21,10z"/>
</g>
<g>
	<path d="M10,15c-0.256,0-0.512-0.098-0.707-0.293c-0.391-0.391-0.391-1.023,0-1.414l11-11c0.391-0.391,1.023-0.391,1.414,0
		s0.391,1.023,0,1.414l-11,11C10.512,14.902,10.256,15,10,15z"/>
</g>
</svg>
