<?xml version="1.0" encoding="iso-8859-1"?>
<!-- Generator: Adobe Illustrator 24.2.1, SVG Export Plug-In . SVG Version: 6.00 Build 0)  -->
<svg version="1.1" id="Camada_1" xmlns="http://www.w3.org/2000/svg" xmlns:xlink="http://www.w3.org/1999/xlink" x="0px" y="0px"
	 viewBox="0 0 24 24" style="enable-background:new 0 0 24 24;" xml:space="preserve">
<g>
	<path d="M12.016,21C4.469,21,0.28,12.796,0.105,12.447c-0.145-0.291-0.14-0.634,0.013-0.92c1.32-2.46,3.115-4.567,5.334-6.262
		c0.438-0.336,1.067-0.25,1.402,0.188C7.19,5.892,7.106,6.52,6.667,6.855c-1.848,1.411-3.368,3.141-4.523,5.146
		C3.083,13.613,6.626,19,12,19c1.933-0.032,3.783-0.673,5.334-1.855c0.441-0.335,1.066-0.249,1.402,0.189
		c0.334,0.439,0.249,1.067-0.189,1.402C16.653,20.178,14.396,20.961,12.016,21z M20.839,16.19c-0.227,0-0.455-0.077-0.643-0.234
		c-0.423-0.356-0.478-0.987-0.122-1.409c0.667-0.792,1.265-1.647,1.782-2.547C20.918,10.389,17.375,5,12,5
		c-0.605,0.034-1.26,0.071-1.872,0.214C9.592,5.34,9.052,5.006,8.926,4.468C8.8,3.93,9.134,3.393,9.672,3.267
		c0.762-0.178,1.523-0.301,2.33-0.267c7.529,0,11.718,8.204,11.893,8.553c0.145,0.29,0.141,0.633-0.013,0.919
		c-0.64,1.196-1.405,2.327-2.276,3.362C21.407,16.069,21.124,16.19,20.839,16.19z M11.922,16.075c-1.015,0-1.978-0.379-2.724-1.074
		c-0.782-0.728-1.233-1.717-1.271-2.785c-0.038-1.068,0.343-2.087,1.071-2.869c0.062-0.066,0.128-0.133,0.198-0.199
		c0.404-0.375,1.036-0.355,1.414,0.048c0.377,0.404,0.355,1.037-0.048,1.414c-0.034,0.031-0.066,0.064-0.098,0.098
		c-0.367,0.394-0.557,0.903-0.539,1.437c0.019,0.534,0.245,1.028,0.635,1.393c0.392,0.364,0.92,0.56,1.434,0.535
		c0.534-0.019,1.029-0.244,1.393-0.635c0.378-0.405,1.01-0.426,1.413-0.05c0.404,0.376,0.427,1.009,0.05,1.413
		c-0.729,0.781-1.718,1.232-2.785,1.271C12.018,16.074,11.97,16.075,11.922,16.075z"/>
</g>
<g>
	<path d="M23,24c-0.256,0-0.512-0.098-0.707-0.293l-22-22c-0.391-0.391-0.391-1.023,0-1.414s1.023-0.391,1.414,0l22,22
		c0.391,0.391,0.391,1.023,0,1.414C23.512,23.902,23.256,24,23,24z"/>
</g>
</svg>
