<?xml version="1.0" encoding="iso-8859-1"?>
<!-- Generator: Adobe Illustrator 24.2.1, SVG Export Plug-In . SVG Version: 6.00 Build 0)  -->
<svg version="1.1" id="Camada_1" xmlns="http://www.w3.org/2000/svg" xmlns:xlink="http://www.w3.org/1999/xlink" x="0px" y="0px"
	 viewBox="0 0 24 24" style="enable-background:new 0 0 24 24;" xml:space="preserve">
<g>
	<path d="M14,23h-4c-0.552,0-1-0.447-1-1v-7H7c-0.552,0-1-0.447-1-1v-4c0-0.552,0.448-1,1-1h2V7c0-3.309,2.691-6,6-6h3
		c0.553,0,1,0.448,1,1v4c0,0.552-0.447,1-1,1h-3v2h3c0.308,0,0.599,0.142,0.788,0.385s0.257,0.559,0.182,0.858l-1,4
		C17.858,14.688,17.459,15,17,15h-2v7C15,22.553,14.553,23,14,23z M11,21h2v-7c0-0.553,0.447-1,1-1h2.219l0.5-2H14
		c-0.553,0-1-0.448-1-1V7c0-1.103,0.897-2,2-2h2V3h-2c-2.206,0-4,1.794-4,4v3c0,0.552-0.448,1-1,1H8v2h2c0.552,0,1,0.447,1,1V21z"/>
</g>
</svg>
