<?xml version="1.0" encoding="iso-8859-1"?>
<!-- Generator: Adobe Illustrator 24.2.1, SVG Export Plug-In . SVG Version: 6.00 Build 0)  -->
<svg version="1.1" id="Camada_1" xmlns="http://www.w3.org/2000/svg" xmlns:xlink="http://www.w3.org/1999/xlink" x="0px" y="0px"
	 viewBox="0 0 24 24" style="enable-background:new 0 0 24 24;" xml:space="preserve">
<g>
	<path d="M13,20c-0.15,0-0.3-0.033-0.439-0.102C12.218,19.73,12,19.382,12,19V5c0-0.382,0.218-0.73,0.561-0.898
		c0.343-0.167,0.751-0.125,1.054,0.109l9,7C22.857,11.4,23,11.691,23,12s-0.143,0.6-0.386,0.79l-9,7C13.435,19.929,13.218,20,13,20z
		 M14,7.044v9.911L20.371,12L14,7.044z"/>
</g>
<g>
	<path d="M2,20c-0.15,0-0.3-0.033-0.439-0.102C1.218,19.73,1,19.382,1,19V5c0-0.382,0.218-0.73,0.561-0.898
		C1.904,3.934,2.312,3.976,2.614,4.21l9,7C11.857,11.4,12,11.691,12,12s-0.143,0.6-0.386,0.79l-9,7C2.435,19.929,2.218,20,2,20z
		 M3,7.044v9.911L9.371,12L3,7.044z"/>
</g>
</svg>
