<?xml version="1.0" encoding="iso-8859-1"?>
<!-- Generator: Adobe Illustrator 24.2.1, SVG Export Plug-In . SVG Version: 6.00 Build 0)  -->
<svg version="1.1" id="Camada_1" xmlns="http://www.w3.org/2000/svg" xmlns:xlink="http://www.w3.org/1999/xlink" x="0px" y="0px"
	 viewBox="0 0 24 24" style="enable-background:new 0 0 24 24;" xml:space="preserve">
<g>
	<path d="M13.5,20H5c-0.552,0-1-0.447-1-1v-8.5c0-0.265,0.105-0.52,0.293-0.707l6.75-6.75c2.731-2.731,7.175-2.73,9.904,0
		c2.729,2.73,2.729,7.173,0,9.904l-6.739,6.759C14.021,19.895,13.766,20,13.5,20z M6,18h7.085l6.447-6.466c0,0,0,0,0.001-0.001
		c1.95-1.951,1.95-5.125,0-7.076c-1.951-1.95-5.125-1.95-7.076,0L6,10.914V18z"/>
</g>
<g>
	<path d="M2,23c-0.256,0-0.512-0.098-0.707-0.293c-0.391-0.391-0.391-1.023,0-1.414l14-14c0.391-0.391,1.023-0.391,1.414,0
		s0.391,1.023,0,1.414l-14,14C2.512,22.902,2.256,23,2,23z"/>
</g>
<g>
	<path d="M17.5,16H9c-0.552,0-1-0.447-1-1s0.448-1,1-1h8.5c0.553,0,1,0.447,1,1S18.053,16,17.5,16z"/>
</g>
</svg>
