<?xml version="1.0" encoding="iso-8859-1"?>
<!-- Generator: Adobe Illustrator 24.2.1, SVG Export Plug-In . SVG Version: 6.00 Build 0)  -->
<svg version="1.1" id="Camada_1" xmlns="http://www.w3.org/2000/svg" xmlns:xlink="http://www.w3.org/1999/xlink" x="0px" y="0px"
	 viewBox="0 0 24 24" style="enable-background:new 0 0 24 24;" xml:space="preserve">
<g>
	<path d="M12,10H8.5C6.019,10,4,7.981,4,5.5S6.019,1,8.5,1H12c0.552,0,1,0.448,1,1v7C13,9.552,12.552,10,12,10z M8.5,3
		C7.122,3,6,4.122,6,5.5S7.122,8,8.5,8H11V3H8.5z"/>
</g>
<g>
	<path d="M15.5,10H12c-0.552,0-1-0.448-1-1V2c0-0.552,0.448-1,1-1h3.5C17.981,1,20,3.019,20,5.5S17.981,10,15.5,10z M13,8h2.5
		C16.879,8,18,6.878,18,5.5S16.879,3,15.5,3H13V8z"/>
</g>
<g>
	<path d="M15.5,17c-2.481,0-4.5-2.019-4.5-4.5S13.019,8,15.5,8s4.5,2.019,4.5,4.5S17.981,17,15.5,17z M15.5,10
		c-1.379,0-2.5,1.122-2.5,2.5c0,1.379,1.121,2.5,2.5,2.5s2.5-1.121,2.5-2.5C18,11.122,16.879,10,15.5,10z"/>
</g>
<g>
	<path d="M8.5,24C6.019,24,4,21.981,4,19.5S6.019,15,8.5,15H12c0.552,0,1,0.447,1,1v3.5C13,21.981,10.981,24,8.5,24z M8.5,17
		C7.122,17,6,18.121,6,19.5S7.122,22,8.5,22s2.5-1.121,2.5-2.5V17H8.5z"/>
</g>
<g>
	<path d="M12,17H8.5C6.019,17,4,14.981,4,12.5S6.019,8,8.5,8H12c0.552,0,1,0.448,1,1v7C13,16.553,12.552,17,12,17z M8.5,10
		C7.122,10,6,11.122,6,12.5C6,13.879,7.122,15,8.5,15H11v-5H8.5z"/>
</g>
</svg>
