<svg width="18" height="22" viewBox="0 0 18 22" fill="none" xmlns="http://www.w3.org/2000/svg">
<path fill-rule="evenodd" clip-rule="evenodd" d="M3 0C2.20435 0 1.44129 0.31607 0.87868 0.87868C0.31607 1.44129 0 2.20435 0 3V19C0 19.7957 0.31607 20.5587 0.87868 21.1213C1.44129 21.6839 2.20435 22 3 22H15C15.7957 22 16.5587 21.6839 17.1213 21.1213C17.6839 20.5587 18 19.7957 18 19V7C18 6.73478 17.8946 6.48043 17.7071 6.29289L11.7075 0.293258L11.7072 0.292994L11.7071 0.292893C11.5261 0.111929 11.2761 0 11 0H3ZM2.29289 2.29289C2.48043 2.10536 2.73478 2 3 2H10V7C10 7.55228 10.4477 8 11 8H16V19C16 19.2652 15.8946 19.5196 15.7071 19.7071C15.5196 19.8946 15.2652 20 15 20H3C2.73478 20 2.48043 19.8946 2.29289 19.7071C2.10536 19.5196 2 19.2652 2 19V3C2 2.73478 2.10536 2.48043 2.29289 2.29289ZM14.5858 6L12 3.41421V6H14.5858Z" fill="black"/>
<path d="M9 18C8.448 18 8 17.553 8 17V11C8 10.448 8.448 10 9 10C9.552 10 10 10.448 10 11V17C10 17.553 9.552 18 9 18Z" fill="black"/>
<path d="M12 15H6C5.448 15 5 14.553 5 14C5 13.447 5.448 13 6 13H12C12.553 13 13 13.447 13 14C13 14.553 12.553 15 12 15Z" fill="black"/>
</svg>
