<?xml version="1.0" encoding="iso-8859-1"?>
<!-- Generator: Adobe Illustrator 24.2.1, SVG Export Plug-In . SVG Version: 6.00 Build 0)  -->
<svg version="1.1" id="Camada_1" xmlns="http://www.w3.org/2000/svg" xmlns:xlink="http://www.w3.org/1999/xlink" x="0px" y="0px"
	 viewBox="0 0 24 24" style="enable-background:new 0 0 24 24;" xml:space="preserve">
<g>
	<path d="M18,23H6c-1.654,0-3-1.346-3-3V4c0-1.654,1.346-3,3-3h8c0.266,0,0.52,0.105,0.707,0.293l6,6C20.895,7.48,21,7.735,21,8v12
		C21,21.654,19.654,23,18,23z M6,3C5.449,3,5,3.449,5,4v16c0,0.552,0.449,1,1,1h12c0.552,0,1-0.448,1-1V8.414L13.586,3H6z"/>
</g>
<g>
	<path d="M20,9h-6c-0.553,0-1-0.448-1-1V2c0-0.552,0.447-1,1-1s1,0.448,1,1v5h5c0.553,0,1,0.448,1,1S20.553,9,20,9z"/>
</g>
<g>
	<path d="M12,19c-0.552,0-1-0.447-1-1v-6c0-0.552,0.448-1,1-1s1,0.448,1,1v6C13,18.553,12.552,19,12,19z"/>
</g>
<g>
	<path d="M15,16H9c-0.552,0-1-0.447-1-1s0.448-1,1-1h6c0.553,0,1,0.447,1,1S15.553,16,15,16z"/>
</g>
</svg>
