<?xml version="1.0" encoding="iso-8859-1"?>
<!-- Generator: Adobe Illustrator 24.2.1, SVG Export Plug-In . SVG Version: 6.00 Build 0)  -->
<svg version="1.1" id="Camada_1" xmlns="http://www.w3.org/2000/svg" xmlns:xlink="http://www.w3.org/1999/xlink" x="0px" y="0px"
	 viewBox="0 0 24 24" style="enable-background:new 0 0 24 24;" xml:space="preserve">
<g>
	<path d="M19.82,23H4.18C2.427,23,1,21.573,1,19.82V4.18C1,2.427,2.427,1,4.18,1h15.64C21.573,1,23,2.427,23,4.18v15.64
		C23,21.573,21.573,23,19.82,23z M4.18,3C3.529,3,3,3.529,3,4.18v15.64C3,20.471,3.529,21,4.18,21h15.64
		c0.65,0,1.18-0.529,1.18-1.18V4.18C21,3.529,20.471,3,19.82,3H4.18z"/>
</g>
<g>
	<path d="M7,23c-0.552,0-1-0.447-1-1V2c0-0.552,0.448-1,1-1s1,0.448,1,1v20C8,22.553,7.552,23,7,23z"/>
</g>
<g>
	<path d="M17,23c-0.553,0-1-0.447-1-1V2c0-0.552,0.447-1,1-1s1,0.448,1,1v20C18,22.553,17.553,23,17,23z"/>
</g>
<g>
	<path d="M22,13H2c-0.552,0-1-0.448-1-1s0.448-1,1-1h20c0.553,0,1,0.448,1,1S22.553,13,22,13z"/>
</g>
<g>
	<path d="M7,8H2C1.448,8,1,7.552,1,7s0.448-1,1-1h5c0.552,0,1,0.448,1,1S7.552,8,7,8z"/>
</g>
<g>
	<path d="M7,18H2c-0.552,0-1-0.447-1-1s0.448-1,1-1h5c0.552,0,1,0.447,1,1S7.552,18,7,18z"/>
</g>
<g>
	<path d="M22,18h-5c-0.553,0-1-0.447-1-1s0.447-1,1-1h5c0.553,0,1,0.447,1,1S22.553,18,22,18z"/>
</g>
<g>
	<path d="M22,8h-5c-0.553,0-1-0.448-1-1s0.447-1,1-1h5c0.553,0,1,0.448,1,1S22.553,8,22,8z"/>
</g>
</svg>
