<?xml version="1.0" encoding="iso-8859-1"?>
<!-- Generator: Adobe Illustrator 24.2.1, SVG Export Plug-In . SVG Version: 6.00 Build 0)  -->
<svg version="1.1" id="Camada_1" xmlns="http://www.w3.org/2000/svg" xmlns:xlink="http://www.w3.org/1999/xlink" x="0px" y="0px"
	 viewBox="0 0 24 24" style="enable-background:new 0 0 24 24;" xml:space="preserve">
<g>
	<path d="M14,22c-0.153,0-0.306-0.035-0.447-0.105l-4-2C9.214,19.725,9,19.379,9,19v-6.174L1.236,3.646
		C0.985,3.349,0.929,2.932,1.093,2.579C1.257,2.226,1.611,2,2,2h20c0.39,0,0.743,0.226,0.907,0.579s0.107,0.77-0.144,1.066
		L15,12.826V21c0,0.347-0.18,0.668-0.475,0.851C14.365,21.95,14.183,22,14,22z M11,18.382l2,1V12.46
		c0-0.236,0.084-0.465,0.236-0.646L19.845,4H4.155l6.608,7.814C10.916,11.995,11,12.224,11,12.46V18.382z"/>
</g>
</svg>
