<?xml version="1.0" encoding="iso-8859-1"?>
<!-- Generator: Adobe Illustrator 24.2.1, SVG Export Plug-In . SVG Version: 6.00 Build 0)  -->
<svg version="1.1" id="Camada_1" xmlns="http://www.w3.org/2000/svg" xmlns:xlink="http://www.w3.org/1999/xlink" x="0px" y="0px"
	 viewBox="0 0 24 24" style="enable-background:new 0 0 24 24;" xml:space="preserve">
<g>
	<path d="M20,22H4c-1.654,0-3-1.346-3-3V5c0-1.654,1.346-3,3-3h5c0.334,0,0.646,0.167,0.832,0.445L11.535,5H20c1.654,0,3,1.346,3,3
		v11C23,20.654,21.654,22,20,22z M4,4C3.449,4,3,4.449,3,5v14c0,0.552,0.449,1,1,1h16c0.552,0,1-0.448,1-1V8c0-0.551-0.448-1-1-1h-9
		c-0.334,0-0.646-0.167-0.832-0.445L8.465,4H4z"/>
</g>
<g>
	<path d="M12,18c-0.552,0-1-0.447-1-1v-6c0-0.552,0.448-1,1-1s1,0.448,1,1v6C13,17.553,12.552,18,12,18z"/>
</g>
<g>
	<path d="M15,15H9c-0.552,0-1-0.447-1-1s0.448-1,1-1h6c0.553,0,1,0.447,1,1S15.553,15,15,15z"/>
</g>
</svg>
