<?xml version="1.0" encoding="iso-8859-1"?>
<!-- Generator: Adobe Illustrator 24.2.1, SVG Export Plug-In . SVG Version: 6.00 Build 0)  -->
<svg version="1.1" id="Camada_1" xmlns="http://www.w3.org/2000/svg" xmlns:xlink="http://www.w3.org/1999/xlink" x="0px" y="0px"
	 viewBox="0 0 24 24" style="enable-background:new 0 0 24 24;" xml:space="preserve">
<g>
	<path d="M12,24c-0.26,0-0.516-0.102-0.707-0.293l-7-7C4.197,16.61,4.124,16.5,4.075,16.381C4.027,16.265,4,16.137,4,16.003l0,0
		C4,16.002,4,16.001,4,16V9c0-0.552,0.448-1,1-1h4.586L4.293,2.707c-0.286-0.286-0.372-0.716-0.217-1.09C4.231,1.244,4.596,1,5,1h14
		c0.553,0,1,0.448,1,1v7c0,0.552-0.447,1-1,1h-4.586l5.293,5.293c0.286,0.286,0.372,0.716,0.217,1.09C19.77,16.757,19.404,17,19,17
		h-6v6c0,0.404-0.244,0.77-0.617,0.924C12.259,23.976,12.129,24,12,24z M7.414,17L11,20.586V17H7.414z M12,15h4.586l-5-5H6v5H12z
		 M12.414,8H18V3H7.414L12.414,8z"/>
</g>
</svg>
