<svg width="22" height="22" viewBox="0 0 22 22" fill="none" xmlns="http://www.w3.org/2000/svg">
<path fill-rule="evenodd" clip-rule="evenodd" d="M6.5 2C8.21289 2 9.18311 3.75897 9.65381 5H6.5C5.67285 5 5 4.32703 5 3.5C5 2.67297 5.67285 2 6.5 2ZM3 3.5C3 4.0365 3.12109 4.54517 3.33789 5H1C0.448242 5 0 5.448 0 6V11C0 11.552 0.448242 12 1 12H2V21C2 21.553 2.44824 22 3 22H11H19C19.5532 22 20 21.553 20 21V12H21C21.5532 12 22 11.552 22 11V6C22 5.448 21.5532 5 21 5H18.6621C18.8789 4.54517 19 4.0365 19 3.5C19 1.57001 17.4302 0 15.5 0C13.2061 0 11.8091 1.60571 11 3.12915C10.1909 1.60577 8.79346 0 6.5 0C4.56982 0 3 1.57001 3 3.5ZM12.3462 5H15.5C16.3271 5 17 4.32703 17 3.5C17 2.67297 16.3271 2 15.5 2C13.7871 2 12.8159 3.75897 12.3462 5ZM12 7V10H19H20V7H15.5H12ZM2 7H6.5H10V10H3H2V7ZM10 12H4V20H10V12ZM12 20V12H18V20H12Z" fill="black"/>
</svg>
