<?xml version="1.0" encoding="iso-8859-1"?>
<!-- Generator: Adobe Illustrator 24.2.1, SVG Export Plug-In . SVG Version: 6.00 Build 0)  -->
<svg version="1.1" id="Camada_1" xmlns="http://www.w3.org/2000/svg" xmlns:xlink="http://www.w3.org/1999/xlink" x="0px" y="0px"
	 viewBox="0 0 24 24" style="enable-background:new 0 0 24 24;" xml:space="preserve">
<g>
	<path d="M20,23H4c-0.552,0-1-0.447-1-1V12c0-0.552,0.448-1,1-1s1,0.448,1,1v9h14v-9c0-0.552,0.447-1,1-1s1,0.448,1,1v10
		C21,22.553,20.553,23,20,23z"/>
</g>
<g>
	<path d="M22,13H2c-0.552,0-1-0.448-1-1V7c0-0.552,0.448-1,1-1h20c0.553,0,1,0.448,1,1v5C23,12.552,22.553,13,22,13z M3,11h18V8H3
		V11z"/>
</g>
<g>
	<path d="M12,23c-0.552,0-1-0.447-1-1V7c0-0.552,0.448-1,1-1s1,0.448,1,1v15C13,22.553,12.552,23,12,23z"/>
</g>
<g>
	<path d="M12,8H7.5C5.57,8,4,6.43,4,4.5S5.57,1,7.5,1c4.271,0,5.433,5.567,5.48,5.804c0.059,0.294-0.017,0.599-0.207,0.83
		C12.583,7.866,12.3,8,12,8z M7.5,3C6.673,3,6,3.673,6,4.5S6.673,6,7.5,6h3.154C10.183,4.759,9.213,3,7.5,3z"/>
</g>
<g>
	<path d="M16.5,8H12c-0.3,0-0.583-0.134-0.773-0.366c-0.19-0.231-0.266-0.536-0.207-0.83C11.067,6.567,12.229,1,16.5,1
		C18.43,1,20,2.57,20,4.5S18.43,8,16.5,8z M13.346,6H16.5C17.327,6,18,5.327,18,4.5S17.327,3,16.5,3C14.787,3,13.816,4.759,13.346,6
		z"/>
</g>
</svg>
