<?xml version="1.0" encoding="iso-8859-1"?>
<!-- Generator: Adobe Illustrator 24.2.1, SVG Export Plug-In . SVG Version: 6.00 Build 0)  -->
<svg version="1.1" id="Camada_1" xmlns="http://www.w3.org/2000/svg" xmlns:xlink="http://www.w3.org/1999/xlink" x="0px" y="0px"
	 viewBox="0 0 24 24" style="enable-background:new 0 0 24 24;" xml:space="preserve">
<g>
	<path d="M12,17c-2.757,0-5-2.243-5-5s2.243-5,5-5s5,2.243,5,5S14.757,17,12,17z M12,9c-1.654,0-3,1.346-3,3s1.346,3,3,3
		s3-1.346,3-3S13.654,9,12,9z"/>
</g>
<g>
	<path d="M7,13H1.05c-0.552,0-1-0.448-1-1s0.448-1,1-1H7c0.552,0,1,0.448,1,1S7.552,13,7,13z"/>
</g>
<g>
	<path d="M22.96,13h-5.95c-0.553,0-1-0.448-1-1s0.447-1,1-1h5.95c0.553,0,1,0.448,1,1S23.513,13,22.96,13z"/>
</g>
</svg>
