<?xml version="1.0" encoding="iso-8859-1"?>
<!-- Generator: Adobe Illustrator 24.2.1, SVG Export Plug-In . SVG Version: 6.00 Build 0)  -->
<svg version="1.1" id="Camada_1" xmlns="http://www.w3.org/2000/svg" xmlns:xlink="http://www.w3.org/1999/xlink" x="0px" y="0px"
	 viewBox="0 0 24 24" style="enable-background:new 0 0 24 24;" xml:space="preserve">
<g>
	<path d="M6,16c-0.552,0-1-0.447-1-1V3c0-0.552,0.448-1,1-1s1,0.448,1,1v12C7,15.553,6.552,16,6,16z"/>
</g>
<g>
	<path d="M18,10c-2.206,0-4-1.794-4-4s1.794-4,4-4s4,1.794,4,4S20.206,10,18,10z M18,4c-1.103,0-2,0.897-2,2s0.897,2,2,2
		s2-0.897,2-2S19.103,4,18,4z"/>
</g>
<g>
	<path d="M6,22c-2.206,0-4-1.794-4-4s1.794-4,4-4s4,1.794,4,4S8.206,22,6,22z M6,16c-1.103,0-2,0.897-2,2s0.897,2,2,2s2-0.897,2-2
		S7.103,16,6,16z"/>
</g>
<g>
	<path d="M9,19c-0.552,0-1-0.447-1-1s0.448-1,1-1c4.411,0,8-3.589,8-8c0-0.552,0.447-1,1-1s1,0.448,1,1C19,14.514,14.514,19,9,19z"
		/>
</g>
</svg>
