<?xml version="1.0" encoding="iso-8859-1"?>
<!-- Generator: Adobe Illustrator 24.2.1, SVG Export Plug-In . SVG Version: 6.00 Build 0)  -->
<svg version="1.1" id="Camada_1" xmlns="http://www.w3.org/2000/svg" xmlns:xlink="http://www.w3.org/1999/xlink" x="0px" y="0px"
	 viewBox="0 0 24 24" style="enable-background:new 0 0 24 24;" xml:space="preserve">
<g>
	<path d="M18,22c-2.206,0-4-1.794-4-4s1.794-4,4-4s4,1.794,4,4S20.206,22,18,22z M18,16c-1.103,0-2,0.897-2,2s0.897,2,2,2
		s2-0.897,2-2S19.103,16,18,16z"/>
</g>
<g>
	<path d="M6,10c-2.206,0-4-1.794-4-4s1.794-4,4-4s4,1.794,4,4S8.206,10,6,10z M6,4C4.897,4,4,4.897,4,6s0.897,2,2,2s2-0.897,2-2
		S7.103,4,6,4z"/>
</g>
<g>
	<path d="M6,22c-0.552,0-1-0.447-1-1V9c0-0.552,0.448-1,1-1s1,0.448,1,1c0,4.411,3.589,8,8,8c0.553,0,1,0.447,1,1s-0.447,1-1,1
		c-3.268,0-6.174-1.575-8-4.006V21C7,21.553,6.552,22,6,22z"/>
</g>
</svg>
