<?xml version="1.0" encoding="iso-8859-1"?>
<!-- Generator: Adobe Illustrator 24.2.1, SVG Export Plug-In . SVG Version: 6.00 Build 0)  -->
<svg version="1.1" id="Camada_1" xmlns="http://www.w3.org/2000/svg" xmlns:xlink="http://www.w3.org/1999/xlink" x="0px" y="0px"
	 viewBox="0 0 24 24" style="enable-background:new 0 0 24 24;" xml:space="preserve">
<g>
	<path d="M16,23c-0.553,0-1-0.447-1-1v-3.87c0.057-0.756-0.185-1.426-0.658-1.914c-0.266-0.274-0.353-0.676-0.224-1.034
		c0.13-0.359,0.451-0.613,0.831-0.656c2.883-0.32,5.551-1.271,5.551-6.005c0-1.145-0.435-2.231-1.225-3.061
		c-0.264-0.277-0.346-0.681-0.212-1.039c0.289-0.776,0.335-1.608,0.139-2.398c-0.471,0.108-1.341,0.414-2.646,1.288
		c-0.24,0.163-0.54,0.209-0.818,0.135c-2.118-0.574-4.358-0.575-6.477,0C8.981,3.52,8.683,3.472,8.443,3.311
		C7.151,2.444,6.286,2.137,5.796,2.029C5.602,2.817,5.648,3.646,5.937,4.42c0.134,0.358,0.051,0.762-0.213,1.039
		C4.929,6.295,4.494,7.391,4.5,8.544c0,4.678,2.674,5.655,5.563,6.013c0.376,0.047,0.694,0.302,0.82,0.659
		c0.126,0.358,0.04,0.756-0.225,1.028c-0.467,0.482-0.708,1.145-0.661,1.814l0,0.875c0.003,0.044,0.003,0.087,0,0.13L10,22
		c0,0.553-0.448,1-1,1s-1-0.447-1-1v-1.747c-3.018,0.458-4.295-1.161-5.174-2.277c-0.389-0.493-0.725-0.92-1.068-1.006
		c-0.536-0.134-0.861-0.677-0.728-1.212c0.135-0.537,0.678-0.861,1.213-0.728c1.007,0.251,1.616,1.025,2.154,1.708
		C5.233,17.801,5.911,18.66,8,18.226V18.13c-0.045-0.62,0.06-1.255,0.297-1.848C5.479,15.64,2.5,13.913,2.5,8.55
		C2.492,7.084,2.978,5.68,3.878,4.539C3.535,3.235,3.633,1.859,4.171,0.606c0.117-0.273,0.35-0.48,0.635-0.564
		C5.17-0.067,6.533-0.272,9.179,1.403c2.183-0.518,4.461-0.518,6.643,0c2.645-1.675,4.007-1.47,4.373-1.361
		c0.285,0.084,0.518,0.292,0.635,0.564c0.537,1.253,0.637,2.629,0.292,3.933C22.015,5.67,22.5,7.063,22.5,8.52
		c0,5.675-3.449,7.247-5.789,7.756c0.237,0.607,0.339,1.268,0.286,1.933L17,22C17,22.553,16.553,23,16,23z"/>
</g>
</svg>
