<?xml version="1.0" encoding="iso-8859-1"?>
<!-- Generator: Adobe Illustrator 24.2.1, SVG Export Plug-In . SVG Version: 6.00 Build 0)  -->
<svg version="1.1" id="Camada_1" xmlns="http://www.w3.org/2000/svg" xmlns:xlink="http://www.w3.org/1999/xlink" x="0px" y="0px"
	 viewBox="0 0 24 24" style="enable-background:new 0 0 24 24;" xml:space="preserve">
<g>
	<path d="M12,23.13c-0.207,0-0.413-0.063-0.588-0.191l-10.65-7.74C0.114,14.724-0.15,13.896,0.1,13.137L3.759,1.851
		C3.857,1.593,3.985,1.407,4.147,1.26c0.549-0.5,1.379-0.5,1.927,0.001c0.196,0.189,0.324,0.4,0.394,0.631L8.676,8.67h6.647
		l2.216-6.819c0.095-0.251,0.222-0.438,0.384-0.587c0.554-0.503,1.382-0.503,1.932-0.002c0.194,0.187,0.323,0.398,0.394,0.631
		l3.699,11.237c0.238,0.817-0.059,1.634-0.728,2.082l-10.632,7.727C12.413,23.066,12.206,23.13,12,23.13z M2.036,13.651L12,20.894
		l10.004-7.271l-1.221-3.613l-1.896-5.836l-1.886,5.805c-0.134,0.412-0.518,0.691-0.951,0.691h-8.1c-0.433,0-0.817-0.279-0.951-0.69
		L5.107,4.171L2.036,13.651z M2.002,13.756l0,0.002C2.001,13.757,2.002,13.756,2.002,13.756z M4.559,2.49
		c0.001,0.006,0.003,0.012,0.006,0.019L4.559,2.49z M18.339,2.489c0.002,0.006,0.004,0.012,0.006,0.018L18.339,2.489z"/>
</g>
</svg>
