<?xml version="1.0" encoding="iso-8859-1"?>
<!-- Generator: Adobe Illustrator 24.2.1, SVG Export Plug-In . SVG Version: 6.00 Build 0)  -->
<svg version="1.1" id="Camada_1" xmlns="http://www.w3.org/2000/svg" xmlns:xlink="http://www.w3.org/1999/xlink" x="0px" y="0px"
	 viewBox="0 0 24 24" style="enable-background:new 0 0 24 24;" xml:space="preserve">
<g>
	<path d="M12,23C5.935,23,1,18.065,1,12S5.935,1,12,1s11,4.935,11,11S18.065,23,12,23z M12,3c-4.962,0-9,4.038-9,9
		c0,4.963,4.038,9,9,9c4.963,0,9-4.037,9-9C21,7.038,16.963,3,12,3z"/>
</g>
<g>
	<path d="M22,13H2c-0.552,0-1-0.448-1-1s0.448-1,1-1h20c0.553,0,1,0.448,1,1S22.553,13,22,13z"/>
</g>
<g>
	<path d="M12,23c-0.281,0-0.549-0.118-0.738-0.325C8.596,19.756,7.083,15.973,7,12.021c0.083-3.994,1.596-7.777,4.262-10.695
		C11.451,1.118,11.719,1,12,1l0,0c0.281,0,0.549,0.118,0.738,0.326c2.666,2.918,4.18,6.702,4.262,10.653
		c-0.082,3.993-1.596,7.777-4.262,10.696C12.549,22.882,12.281,23,12,23z M12,3.551c-1.878,2.419-2.936,5.386-3,8.47
		c0.064,3.046,1.122,6.009,3,8.428c1.879-2.42,2.937-5.387,3-8.47C14.937,8.933,13.879,5.97,12,3.551z"/>
</g>
</svg>
