<svg width="22" height="22" viewBox="0 0 22 22" fill="none" xmlns="http://www.w3.org/2000/svg">
<path fill-rule="evenodd" clip-rule="evenodd" d="M11 22C4.93506 22 0 17.065 0 11C0 4.935 4.93506 0 11 0C17.0649 0 22 4.935 22 11C22 17.065 17.0649 22 11 22ZM8.72461 19.7087C5.17285 18.78 2.46924 15.7305 2.05518 12H6.0498C6.27441 14.7634 7.19824 17.4142 8.72461 19.7087ZM13.2749 19.7089C16.8271 18.7805 19.5308 15.7307 19.9448 12H15.9478C15.7192 14.7762 14.7959 17.4216 13.2749 19.7089ZM15.9502 10H19.9448C19.5308 6.26996 16.8271 3.21979 13.2749 2.2912C14.8018 4.58557 15.7261 7.23682 15.9502 10ZM8.72559 2.2912C5.17383 3.21979 2.46924 6.26996 2.05518 10H6.05273C6.28174 7.22308 7.20459 4.57788 8.72559 2.2912ZM8.05762 10C8.30859 7.28577 9.33008 4.70172 11 2.55103C12.6768 4.7099 13.6997 7.30212 13.9453 10H8.05762ZM8.05469 12H13.9424C13.6919 14.7134 12.6704 17.2974 11 19.449C9.32373 17.2901 8.30078 14.6979 8.05469 12Z" fill="black"/>
</svg>
