<?xml version="1.0" encoding="iso-8859-1"?>
<!-- Generator: Adobe Illustrator 24.2.1, SVG Export Plug-In . SVG Version: 6.00 Build 0)  -->
<svg version="1.1" id="Camada_1" xmlns="http://www.w3.org/2000/svg" xmlns:xlink="http://www.w3.org/1999/xlink" x="0px" y="0px"
	 viewBox="0 0 24 24" style="enable-background:new 0 0 24 24;" xml:space="preserve">
<g>
	<path d="M10,11H3c-0.552,0-1-0.448-1-1V3c0-0.552,0.448-1,1-1h7c0.552,0,1,0.448,1,1v7C11,10.552,10.552,11,10,11z M4,9h5V4H4V9z"
		/>
</g>
<g>
	<path d="M21,11h-7c-0.553,0-1-0.448-1-1V3c0-0.552,0.447-1,1-1h7c0.553,0,1,0.448,1,1v7C22,10.552,21.553,11,21,11z M15,9h5V4h-5V9
		z"/>
</g>
<g>
	<path d="M21,22h-7c-0.553,0-1-0.447-1-1v-7c0-0.553,0.447-1,1-1h7c0.553,0,1,0.447,1,1v7C22,21.553,21.553,22,21,22z M15,20h5v-5
		h-5V20z"/>
</g>
<g>
	<path d="M10,22H3c-0.552,0-1-0.447-1-1v-7c0-0.553,0.448-1,1-1h7c0.552,0,1,0.447,1,1v7C11,21.553,10.552,22,10,22z M4,20h5v-5H4
		V20z"/>
</g>
</svg>
