<?xml version="1.0" encoding="iso-8859-1"?>
<!-- Generator: Adobe Illustrator 24.2.1, SVG Export Plug-In . SVG Version: 6.00 Build 0)  -->
<svg version="1.1" id="Camada_1" xmlns="http://www.w3.org/2000/svg" xmlns:xlink="http://www.w3.org/1999/xlink" x="0px" y="0px"
	 viewBox="0 0 24 24" style="enable-background:new 0 0 24 24;" xml:space="preserve">
<g>
	<path d="M22,13H2c-0.552,0-1-0.448-1-1s0.448-1,1-1h20c0.553,0,1,0.448,1,1S22.553,13,22,13z"/>
</g>
<g>
	<path d="M20,21H4c-1.654,0-3-1.346-3-3v-6c0-0.155,0.036-0.309,0.106-0.448l3.45-6.889C5.065,3.638,6.094,3.001,7.24,3h9.52
		c1.146,0.001,2.176,0.639,2.686,1.665l3.449,6.888C22.964,11.691,23,11.845,23,12v6C23,19.654,21.654,21,20,21z M3,12.236V18
		c0,0.552,0.449,1,1,1h16c0.552,0,1-0.448,1-1v-5.764l-3.345-6.679C17.484,5.213,17.142,5,16.759,5H7.24
		C6.858,5,6.516,5.213,6.346,5.555c0,0.001-0.001,0.002-0.001,0.003L3,12.236z M5.45,5.11h0.01H5.45z"/>
</g>
<g>
	<path d="M6.01,17c-0.552,0-1.005-0.447-1.005-1S5.448,15,6,15h0.01c0.552,0,1,0.447,1,1S6.562,17,6.01,17z"/>
</g>
<g>
	<path d="M10.01,17c-0.552,0-1.005-0.447-1.005-1S9.448,15,10,15h0.01c0.552,0,1,0.447,1,1S10.562,17,10.01,17z"/>
</g>
</svg>
