<?xml version="1.0" encoding="iso-8859-1"?>
<!-- Generator: Adobe Illustrator 24.2.1, SVG Export Plug-In . SVG Version: 6.00 Build 0)  -->
<svg version="1.1" id="Camada_1" xmlns="http://www.w3.org/2000/svg" xmlns:xlink="http://www.w3.org/1999/xlink" x="0px" y="0px"
	 viewBox="0 0 24 24" style="enable-background:new 0 0 24 24;" xml:space="preserve">
<g>
	<path d="M20,10H4c-0.552,0-1-0.448-1-1s0.448-1,1-1h16c0.553,0,1,0.448,1,1S20.553,10,20,10z"/>
</g>
<g>
	<path d="M20,16H4c-0.552,0-1-0.447-1-1s0.448-1,1-1h16c0.553,0,1,0.447,1,1S20.553,16,20,16z"/>
</g>
<g>
	<path d="M8.001,22c-0.037,0-0.074-0.002-0.112-0.006c-0.549-0.062-0.944-0.556-0.883-1.104l2-18
		c0.061-0.549,0.559-0.95,1.104-0.883c0.549,0.061,0.944,0.555,0.883,1.104l-2,18C8.937,21.622,8.504,22,8.001,22z"/>
</g>
<g>
	<path d="M14.001,22c-0.037,0-0.074-0.002-0.111-0.006c-0.549-0.062-0.944-0.556-0.884-1.104l2-18
		c0.061-0.549,0.569-0.943,1.104-0.883c0.549,0.061,0.944,0.555,0.884,1.104l-2,18C14.938,21.622,14.504,22,14.001,22z"/>
</g>
</svg>
