<?xml version="1.0" encoding="iso-8859-1"?>
<!-- Generator: Adobe Illustrator 24.2.1, SVG Export Plug-In . SVG Version: 6.00 Build 0)  -->
<svg version="1.1" id="Camada_1" xmlns="http://www.w3.org/2000/svg" xmlns:xlink="http://www.w3.org/1999/xlink" x="0px" y="0px"
	 viewBox="0 0 24 24" style="enable-background:new 0 0 24 24;" xml:space="preserve">
<g>
	<path d="M12,22.23c-0.265,0-0.52-0.105-0.707-0.293l-8.84-8.84C1.225,11.869,0.549,10.237,0.549,8.5s0.676-3.369,1.904-4.597
		s2.86-1.904,4.597-1.904c1.737,0,3.369,0.676,4.597,1.904L12,4.255l0.353-0.353c0.006-0.007,0.013-0.013,0.02-0.02
		c1.226-1.215,2.85-1.885,4.578-1.885h0.001c1.736,0,3.368,0.677,4.596,1.905l0.002,0.002c2.534,2.535,2.533,6.659-0.002,9.193
		l-8.84,8.84C12.52,22.125,12.265,22.23,12,22.23z M7.05,4C5.897,4,4.745,4.439,3.867,5.317c-1.755,1.755-1.755,4.611,0,6.366
		L12,19.816l8.133-8.133c0.851-0.85,1.318-1.98,1.319-3.182c0-1.202-0.468-2.332-1.317-3.182l-0.002-0.002
		c-0.85-0.85-1.979-1.318-3.182-1.319c-0.001,0-0.001,0-0.001,0c-1.202,0-2.332,0.468-3.182,1.317l0,0
		c-0.004,0.004-0.008,0.007-0.012,0.011l-1.05,1.05c-0.375,0.375-1.039,0.375-1.414,0l-1.06-1.06C9.355,4.439,8.203,4,7.05,4z"/>
</g>
</svg>
