<?xml version="1.0" encoding="iso-8859-1"?>
<!-- Generator: Adobe Illustrator 24.2.1, SVG Export Plug-In . SVG Version: 6.00 Build 0)  -->
<svg version="1.1" id="Camada_1" xmlns="http://www.w3.org/2000/svg" xmlns:xlink="http://www.w3.org/1999/xlink" x="0px" y="0px"
	 viewBox="0 0 24 24" style="enable-background:new 0 0 24 24;" xml:space="preserve">
<g>
	<path d="M12,23C5.935,23,1,18.065,1,12S5.935,1,12,1s11,4.935,11,11S18.065,23,12,23z M12,3c-4.962,0-9,4.038-9,9
		c0,4.963,4.038,9,9,9c4.963,0,9-4.037,9-9C21,7.038,16.963,3,12,3z"/>
</g>
<g>
	<path d="M11.92,14c-0.419,0-0.809-0.265-0.949-0.684c-0.175-0.524,0.108-1.09,0.632-1.265c0.599-0.203,2.316-1.018,2.316-2.051
		c0.001-0.85-0.535-1.61-1.336-1.891c-1.04-0.365-2.184,0.183-2.551,1.223C9.851,9.853,9.28,10.127,8.758,9.943
		C8.237,9.76,7.963,9.189,8.146,8.668c0.732-2.081,3.022-3.174,5.101-2.446c1.602,0.563,2.676,2.082,2.673,3.779
		c0,2.643-3.307,3.822-3.684,3.947C12.131,13.983,12.024,14,11.92,14z"/>
</g>
<g>
	<path d="M12.01,18c-0.552,0-1.005-0.447-1.005-1s0.443-1,0.995-1h0.01c0.552,0,1,0.447,1,1S12.562,18,12.01,18z"/>
</g>
</svg>
