<?xml version="1.0" encoding="iso-8859-1"?>
<!-- Generator: Adobe Illustrator 24.2.1, SVG Export Plug-In . SVG Version: 6.00 Build 0)  -->
<svg version="1.1" id="Camada_1" xmlns="http://www.w3.org/2000/svg" xmlns:xlink="http://www.w3.org/1999/xlink" x="0px" y="0px"
	 viewBox="0 0 24 24" style="enable-background:new 0 0 24 24;" xml:space="preserve">
<g>
	<path d="M12.001,22.997c-0.519,0-1.038-0.134-1.5-0.4l-6.997-3.998C2.576,18.062,2.001,17.068,2,16.001V8
		c0-1.068,0.576-2.062,1.5-2.596l7.004-4.002c0.92-0.533,2.07-0.532,2.996,0.002l6.996,3.998c0.928,0.536,1.503,1.53,1.504,2.597V16
		v0.001c-0.001,1.067-0.576,2.062-1.499,2.595l-7.005,4.003C13.036,22.864,12.519,22.997,12.001,22.997z M11.999,3.002
		c-0.173,0-0.345,0.045-0.499,0.133L4.496,7.138C4.192,7.314,4,7.646,4,8v8c0,0.354,0.192,0.687,0.5,0.865l6.996,3.997
		c0.311,0.179,0.694,0.18,1.005,0.002l7.003-4.002c0.304-0.176,0.495-0.508,0.496-0.863V8c-0.001-0.354-0.192-0.686-0.5-0.864
		l-6.996-3.998C12.347,3.048,12.173,3.002,11.999,3.002z M21,16h0.01H21z"/>
</g>
</svg>
