<?xml version="1.0" encoding="iso-8859-1"?>
<!-- Generator: Adobe Illustrator 24.2.1, SVG Export Plug-In . SVG Version: 6.00 Build 0)  -->
<svg version="1.1" id="Camada_1" xmlns="http://www.w3.org/2000/svg" xmlns:xlink="http://www.w3.org/1999/xlink" x="0px" y="0px"
	 viewBox="0 0 24 24" style="enable-background:new 0 0 24 24;" xml:space="preserve">
<g>
	<path d="M19,23H5c-1.654,0-3-1.346-3-3V9c0-0.309,0.143-0.6,0.386-0.79l9-7c0.36-0.28,0.867-0.28,1.228,0l9,7
		C21.857,8.4,22,8.691,22,9v11C22,21.654,20.654,23,19,23z M4,9.489V20c0,0.552,0.449,1,1,1h14c0.552,0,1-0.448,1-1V9.489l-8-6.222
		L4,9.489z"/>
</g>
<g>
	<path d="M15,23c-0.553,0-1-0.447-1-1v-9h-4v9c0,0.553-0.448,1-1,1s-1-0.447-1-1V12c0-0.552,0.448-1,1-1h6c0.553,0,1,0.448,1,1v10
		C16,22.553,15.553,23,15,23z"/>
</g>
</svg>
