<svg xmlns="http://www.w3.org/2000/svg" width="20.001" height="20" viewBox="0 0 20.001 20">
  <g id="image" transform="translate(-2 -2)">
    <path id="União_1" data-name="União 1" d="M196,61a3,3,0,0,1-3-3V44a3,3,0,0,1,3-3h14a3,3,0,0,1,3,3v9.981c0,.012,0,.025,0,.037V58a3,3,0,0,1-3,3Zm14-2a1,1,0,0,0,1-1V54.414l-4-4L198.413,59ZM195,44V58a1,1,0,0,0,.649.937l10.644-10.644a1,1,0,0,1,1.415,0L211,51.585V44a1,1,0,0,0-1-1H196A1,1,0,0,0,195,44Z" transform="translate(-191 -39)"/>
    <g id="Grupo_429" data-name="Grupo 429">
      <path id="Caminho_54" data-name="Caminho 54" d="M8.5,11A2.5,2.5,0,1,1,11,8.5,2.5,2.5,0,0,1,8.5,11Zm0-3a.5.5,0,1,0,.5.5A.5.5,0,0,0,8.5,8Z"/>
    </g>
  </g>
</svg>
