<?xml version="1.0" encoding="iso-8859-1"?>
<!-- Generator: Adobe Illustrator 24.2.1, SVG Export Plug-In . SVG Version: 6.00 Build 0)  -->
<svg version="1.1" id="Camada_1" xmlns="http://www.w3.org/2000/svg" xmlns:xlink="http://www.w3.org/1999/xlink" x="0px" y="0px"
	 viewBox="0 0 24 24" style="enable-background:new 0 0 24 24;" xml:space="preserve">
<g>
	<path d="M19,22H5c-1.654,0-3-1.346-3-3V5c0-1.654,1.346-3,3-3h14c1.654,0,3,1.346,3,3v14C22,20.654,20.654,22,19,22z M5,4
		C4.449,4,4,4.449,4,5v14c0,0.552,0.449,1,1,1h14c0.552,0,1-0.448,1-1V5c0-0.551-0.448-1-1-1H5z"/>
</g>
<g>
	<path d="M8.5,11C7.122,11,6,9.878,6,8.5S7.122,6,8.5,6S11,7.122,11,8.5S9.878,11,8.5,11z M8.5,8C8.224,8,8,8.224,8,8.5
		S8.224,9,8.5,9S9,8.776,9,8.5S8.776,8,8.5,8z"/>
</g>
<g>
	<path d="M5,22c-0.256,0-0.512-0.098-0.707-0.293c-0.391-0.391-0.391-1.023,0-1.414l11-11c0.391-0.391,1.023-0.391,1.414,0l5,5
		c0.391,0.391,0.391,1.023,0,1.414s-1.023,0.391-1.414,0L16,11.414L5.707,21.707C5.512,21.902,5.256,22,5,22z"/>
</g>
</svg>
