<svg width="20" height="20" viewBox="0 0 20 20" fill="none" xmlns="http://www.w3.org/2000/svg">
<path fill-rule="evenodd" clip-rule="evenodd" d="M6.5 6C6.22386 6 6 6.22386 6 6.5C6 6.77614 6.22386 7 6.5 7C6.77614 7 7 6.77614 7 6.5C7 6.22386 6.77614 6 6.5 6ZM4 6.5C4 5.11929 5.11929 4 6.5 4C7.88071 4 9 5.11929 9 6.5C9 7.88071 7.88071 9 6.5 9C5.11929 9 4 7.88071 4 6.5Z" fill="black"/>
<path fill-rule="evenodd" clip-rule="evenodd" d="M2 3C2 2.44772 2.44772 2 3 2H17C17.5523 2 18 2.44772 18 3V10.5858L14.7071 7.29289C14.3166 6.90237 13.6834 6.90237 13.2929 7.29289L2.64909 17.9367C2.2699 17.7946 2 17.4288 2 17V3ZM3.00098 20H3ZM3.00098 20H17C18.6569 20 20 18.6569 20 17V13.001C20 13.0003 20 12.9997 20 12.999V3C20 1.34315 18.6569 0 17 0H3C1.34315 0 0 1.34315 0 3V17C0 18.6565 1.3425 19.9994 2.9988 20M18 13.4142V17C18 17.5523 17.5523 18 17 18H5.41421L14 9.41421L18 13.4142Z" fill="black"/>
</svg>
