<?xml version="1.0" encoding="iso-8859-1"?>
<!-- Generator: Adobe Illustrator 24.2.1, SVG Export Plug-In . SVG Version: 6.00 Build 0)  -->
<svg version="1.1" id="Camada_1" xmlns="http://www.w3.org/2000/svg" xmlns:xlink="http://www.w3.org/1999/xlink" x="0px" y="0px"
	 viewBox="0 0 24 24" style="enable-background:new 0 0 24 24;" xml:space="preserve">
<g>
	<path d="M17,23H7c-3.309,0-6-2.691-6-6V7c0-3.309,2.691-6,6-6h10c3.309,0,6,2.691,6,6v10C23,20.309,20.309,23,17,23z M7,3
		C4.794,3,3,4.794,3,7v10c0,2.206,1.794,4,4,4h10c2.206,0,4-1.794,4-4V7c0-2.206-1.794-4-4-4H7z"/>
</g>
<g>
	<path d="M12.032,16.957c-1.064,0-2.097-0.339-2.968-0.984c-1.072-0.796-1.771-1.961-1.967-3.282
		c-0.404-2.728,1.486-5.275,4.212-5.68c0.487-0.072,0.98-0.072,1.467,0c2.194,0.325,3.887,2.018,4.213,4.212l0,0
		c0.196,1.322-0.135,2.64-0.93,3.712c-0.796,1.073-1.962,1.771-3.283,1.967C12.528,16.939,12.279,16.957,12.032,16.957z
		 M12.043,8.957c-0.147,0-0.294,0.011-0.44,0.033c-1.636,0.243-2.77,1.771-2.527,3.408c0.243,1.637,1.776,2.776,3.407,2.527
		c0.793-0.117,1.493-0.536,1.97-1.18s0.675-1.435,0.558-2.227l0,0C14.815,10.2,13.8,9.184,12.483,8.989
		C12.337,8.968,12.19,8.957,12.043,8.957z"/>
</g>
<g>
	<path d="M17.51,7.5c-0.553,0-1.005-0.448-1.005-1s0.442-1,0.995-1h0.01c0.553,0,1,0.448,1,1S18.062,7.5,17.51,7.5z"/>
</g>
</svg>
