<?xml version="1.0" encoding="iso-8859-1"?>
<!-- Generator: Adobe Illustrator 24.2.1, SVG Export Plug-In . SVG Version: 6.00 Build 0)  -->
<svg version="1.1" id="Camada_1" xmlns="http://www.w3.org/2000/svg" xmlns:xlink="http://www.w3.org/1999/xlink" x="0px" y="0px"
	 viewBox="0 0 24 24" style="enable-background:new 0 0 24 24;" xml:space="preserve">
<g>
	<path d="M19,5h-9C9.448,5,9,4.552,9,4s0.448-1,1-1h9c0.553,0,1,0.448,1,1S19.553,5,19,5z"/>
</g>
<g>
	<path d="M14,21H5c-0.552,0-1-0.447-1-1s0.448-1,1-1h9c0.553,0,1,0.447,1,1S14.553,21,14,21z"/>
</g>
<g>
	<path d="M9,21c-0.117,0-0.235-0.021-0.351-0.063c-0.517-0.194-0.779-0.771-0.585-1.288l6-16c0.193-0.518,0.77-0.777,1.288-0.585
		c0.517,0.194,0.778,0.771,0.585,1.288l-6,16C9.786,20.753,9.405,21,9,21z"/>
</g>
</svg>
