<?xml version="1.0" encoding="iso-8859-1"?>
<!-- Generator: Adobe Illustrator 24.2.1, SVG Export Plug-In . SVG Version: 6.00 Build 0)  -->
<svg version="1.1" id="Camada_1" xmlns="http://www.w3.org/2000/svg" xmlns:xlink="http://www.w3.org/1999/xlink" x="0px" y="0px"
	 viewBox="0 0 24 24" style="enable-background:new 0 0 24 24;" xml:space="preserve">
<g>
	<path d="M7.526,22.021c-1.65,0-3.3-0.622-4.564-1.869c-2.559-2.647-2.487-6.771,0.09-9.261c2.291-2.214,5.758-2.425,8.273-0.631
		l8.968-8.967c0.391-0.391,1.023-0.391,1.414,0s0.391,1.023,0,1.414L20.414,4l2.293,2.293c0.391,0.391,0.391,1.023,0,1.414l-3.5,3.5
		c-0.391,0.391-1.023,0.391-1.414,0L15.5,8.914l-2.746,2.746c1.871,2.528,1.677,6.122-0.6,8.43
		C10.884,21.377,9.205,22.021,7.526,22.021z M7.569,11.06c-1.125,0-2.25,0.423-3.127,1.27c-1.784,1.725-1.834,4.578-0.111,6.363
		c1.802,1.776,4.656,1.759,6.399-0.008c1.741-1.765,1.724-4.617-0.039-6.36C9.815,11.482,8.692,11.06,7.569,11.06z M16.914,7.5
		L18.5,9.086L20.586,7L19,5.414L16.914,7.5z"/>
</g>
</svg>
