<?xml version="1.0" encoding="iso-8859-1"?>
<!-- Generator: Adobe Illustrator 24.2.1, SVG Export Plug-In . SVG Version: 6.00 Build 0)  -->
<svg version="1.1" id="Camada_1" xmlns="http://www.w3.org/2000/svg" xmlns:xlink="http://www.w3.org/1999/xlink" x="0px" y="0px"
	 viewBox="0 0 24 24" style="enable-background:new 0 0 24 24;" xml:space="preserve">
<g>
	<path d="M12,13c-0.153,0-0.307-0.035-0.447-0.105l-10-5C1.214,7.725,1,7.379,1,7s0.214-0.725,0.553-0.895l10-5
		c0.281-0.141,0.613-0.141,0.895,0l10,5C22.786,6.275,23,6.621,23,7s-0.214,0.725-0.553,0.895l-10,5C12.307,12.965,12.153,13,12,13z
		 M4.236,7L12,10.882L19.764,7L12,3.118L4.236,7z"/>
</g>
<g>
	<path d="M12,23c-0.153,0-0.307-0.035-0.447-0.105l-10-5c-0.494-0.247-0.694-0.848-0.447-1.342s0.847-0.692,1.342-0.447L12,20.882
		l9.553-4.776c0.495-0.245,1.094-0.047,1.342,0.447c0.247,0.494,0.047,1.095-0.447,1.342l-10,5C12.307,22.965,12.153,23,12,23z"/>
</g>
<g>
	<path d="M12,18c-0.153,0-0.307-0.035-0.447-0.105l-10-5c-0.494-0.247-0.694-0.848-0.447-1.342c0.247-0.493,0.847-0.695,1.342-0.447
		L12,15.882l9.553-4.776c0.495-0.247,1.094-0.047,1.342,0.447c0.247,0.494,0.047,1.095-0.447,1.342l-10,5
		C12.307,17.965,12.153,18,12,18z"/>
</g>
</svg>
