<svg width="22" height="22" viewBox="0 0 22 22" fill="none" xmlns="http://www.w3.org/2000/svg">
<path fill-rule="evenodd" clip-rule="evenodd" d="M3.16211 18.7104C1.20752 16.7239 0 14.0002 0 11C0 7.99982 1.20752 5.27612 3.16211 3.28955C3.17383 3.2757 3.18555 3.26208 3.19824 3.24872L3.22314 3.22302L3.24756 3.19952C3.26123 3.18646 3.27539 3.17389 3.29004 3.16187C5.27637 1.20746 8 0 11 0C14 0 16.7236 1.20746 18.71 3.16187C18.7329 3.18103 18.7554 3.20148 18.7769 3.22302L18.8096 3.2569L18.8379 3.28955C20.7925 5.27612 22 7.99982 22 11C22 14.0002 20.7925 16.7239 18.8379 18.7104L18.8174 18.7341C18.8042 18.7487 18.791 18.763 18.7769 18.777C18.7544 18.7994 18.7319 18.8205 18.708 18.8403C16.7217 20.7935 13.999 22 11 22C7.99951 22 5.27588 20.7922 3.28906 18.8374C3.26611 18.8184 3.24463 18.7983 3.22314 18.777C3.20166 18.7555 3.18115 18.7333 3.16211 18.7104ZM5.38525 18.0289C6.92578 19.2619 8.87842 20 11 20C13.1221 20 15.0747 19.262 16.6147 18.0291L13.7559 15.17C12.9653 15.6944 12.0176 16 11 16C9.98242 16 9.03467 15.6944 8.24414 15.17L5.38525 18.0289ZM6.83008 13.756L3.97119 16.6149C2.73828 15.0746 2 13.1219 2 11C2 8.87836 2.73828 6.9256 3.97119 5.38525L6.83008 8.24402C6.30566 9.03467 6 9.9823 6 11C6 12.0177 6.30566 12.9653 6.83008 13.756ZM16.6147 3.97107C15.0747 2.73816 13.1221 2 11 2C8.87842 2 6.92578 2.73822 5.38525 3.97125L8.24414 6.82996C9.03467 6.3056 9.98242 6 11 6C12.0176 6 12.9653 6.3056 13.7559 6.82996L16.6147 3.97107ZM16 11C16 9.9823 15.6943 9.03467 15.1699 8.24402L18.0288 5.38507C19.2617 6.92548 20 8.8783 20 11C20 13.1221 19.2617 15.0748 18.0288 16.6151L15.1699 13.756C15.6943 12.9653 16 12.0177 16 11ZM11 8C9.34619 8 8 9.34601 8 11C8 12.654 9.34619 14 11 14C12.6538 14 14 12.654 14 11C14 9.34601 12.6538 8 11 8Z" fill="black"/>
</svg>
