<?xml version="1.0" encoding="iso-8859-1"?>
<!-- Generator: Adobe Illustrator 24.2.1, SVG Export Plug-In . SVG Version: 6.00 Build 0)  -->
<svg version="1.1" id="Camada_1" xmlns="http://www.w3.org/2000/svg" xmlns:xlink="http://www.w3.org/1999/xlink" x="0px" y="0px"
	 viewBox="0 0 24 24" style="enable-background:new 0 0 24 24;" xml:space="preserve">
<g>
	<path d="M22,22h-4c-0.553,0-1-0.447-1-1v-7c0-0.552-0.448-1-1-1s-1,0.448-1,1v7c0,0.553-0.447,1-1,1h-4c-0.552,0-1-0.447-1-1v-7
		c0-3.86,3.14-7,7-7c3.859,0,7,3.14,7,7v7C23,21.553,22.553,22,22,22z M19,20h2v-6c0-2.757-2.243-5-5-5s-5,2.243-5,5v6h2v-6
		c0-1.654,1.346-3,3-3s3,1.346,3,3V20z"/>
</g>
<g>
	<path d="M6,22H2c-0.552,0-1-0.447-1-1V9c0-0.552,0.448-1,1-1h4c0.552,0,1,0.448,1,1v12C7,21.553,6.552,22,6,22z M3,20h2V10H3V20z"
		/>
</g>
<g>
	<path d="M4,7C2.346,7,1,5.654,1,4s1.346-3,3-3s3,1.346,3,3S5.654,7,4,7z M4,3C3.449,3,3,3.449,3,4s0.449,1,1,1s1-0.449,1-1
		S4.551,3,4,3z"/>
</g>
</svg>
