<?xml version="1.0" encoding="iso-8859-1"?>
<!-- Generator: Adobe Illustrator 24.2.1, SVG Export Plug-In . SVG Version: 6.00 Build 0)  -->
<svg version="1.1" id="Camada_1" xmlns="http://www.w3.org/2000/svg" xmlns:xlink="http://www.w3.org/1999/xlink" x="0px" y="0px"
	 viewBox="0 0 24 24" style="enable-background:new 0 0 24 24;" xml:space="preserve">
<g>
	<path d="M18,18h-3c-0.553,0-1-0.447-1-1s0.447-1,1-1h3c2.206,0,4-1.794,4-4c0-2.206-1.794-4-4-4h-3c-0.553,0-1-0.448-1-1
		s0.447-1,1-1h3c3.309,0,6,2.691,6,6S21.309,18,18,18z M9,18H6c-3.309,0-6-2.691-6-6s2.691-6,6-6h3c0.552,0,1,0.448,1,1S9.552,8,9,8
		H6c-2.206,0-4,1.794-4,4c0,2.206,1.794,4,4,4h3c0.552,0,1,0.447,1,1S9.552,18,9,18z"/>
</g>
<g>
	<path d="M16,13H8c-0.552,0-1-0.448-1-1s0.448-1,1-1h8c0.553,0,1,0.448,1,1S16.553,13,16,13z"/>
</g>
</svg>
