<?xml version="1.0" encoding="iso-8859-1"?>
<!-- Generator: Adobe Illustrator 24.2.1, SVG Export Plug-In . SVG Version: 6.00 Build 0)  -->
<svg version="1.1" id="Camada_1" xmlns="http://www.w3.org/2000/svg" xmlns:xlink="http://www.w3.org/1999/xlink" x="0px" y="0px"
	 viewBox="0 0 24 24" style="enable-background:new 0 0 24 24;" xml:space="preserve">
<g>
	<path d="M14.012,16.003c-1.829,0-3.635-0.83-4.812-2.404c-0.331-0.442-0.24-1.068,0.202-1.399c0.442-0.331,1.07-0.239,1.4,0.202
		c1.322,1.768,3.832,2.126,5.6,0.807c0.154-0.115,0.298-0.24,0.433-0.375l3-3c1.52-1.574,1.476-4.112-0.11-5.644
		c-1.559-1.505-4-1.505-5.559,0l-1.709,1.7c-0.392,0.389-1.025,0.388-1.414-0.004c-0.39-0.392-0.388-1.025,0.004-1.414l1.72-1.71
		c2.347-2.267,6.01-2.268,8.347-0.01c2.38,2.298,2.446,6.104,0.148,8.484l-3.013,3.012c-0.203,0.203-0.421,0.393-0.65,0.563
		C16.521,15.615,15.262,16.003,14.012,16.003z"/>
</g>
<g>
	<path d="M7.052,22.941c-1.5,0-2.996-0.564-4.164-1.691c-2.379-2.299-2.446-6.105-0.147-8.485l3.012-3.012
		c0.203-0.203,0.42-0.391,0.65-0.562c1.283-0.96,2.86-1.363,4.45-1.134c1.586,0.229,2.988,1.062,3.948,2.345
		c0.331,0.442,0.24,1.069-0.202,1.4c-0.443,0.332-1.069,0.24-1.399-0.202c-0.64-0.856-1.575-1.411-2.632-1.563
		c-1.056-0.154-2.111,0.116-2.966,0.756c-0.153,0.115-0.298,0.24-0.434,0.375l-3,3c-1.52,1.574-1.476,4.111,0.111,5.645
		c1.557,1.504,3.999,1.504,5.557-0.001l1.698-1.697c0.391-0.391,1.023-0.391,1.414,0s0.391,1.023,0,1.414l-1.71,1.71
		C10.061,22.373,8.555,22.94,7.052,22.941z"/>
</g>
</svg>
