<?xml version="1.0" encoding="iso-8859-1"?>
<!-- Generator: Adobe Illustrator 24.2.1, SVG Export Plug-In . SVG Version: 6.00 Build 0)  -->
<svg version="1.1" id="Camada_1" xmlns="http://www.w3.org/2000/svg" xmlns:xlink="http://www.w3.org/1999/xlink" x="0px" y="0px"
	 viewBox="0 0 24 24" style="enable-background:new 0 0 24 24;" xml:space="preserve">
<g>
	<path d="M21,7H8C7.448,7,7,6.552,7,6s0.448-1,1-1h13c0.553,0,1,0.448,1,1S21.553,7,21,7z"/>
</g>
<g>
	<path d="M21,13H8c-0.552,0-1-0.448-1-1s0.448-1,1-1h13c0.553,0,1,0.448,1,1S21.553,13,21,13z"/>
</g>
<g>
	<path d="M21,19H8c-0.552,0-1-0.447-1-1s0.448-1,1-1h13c0.553,0,1,0.447,1,1S21.553,19,21,19z"/>
</g>
<g>
	<path d="M3.01,7C2.458,7,2.005,6.552,2.005,6S2.448,5,3,5h0.01c0.552,0,1,0.448,1,1S3.562,7,3.01,7z"/>
</g>
<g>
	<path d="M3.01,13c-0.552,0-1.005-0.448-1.005-1S2.448,11,3,11h0.01c0.552,0,1,0.448,1,1S3.562,13,3.01,13z"/>
</g>
<g>
	<path d="M3.01,19c-0.552,0-1.005-0.447-1.005-1S2.448,17,3,17h0.01c0.552,0,1,0.447,1,1S3.562,19,3.01,19z"/>
</g>
</svg>
