<?xml version="1.0" encoding="iso-8859-1"?>
<!-- Generator: Adobe Illustrator 24.2.1, SVG Export Plug-In . SVG Version: 6.00 Build 0)  -->
<svg version="1.1" id="Camada_1" xmlns="http://www.w3.org/2000/svg" xmlns:xlink="http://www.w3.org/1999/xlink" x="0px" y="0px"
	 viewBox="0 0 24 24" style="enable-background:new 0 0 24 24;" xml:space="preserve">
<g>
	<path d="M12,7c-0.552,0-1-0.448-1-1V2c0-0.552,0.448-1,1-1s1,0.448,1,1v4C13,6.552,12.552,7,12,7z"/>
</g>
<g>
	<path d="M12,23c-0.552,0-1-0.447-1-1v-4c0-0.553,0.448-1,1-1s1,0.447,1,1v4C13,22.553,12.552,23,12,23z"/>
</g>
<g>
	<path d="M7.76,8.76c-0.256,0-0.512-0.098-0.707-0.293l-2.83-2.83c-0.391-0.391-0.391-1.023,0-1.414s1.023-0.391,1.414,0l2.83,2.83
		c0.391,0.391,0.391,1.023,0,1.414C8.271,8.662,8.016,8.76,7.76,8.76z"/>
</g>
<g>
	<path d="M19.07,20.07c-0.256,0-0.512-0.098-0.707-0.293l-2.83-2.83c-0.391-0.391-0.391-1.023,0-1.414s1.023-0.391,1.414,0
		l2.83,2.83c0.391,0.391,0.391,1.023,0,1.414C19.582,19.973,19.326,20.07,19.07,20.07z"/>
</g>
<g>
	<path d="M6,13H2c-0.552,0-1-0.448-1-1s0.448-1,1-1h4c0.552,0,1,0.448,1,1S6.552,13,6,13z"/>
</g>
<g>
	<path d="M22,13h-4c-0.553,0-1-0.448-1-1s0.447-1,1-1h4c0.553,0,1,0.448,1,1S22.553,13,22,13z"/>
</g>
<g>
	<path d="M4.93,20.07c-0.256,0-0.512-0.098-0.707-0.293c-0.391-0.391-0.391-1.023,0-1.414l2.83-2.83
		c0.391-0.391,1.023-0.391,1.414,0s0.391,1.023,0,1.414l-2.83,2.83C5.442,19.973,5.186,20.07,4.93,20.07z"/>
</g>
<g>
	<path d="M16.24,8.76c-0.256,0-0.512-0.098-0.707-0.293c-0.391-0.391-0.391-1.024,0-1.414l2.83-2.83
		c0.391-0.391,1.023-0.391,1.414,0s0.391,1.024,0,1.414l-2.83,2.83C16.752,8.662,16.496,8.76,16.24,8.76z"/>
</g>
</svg>
