<?xml version="1.0" encoding="iso-8859-1"?>
<!-- Generator: Adobe Illustrator 24.2.1, SVG Export Plug-In . SVG Version: 6.00 Build 0)  -->
<svg version="1.1" id="Camada_1" xmlns="http://www.w3.org/2000/svg" xmlns:xlink="http://www.w3.org/1999/xlink" x="0px" y="0px"
	 viewBox="0 0 24 24" style="enable-background:new 0 0 24 24;" xml:space="preserve">
<g>
	<path d="M19,23H5c-1.654,0-3-1.346-3-3v-7c0-1.654,1.346-3,3-3h14c1.654,0,3,1.346,3,3v7C22,21.654,20.654,23,19,23z M5,12
		c-0.551,0-1,0.449-1,1v7c0,0.552,0.449,1,1,1h14c0.552,0,1-0.448,1-1v-7c0-0.551-0.448-1-1-1H5z"/>
</g>
<g>
	<path d="M17,12c-0.553,0-1-0.448-1-1V7c0-2.206-1.794-4-4-4C9.794,3,8,4.794,8,7v4c0,0.552-0.448,1-1,1s-1-0.448-1-1V7
		c0-3.309,2.691-6,6-6s6,2.691,6,6v4C18,11.552,17.553,12,17,12z"/>
</g>
</svg>
