<?xml version="1.0" encoding="iso-8859-1"?>
<!-- Generator: Adobe Illustrator 24.2.1, SVG Export Plug-In . SVG Version: 6.00 Build 0)  -->
<svg version="1.1" id="Camada_1" xmlns="http://www.w3.org/2000/svg" xmlns:xlink="http://www.w3.org/1999/xlink" x="0px" y="0px"
	 viewBox="0 0 24 24" style="enable-background:new 0 0 24 24;" xml:space="preserve">
<g>
	<path d="M9,22H5c-1.654,0-3-1.346-3-3V5c0-1.654,1.346-3,3-3h4c0.552,0,1,0.448,1,1S9.552,4,9,4H5C4.449,4,4,4.449,4,5v14
		c0,0.552,0.449,1,1,1h4c0.552,0,1,0.447,1,1S9.552,22,9,22z"/>
</g>
<g>
	<path d="M16,18c-0.256,0-0.512-0.098-0.707-0.293c-0.391-0.391-0.391-1.023,0-1.414L19.586,12l-4.293-4.293
		c-0.391-0.391-0.391-1.023,0-1.414s1.023-0.391,1.414,0l5,5c0.391,0.391,0.391,1.023,0,1.414l-5,5C16.512,17.902,16.256,18,16,18z"
		/>
</g>
<g>
	<path d="M21,13H9c-0.552,0-1-0.448-1-1s0.448-1,1-1h12c0.553,0,1,0.448,1,1S21.553,13,21,13z"/>
</g>
</svg>
