<?xml version="1.0" encoding="iso-8859-1"?>
<!-- Generator: Adobe Illustrator 24.2.1, SVG Export Plug-In . SVG Version: 6.00 Build 0)  -->
<svg version="1.1" id="Camada_1" xmlns="http://www.w3.org/2000/svg" xmlns:xlink="http://www.w3.org/1999/xlink" x="0px" y="0px"
	 viewBox="0 0 24 24" style="enable-background:new 0 0 24 24;" xml:space="preserve">
<g>
	<path d="M19,22h-4c-0.553,0-1-0.447-1-1s0.447-1,1-1h4c0.552,0,1-0.448,1-1V5c0-0.551-0.448-1-1-1h-4c-0.553,0-1-0.448-1-1
		s0.447-1,1-1h4c1.654,0,3,1.346,3,3v14C22,20.654,20.654,22,19,22z"/>
</g>
<g>
	<path d="M10,18c-0.256,0-0.512-0.098-0.707-0.293c-0.391-0.391-0.391-1.023,0-1.414L13.586,12L9.293,7.707
		c-0.391-0.391-0.391-1.023,0-1.414s1.023-0.391,1.414,0l5,5c0.391,0.391,0.391,1.023,0,1.414l-5,5C10.512,17.902,10.256,18,10,18z"
		/>
</g>
<g>
	<path d="M15,13H3c-0.552,0-1-0.448-1-1s0.448-1,1-1h12c0.553,0,1,0.448,1,1S15.553,13,15,13z"/>
</g>
</svg>
