<?xml version="1.0" encoding="iso-8859-1"?>
<!-- Generator: Adobe Illustrator 24.2.1, SVG Export Plug-In . SVG Version: 6.00 Build 0)  -->
<svg version="1.1" id="Camada_1" xmlns="http://www.w3.org/2000/svg" xmlns:xlink="http://www.w3.org/1999/xlink" x="0px" y="0px"
	 viewBox="0 0 24 24" style="enable-background:new 0 0 24 24;" xml:space="preserve">
<g>
	<path d="M12,24c-0.193,0-0.387-0.056-0.555-0.168C11.06,23.575,2,17.449,2,10C2,4.486,6.486,0,12,0c5.514,0,10,4.486,10,10
		c0,7.449-9.06,13.575-9.445,13.832C12.387,23.944,12.193,24,12,24z M12,2c-4.411,0-8,3.589-8,8c0,5.413,6.103,10.363,8,11.771
		c1.897-1.407,8-6.357,8-11.771C20,5.589,16.411,2,12,2z"/>
</g>
<g>
	<path d="M12,14c-2.206,0-4-1.794-4-4s1.794-4,4-4c2.206,0,4,1.794,4,4S14.206,14,12,14z M12,8c-1.103,0-2,0.897-2,2s0.897,2,2,2
		c1.103,0,2-0.897,2-2S13.103,8,12,8z"/>
</g>
</svg>
