<?xml version="1.0" encoding="iso-8859-1"?>
<!-- Generator: Adobe Illustrator 24.2.1, SVG Export Plug-In . SVG Version: 6.00 Build 0)  -->
<svg version="1.1" id="Camada_1" xmlns="http://www.w3.org/2000/svg" xmlns:xlink="http://www.w3.org/1999/xlink" x="0px" y="0px"
	 viewBox="0 0 24 24" style="enable-background:new 0 0 24 24;" xml:space="preserve">
<g>
	<path d="M16,23c-0.153,0-0.307-0.035-0.447-0.105l-7.521-3.761l-6.535,3.734c-0.31,0.177-0.69,0.175-0.998-0.003
		C0.19,22.686,0,22.356,0,22V6c0-0.359,0.192-0.69,0.504-0.868l7-4c0.29-0.167,0.644-0.176,0.943-0.026l7.521,3.761l6.535-3.734
		c0.309-0.178,0.689-0.176,0.998,0.003C23.811,1.314,24,1.644,24,2v16c0,0.358-0.192,0.69-0.504,0.868l-7,4
		C16.343,22.956,16.172,23,16,23z M8,17c0.153,0,0.306,0.035,0.447,0.105l7.521,3.761L22,17.42V3.723l-5.504,3.145
		c-0.289,0.167-0.645,0.176-0.943,0.026L8.031,3.134L2,6.58v13.696l5.504-3.145C7.657,17.044,7.829,17,8,17z"/>
</g>
<g>
	<path d="M8,19c-0.552,0-1-0.447-1-1V2c0-0.552,0.448-1,1-1s1,0.448,1,1v16C9,18.553,8.552,19,8,19z"/>
</g>
<g>
	<path d="M16,23c-0.553,0-1-0.447-1-1V6c0-0.552,0.447-1,1-1s1,0.448,1,1v16C17,22.553,16.553,23,16,23z"/>
</g>
</svg>
