<?xml version="1.0" encoding="iso-8859-1"?>
<!-- Generator: Adobe Illustrator 24.2.1, SVG Export Plug-In . SVG Version: 6.00 Build 0)  -->
<svg version="1.1" id="Camada_1" xmlns="http://www.w3.org/2000/svg" xmlns:xlink="http://www.w3.org/1999/xlink" x="0px" y="0px"
	 viewBox="0 0 24 24" style="enable-background:new 0 0 24 24;" xml:space="preserve">
<g>
	<path d="M3,22c-0.261,0-0.517-0.103-0.707-0.293c-0.268-0.268-0.361-0.664-0.242-1.023l1.772-5.317
		C3.28,14.154,2.997,12.826,3,11.498c0.001-3.619,2.015-6.874,5.253-8.492C9.554,2.348,11.016,2,12.479,2c0.008,0,0.016,0,0.024,0
		H13c4.887,0.269,8.731,4.113,8.998,8.945L22,11.5c0.004,1.47-0.345,2.939-1.008,4.251C19.376,18.986,16.121,20.999,12.5,21
		c-1.342,0-2.655-0.28-3.866-0.824l-5.318,1.772C3.212,21.983,3.106,22,3,22z M12.481,4c-1.153,0-2.304,0.274-3.33,0.792
		C6.59,6.072,5.001,8.642,5,11.5c-0.003,1.16,0.271,2.317,0.792,3.348c0.12,0.238,0.141,0.515,0.056,0.768l-1.268,3.803l3.803-1.268
		c0.253-0.086,0.53-0.064,0.768,0.056c1.032,0.523,2.167,0.822,3.346,0.793c2.861-0.001,5.431-1.59,6.708-4.147
		c0.524-1.036,0.799-2.193,0.795-3.35c0-0.001,0-0.002,0-0.003V11c-0.209-3.757-3.242-6.791-7.055-7.001L12.5,4
		C12.494,4,12.487,4,12.481,4z"/>
</g>
</svg>
