<?xml version="1.0" encoding="iso-8859-1"?>
<!-- Generator: Adobe Illustrator 24.2.1, SVG Export Plug-In . SVG Version: 6.00 Build 0)  -->
<svg version="1.1" id="Camada_1" xmlns="http://www.w3.org/2000/svg" xmlns:xlink="http://www.w3.org/1999/xlink" x="0px" y="0px"
	 viewBox="0 0 24 24" style="enable-background:new 0 0 24 24;" xml:space="preserve">
<g>
	<path d="M3,22c-0.129,0-0.259-0.024-0.383-0.076C2.244,21.77,2,21.404,2,21V5c0-1.654,1.346-3,3-3h14c1.654,0,3,1.346,3,3v10
		c0,1.654-1.346,3-3,3H7.414l-3.707,3.707C3.516,21.898,3.26,22,3,22z M5,4C4.449,4,4,4.449,4,5v13.586l2.293-2.293
		C6.48,16.105,6.735,16,7,16h12c0.552,0,1-0.448,1-1V5c0-0.551-0.448-1-1-1H5z"/>
</g>
</svg>
