<?xml version="1.0" encoding="iso-8859-1"?>
<!-- Generator: Adobe Illustrator 24.2.1, SVG Export Plug-In . SVG Version: 6.00 Build 0)  -->
<svg version="1.1" id="Camada_1" xmlns="http://www.w3.org/2000/svg" xmlns:xlink="http://www.w3.org/1999/xlink" x="0px" y="0px"
	 viewBox="0 0 24 24" style="enable-background:new 0 0 24 24;" xml:space="preserve">
<g>
	<path d="M23,24c-0.256,0-0.512-0.098-0.707-0.293l-22-22c-0.391-0.391-0.391-1.023,0-1.414s1.023-0.391,1.414,0l22,22
		c0.391,0.391,0.391,1.023,0,1.414C23.512,23.902,23.256,24,23,24z"/>
</g>
<g>
	<path d="M11.998,15.997c-1.065,0-2.068-0.415-2.824-1.169C8.418,14.073,8.001,13.069,8,12.001V9c0-0.552,0.448-1,1-1s1,0.448,1,1v3
		c0,0.534,0.209,1.035,0.587,1.413c0.377,0.377,0.879,0.584,1.412,0.584c0,0,0.001,0,0.002,0c0.534,0,1.035-0.207,1.412-0.584
		c0.391-0.391,1.023-0.391,1.414,0s0.391,1.023,0,1.414c-0.754,0.755-1.758,1.17-2.825,1.17
		C12.001,15.997,11.999,15.997,11.998,15.997z M15,10.34c-0.553,0-1-0.448-1-1V4c0.001-0.535-0.207-1.038-0.584-1.416
		c-0.378-0.378-0.88-0.586-1.414-0.587c0,0-0.001,0-0.002,0c-0.947,0-1.771,0.673-1.96,1.602C9.93,4.14,9.404,4.488,8.861,4.38
		C8.32,4.27,7.97,3.742,8.08,3.201C8.457,1.344,10.105-0.003,12-0.003c0.001,0,0.002,0,0.004,0c1.068,0.001,2.073,0.418,2.827,1.174
		c0.755,0.756,1.17,1.761,1.169,2.83V9.34C16,9.892,15.553,10.34,15,10.34z"/>
</g>
<g>
	<path d="M12,20.048c-2.021,0-4.043-0.759-5.598-2.281C4.86,16.256,3.984,14.151,4,11.993V10c0-0.552,0.448-1,1-1s1,0.448,1,1v2
		c-0.012,1.626,0.645,3.205,1.801,4.338c2.365,2.315,6.171,2.276,8.484-0.088c0.389-0.393,1.02-0.4,1.415-0.015
		c0.395,0.387,0.4,1.021,0.015,1.415C16.15,19.247,14.075,20.048,12,20.048z M18.891,14.23c-0.059,0-0.118-0.005-0.179-0.016
		c-0.543-0.099-0.904-0.618-0.807-1.162C17.968,12.705,18,12.351,18,12v-2c0-0.552,0.447-1,1-1s1,0.448,1,1v2
		c0,0.47-0.042,0.943-0.126,1.408C19.786,13.892,19.365,14.23,18.891,14.23z"/>
</g>
<g>
	<path d="M12,24c-0.552,0-1-0.447-1-1v-4c0-0.553,0.448-1,1-1s1,0.447,1,1v4C13,23.553,12.552,24,12,24z"/>
</g>
<g>
	<path d="M16,24H8c-0.552,0-1-0.447-1-1s0.448-1,1-1h8c0.553,0,1,0.447,1,1S16.553,24,16,24z"/>
</g>
</svg>
