<?xml version="1.0" encoding="iso-8859-1"?>
<!-- Generator: Adobe Illustrator 24.2.1, SVG Export Plug-In . SVG Version: 6.00 Build 0)  -->
<svg version="1.1" id="Camada_1" xmlns="http://www.w3.org/2000/svg" xmlns:xlink="http://www.w3.org/1999/xlink" x="0px" y="0px"
	 viewBox="0 0 24 24" style="enable-background:new 0 0 24 24;" xml:space="preserve">
<g>
	<path d="M12,16c-2.206,0-4-1.794-4-4V4c0-2.206,1.794-4,4-4c2.206,0,4,1.794,4,4v8C16,14.206,14.206,16,12,16z M12,2
		c-1.103,0-2,0.897-2,2v8c0,1.103,0.897,2,2,2c1.103,0,2-0.897,2-2V4C14,2.897,13.103,2,12,2z"/>
</g>
<g>
	<path d="M12,20c-4.411,0-8-3.589-8-8v-2c0-0.552,0.448-1,1-1s1,0.448,1,1v2c0,3.309,2.691,6,6,6s6-2.691,6-6v-2
		c0-0.552,0.447-1,1-1s1,0.448,1,1v2C20,16.411,16.411,20,12,20z"/>
</g>
<g>
	<path d="M12,24c-0.552,0-1-0.447-1-1v-4c0-0.553,0.448-1,1-1s1,0.447,1,1v4C13,23.553,12.552,24,12,24z"/>
</g>
<g>
	<path d="M16,24H8c-0.552,0-1-0.447-1-1s0.448-1,1-1h8c0.553,0,1,0.447,1,1S16.553,24,16,24z"/>
</g>
</svg>
