<?xml version="1.0" encoding="iso-8859-1"?>
<!-- Generator: Adobe Illustrator 24.2.1, SVG Export Plug-In . SVG Version: 6.00 Build 0)  -->
<svg version="1.1" id="Camada_1" xmlns="http://www.w3.org/2000/svg" xmlns:xlink="http://www.w3.org/1999/xlink" x="0px" y="0px"
	 viewBox="0 0 24 24" style="enable-background:new 0 0 24 24;" xml:space="preserve">
<g>
	<path d="M10,21c-0.552,0-1-0.447-1-1v-5H4c-0.552,0-1-0.447-1-1s0.448-1,1-1h6c0.552,0,1,0.447,1,1v6C11,20.553,10.552,21,10,21z"
		/>
</g>
<g>
	<path d="M20,11h-6c-0.553,0-1-0.448-1-1V4c0-0.552,0.447-1,1-1s1,0.448,1,1v5h5c0.553,0,1,0.448,1,1S20.553,11,20,11z"/>
</g>
<g>
	<path d="M14,11c-0.256,0-0.512-0.098-0.707-0.293c-0.391-0.391-0.391-1.023,0-1.414l7-7c0.391-0.391,1.023-0.391,1.414,0
		s0.391,1.023,0,1.414l-7,7C14.512,10.902,14.256,11,14,11z"/>
</g>
<g>
	<path d="M3,22c-0.256,0-0.512-0.098-0.707-0.293c-0.391-0.391-0.391-1.023,0-1.414l7-7c0.391-0.391,1.023-0.391,1.414,0
		s0.391,1.023,0,1.414l-7,7C3.512,21.902,3.256,22,3,22z"/>
</g>
</svg>
