<?xml version="1.0" encoding="iso-8859-1"?>
<!-- Generator: Adobe Illustrator 24.2.1, SVG Export Plug-In . SVG Version: 6.00 Build 0)  -->
<svg version="1.1" id="Camada_1" xmlns="http://www.w3.org/2000/svg" xmlns:xlink="http://www.w3.org/1999/xlink" x="0px" y="0px"
	 viewBox="0 0 24 24" style="enable-background:new 0 0 24 24;" xml:space="preserve">
<g>
	<path d="M16,22c-0.553,0-1-0.447-1-1v-3c0-1.654,1.346-3,3-3h3c0.553,0,1,0.447,1,1s-0.447,1-1,1h-3c-0.552,0-1,0.448-1,1v3
		C17,21.553,16.553,22,16,22z M8,22c-0.552,0-1-0.447-1-1v-3c0-0.552-0.449-1-1-1H3c-0.552,0-1-0.447-1-1s0.448-1,1-1h3
		c1.654,0,3,1.346,3,3v3C9,21.553,8.552,22,8,22z M21,9h-3c-1.654,0-3-1.346-3-3V3c0-0.552,0.447-1,1-1s1,0.448,1,1v3
		c0,0.551,0.448,1,1,1h3c0.553,0,1,0.448,1,1S21.553,9,21,9z M6,9H3C2.448,9,2,8.552,2,8s0.448-1,1-1h3c0.551,0,1-0.449,1-1V3
		c0-0.552,0.448-1,1-1s1,0.448,1,1v3C9,7.654,7.654,9,6,9z"/>
</g>
</svg>
