<?xml version="1.0" encoding="iso-8859-1"?>
<!-- Generator: Adobe Illustrator 24.2.1, SVG Export Plug-In . SVG Version: 6.00 Build 0)  -->
<svg version="1.1" id="Camada_1" xmlns="http://www.w3.org/2000/svg" xmlns:xlink="http://www.w3.org/1999/xlink" x="0px" y="0px"
	 viewBox="0 0 24 24" style="enable-background:new 0 0 24 24;" xml:space="preserve">
<g>
	<path d="M20,18H4c-1.654,0-3-1.346-3-3V5c0-1.654,1.346-3,3-3h16c1.654,0,3,1.346,3,3v10C23,16.654,21.654,18,20,18z M4,4
		C3.449,4,3,4.449,3,5v10c0,0.552,0.449,1,1,1h16c0.552,0,1-0.448,1-1V5c0-0.551-0.448-1-1-1H4z"/>
</g>
<g>
	<path d="M16,22H8c-0.552,0-1-0.447-1-1s0.448-1,1-1h8c0.553,0,1,0.447,1,1S16.553,22,16,22z"/>
</g>
<g>
	<path d="M12,22c-0.552,0-1-0.447-1-1v-4c0-0.553,0.448-1,1-1s1,0.447,1,1v4C13,21.553,12.552,22,12,22z"/>
</g>
</svg>
