<?xml version="1.0" encoding="iso-8859-1"?>
<!-- Generator: Adobe Illustrator 24.2.1, SVG Export Plug-In . SVG Version: 6.00 Build 0)  -->
<svg version="1.1" id="Camada_1" xmlns="http://www.w3.org/2000/svg" xmlns:xlink="http://www.w3.org/1999/xlink" x="0px" y="0px"
	 viewBox="0 0 24 24" style="enable-background:new 0 0 24 24;" xml:space="preserve">
<g>
	<path d="M12.055,21.963c-0.311,0-0.624-0.015-0.937-0.043c-5.491-0.509-9.545-5.388-9.038-10.878
		c0.443-4.794,4.244-8.595,9.038-9.038c0.388-0.036,0.77,0.161,0.963,0.504c0.193,0.344,0.167,0.769-0.067,1.085
		c-1.967,2.661-1.402,6.425,1.258,8.392c2.134,1.578,5.001,1.577,7.133,0c0.317-0.234,0.742-0.261,1.086-0.067
		c0.343,0.193,0.541,0.57,0.505,0.963c-0.246,2.66-1.513,5.064-3.567,6.771C16.616,21.159,14.382,21.963,12.055,21.963z
		 M9.315,4.438c-2.858,1.034-4.953,3.644-5.244,6.787c-0.405,4.393,2.838,8.296,7.23,8.702c2.123,0.195,4.204-0.447,5.848-1.812
		c1.111-0.924,1.935-2.103,2.412-3.426c-2.469,0.903-5.27,0.539-7.479-1.096C9.174,11.443,8.145,7.68,9.315,4.438z"/>
</g>
</svg>
