<?xml version="1.0" encoding="iso-8859-1"?>
<!-- Generator: Adobe Illustrator 24.2.1, SVG Export Plug-In . SVG Version: 6.00 Build 0)  -->
<svg version="1.1" id="Camada_1" xmlns="http://www.w3.org/2000/svg" xmlns:xlink="http://www.w3.org/1999/xlink" x="0px" y="0px"
	 viewBox="0 0 24 24" style="enable-background:new 0 0 24 24;" xml:space="preserve">
<g>
	<path d="M10.07,20.97c-0.403,0-0.768-0.242-0.923-0.615l-7.07-16.97C1.921,3.011,2.006,2.58,2.293,2.293
		C2.58,2.006,3.011,1.921,3.385,2.077l16.97,7.07c0.384,0.16,0.629,0.541,0.614,0.957c-0.014,0.416-0.283,0.779-0.678,0.913
		l-6.923,2.352l-2.352,6.923c-0.134,0.395-0.498,0.664-0.913,0.678C10.092,20.97,10.081,20.97,10.07,20.97z M4.857,4.857
		l5.118,12.284l1.659-4.882c0.1-0.294,0.331-0.525,0.625-0.625l4.882-1.659L4.857,4.857z"/>
</g>
<g>
	<path d="M19,20c-0.256,0-0.512-0.098-0.707-0.293l-6-6c-0.391-0.391-0.391-1.023,0-1.414s1.023-0.391,1.414,0l6,6
		c0.391,0.391,0.391,1.023,0,1.414C19.512,19.902,19.256,20,19,20z"/>
</g>
</svg>
