<?xml version="1.0" encoding="iso-8859-1"?>
<!-- Generator: Adobe Illustrator 24.2.1, SVG Export Plug-In . SVG Version: 6.00 Build 0)  -->
<svg version="1.1" id="Camada_1" xmlns="http://www.w3.org/2000/svg" xmlns:xlink="http://www.w3.org/1999/xlink" x="0px" y="0px"
	 viewBox="0 0 24 24" style="enable-background:new 0 0 24 24;" xml:space="preserve">
<g>
	<path d="M5,16c-0.256,0-0.512-0.098-0.707-0.293l-3-3c-0.391-0.391-0.391-1.023,0-1.414l3-3c0.391-0.391,1.023-0.391,1.414,0
		s0.391,1.023,0,1.414L3.414,12l2.293,2.293c0.391,0.391,0.391,1.023,0,1.414C5.512,15.902,5.256,16,5,16z"/>
</g>
<g>
	<path d="M15,6c-0.256,0-0.512-0.098-0.707-0.293L12,3.414L9.707,5.707c-0.391,0.391-1.023,0.391-1.414,0s-0.391-1.023,0-1.414l3-3
		c0.391-0.391,1.023-0.391,1.414,0l3,3c0.391,0.391,0.391,1.023,0,1.414C15.512,5.902,15.256,6,15,6z"/>
</g>
<g>
	<path d="M12,23c-0.256,0-0.512-0.098-0.707-0.293l-3-3c-0.391-0.391-0.391-1.023,0-1.414s1.023-0.391,1.414,0L12,20.586
		l2.293-2.293c0.391-0.391,1.023-0.391,1.414,0s0.391,1.023,0,1.414l-3,3C12.512,22.902,12.256,23,12,23z"/>
</g>
<g>
	<path d="M19,16c-0.256,0-0.512-0.098-0.707-0.293c-0.391-0.391-0.391-1.023,0-1.414L20.586,12l-2.293-2.293
		c-0.391-0.391-0.391-1.023,0-1.414s1.023-0.391,1.414,0l3,3c0.391,0.391,0.391,1.023,0,1.414l-3,3C19.512,15.902,19.256,16,19,16z"
		/>
</g>
<g>
	<path d="M22,13H2c-0.552,0-1-0.448-1-1s0.448-1,1-1h20c0.553,0,1,0.448,1,1S22.553,13,22,13z"/>
</g>
<g>
	<path d="M12,23c-0.552,0-1-0.447-1-1V2c0-0.552,0.448-1,1-1s1,0.448,1,1v20C13,22.553,12.552,23,12,23z"/>
</g>
</svg>
