<?xml version="1.0" encoding="iso-8859-1"?>
<!-- Generator: Adobe Illustrator 24.2.1, SVG Export Plug-In . SVG Version: 6.00 Build 0)  -->
<svg version="1.1" id="Camada_1" xmlns="http://www.w3.org/2000/svg" xmlns:xlink="http://www.w3.org/1999/xlink" x="0px" y="0px"
	 viewBox="0 0 24 24" style="enable-background:new 0 0 24 24;" xml:space="preserve">
<g>
	<path d="M9,19c-0.552,0-1-0.447-1-1V5c0-0.489,0.354-0.906,0.835-0.986l12-2c0.291-0.047,0.587,0.034,0.811,0.223
		C21.871,2.427,22,2.706,22,3v13c0,0.553-0.447,1-1,1s-1-0.447-1-1V4.181L10,5.847V18C10,18.553,9.552,19,9,19z"/>
</g>
<g>
	<path d="M6,22c-2.206,0-4-1.794-4-4s1.794-4,4-4s4,1.794,4,4S8.206,22,6,22z M6,16c-1.103,0-2,0.897-2,2s0.897,2,2,2s2-0.897,2-2
		S7.103,16,6,16z"/>
</g>
<g>
	<path d="M18,20c-2.206,0-4-1.794-4-4s1.794-4,4-4s4,1.794,4,4S20.206,20,18,20z M18,14c-1.103,0-2,0.897-2,2s0.897,2,2,2
		s2-0.897,2-2S19.103,14,18,14z"/>
</g>
</svg>
