<?xml version="1.0" encoding="iso-8859-1"?>
<!-- Generator: Adobe Illustrator 24.2.1, SVG Export Plug-In . SVG Version: 6.00 Build 0)  -->
<svg version="1.1" id="Camada_1" xmlns="http://www.w3.org/2000/svg" xmlns:xlink="http://www.w3.org/1999/xlink" x="0px" y="0px"
	 viewBox="0 0 24 24" style="enable-background:new 0 0 24 24;" xml:space="preserve">
<g>
	<path d="M13,22c-0.032,0-0.065-0.002-0.099-0.005c-0.42-0.042-0.769-0.343-0.872-0.753l-1.854-7.418L2.757,11.97
		c-0.41-0.103-0.711-0.451-0.752-0.872s0.186-0.822,0.567-1.002l19-9c0.381-0.181,0.837-0.103,1.135,0.197
		c0.299,0.299,0.378,0.753,0.196,1.135l-9,19C13.737,21.779,13.384,22,13,22z M5.953,10.708l5.29,1.322
		c0.358,0.09,0.638,0.37,0.728,0.728l1.322,5.29l6.605-13.944L5.953,10.708z"/>
</g>
</svg>
