<?xml version="1.0" encoding="iso-8859-1"?>
<!-- Generator: Adobe Illustrator 24.2.1, SVG Export Plug-In . SVG Version: 6.00 Build 0)  -->
<svg version="1.1" id="Camada_1" xmlns="http://www.w3.org/2000/svg" xmlns:xlink="http://www.w3.org/1999/xlink" x="0px" y="0px"
	 viewBox="0 0 24 24" style="enable-background:new 0 0 24 24;" xml:space="preserve">
<g>
	<path d="M19,22c-0.171,0-0.342-0.043-0.496-0.132L12,18.151l-6.504,3.717c-0.365,0.21-0.821,0.167-1.142-0.104
		c-0.321-0.271-0.438-0.715-0.292-1.109l7-19C11.207,1.261,11.581,1,12,1s0.793,0.261,0.938,0.654l7,19
		c0.146,0.395,0.028,0.838-0.293,1.109C19.461,21.92,19.231,22,19,22z M12,16c0.171,0,0.342,0.044,0.496,0.132l4.616,2.638L12,4.893
		L6.887,18.77l4.617-2.638C11.658,16.044,11.829,16,12,16z"/>
</g>
</svg>
