<?xml version="1.0" encoding="iso-8859-1"?>
<!-- Generator: Adobe Illustrator 24.2.1, SVG Export Plug-In . SVG Version: 6.00 Build 0)  -->
<svg version="1.1" id="Camada_1" xmlns="http://www.w3.org/2000/svg" xmlns:xlink="http://www.w3.org/1999/xlink" x="0px" y="0px"
	 viewBox="0 0 24 24" style="enable-background:new 0 0 24 24;" xml:space="preserve">
<g>
	<path d="M16.14,23H7.86c-0.265,0-0.52-0.105-0.707-0.293l-5.86-5.86C1.105,16.659,1,16.405,1,16.14V7.86
		c0-0.265,0.105-0.52,0.293-0.707l5.86-5.86C7.34,1.105,7.595,1,7.86,1h8.28c0.266,0,0.52,0.105,0.707,0.293l5.86,5.86
		C22.895,7.34,23,7.595,23,7.86v8.28c0,0.266-0.105,0.52-0.293,0.707l-5.86,5.86C16.659,22.895,16.405,23,16.14,23z M8.274,21h7.452
		L21,15.726V8.274L15.726,3H8.274L3,8.274v7.452L8.274,21z"/>
</g>
</svg>
