<?xml version="1.0" encoding="iso-8859-1"?>
<!-- Generator: Adobe Illustrator 24.2.1, SVG Export Plug-In . SVG Version: 6.00 Build 0)  -->
<svg version="1.1" id="Camada_1" xmlns="http://www.w3.org/2000/svg" xmlns:xlink="http://www.w3.org/1999/xlink" x="0px" y="0px"
	 viewBox="0 0 24 24" style="enable-background:new 0 0 24 24;" xml:space="preserve">
<g>
	<path d="M16.499,10.4c-0.17,0-0.341-0.043-0.499-0.134l-9-5.19C6.522,4.8,6.358,4.189,6.634,3.71C6.909,3.231,7.521,3.066,8,3.344
		l9,5.19c0.478,0.276,0.643,0.887,0.366,1.366C17.181,10.221,16.845,10.4,16.499,10.4z"/>
</g>
<g>
	<path d="M12.001,22.997c-0.519,0-1.038-0.134-1.5-0.4l-6.997-3.998C2.576,18.062,2.001,17.068,2,16.001V8
		c0-1.068,0.576-2.062,1.5-2.596l7.004-4.002c0.92-0.533,2.07-0.532,2.996,0.002l6.996,3.998c0.928,0.536,1.503,1.53,1.504,2.597V16
		v0.001c-0.001,1.067-0.576,2.062-1.499,2.595l-7.005,4.003C13.036,22.864,12.519,22.997,12.001,22.997z M11.999,3.002
		c-0.173,0-0.345,0.045-0.499,0.133L4.496,7.138C4.192,7.314,4,7.646,4,8v8c0,0.354,0.192,0.687,0.5,0.865l6.996,3.997
		c0.311,0.179,0.694,0.18,1.005,0.002l7.003-4.002c0.304-0.176,0.495-0.508,0.496-0.863V8c-0.001-0.354-0.192-0.686-0.5-0.864
		l-6.996-3.998C12.347,3.048,12.173,3.002,11.999,3.002z M21,16h0.01H21z"/>
</g>
<g>
	<path d="M12,13.01c-0.173,0-0.346-0.045-0.5-0.134l-8.73-5.05C2.291,7.549,2.128,6.938,2.404,6.459
		c0.277-0.479,0.89-0.642,1.366-0.365L12,10.854l8.229-4.76c0.479-0.278,1.091-0.113,1.366,0.365
		c0.277,0.478,0.113,1.089-0.364,1.366l-8.731,5.05C12.346,12.965,12.173,13.01,12,13.01z"/>
</g>
<g>
	<path d="M12,23.08c-0.552,0-1-0.447-1-1V12c0-0.552,0.448-1,1-1s1,0.448,1,1v10.08C13,22.633,12.552,23.08,12,23.08z"/>
</g>
</svg>
