<?xml version="1.0" encoding="iso-8859-1"?>
<!-- Generator: Adobe Illustrator 24.2.1, SVG Export Plug-In . SVG Version: 6.00 Build 0)  -->
<svg version="1.1" id="Camada_1" xmlns="http://www.w3.org/2000/svg" xmlns:xlink="http://www.w3.org/1999/xlink" x="0px" y="0px"
	 viewBox="0 0 24 24" style="enable-background:new 0 0 24 24;" xml:space="preserve">
<g>
	<path d="M8.005,22.995c-1.793,0-3.586-0.683-4.952-2.048c-2.73-2.73-2.73-7.174,0-9.904l9.19-9.19
		c0.944-0.945,2.2-1.465,3.537-1.465c1.336,0,2.592,0.521,3.537,1.465c1.95,1.95,1.95,5.124,0,7.074l-9.201,9.19
		c-1.171,1.17-3.075,1.169-4.244,0c-0.567-0.566-0.879-1.32-0.879-2.122s0.312-1.556,0.879-2.122l8.49-8.48
		c0.391-0.39,1.024-0.391,1.415,0.001c0.39,0.391,0.39,1.024-0.001,1.414l-8.491,8.48c-0.189,0.188-0.293,0.439-0.293,0.707
		s0.104,0.519,0.293,0.708c0.39,0.391,1.025,0.391,1.416,0l9.2-9.19c1.17-1.17,1.17-3.075,0-4.246c-1.136-1.135-3.112-1.133-4.246,0
		l-9.19,9.19c-1.95,1.951-1.95,5.125,0,7.076c1.951,1.95,5.125,1.95,7.076,0l9.19-9.19c0.391-0.391,1.023-0.391,1.414,0
		s0.391,1.023,0,1.414l-9.19,9.19C11.592,22.312,9.798,22.995,8.005,22.995z"/>
</g>
</svg>
