<?xml version="1.0" encoding="iso-8859-1"?>
<!-- Generator: Adobe Illustrator 24.2.1, SVG Export Plug-In . SVG Version: 6.00 Build 0)  -->
<svg version="1.1" id="Camada_1" xmlns="http://www.w3.org/2000/svg" xmlns:xlink="http://www.w3.org/1999/xlink" x="0px" y="0px"
	 viewBox="0 0 24 24" style="enable-background:new 0 0 24 24;" xml:space="preserve">
<g>
	<path d="M12,23C5.935,23,1,18.065,1,12S5.935,1,12,1s11,4.935,11,11S18.065,23,12,23z M12,3c-4.962,0-9,4.038-9,9
		c0,4.963,4.038,9,9,9c4.963,0,9-4.037,9-9C21,7.038,16.963,3,12,3z"/>
</g>
<g>
	<path d="M10,16c-0.552,0-1-0.447-1-1V9c0-0.552,0.448-1,1-1s1,0.448,1,1v6C11,15.553,10.552,16,10,16z"/>
</g>
<g>
	<path d="M14,16c-0.553,0-1-0.447-1-1V9c0-0.552,0.447-1,1-1s1,0.448,1,1v6C15,15.553,14.553,16,14,16z"/>
</g>
</svg>
