<?xml version="1.0" encoding="iso-8859-1"?>
<!-- Generator: Adobe Illustrator 24.2.1, SVG Export Plug-In . SVG Version: 6.00 Build 0)  -->
<svg version="1.1" id="Camada_1" xmlns="http://www.w3.org/2000/svg" xmlns:xlink="http://www.w3.org/1999/xlink" x="0px" y="0px"
	 viewBox="0 0 24 24" style="enable-background:new 0 0 24 24;" xml:space="preserve">
<g>
	<path d="M10,21H6c-0.552,0-1-0.447-1-1V4c0-0.552,0.448-1,1-1h4c0.552,0,1,0.448,1,1v16C11,20.553,10.552,21,10,21z M7,19h2V5H7V19
		z"/>
</g>
<g>
	<path d="M18,21h-4c-0.553,0-1-0.447-1-1V4c0-0.552,0.447-1,1-1h4c0.553,0,1,0.448,1,1v16C19,20.553,18.553,21,18,21z M15,19h2V5h-2
		V19z"/>
</g>
</svg>
