<?xml version="1.0" encoding="iso-8859-1"?>
<!-- Generator: Adobe Illustrator 24.2.1, SVG Export Plug-In . SVG Version: 6.00 Build 0)  -->
<svg version="1.1" id="Camada_1" xmlns="http://www.w3.org/2000/svg" xmlns:xlink="http://www.w3.org/1999/xlink" x="0px" y="0px"
	 viewBox="0 0 24 24" style="enable-background:new 0 0 24 24;" xml:space="preserve">
<g>
	<path d="M15,23c-0.256,0-0.512-0.098-0.707-0.293l-3-3c-0.391-0.391-0.391-1.023,0-1.414l7-7c0.391-0.391,1.023-0.391,1.414,0l3,3
		c0.391,0.391,0.391,1.023,0,1.414l-7,7C15.512,22.902,15.256,23,15,23z M13.414,19L15,20.586L20.586,15L19,13.414L13.414,19z"/>
</g>
<g>
	<path d="M13,19c-0.065,0-0.131-0.007-0.196-0.02l-7.5-1.5c-0.382-0.076-0.685-0.367-0.776-0.746l-3.5-14.5
		C0.946,1.896,1.046,1.539,1.293,1.293c0.246-0.247,0.602-0.344,0.942-0.265l14.5,3.5c0.379,0.091,0.67,0.394,0.746,0.776l1.5,7.5
		c0.065,0.328-0.037,0.667-0.273,0.903l-5,5C13.518,18.896,13.263,19,13,19z M6.322,15.645l6.349,1.27l4.243-4.243l-1.27-6.349
		L3.356,3.356L6.322,15.645z"/>
</g>
<g>
	<path d="M9.586,10.586c-0.256,0-0.512-0.098-0.707-0.293L1.293,2.707c-0.391-0.391-0.391-1.023,0-1.414s1.023-0.391,1.414,0
		l7.586,7.586c0.391,0.391,0.391,1.023,0,1.414C10.098,10.488,9.842,10.586,9.586,10.586z"/>
</g>
<g>
	<path d="M11,14c-1.654,0-3-1.346-3-3s1.346-3,3-3s3,1.346,3,3S12.654,14,11,14z M11,10c-0.551,0-1,0.449-1,1s0.449,1,1,1
		s1-0.449,1-1S11.551,10,11,10z"/>
</g>
</svg>
