<svg width="22" height="22" viewBox="0 0 22 22" fill="none" xmlns="http://www.w3.org/2000/svg">
<path fill-rule="evenodd" clip-rule="evenodd" d="M8.70724 7.29322L4.22043 2.8061L14.6443 5.323L15.9143 11.672L11.6711 15.915L5.32199 14.645L2.80588 4.21979L7.29318 8.70728C7.10519 9.09894 7.00021 9.53742 7.00021 10C7.00021 11.654 8.3464 13 10.0002 13C11.654 13 13.0002 11.654 13.0002 10C13.0002 8.34602 11.654 7.00001 10.0002 7.00001C9.53781 7.00001 9.09884 7.10529 8.70724 7.29322ZM3.52804 15.734L0.0353675 1.26514L0.0280433 1.23402C-0.0198083 1.03272 -0.00564815 0.817573 0.0729651 0.623908C0.0881018 0.586311 0.106168 0.549445 0.126188 0.513557C0.170133 0.434577 0.225797 0.360236 0.29318 0.293037C0.326383 0.260078 0.360563 0.229865 0.396696 0.202461C0.64816 0.0114815 0.96945 -0.0445488 1.26144 0.0343697L15.7351 3.52802C16.114 3.61903 16.405 3.922 16.4812 4.30402L17.634 10.069C17.882 9.97138 18.1613 9.97694 18.406 10.0858C18.4763 10.1169 18.5432 10.1564 18.6062 10.2045C18.6413 10.2313 18.675 10.2609 18.7072 10.293L21.7072 13.293C22.0984 13.684 22.0984 14.316 21.7072 14.707L14.7072 21.707C14.5124 21.902 14.2561 22 14.0002 22C13.7444 22 13.488 21.902 13.2932 21.707L10.2932 18.707C10.0022 18.4162 9.92795 17.9921 10.0695 17.633L4.30441 16.48C3.92209 16.404 3.61935 16.113 3.52804 15.734ZM12.6828 17.7313L12.4143 18L14.0002 19.586L19.5861 14L18.0002 12.414L17.7336 12.6805L17.7082 12.707L12.7082 17.707L12.6828 17.7313ZM11.0002 10C11.0002 10.551 10.551 11 10.0002 11C9.44943 11 9.00021 10.551 9.00021 10C9.00021 9.44898 9.44943 9.00001 10.0002 9.00001C10.551 9.00001 11.0002 9.44898 11.0002 10Z" fill="black"/>
</svg>
