<?xml version="1.0" encoding="iso-8859-1"?>
<!-- Generator: Adobe Illustrator 24.2.1, SVG Export Plug-In . SVG Version: 6.00 Build 0)  -->
<svg version="1.1" id="Camada_1" xmlns="http://www.w3.org/2000/svg" xmlns:xlink="http://www.w3.org/1999/xlink" x="0px" y="0px"
	 viewBox="0 0 24 24" style="enable-background:new 0 0 24 24;" xml:space="preserve">
<g>
	<path d="M5,20c-0.256,0-0.512-0.098-0.707-0.293c-0.391-0.391-0.391-1.023,0-1.414l14-14c0.391-0.391,1.023-0.391,1.414,0
		s0.391,1.023,0,1.414l-14,14C5.512,19.902,5.256,20,5,20z"/>
</g>
<g>
	<path d="M6.5,10C4.57,10,3,8.43,3,6.5S4.57,3,6.5,3S10,4.57,10,6.5S8.43,10,6.5,10z M6.5,5C5.673,5,5,5.673,5,6.5S5.673,8,6.5,8
		S8,7.327,8,6.5S7.327,5,6.5,5z"/>
</g>
<g>
	<path d="M17.5,21c-1.93,0-3.5-1.57-3.5-3.5s1.57-3.5,3.5-3.5s3.5,1.57,3.5,3.5S19.43,21,17.5,21z M17.5,16
		c-0.827,0-1.5,0.673-1.5,1.5s0.673,1.5,1.5,1.5s1.5-0.673,1.5-1.5S18.327,16,17.5,16z"/>
</g>
</svg>
