<?xml version="1.0" encoding="iso-8859-1"?>
<!-- Generator: Adobe Illustrator 24.2.1, SVG Export Plug-In . SVG Version: 6.00 Build 0)  -->
<svg version="1.1" id="Camada_1" xmlns="http://www.w3.org/2000/svg" xmlns:xlink="http://www.w3.org/1999/xlink" x="0px" y="0px"
	 viewBox="0 0 24 24" style="enable-background:new 0 0 24 24;" xml:space="preserve">
<g>
	<path d="M20.013,22.898c-0.099,0-0.192-0.004-0.286-0.013c-3.229-0.351-6.365-1.466-9.081-3.227
		c-1.256-0.798-2.434-1.742-3.493-2.802c-0.391-0.391-0.391-1.023,0-1.414s1.023-0.391,1.414,0c0.956,0.956,2.019,1.809,3.16,2.533
		c2.462,1.596,5.295,2.604,8.201,2.919c0.357,0.015,0.595-0.104,0.782-0.293c0.188-0.19,0.291-0.441,0.29-0.708V16.89
		c0.005-0.51-0.364-0.939-0.859-1.01c-1.021-0.134-2.04-0.388-3.02-0.752c-0.369-0.14-0.782-0.052-1.058,0.223l-1.267,1.267
		c-0.319,0.318-0.812,0.384-1.201,0.162c-1.328-0.755-2.547-1.685-3.624-2.764c-0.39-0.391-0.389-1.024,0.001-1.414
		c0.392-0.39,1.025-0.39,1.415,0.001c0.771,0.773,1.625,1.459,2.547,2.047l0.718-0.718c0.833-0.824,2.075-1.09,3.169-0.678
		c0.835,0.311,1.707,0.527,2.588,0.644c1.495,0.211,2.604,1.501,2.59,3.001v2.99c0.004,0.797-0.306,1.552-0.87,2.121
		S20.813,22.895,20.013,22.898z M5.191,13.811c-0.328,0-0.648-0.161-0.84-0.456c-1.76-2.715-2.875-5.85-3.225-9.066
		c-0.074-0.816,0.169-1.594,0.682-2.21c0.514-0.615,1.236-0.994,2.034-1.066C3.932,1.004,4.021,1,4.11,1h3c0.01,0,0.02,0,0.029,0
		C8.618,1,9.892,2.104,10.1,3.581c0.118,0.893,0.335,1.764,0.647,2.6c0.41,1.091,0.145,2.333-0.676,3.163l-1.274,1.274
		c-0.391,0.391-1.023,0.391-1.414,0s-0.391-1.023,0-1.414l1.27-1.27c0.27-0.273,0.358-0.687,0.221-1.051
		c-0.365-0.979-0.619-1.998-0.755-3.03C8.05,3.364,7.629,2.991,7.12,3H4.11C3.756,3.028,3.515,3.154,3.344,3.359
		C3.173,3.564,3.092,3.824,3.116,4.09c0.314,2.889,1.322,5.723,2.913,8.176c0.301,0.463,0.168,1.083-0.295,1.383
		C5.566,13.758,5.377,13.811,5.191,13.811z"/>
</g>
<g>
	<path d="M1,24c-0.256,0-0.512-0.098-0.707-0.293c-0.391-0.391-0.391-1.023,0-1.414l22-22c0.391-0.391,1.023-0.391,1.414,0
		s0.391,1.023,0,1.414l-22,22C1.512,23.902,1.256,24,1,24z"/>
</g>
</svg>
