<?xml version="1.0" encoding="iso-8859-1"?>
<!-- Generator: Adobe Illustrator 24.2.1, SVG Export Plug-In . SVG Version: 6.00 Build 0)  -->
<svg version="1.1" id="Camada_1" xmlns="http://www.w3.org/2000/svg" xmlns:xlink="http://www.w3.org/1999/xlink" x="0px" y="0px"
	 viewBox="0 0 24 24" style="enable-background:new 0 0 24 24;" xml:space="preserve">
<g>
	<path d="M19,10c-0.256,0-0.512-0.098-0.707-0.293c-0.391-0.391-0.391-1.023,0-1.414L21.586,5l-3.293-3.293
		c-0.391-0.391-0.391-1.023,0-1.414s1.023-0.391,1.414,0l4,4c0.391,0.391,0.391,1.023,0,1.414l-4,4C19.512,9.902,19.256,10,19,10z"
		/>
</g>
<g>
	<path d="M23,6h-8c-0.553,0-1-0.448-1-1s0.447-1,1-1h8c0.553,0,1,0.448,1,1S23.553,6,23,6z"/>
</g>
<g>
	<path d="M19.979,22.928c-0.078,0-0.165-0.004-0.252-0.012c-3.23-0.351-6.366-1.467-9.081-3.228c-2.517-1.599-4.698-3.779-6.3-6.302
		c-1.762-2.72-2.877-5.87-3.22-9.101C1.052,3.472,1.295,2.694,1.808,2.078c0.514-0.615,1.236-0.994,2.034-1.066
		C3.932,1.004,4.021,1,4.11,1h3c0.01,0,0.02,0,0.029,0C8.618,1,9.892,2.104,10.1,3.581c0.118,0.893,0.335,1.764,0.647,2.6
		c0.41,1.091,0.145,2.333-0.676,3.163L9.35,10.064c1.176,1.844,2.742,3.41,4.585,4.586l0.718-0.718
		c0.833-0.824,2.075-1.09,3.169-0.678c0.835,0.311,1.707,0.527,2.588,0.644c1.515,0.215,2.621,1.517,2.59,3.033v2.988
		c0.004,0.797-0.306,1.552-0.87,2.121s-1.317,0.884-2.118,0.887C20.001,22.928,19.989,22.928,19.979,22.928z M7.129,3
		C7.126,3,7.123,3,7.12,3H4.11C3.756,3.028,3.515,3.154,3.344,3.359C3.173,3.564,3.092,3.824,3.116,4.09
		c0.308,2.905,1.316,5.751,2.913,8.217c1.451,2.283,3.419,4.252,5.697,5.699c2.461,1.597,5.295,2.604,8.202,2.92
		c0.353,0.038,0.594-0.104,0.782-0.294c0.188-0.189,0.291-0.44,0.29-0.707V16.92c0-0.009,0-0.017,0-0.025
		c0.013-0.507-0.356-0.943-0.86-1.015c-1.021-0.134-2.039-0.388-3.019-0.752c-0.369-0.14-0.782-0.052-1.058,0.223l-1.267,1.267
		c-0.319,0.318-0.812,0.384-1.201,0.162c-2.659-1.512-4.863-3.716-6.375-6.375c-0.223-0.392-0.156-0.883,0.162-1.202l1.27-1.27
		c0.27-0.273,0.358-0.687,0.221-1.051c-0.365-0.979-0.619-1.998-0.755-3.03C8.05,3.368,7.625,3,7.129,3z"/>
</g>
</svg>
