<?xml version="1.0" encoding="iso-8859-1"?>
<!-- Generator: Adobe Illustrator 24.2.1, SVG Export Plug-In . SVG Version: 6.00 Build 0)  -->
<svg version="1.1" id="Camada_1" xmlns="http://www.w3.org/2000/svg" xmlns:xlink="http://www.w3.org/1999/xlink" x="0px" y="0px"
	 viewBox="0 0 24 24" style="enable-background:new 0 0 24 24;" xml:space="preserve">
<g>
	<path d="M11.984,22.995c-1.426,0-2.875-0.278-4.268-0.868c-5.587-2.362-8.21-8.829-5.848-14.416C2.971,5.104,5.007,3.045,7.6,1.914
		c0.508-0.22,1.096,0.01,1.316,0.517S8.906,3.526,8.4,3.747C6.278,4.672,4.612,6.357,3.71,8.49
		c-1.933,4.57,0.214,9.861,4.785,11.795c4.572,1.932,9.861-0.215,11.794-4.785c0.215-0.509,0.803-0.746,1.311-0.531
		c0.509,0.215,0.746,0.802,0.531,1.311C20.358,20.472,16.273,22.995,11.984,22.995z"/>
</g>
<g>
	<path d="M22,13H12c-0.552,0-1-0.448-1-1V2c0-0.552,0.448-1,1-1c6.065,0,11,4.935,11,11C23,12.552,22.553,13,22,13z M13,11h7.944
		C20.482,6.835,17.165,3.518,13,3.055V11z"/>
</g>
</svg>
