<?xml version="1.0" encoding="iso-8859-1"?>
<!-- Generator: Adobe Illustrator 24.2.1, SVG Export Plug-In . SVG Version: 6.00 Build 0)  -->
<svg version="1.1" id="Camada_1" xmlns="http://www.w3.org/2000/svg" xmlns:xlink="http://www.w3.org/1999/xlink" x="0px" y="0px"
	 viewBox="0 0 24 24" style="enable-background:new 0 0 24 24;" xml:space="preserve">
<g>
	<path d="M12,23C5.935,23,1,18.065,1,12S5.935,1,12,1s11,4.935,11,11S18.065,23,12,23z M12,3c-4.962,0-9,4.038-9,9
		c0,4.963,4.038,9,9,9c4.963,0,9-4.037,9-9C21,7.038,16.963,3,12,3z"/>
</g>
<g>
	<path d="M10,17c-0.162,0-0.324-0.039-0.472-0.118C9.203,16.708,9,16.369,9,16V8c0-0.369,0.203-0.708,0.528-0.882
		c0.323-0.174,0.719-0.156,1.026,0.05l6,4C16.833,11.354,17,11.666,17,12s-0.167,0.646-0.445,0.832l-6,4
		C10.387,16.943,10.194,17,10,17z M11,9.869v4.263L14.197,12L11,9.869z"/>
</g>
</svg>
