<?xml version="1.0" encoding="iso-8859-1"?>
<!-- Generator: Adobe Illustrator 24.2.1, SVG Export Plug-In . SVG Version: 6.00 Build 0)  -->
<svg version="1.1" id="Camada_1" xmlns="http://www.w3.org/2000/svg" xmlns:xlink="http://www.w3.org/1999/xlink" x="0px" y="0px"
	 viewBox="0 0 24 24" style="enable-background:new 0 0 24 24;" xml:space="preserve">
<g>
	<path d="M12,22C5.935,22,1,17.065,1,11V5c0-1.654,1.346-3,3-3h16c1.654,0,3,1.346,3,3v6C23,17.065,18.065,22,12,22z M4,4
		C3.449,4,3,4.449,3,5v6c0,4.963,4.038,9,9,9c4.963,0,9-4.037,9-9V5c0-0.551-0.448-1-1-1H4z"/>
</g>
<g>
	<path d="M12,15c-0.256,0-0.512-0.098-0.707-0.293l-4-4c-0.391-0.391-0.391-1.023,0-1.414s1.023-0.391,1.414,0L12,12.586
		l3.293-3.293c0.391-0.391,1.023-0.391,1.414,0s0.391,1.023,0,1.414l-4,4C12.512,14.902,12.256,15,12,15z"/>
</g>
</svg>
