<?xml version="1.0" encoding="iso-8859-1"?>
<!-- Generator: Adobe Illustrator 24.2.1, SVG Export Plug-In . SVG Version: 6.00 Build 0)  -->
<svg version="1.1" id="Camada_1" xmlns="http://www.w3.org/2000/svg" xmlns:xlink="http://www.w3.org/1999/xlink" x="0px" y="0px"
	 viewBox="0 0 24 24" style="enable-background:new 0 0 24 24;" xml:space="preserve">
<g>
	<path d="M11.995,22.998c-2.562,0-5.123-0.975-7.072-2.925c-3.897-3.898-3.897-10.242,0-14.14c0.391-0.391,1.023-0.391,1.414,0
		c0.391,0.39,0.391,1.023,0,1.414c-3.118,3.119-3.118,8.193,0,11.312c3.119,3.119,8.195,3.12,11.314,0.002
		c3.119-3.119,3.12-8.195,0.002-11.314c-0.391-0.391-0.391-1.024,0-1.414c0.391-0.391,1.023-0.391,1.414,0
		c3.897,3.899,3.896,10.244-0.002,14.142C17.116,22.023,14.556,22.998,11.995,22.998z"/>
</g>
<g>
	<path d="M12,13c-0.552,0-1-0.448-1-1V2c0-0.552,0.448-1,1-1s1,0.448,1,1v10C13,12.552,12.552,13,12,13z"/>
</g>
</svg>
