<?xml version="1.0" encoding="iso-8859-1"?>
<!-- Generator: Adobe Illustrator 24.2.1, SVG Export Plug-In . SVG Version: 6.00 Build 0)  -->
<svg version="1.1" id="Camada_1" xmlns="http://www.w3.org/2000/svg" xmlns:xlink="http://www.w3.org/1999/xlink" x="0px" y="0px"
	 viewBox="0 0 24 24" style="enable-background:new 0 0 24 24;" xml:space="preserve">
<g>
	<path d="M18,10c-0.553,0-1-0.448-1-1V3H7v6c0,0.552-0.448,1-1,1S5,9.552,5,9V2c0-0.552,0.448-1,1-1h12c0.553,0,1,0.448,1,1v7
		C19,9.552,18.553,10,18,10z"/>
</g>
<g>
	<path d="M20,19h-2c-0.553,0-1-0.447-1-1s0.447-1,1-1h2c0.552,0,1-0.448,1-1v-5c0-0.551-0.448-1-1-1H4c-0.551,0-1,0.449-1,1v5
		c0,0.552,0.449,1,1,1h2c0.552,0,1,0.447,1,1s-0.448,1-1,1H4c-1.654,0-3-1.346-3-3v-5c0-1.654,1.346-3,3-3h16c1.654,0,3,1.346,3,3v5
		C23,17.654,21.654,19,20,19z"/>
</g>
<g>
	<path d="M18,23H6c-0.552,0-1-0.447-1-1v-8c0-0.553,0.448-1,1-1h12c0.553,0,1,0.447,1,1v8C19,22.553,18.553,23,18,23z M7,21h10v-6H7
		V21z"/>
</g>
</svg>
