<?xml version="1.0" encoding="iso-8859-1"?>
<!-- Generator: Adobe Illustrator 24.2.1, SVG Export Plug-In . SVG Version: 6.00 Build 0)  -->
<svg version="1.1" id="Camada_1" xmlns="http://www.w3.org/2000/svg" xmlns:xlink="http://www.w3.org/1999/xlink" x="0px" y="0px"
	 viewBox="0 0 24 24" style="enable-background:new 0 0 24 24;" xml:space="preserve">
<g>
	<path d="M12,15c-1.654,0-3-1.346-3-3s1.346-3,3-3s3,1.346,3,3S13.654,15,12,15z M12,11c-0.551,0-1,0.449-1,1s0.449,1,1,1
		s1-0.449,1-1S12.551,11,12,11z"/>
</g>
<g>
	<path d="M19.07,20.07c-0.256,0-0.512-0.098-0.707-0.293c-0.391-0.391-0.391-1.023,0-1.414c3.507-3.509,3.507-9.218,0-12.726
		c-0.391-0.391-0.391-1.024,0-1.414c0.391-0.391,1.023-0.391,1.414,0c4.286,4.288,4.287,11.265,0,15.554
		C19.582,19.973,19.326,20.07,19.07,20.07z M4.93,20.07c-0.256,0-0.512-0.098-0.707-0.293c-4.287-4.289-4.287-11.266,0-15.554
		c0.391-0.391,1.023-0.391,1.414,0c0.391,0.39,0.391,1.023,0,1.414c-3.507,3.508-3.507,9.217,0,12.726
		c0.391,0.391,0.391,1.023,0,1.414C5.442,19.973,5.186,20.07,4.93,20.07z M16.239,17.25c-0.15,0-0.303-0.034-0.446-0.105
		c-0.494-0.247-0.694-0.848-0.447-1.342c0.062-0.125,0.154-0.239,0.262-0.328c1.878-1.887,1.876-5.059-0.074-7.007
		c-0.391-0.391-0.391-1.024,0-1.415s1.023-0.39,1.414,0c2.726,2.725,2.732,7.157,0.017,9.888
		C16.774,17.14,16.511,17.25,16.239,17.25z M7.76,17.24c-0.256,0-0.512-0.098-0.707-0.293c-2.726-2.723-2.733-7.153-0.02-9.885
		c0.006-0.007,0.013-0.013,0.019-0.02c0.391-0.391,1.023-0.391,1.414,0C8.846,7.422,8.857,8.03,8.5,8.423
		C8.488,8.436,8.476,8.449,8.463,8.461C7.519,9.406,7,10.662,7,11.998c0,1.336,0.521,2.591,1.466,3.535
		c0.391,0.39,0.391,1.023,0.001,1.414C8.272,17.143,8.016,17.24,7.76,17.24z"/>
</g>
</svg>
