<?xml version="1.0" encoding="iso-8859-1"?>
<!-- Generator: Adobe Illustrator 24.2.1, SVG Export Plug-In . SVG Version: 6.00 Build 0)  -->
<svg version="1.1" id="Camada_1" xmlns="http://www.w3.org/2000/svg" xmlns:xlink="http://www.w3.org/1999/xlink" x="0px" y="0px"
	 viewBox="0 0 24 24" style="enable-background:new 0 0 24 24;" xml:space="preserve">
<g>
	<path d="M7,11H1c-0.552,0-1-0.448-1-1V4c0-0.552,0.448-1,1-1s1,0.448,1,1v5h5c0.552,0,1,0.448,1,1S7.552,11,7,11z"/>
</g>
<g>
	<path d="M23,21c-0.553,0-1-0.447-1-1v-5h-5c-0.553,0-1-0.447-1-1s0.447-1,1-1h6c0.553,0,1,0.447,1,1v6C24,20.553,23.553,21,23,21z"
		/>
</g>
<g>
	<path d="M12.002,21.996c-2.561,0-5.125-0.975-7.078-2.926c-1.048-1.049-1.864-2.341-2.358-3.736
		c-0.184-0.521,0.089-1.093,0.609-1.276c0.52-0.185,1.091,0.088,1.276,0.608c0.395,1.117,1.047,2.151,1.886,2.99
		c3.12,3.118,8.195,3.118,11.314-0.003l4.662-4.382c0.4-0.378,1.036-0.36,1.413,0.044c0.378,0.402,0.358,1.035-0.044,1.413
		l-4.64,4.36C17.109,21.025,14.558,21.996,12.002,21.996z M1,11c-0.266,0-0.532-0.106-0.729-0.315
		c-0.378-0.402-0.358-1.035,0.044-1.414l4.64-4.36C5.98,3.885,7.273,3.069,8.67,2.575c2.518-0.89,5.233-0.748,7.643,0.402
		c2.411,1.15,4.229,3.171,5.12,5.689c0.185,0.521-0.088,1.092-0.608,1.276c-0.521,0.187-1.093-0.089-1.276-0.609
		c-0.713-2.015-2.168-3.631-4.097-4.551c-1.928-0.92-4.099-1.034-6.114-0.321C8.219,4.856,7.186,5.508,6.348,6.347l-4.663,4.382
		C1.492,10.91,1.246,11,1,11z"/>
</g>
</svg>
