<?xml version="1.0" encoding="iso-8859-1"?>
<!-- Generator: Adobe Illustrator 24.2.1, SVG Export Plug-In . SVG Version: 6.00 Build 0)  -->
<svg version="1.1" id="Camada_1" xmlns="http://www.w3.org/2000/svg" xmlns:xlink="http://www.w3.org/1999/xlink" x="0px" y="0px"
	 viewBox="0 0 24 24" style="enable-background:new 0 0 24 24;" xml:space="preserve">
<g>
	<path d="M23,11h-6c-0.553,0-1-0.448-1-1s0.447-1,1-1h5V4c0-0.552,0.447-1,1-1s1,0.448,1,1v6C24,10.552,23.553,11,23,11z"/>
</g>
<g>
	<path d="M1,21c-0.552,0-1-0.447-1-1v-6c0-0.553,0.448-1,1-1h6c0.552,0,1,0.447,1,1s-0.448,1-1,1H2v5C2,20.553,1.552,21,1,21z"/>
</g>
<g>
	<path d="M12.005,21.998c-0.001,0-0.001,0-0.002,0c-2.671-0.001-5.183-1.042-7.071-2.931l-4.617-4.339
		c-0.403-0.378-0.422-1.011-0.044-1.413c0.379-0.404,1.011-0.422,1.413-0.044l4.64,4.36c1.533,1.533,3.542,2.365,5.679,2.366
		c0.001,0,0.001,0,0.002,0c2.136,0,4.145-0.832,5.656-2.342c0.838-0.839,1.49-1.872,1.887-2.99c0.185-0.521,0.755-0.795,1.276-0.608
		c0.521,0.185,0.793,0.756,0.608,1.276c-0.494,1.396-1.31,2.688-2.357,3.736C17.187,20.958,14.676,21.998,12.005,21.998z M23,11
		c-0.246,0-0.492-0.09-0.685-0.271l-4.64-4.36c-0.861-0.86-1.895-1.512-3.013-1.908c-2.017-0.714-4.186-0.599-6.114,0.321
		C6.62,5.703,5.166,7.319,4.453,9.333c-0.185,0.521-0.755,0.795-1.276,0.609C2.656,9.758,2.383,9.187,2.567,8.667
		c0.891-2.518,2.709-4.539,5.121-5.689c2.41-1.15,5.123-1.294,7.644-0.402c1.396,0.495,2.688,1.31,3.736,2.358l4.617,4.338
		c0.402,0.378,0.423,1.011,0.044,1.413C23.532,10.894,23.267,11,23,11z"/>
</g>
</svg>
