<?xml version="1.0" encoding="iso-8859-1"?>
<!-- Generator: Adobe Illustrator 24.2.1, SVG Export Plug-In . SVG Version: 6.00 Build 0)  -->
<svg version="1.1" id="Camada_1" xmlns="http://www.w3.org/2000/svg" xmlns:xlink="http://www.w3.org/1999/xlink" x="0px" y="0px"
	 viewBox="0 0 24 24" style="enable-background:new 0 0 24 24;" xml:space="preserve">
<g>
	<path d="M17,10c-0.256,0-0.512-0.098-0.707-0.293c-0.391-0.391-0.391-1.023,0-1.414L19.586,5l-3.293-3.293
		c-0.391-0.391-0.391-1.023,0-1.414s1.023-0.391,1.414,0l4,4c0.391,0.391,0.391,1.023,0,1.414l-4,4C17.512,9.902,17.256,10,17,10z"
		/>
</g>
<g>
	<path d="M3,12c-0.552,0-1-0.448-1-1V9c0-2.757,2.243-5,5-5h14c0.553,0,1,0.448,1,1s-0.447,1-1,1H7C5.346,6,4,7.346,4,9v2
		C4,11.552,3.552,12,3,12z"/>
</g>
<g>
	<path d="M7,24c-0.256,0-0.512-0.098-0.707-0.293l-4-4c-0.391-0.391-0.391-1.023,0-1.414l4-4c0.391-0.391,1.023-0.391,1.414,0
		s0.391,1.023,0,1.414L4.414,19l3.293,3.293c0.391,0.391,0.391,1.023,0,1.414C7.512,23.902,7.256,24,7,24z"/>
</g>
<g>
	<path d="M17,20H3c-0.552,0-1-0.447-1-1s0.448-1,1-1h14c1.654,0,3-1.346,3-3v-2c0-0.552,0.447-1,1-1s1,0.448,1,1v2
		C22,17.757,19.757,20,17,20z"/>
</g>
</svg>
