<?xml version="1.0" encoding="iso-8859-1"?>
<!-- Generator: Adobe Illustrator 24.2.1, SVG Export Plug-In . SVG Version: 6.00 Build 0)  -->
<svg version="1.1" id="Camada_1" xmlns="http://www.w3.org/2000/svg" xmlns:xlink="http://www.w3.org/1999/xlink" x="0px" y="0px"
	 viewBox="0 0 24 24" style="enable-background:new 0 0 24 24;" xml:space="preserve">
<g>
	<path d="M11,20c-0.218,0-0.435-0.071-0.614-0.211l-9-7C1.143,12.6,1,12.309,1,12s0.143-0.6,0.386-0.79l9-7
		c0.302-0.234,0.711-0.275,1.053-0.109C11.782,4.27,12,4.618,12,5v14c0,0.382-0.218,0.73-0.561,0.898C11.3,19.967,11.149,20,11,20z
		 M3.629,12L10,16.955V7.044L3.629,12z"/>
</g>
<g>
	<path d="M22,20c-0.218,0-0.435-0.071-0.614-0.211l-9-7C12.143,12.6,12,12.309,12,12s0.143-0.6,0.386-0.79l9-7
		c0.303-0.234,0.71-0.276,1.054-0.109C22.782,4.27,23,4.618,23,5v14c0,0.382-0.218,0.73-0.561,0.898C22.3,19.967,22.149,20,22,20z
		 M14.629,12L21,16.955V7.044L14.629,12z"/>
</g>
</svg>
