<?xml version="1.0" encoding="iso-8859-1"?>
<!-- Generator: Adobe Illustrator 24.2.1, SVG Export Plug-In . SVG Version: 6.00 Build 0)  -->
<svg version="1.1" id="Camada_1" xmlns="http://www.w3.org/2000/svg" xmlns:xlink="http://www.w3.org/1999/xlink" x="0px" y="0px"
	 viewBox="0 0 24 24" style="enable-background:new 0 0 24 24;" xml:space="preserve">
<g>
	<path d="M7,11H1c-0.552,0-1-0.448-1-1V4c0-0.552,0.448-1,1-1s1,0.448,1,1v5h5c0.552,0,1,0.448,1,1S7.552,11,7,11z"/>
</g>
<g>
	<path d="M12.008,22.01c-4.125,0-7.995-2.572-9.441-6.678c-0.183-0.521,0.09-1.092,0.611-1.275c0.52-0.181,1.092,0.09,1.276,0.611
		c1.465,4.161,6.041,6.353,10.204,4.887c2.016-0.71,3.634-2.162,4.557-4.09c0.923-1.927,1.04-4.098,0.33-6.114
		c-0.71-2.015-2.162-3.633-4.09-4.556c-1.927-0.924-4.1-1.041-6.114-0.33C8.221,4.858,7.186,5.509,6.347,6.348l-4.662,4.381
		c-0.402,0.378-1.034,0.358-1.414-0.044c-0.378-0.402-0.358-1.035,0.044-1.414l4.64-4.36c1.027-1.027,2.321-1.841,3.72-2.333
		c2.52-0.887,5.233-0.741,7.643,0.413c2.409,1.154,4.225,3.177,5.112,5.696c1.832,5.201-0.908,10.923-6.109,12.755
		C14.227,21.827,13.108,22.01,12.008,22.01z"/>
</g>
</svg>
