<?xml version="1.0" encoding="iso-8859-1"?>
<!-- Generator: Adobe Illustrator 24.2.1, SVG Export Plug-In . SVG Version: 6.00 Build 0)  -->
<svg version="1.1" id="Camada_1" xmlns="http://www.w3.org/2000/svg" xmlns:xlink="http://www.w3.org/1999/xlink" x="0px" y="0px"
	 viewBox="0 0 24 24" style="enable-background:new 0 0 24 24;" xml:space="preserve">
<g>
	<path d="M23,11h-6c-0.553,0-1-0.448-1-1s0.447-1,1-1h5V4c0-0.552,0.447-1,1-1s1,0.448,1,1v6C24,10.552,23.553,11,23,11z"/>
</g>
<g>
	<path d="M11.994,22.003c-1.103,0-2.224-0.184-3.321-0.571c-5.199-1.838-7.935-7.562-6.098-12.761
		c1.836-5.199,7.562-7.934,12.76-6.098c1.399,0.494,2.693,1.31,3.742,2.36l4.608,4.339c0.402,0.378,0.421,1.012,0.042,1.414
		c-0.378,0.403-1.011,0.42-1.413,0.042l-4.63-4.36c-0.861-0.861-1.896-1.514-3.016-1.909C10.512,2.991,5.93,5.178,4.461,9.337
		c-1.469,4.159,0.719,8.738,4.878,10.209c4.162,1.469,8.739-0.72,10.209-4.879c0.183-0.521,0.753-0.796,1.275-0.609
		c0.521,0.184,0.794,0.755,0.609,1.275C19.983,19.435,16.115,22.003,11.994,22.003z"/>
</g>
</svg>
