<?xml version="1.0" encoding="iso-8859-1"?>
<!-- Generator: Adobe Illustrator 24.2.1, SVG Export Plug-In . SVG Version: 6.00 Build 0)  -->
<svg version="1.1" id="Camada_1" xmlns="http://www.w3.org/2000/svg" xmlns:xlink="http://www.w3.org/1999/xlink" x="0px" y="0px"
	 viewBox="0 0 24 24" style="enable-background:new 0 0 24 24;" xml:space="preserve">
<g>
	<path d="M13,21c-0.552,0-1-0.447-1-1c0-4.411-3.589-8-8-8c-0.552,0-1-0.448-1-1s0.448-1,1-1c5.514,0,10,4.486,10,10
		C14,20.553,13.553,21,13,21z"/>
</g>
<g>
	<path d="M20,21c-0.553,0-1-0.447-1-1c0-8.271-6.729-15-15-15C3.448,5,3,4.552,3,4s0.448-1,1-1c9.374,0,17,7.626,17,17
		C21,20.553,20.553,21,20,21z"/>
</g>
<g>
	<circle cx="5" cy="19" r="2"/>
</g>
</svg>
