<svg width="20" height="20" viewBox="0 0 20 20" fill="none" xmlns="http://www.w3.org/2000/svg">
<path fill-rule="evenodd" clip-rule="evenodd" d="M15 20H5H3C1.34619 20 0 18.654 0 17V3C0 1.34601 1.34619 0 3 0H5H14C14.2661 0 14.52 0.10498 14.707 0.29303L19.707 5.29303C19.895 5.47998 20 5.73499 20 6V17C20 18.654 18.6538 20 17 20H15ZM6 2H13.5859L18 6.414V17C18 17.552 17.5518 18 17 18H16V11C16 10.448 15.5532 10 15 10H5C4.44824 10 4 10.448 4 11V18H3C2.44922 18 2 17.552 2 17V3C2 2.44897 2.44922 2 3 2H4V6C4 6.552 4.44824 7 5 7H13C13.5532 7 14 6.552 14 6C14 5.448 13.5532 5 13 5H6V2ZM6 12V18H14V12H6Z" fill="black"/>
</svg>
