<?xml version="1.0" encoding="iso-8859-1"?>
<!-- Generator: Adobe Illustrator 24.2.1, SVG Export Plug-In . SVG Version: 6.00 Build 0)  -->
<svg version="1.1" id="Camada_1" xmlns="http://www.w3.org/2000/svg" xmlns:xlink="http://www.w3.org/1999/xlink" x="0px" y="0px"
	 viewBox="0 0 24 24" style="enable-background:new 0 0 24 24;" xml:space="preserve">
<g>
	<path d="M19,22H5c-1.654,0-3-1.346-3-3V5c0-1.654,1.346-3,3-3h11c0.266,0,0.52,0.105,0.707,0.293l5,5C21.895,7.48,22,7.735,22,8v11
		C22,20.654,20.654,22,19,22z M5,4C4.449,4,4,4.449,4,5v14c0,0.552,0.449,1,1,1h14c0.552,0,1-0.448,1-1V8.414L15.586,4H5z"/>
</g>
<g>
	<path d="M17,22c-0.553,0-1-0.447-1-1v-7H8v7c0,0.553-0.448,1-1,1s-1-0.447-1-1v-8c0-0.552,0.448-1,1-1h10c0.553,0,1,0.448,1,1v8
		C18,21.553,17.553,22,17,22z"/>
</g>
<g>
	<path d="M15,9H7C6.448,9,6,8.552,6,8V3c0-0.552,0.448-1,1-1s1,0.448,1,1v4h7c0.553,0,1,0.448,1,1S15.553,9,15,9z"/>
</g>
</svg>
