<?xml version="1.0" encoding="iso-8859-1"?>
<!-- Generator: Adobe Illustrator 24.2.1, SVG Export Plug-In . SVG Version: 6.00 Build 0)  -->
<svg version="1.1" id="Camada_1" xmlns="http://www.w3.org/2000/svg" xmlns:xlink="http://www.w3.org/1999/xlink" x="0px" y="0px"
	 viewBox="0 0 24 24" style="enable-background:new 0 0 24 24;" xml:space="preserve">
<g>
	<path d="M6,10c-2.206,0-4-1.794-4-4s1.794-4,4-4s4,1.794,4,4S8.206,10,6,10z M6,4C4.897,4,4,4.897,4,6s0.897,2,2,2s2-0.897,2-2
		S7.103,4,6,4z"/>
</g>
<g>
	<path d="M6,22c-2.206,0-4-1.794-4-4s1.794-4,4-4s4,1.794,4,4S8.206,22,6,22z M6,16c-1.103,0-2,0.897-2,2s0.897,2,2,2s2-0.897,2-2
		S7.103,16,6,16z"/>
</g>
<g>
	<path d="M8.12,16.88c-0.256,0-0.512-0.098-0.707-0.293c-0.391-0.391-0.391-1.023,0-1.414l11.88-11.88
		c0.391-0.391,1.023-0.391,1.414,0s0.391,1.023,0,1.414l-11.88,11.88C8.632,16.782,8.376,16.88,8.12,16.88z"/>
</g>
<g>
	<path d="M20,21c-0.256,0-0.511-0.098-0.706-0.292l-5.53-5.52c-0.392-0.391-0.392-1.023-0.002-1.414
		c0.391-0.393,1.023-0.391,1.414-0.002l5.53,5.52c0.392,0.391,0.392,1.023,0.002,1.414C20.513,20.902,20.256,21,20,21z"/>
</g>
<g>
	<path d="M12,13c-0.256,0-0.512-0.098-0.707-0.293l-3.88-3.88c-0.391-0.391-0.391-1.023,0-1.414s1.023-0.391,1.414,0l3.88,3.88
		c0.391,0.391,0.391,1.023,0,1.414C12.512,12.902,12.256,13,12,13z"/>
</g>
</svg>
