<?xml version="1.0" encoding="iso-8859-1"?>
<!-- Generator: Adobe Illustrator 24.2.1, SVG Export Plug-In . SVG Version: 6.00 Build 0)  -->
<svg version="1.1" id="Camada_1" xmlns="http://www.w3.org/2000/svg" xmlns:xlink="http://www.w3.org/1999/xlink" x="0px" y="0px"
	 viewBox="0 0 24 24" style="enable-background:new 0 0 24 24;" xml:space="preserve">
<g>
	<path d="M11,14c-0.256,0-0.512-0.098-0.707-0.293c-0.391-0.391-0.391-1.023,0-1.414l11-11c0.391-0.391,1.023-0.391,1.414,0
		s0.391,1.023,0,1.414l-11,11C11.512,13.902,11.256,14,11,14z"/>
</g>
<g>
	<path d="M15,23c-0.394,0-0.753-0.231-0.914-0.594l-3.844-8.648L1.594,9.914c-0.375-0.167-0.61-0.544-0.593-0.954
		c0.017-0.41,0.282-0.768,0.668-0.903l20-7c0.361-0.126,0.766-0.035,1.037,0.237c0.271,0.271,0.363,0.675,0.237,1.038l-7,20
		c-0.136,0.388-0.494,0.652-0.903,0.669C15.027,23,15.014,23,15,23z M4.711,9.111l6.695,2.976c0.226,0.1,0.407,0.281,0.507,0.507
		l2.976,6.695L20.37,3.63L4.711,9.111z"/>
</g>
</svg>
