<?xml version="1.0" encoding="iso-8859-1"?>
<!-- Generator: Adobe Illustrator 24.2.1, SVG Export Plug-In . SVG Version: 6.00 Build 0)  -->
<svg version="1.1" id="Camada_1" xmlns="http://www.w3.org/2000/svg" xmlns:xlink="http://www.w3.org/1999/xlink" x="0px" y="0px"
	 viewBox="0 0 24 24" style="enable-background:new 0 0 24 24;" xml:space="preserve">
<g>
	<path d="M20,11H4c-1.654,0-3-1.346-3-3V4c0-1.654,1.346-3,3-3h16c1.654,0,3,1.346,3,3v4C23,9.654,21.654,11,20,11z M4,3
		C3.449,3,3,3.449,3,4v4c0,0.551,0.449,1,1,1h16c0.552,0,1-0.449,1-1V4c0-0.551-0.448-1-1-1H4z"/>
</g>
<g>
	<path d="M20,23H4c-1.654,0-3-1.346-3-3v-4c0-1.654,1.346-3,3-3h16c1.654,0,3,1.346,3,3v4C23,21.654,21.654,23,20,23z M4,15
		c-0.551,0-1,0.448-1,1v4c0,0.552,0.449,1,1,1h16c0.552,0,1-0.448,1-1v-4c0-0.552-0.448-1-1-1H4z"/>
</g>
<g>
	<path d="M6.01,7C5.458,7,5.005,6.552,5.005,6S5.448,5,6,5h0.01c0.552,0,1,0.448,1,1S6.562,7,6.01,7z"/>
</g>
<g>
	<path d="M6.01,19c-0.552,0-1.005-0.447-1.005-1S5.448,17,6,17h0.01c0.552,0,1,0.447,1,1S6.562,19,6.01,19z"/>
</g>
</svg>
