<?xml version="1.0" encoding="iso-8859-1"?>
<!-- Generator: Adobe Illustrator 24.2.1, SVG Export Plug-In . SVG Version: 6.00 Build 0)  -->
<svg version="1.1" id="Camada_1" xmlns="http://www.w3.org/2000/svg" xmlns:xlink="http://www.w3.org/1999/xlink" x="0px" y="0px"
	 viewBox="0 0 24 24" style="enable-background:new 0 0 24 24;" xml:space="preserve">
<g>
	<path d="M12,16c-2.206,0-4-1.794-4-4c0-2.206,1.794-4,4-4c2.206,0,4,1.794,4,4C16,14.206,14.206,16,12,16z M12,10
		c-1.103,0-2,0.897-2,2c0,1.103,0.897,2,2,2c1.103,0,2-0.897,2-2C14,10.897,13.103,10,12,10z"/>
</g>
<g>
	<path d="M12.08,24c-1.654,0-3-1.346-3-3c-0.006-0.335-0.173-0.568-0.425-0.661c-0.304-0.132-0.586-0.08-0.775,0.106
		c-1.222,1.22-3.125,1.222-4.295,0.055c-0.007-0.008-0.015-0.015-0.021-0.022c-0.555-0.563-0.86-1.309-0.86-2.101
		c0-0.802,0.311-1.555,0.877-2.122c0.241-0.245,0.292-0.526,0.184-0.771c-0.106-0.247-0.34-0.402-0.6-0.403H3c-1.654,0-3-1.346-3-3
		s1.346-3,3-3c0.335-0.006,0.569-0.173,0.662-0.425C3.793,8.352,3.742,8.07,3.555,7.88C2.333,6.658,2.332,4.755,3.501,3.585
		c1.17-1.172,3.073-1.174,4.244-0.004c0.246,0.242,0.527,0.293,0.771,0.184c0.064-0.028,0.13-0.049,0.198-0.064
		C8.891,3.583,8.999,3.383,9,3.166V3c0-1.654,1.346-3,3-3s3,1.346,3,3c0.001,0.345,0.156,0.579,0.395,0.681
		c0.253,0.11,0.535,0.061,0.727-0.126c0.617-0.619,1.37-0.931,2.172-0.932c0.001,0,0.001,0,0.002,0c0.795,0,1.543,0.307,2.108,0.866
		c0.005,0.004,0.009,0.009,0.014,0.013v0c1.17,1.169,1.171,3.072,0.003,4.243c-0.241,0.245-0.293,0.526-0.185,0.771
		c0.028,0.064,0.05,0.131,0.063,0.199C20.418,8.891,20.617,8.999,20.834,9H21c1.654,0,3,1.346,3,3s-1.346,3-3,3
		c-0.345,0.001-0.578,0.155-0.681,0.394c-0.001,0.004-0.003,0.007-0.004,0.011c-0.108,0.244-0.057,0.525,0.13,0.717
		c1.222,1.22,1.223,3.123,0.055,4.294c-1.173,1.172-3.074,1.172-4.245,0.005c-0.245-0.242-0.528-0.295-0.771-0.185
		c-0.249,0.106-0.403,0.34-0.404,0.6V21C15.08,22.654,13.734,24,12.08,24z M8.347,18.261c0.358,0,0.716,0.074,1.057,0.225
		c0.969,0.354,1.65,1.306,1.676,2.401c0,0.008,0,0.105,0,0.113c0,0.552,0.449,1,1,1s1-0.448,1-1v-0.17
		c0.005-1.062,0.636-2.014,1.606-2.429c0.984-0.437,2.133-0.229,2.913,0.534c0.258,0.257,0.509,0.361,0.775,0.361c0,0,0,0,0.001,0
		c0.267-0.001,0.518-0.104,0.706-0.294c0.191-0.19,0.295-0.441,0.295-0.709c-0.001-0.267-0.104-0.518-0.294-0.706
		c-0.828-0.846-1.036-1.99-0.6-2.986c0.416-0.968,1.367-1.597,2.422-1.602C21.552,13,22,12.551,22,12s-0.448-1-1-1h-0.17
		c-1.061-0.004-2.013-0.634-2.429-1.606c-0.036-0.084-0.061-0.173-0.072-0.263c-0.335-0.949-0.106-2.001,0.606-2.73
		c0.453-0.454,0.458-1.08,0.08-1.471c-0.005-0.004-0.01-0.009-0.015-0.014c-0.188-0.189-0.439-0.292-0.706-0.292h-0.001
		c-0.267,0-0.518,0.104-0.706,0.293c-0.848,0.831-1.996,1.039-2.992,0.599C13.635,5.103,13.005,4.151,13,3.094
		C13,2.449,12.551,2,12,2s-1,0.449-1,1v0.17c-0.004,1.061-0.634,2.013-1.606,2.429C9.31,5.635,9.221,5.66,9.13,5.672
		c-0.948,0.334-2,0.106-2.729-0.607C5.942,4.607,5.308,4.606,4.917,4.997c-0.391,0.392-0.391,1.026,0,1.416
		c0.83,0.847,1.038,1.994,0.598,2.991c-0.354,0.969-1.307,1.65-2.401,1.676c-0.008,0-0.106,0-0.114,0c-0.551,0-1,0.449-1,1
		s0.449,1,1,1h0.17c1.061,0.005,2.013,0.635,2.429,1.605c0.436,0.988,0.228,2.136-0.534,2.914c-0.258,0.258-0.362,0.509-0.361,0.776
		c0,0.267,0.104,0.518,0.293,0.706h0c0.003,0.003,0.006,0.006,0.008,0.009c0.391,0.383,1.021,0.379,1.408-0.008
		C6.97,18.537,7.658,18.261,8.347,18.261z M19.4,15h0.01H19.4z"/>
</g>
</svg>
