<?xml version="1.0" encoding="iso-8859-1"?>
<!-- Generator: Adobe Illustrator 24.2.1, SVG Export Plug-In . SVG Version: 6.00 Build 0)  -->
<svg version="1.1" id="Camada_1" xmlns="http://www.w3.org/2000/svg" xmlns:xlink="http://www.w3.org/1999/xlink" x="0px" y="0px"
	 viewBox="0 0 24 24" style="enable-background:new 0 0 24 24;" xml:space="preserve">
<g>
	<path d="M18,23H6c-1.654,0-3-1.346-3-3v-8c0-0.552,0.448-1,1-1s1,0.448,1,1v8c0,0.552,0.449,1,1,1h12c0.552,0,1-0.448,1-1v-8
		c0-0.552,0.447-1,1-1s1,0.448,1,1v8C21,21.654,19.654,23,18,23z"/>
</g>
<g>
	<path d="M16,7c-0.256,0-0.512-0.098-0.707-0.293L12,3.414L8.707,6.707c-0.391,0.391-1.023,0.391-1.414,0s-0.391-1.023,0-1.414l4-4
		c0.391-0.391,1.023-0.391,1.414,0l4,4c0.391,0.391,0.391,1.023,0,1.414C16.512,6.902,16.256,7,16,7z"/>
</g>
<g>
	<path d="M12,16c-0.552,0-1-0.447-1-1V2c0-0.552,0.448-1,1-1s1,0.448,1,1v13C13,15.553,12.552,16,12,16z"/>
</g>
</svg>
