<?xml version="1.0" encoding="iso-8859-1"?>
<!-- Generator: Adobe Illustrator 24.2.1, SVG Export Plug-In . SVG Version: 6.00 Build 0)  -->
<svg version="1.1" id="Camada_1" xmlns="http://www.w3.org/2000/svg" xmlns:xlink="http://www.w3.org/1999/xlink" x="0px" y="0px"
	 viewBox="0 0 24 24" style="enable-background:new 0 0 24 24;" xml:space="preserve">
<g>
	<path d="M18,9c-2.206,0-4-1.794-4-4s1.794-4,4-4s4,1.794,4,4S20.206,9,18,9z M18,3c-1.103,0-2,0.897-2,2s0.897,2,2,2s2-0.897,2-2
		S19.103,3,18,3z"/>
</g>
<g>
	<path d="M6,16c-2.206,0-4-1.794-4-4c0-2.206,1.794-4,4-4s4,1.794,4,4C10,14.206,8.206,16,6,16z M6,10c-1.103,0-2,0.897-2,2
		c0,1.103,0.897,2,2,2s2-0.897,2-2C8,10.897,7.103,10,6,10z"/>
</g>
<g>
	<path d="M18,23c-2.206,0-4-1.794-4-4s1.794-4,4-4s4,1.794,4,4S20.206,23,18,23z M18,17c-1.103,0-2,0.897-2,2s0.897,2,2,2
		s2-0.897,2-2S19.103,17,18,17z"/>
</g>
<g>
	<path d="M15.419,18.49c-0.171,0-0.344-0.044-0.503-0.136l-6.83-3.98c-0.477-0.278-0.639-0.891-0.36-1.368
		c0.278-0.477,0.891-0.639,1.367-0.36l6.831,3.98c0.477,0.278,0.638,0.891,0.36,1.368C16.098,18.312,15.763,18.49,15.419,18.49z"/>
</g>
<g>
	<path d="M8.591,11.49c-0.344,0-0.679-0.177-0.865-0.496c-0.278-0.477-0.117-1.089,0.36-1.368l6.82-3.98
		c0.477-0.277,1.09-0.117,1.367,0.36c0.278,0.477,0.118,1.089-0.359,1.368l-6.82,3.98C8.936,11.446,8.762,11.49,8.591,11.49z"/>
</g>
</svg>
