<?xml version="1.0" encoding="iso-8859-1"?>
<!-- Generator: Adobe Illustrator 24.2.1, SVG Export Plug-In . SVG Version: 6.00 Build 0)  -->
<svg version="1.1" id="Camada_1" xmlns="http://www.w3.org/2000/svg" xmlns:xlink="http://www.w3.org/1999/xlink" x="0px" y="0px"
	 viewBox="0 0 24 24" style="enable-background:new 0 0 24 24;" xml:space="preserve">
<g>
	<path d="M19.69,15c-0.098,0-0.197-0.015-0.295-0.045c-0.528-0.163-0.823-0.723-0.66-1.25c0.171-0.556,0.261-1.131,0.265-1.712v-6.3
		l-7.001-2.625L9.19,4.117C8.67,4.31,8.096,4.047,7.903,3.53C7.71,3.013,7.973,2.437,8.49,2.243l3.16-1.18
		c0.227-0.084,0.475-0.084,0.701,0l8,3C20.741,4.21,21,4.583,21,5v7c-0.006,0.784-0.125,1.554-0.354,2.295
		C20.513,14.725,20.118,15,19.69,15z"/>
</g>
<g>
	<path d="M12,23c-0.153,0-0.306-0.035-0.447-0.105C11.204,22.72,3,18.543,3,12V5c0-0.418,0.261-0.792,0.653-0.938l0.73-0.27
		c0.516-0.19,1.093,0.073,1.285,0.591c0.191,0.518-0.073,1.093-0.591,1.285L5,5.696V12c0,4.549,5.389,7.948,6.999,8.861
		c1.831-1.03,3.47-2.344,4.878-3.91c0.369-0.411,1.002-0.443,1.412-0.074s0.444,1.001,0.074,1.412
		c-1.684,1.873-3.668,3.419-5.896,4.596C12.321,22.961,12.161,23,12,23z"/>
</g>
<g>
	<path d="M23,24c-0.256,0-0.512-0.098-0.707-0.293l-22-22c-0.391-0.391-0.391-1.023,0-1.414s1.023-0.391,1.414,0l22,22
		c0.391,0.391,0.391,1.023,0,1.414C23.512,23.902,23.256,24,23,24z"/>
</g>
</svg>
