<svg width="24" height="24" viewBox="0 0 24 24" fill="none" xmlns="http://www.w3.org/2000/svg">
<path fill-rule="evenodd" clip-rule="evenodd" d="M22.701 23.9545C22.7982 23.9848 22.8993 24 22.9999 24C23.2557 24 23.5121 23.902 23.7069 23.707C24.098 23.316 24.098 22.684 23.7069 22.293L18.33 16.9162C18.3168 16.9028 18.3031 16.8898 18.2889 16.877L1.70691 0.293045C1.3158 -0.0980072 0.68396 -0.0980072 0.292847 0.293045C-0.0982666 0.684036 -0.0982666 1.31599 0.292847 1.70699L3.11707 4.53114C3.04187 4.6725 2.99988 4.83272 2.99988 5.00002V12C2.99988 18.543 11.204 22.72 11.5531 22.895C11.578 22.9075 11.6034 22.919 11.6293 22.9292C11.6971 22.9561 11.767 22.9754 11.8383 22.987C11.8915 22.9957 11.9457 23 11.9999 23C12.0824 23 12.1649 22.9898 12.245 22.9695C12.3212 22.9503 12.3954 22.922 12.4667 22.885C14.3837 21.8723 16.12 20.5864 17.64 19.0542L22.2928 23.707C22.411 23.8253 22.5516 23.9079 22.701 23.9545ZM16.226 17.6403L4.99988 6.41402V12C4.99988 16.549 10.389 19.948 11.9989 20.861C13.5546 19.9859 14.9716 18.9058 16.226 17.6403ZM19.6898 15C19.5917 15 19.493 14.985 19.3949 14.955C18.8671 14.792 18.5717 14.232 18.7347 13.705C18.9056 13.149 18.996 12.574 18.9999 11.993V5.69301L11.9989 3.06801L9.18982 4.11702C8.6698 4.31001 8.09607 4.04701 7.90271 3.53004C7.70984 3.01302 7.97302 2.43703 8.49011 2.243L11.6498 1.063C11.8768 0.979019 12.1249 0.979019 12.351 1.063L20.351 4.063C20.7411 4.21004 20.9999 4.58302 20.9999 5.00002V12C20.994 12.784 20.8749 13.554 20.6459 14.295C20.5131 14.725 20.118 15 19.6898 15Z" fill="black"/>
</svg>
