<?xml version="1.0" encoding="iso-8859-1"?>
<!-- Generator: Adobe Illustrator 24.2.1, SVG Export Plug-In . SVG Version: 6.00 Build 0)  -->
<svg version="1.1" id="Camada_1" xmlns="http://www.w3.org/2000/svg" xmlns:xlink="http://www.w3.org/1999/xlink" x="0px" y="0px"
	 viewBox="0 0 24 24" style="enable-background:new 0 0 24 24;" xml:space="preserve">
<g>
	<path d="M12,23c-0.153,0-0.307-0.035-0.447-0.105C11.204,22.72,3,18.543,3,12V5c0-0.417,0.259-0.79,0.649-0.937l8-3
		c0.227-0.085,0.476-0.085,0.702,0l8,3C20.741,4.21,21,4.583,21,5v7c0,6.543-8.204,10.72-8.553,10.895
		C12.307,22.965,12.153,23,12,23z M5,5.693V12c0,4.549,5.39,7.948,6.999,8.862C13.607,19.946,19,16.536,19,12V5.693l-7-2.625
		L5,5.693z"/>
</g>
</svg>
