<?xml version="1.0" encoding="iso-8859-1"?>
<!-- Generator: Adobe Illustrator 24.2.1, SVG Export Plug-In . SVG Version: 6.00 Build 0)  -->
<svg version="1.1" id="Camada_1" xmlns="http://www.w3.org/2000/svg" xmlns:xlink="http://www.w3.org/1999/xlink" x="0px" y="0px"
	 viewBox="0 0 24 24" style="enable-background:new 0 0 24 24;" xml:space="preserve">
<g>
	<path d="M19,23H5c-1.654,0-3-1.346-3-3V6c0-0.216,0.07-0.427,0.2-0.6l3-4C5.389,1.148,5.685,1,6,1h12c0.314,0,0.611,0.148,0.8,0.4
		l3,4C21.93,5.573,22,5.784,22,6v14C22,21.654,20.654,23,19,23z M4,6.333V20c0,0.552,0.449,1,1,1h14c0.552,0,1-0.448,1-1V6.333
		L17.5,3h-11L4,6.333z"/>
</g>
<g>
	<path d="M21,7H3C2.448,7,2,6.552,2,6s0.448-1,1-1h18c0.553,0,1,0.448,1,1S21.553,7,21,7z"/>
</g>
<g>
	<path d="M12,15c-2.757,0-5-2.243-5-5c0-0.552,0.448-1,1-1s1,0.448,1,1c0,1.654,1.346,3,3,3s3-1.346,3-3c0-0.552,0.447-1,1-1
		s1,0.448,1,1C17,12.757,14.757,15,12,15z"/>
</g>
</svg>
