<svg width="20" height="22" viewBox="0 0 20 22" fill="none" xmlns="http://www.w3.org/2000/svg">
<path fill-rule="evenodd" clip-rule="evenodd" d="M20 19C20 20.654 18.6538 22 17 22H3C1.34619 22 0 20.654 0 19V5C0 4.89124 0.0175781 4.78369 0.0517578 4.68164C0.0854492 4.58112 0.135254 4.4859 0.200195 4.40002L0.20459 4.39441L3.2002 0.400024C3.38916 0.14801 3.68506 0 4 0H16C16.1685 0 16.332 0.0426025 16.4766 0.120972C16.6016 0.188721 16.7124 0.283203 16.7998 0.400024L19.7837 4.37848L19.7998 4.40002C19.9302 4.573 20 4.784 20 5V19ZM2 19V6H18V19C18 19.552 17.5518 20 17 20H3C2.44922 20 2 19.552 2 19ZM17 4H3L4.5 2H15.5L17 4ZM5 9C5 11.757 7.24316 14 10 14C12.7568 14 15 11.757 15 9C15 8.448 14.5532 8 14 8C13.4468 8 13 8.448 13 9C13 10.654 11.6538 12 10 12C8.34619 12 7 10.654 7 9C7 8.448 6.55176 8 6 8C5.44824 8 5 8.448 5 9Z" fill="black"/>
</svg>
