<?xml version="1.0" encoding="iso-8859-1"?>
<!-- Generator: Adobe Illustrator 24.2.1, SVG Export Plug-In . SVG Version: 6.00 Build 0)  -->
<svg version="1.1" id="Camada_1" xmlns="http://www.w3.org/2000/svg" xmlns:xlink="http://www.w3.org/1999/xlink" x="0px" y="0px"
	 viewBox="0 0 24 24" style="enable-background:new 0 0 24 24;" xml:space="preserve">
<g>
	<circle cx="9" cy="21" r="2"/>
</g>
<g>
	<circle cx="20" cy="21" r="2"/>
</g>
<g>
	<path d="M9.623,17.001c-1.413,0-2.645-1.008-2.924-2.417l-1.67-8.343C5.022,6.212,5.016,6.183,5.012,6.153L4.18,2H1
		C0.448,2,0,1.552,0,1s0.448-1,1-1h4c0.477,0,0.887,0.336,0.98,0.804L6.82,5H23c0.298,0,0.58,0.133,0.771,0.362
		c0.19,0.23,0.268,0.532,0.212,0.825l-1.6,8.39c-0.286,1.436-1.552,2.416-3.002,2.423H9.68C9.661,17,9.642,17.001,9.623,17.001z
		 M7.221,7l1.44,7.193c0.095,0.477,0.474,0.816,1,0.807H19.4c0.502-0.01,0.925-0.33,1.02-0.806L21.791,7H7.221z"/>
</g>
</svg>
