<?xml version="1.0" encoding="iso-8859-1"?>
<!-- Generator: Adobe Illustrator 24.2.1, SVG Export Plug-In . SVG Version: 6.00 Build 0)  -->
<svg version="1.1" id="Camada_1" xmlns="http://www.w3.org/2000/svg" xmlns:xlink="http://www.w3.org/1999/xlink" x="0px" y="0px"
	 viewBox="0 0 24 24" style="enable-background:new 0 0 24 24;" xml:space="preserve">
<g>
	<path d="M21,9c-0.553,0-1-0.448-1-1V4h-4c-0.553,0-1-0.448-1-1s0.447-1,1-1h5c0.553,0,1,0.448,1,1v5C22,8.552,21.553,9,21,9z"/>
</g>
<g>
	<path d="M4,21c-0.256,0-0.512-0.098-0.707-0.293c-0.391-0.391-0.391-1.023,0-1.414l17-17c0.391-0.391,1.023-0.391,1.414,0
		s0.391,1.023,0,1.414l-17,17C4.512,20.902,4.256,21,4,21z"/>
</g>
<g>
	<path d="M21,22h-5c-0.553,0-1-0.447-1-1s0.447-1,1-1h4v-4c0-0.553,0.447-1,1-1s1,0.447,1,1v5C22,21.553,21.553,22,21,22z"/>
</g>
<g>
	<path d="M21,22c-0.256,0-0.512-0.098-0.707-0.293l-6-6c-0.391-0.391-0.391-1.023,0-1.414s1.023-0.391,1.414,0l6,6
		c0.391,0.391,0.391,1.023,0,1.414C21.512,21.902,21.256,22,21,22z"/>
</g>
<g>
	<path d="M9,10c-0.256,0-0.512-0.098-0.707-0.293l-5-5c-0.391-0.391-0.391-1.023,0-1.414s1.023-0.391,1.414,0l5,5
		c0.391,0.391,0.391,1.023,0,1.414C9.512,9.902,9.256,10,9,10z"/>
</g>
</svg>
