<?xml version="1.0" encoding="iso-8859-1"?>
<!-- Generator: Adobe Illustrator 24.2.1, SVG Export Plug-In . SVG Version: 6.00 Build 0)  -->
<svg version="1.1" id="Camada_1" xmlns="http://www.w3.org/2000/svg" xmlns:xlink="http://www.w3.org/1999/xlink" x="0px" y="0px"
	 viewBox="0 0 24 24" style="enable-background:new 0 0 24 24;" xml:space="preserve">
<g>
	<path d="M19,21c-0.223,0-0.444-0.074-0.625-0.219l-10-8C8.138,12.591,8,12.304,8,12s0.138-0.591,0.375-0.781l10-8
		c0.3-0.24,0.711-0.286,1.059-0.121C19.779,3.265,20,3.616,20,4v16c0,0.385-0.221,0.734-0.566,0.901C19.296,20.968,19.147,21,19,21z
		 M10.601,12L18,17.919V6.081L10.601,12z"/>
</g>
<g>
	<path d="M5,20c-0.552,0-1-0.447-1-1V5c0-0.552,0.448-1,1-1s1,0.448,1,1v14C6,19.553,5.552,20,5,20z"/>
</g>
</svg>
