<?xml version="1.0" encoding="iso-8859-1"?>
<!-- Generator: Adobe Illustrator 24.2.1, SVG Export Plug-In . SVG Version: 6.00 Build 0)  -->
<svg version="1.1" id="Camada_1" xmlns="http://www.w3.org/2000/svg" xmlns:xlink="http://www.w3.org/1999/xlink" x="0px" y="0px"
	 viewBox="0 0 24 24" style="enable-background:new 0 0 24 24;" xml:space="preserve">
<g>
	<path d="M5,21c-0.147,0-0.295-0.032-0.433-0.099C4.22,20.734,4,20.385,4,20V4c0-0.384,0.22-0.735,0.567-0.901
		c0.345-0.166,0.756-0.12,1.058,0.121l10,8C15.862,11.409,16,11.696,16,12s-0.138,0.591-0.375,0.781l-10,8
		C5.444,20.926,5.223,21,5,21z M6,6.081v11.838L13.399,12L6,6.081z"/>
</g>
<g>
	<path d="M19,20c-0.553,0-1-0.447-1-1V5c0-0.552,0.447-1,1-1s1,0.448,1,1v14C20,19.553,19.553,20,19,20z"/>
</g>
</svg>
