<?xml version="1.0" encoding="iso-8859-1"?>
<!-- Generator: Adobe Illustrator 24.2.1, SVG Export Plug-In . SVG Version: 6.00 Build 0)  -->
<svg version="1.1" id="Camada_1" xmlns="http://www.w3.org/2000/svg" xmlns:xlink="http://www.w3.org/1999/xlink" x="0px" y="0px"
	 viewBox="0 0 24 24" style="enable-background:new 0 0 24 24;" xml:space="preserve">
<g>
	<path d="M14.5,11C13.121,11,12,9.878,12,8.5v-5C12,2.122,13.121,1,14.5,1S17,2.122,17,3.5v5C17,9.878,15.879,11,14.5,11z M14.5,3
		C14.225,3,14,3.224,14,3.5v5C14,8.776,14.225,9,14.5,9S15,8.776,15,8.5v-5C15,3.224,14.775,3,14.5,3z"/>
</g>
<g>
	<path d="M20.5,11H19c-0.553,0-1-0.448-1-1V8.5C18,7.122,19.121,6,20.5,6S23,7.122,23,8.5S21.879,11,20.5,11z M20,9h0.5
		C20.775,9,21,8.776,21,8.5S20.775,8,20.5,8S20,8.224,20,8.5V9z"/>
</g>
<g>
	<path d="M9.5,23C8.122,23,7,21.879,7,20.5v-5C7,14.121,8.122,13,9.5,13s2.5,1.121,2.5,2.5v5C12,21.879,10.878,23,9.5,23z M9.5,15
		C9.224,15,9,15.225,9,15.5v5C9,20.775,9.224,21,9.5,21s0.5-0.225,0.5-0.5v-5C10,15.225,9.776,15,9.5,15z"/>
</g>
<g>
	<path d="M3.5,18C2.122,18,1,16.879,1,15.5S2.122,13,3.5,13H5c0.552,0,1,0.447,1,1v1.5C6,16.879,4.878,18,3.5,18z M3.5,15
		C3.224,15,3,15.225,3,15.5S3.224,16,3.5,16S4,15.775,4,15.5V15H3.5z"/>
</g>
<g>
	<path d="M20.5,17h-5c-1.379,0-2.5-1.121-2.5-2.5s1.121-2.5,2.5-2.5h5c1.379,0,2.5,1.121,2.5,2.5S21.879,17,20.5,17z M15.5,14
		c-0.275,0-0.5,0.225-0.5,0.5s0.225,0.5,0.5,0.5h5c0.275,0,0.5-0.225,0.5-0.5S20.775,14,20.5,14H15.5z"/>
</g>
<g>
	<path d="M15.5,23c-1.379,0-2.5-1.121-2.5-2.5V19c0-0.553,0.447-1,1-1h1.5c1.379,0,2.5,1.121,2.5,2.5S16.879,23,15.5,23z M15,20v0.5
		c0,0.275,0.225,0.5,0.5,0.5s0.5-0.225,0.5-0.5S15.775,20,15.5,20H15z"/>
</g>
<g>
	<path d="M8.5,12h-5C2.122,12,1,10.878,1,9.5S2.122,7,3.5,7h5C9.878,7,11,8.122,11,9.5S9.878,12,8.5,12z M3.5,9
		C3.224,9,3,9.224,3,9.5S3.224,10,3.5,10h5C8.776,10,9,9.776,9,9.5S8.776,9,8.5,9H3.5z"/>
</g>
<g>
	<path d="M10,6H8.5C7.122,6,6,4.878,6,3.5S7.122,1,8.5,1S11,2.122,11,3.5V5C11,5.552,10.552,6,10,6z M8.5,3C8.224,3,8,3.224,8,3.5
		S8.224,4,8.5,4H9V3.5C9,3.224,8.776,3,8.5,3z"/>
</g>
</svg>
