<svg width="22" height="22" viewBox="0 0 22 22" fill="none" xmlns="http://www.w3.org/2000/svg">
<path fill-rule="evenodd" clip-rule="evenodd" d="M0 11C0 17.065 4.93506 22 11 22C13.999 22 16.7222 20.7932 18.7085 18.8397C18.7319 18.8201 18.7549 18.7992 18.7769 18.777C18.7983 18.7555 18.8188 18.7333 18.8379 18.7104C20.7925 16.7239 22 14.0002 22 11C22 4.935 17.0649 0 11 0C8 0 5.27637 1.20746 3.29004 3.16187C3.26709 3.18103 3.24463 3.20148 3.22314 3.22302C3.20166 3.24451 3.18115 3.26672 3.16211 3.28955C1.20752 5.27612 0 7.99982 0 11ZM3.97119 5.38525C2.73828 6.9256 2 8.87836 2 11C2 15.963 6.03809 20 11 20C13.1221 20 15.0747 19.262 16.6147 18.0291L3.97119 5.38525ZM18.0288 16.6151L5.38525 3.97125C6.92578 2.73822 8.87842 2 11 2C15.9629 2 20 6.03802 20 11C20 13.1221 19.2617 15.0748 18.0288 16.6151Z" fill="black"/>
</svg>
