<?xml version="1.0" encoding="iso-8859-1"?>
<!-- Generator: Adobe Illustrator 24.2.1, SVG Export Plug-In . SVG Version: 6.00 Build 0)  -->
<svg version="1.1" id="Camada_1" xmlns="http://www.w3.org/2000/svg" xmlns:xlink="http://www.w3.org/1999/xlink" x="0px" y="0px"
	 viewBox="0 0 24 24" style="enable-background:new 0 0 24 24;" xml:space="preserve">
<g>
	<path d="M18.18,22.02c-0.159,0-0.319-0.038-0.466-0.115L12,18.899l-5.715,3.005c-0.336,0.179-0.745,0.148-1.053-0.076
		c-0.308-0.224-0.462-0.603-0.398-0.978l1.091-6.361L1.302,9.986C1.03,9.721,0.931,9.324,1.049,8.961
		C1.166,8.6,1.479,8.335,1.855,8.281l6.391-0.935l2.857-5.789c0.337-0.683,1.456-0.683,1.793,0l2.857,5.789l6.391,0.935
		c0.377,0.055,0.689,0.319,0.807,0.681c0.117,0.362,0.02,0.759-0.254,1.025l-4.623,4.503l1.091,6.361
		c0.064,0.375-0.09,0.754-0.397,0.978C18.593,21.955,18.387,22.02,18.18,22.02z M4.148,9.966l3.549,3.457
		c0.236,0.23,0.344,0.562,0.288,0.886l-0.838,4.883l4.387-2.307c0.291-0.154,0.64-0.154,0.931,0l4.386,2.307l-0.837-4.883
		c-0.056-0.324,0.052-0.655,0.288-0.886l3.549-3.457l-4.906-0.717c-0.325-0.047-0.606-0.252-0.752-0.547L12,4.259L9.807,8.702
		c-0.146,0.295-0.426,0.5-0.752,0.547L4.148,9.966z"/>
</g>
</svg>
