<?xml version="1.0" encoding="iso-8859-1"?>
<!-- Generator: Adobe Illustrator 24.2.1, SVG Export Plug-In . SVG Version: 6.00 Build 0)  -->
<svg version="1.1" id="Camada_1" xmlns="http://www.w3.org/2000/svg" xmlns:xlink="http://www.w3.org/1999/xlink" x="0px" y="0px"
	 viewBox="0 0 24 24" style="enable-background:new 0 0 24 24;" xml:space="preserve">
<g>
	<path d="M12,18c-3.309,0-6-2.691-6-6s2.691-6,6-6s6,2.691,6,6S15.309,18,12,18z M12,8c-2.206,0-4,1.794-4,4c0,2.206,1.794,4,4,4
		c2.206,0,4-1.794,4-4C16,9.794,14.206,8,12,8z"/>
</g>
<g>
	<path d="M12,4c-0.552,0-1-0.448-1-1V1c0-0.552,0.448-1,1-1s1,0.448,1,1v2C13,3.552,12.552,4,12,4z"/>
</g>
<g>
	<path d="M12,24c-0.552,0-1-0.447-1-1v-2c0-0.553,0.448-1,1-1s1,0.447,1,1v2C13,23.553,12.552,24,12,24z"/>
</g>
<g>
	<path d="M5.64,6.64c-0.256,0-0.512-0.098-0.707-0.293l-1.42-1.42c-0.391-0.391-0.391-1.023,0-1.414s1.023-0.391,1.414,0l1.42,1.42
		c0.391,0.391,0.391,1.023,0,1.414C6.152,6.542,5.896,6.64,5.64,6.64z"/>
</g>
<g>
	<path d="M19.78,20.78c-0.256,0-0.512-0.098-0.707-0.293l-1.42-1.42c-0.391-0.391-0.391-1.023,0-1.414s1.023-0.391,1.414,0
		l1.42,1.42c0.391,0.391,0.391,1.023,0,1.414C20.292,20.683,20.036,20.78,19.78,20.78z"/>
</g>
<g>
	<path d="M3,13H1c-0.552,0-1-0.448-1-1s0.448-1,1-1h2c0.552,0,1,0.448,1,1S3.552,13,3,13z"/>
</g>
<g>
	<path d="M23,13h-2c-0.553,0-1-0.448-1-1s0.447-1,1-1h2c0.553,0,1,0.448,1,1S23.553,13,23,13z"/>
</g>
<g>
	<path d="M4.22,20.78c-0.256,0-0.512-0.098-0.707-0.293c-0.391-0.391-0.391-1.023,0-1.414l1.42-1.42
		c0.391-0.391,1.023-0.391,1.414,0s0.391,1.023,0,1.414l-1.42,1.42C4.732,20.683,4.476,20.78,4.22,20.78z"/>
</g>
<g>
	<path d="M18.36,6.64c-0.256,0-0.512-0.098-0.707-0.293c-0.391-0.391-0.391-1.023,0-1.414l1.42-1.42
		c0.391-0.391,1.023-0.391,1.414,0s0.391,1.023,0,1.414l-1.42,1.42C18.872,6.542,18.616,6.64,18.36,6.64z"/>
</g>
</svg>
