<?xml version="1.0" encoding="iso-8859-1"?>
<!-- Generator: Adobe Illustrator 24.2.1, SVG Export Plug-In . SVG Version: 6.00 Build 0)  -->
<svg version="1.1" id="Camada_1" xmlns="http://www.w3.org/2000/svg" xmlns:xlink="http://www.w3.org/1999/xlink" x="0px" y="0px"
	 viewBox="0 0 24 24" style="enable-background:new 0 0 24 24;" xml:space="preserve">
<g>
	<path d="M17,19c-0.553,0-1-0.447-1-1c0-2.206-1.794-4-4-4c-2.206,0-4,1.794-4,4c0,0.553-0.448,1-1,1s-1-0.447-1-1
		c0-3.309,2.691-6,6-6s6,2.691,6,6C18,18.553,17.553,19,17,19z"/>
</g>
<g>
	<path d="M12,10c-0.552,0-1-0.448-1-1V2c0-0.552,0.448-1,1-1s1,0.448,1,1v7C13,9.552,12.552,10,12,10z"/>
</g>
<g>
	<path d="M5.64,12.64c-0.256,0-0.512-0.098-0.707-0.293l-1.42-1.42c-0.391-0.391-0.391-1.023,0-1.414s1.023-0.391,1.414,0l1.42,1.42
		c0.391,0.391,0.391,1.023,0,1.414C6.152,12.542,5.896,12.64,5.64,12.64z"/>
</g>
<g>
	<path d="M3,19H1c-0.552,0-1-0.447-1-1s0.448-1,1-1h2c0.552,0,1,0.447,1,1S3.552,19,3,19z"/>
</g>
<g>
	<path d="M23,19h-2c-0.553,0-1-0.447-1-1s0.447-1,1-1h2c0.553,0,1,0.447,1,1S23.553,19,23,19z"/>
</g>
<g>
	<path d="M18.36,12.64c-0.256,0-0.512-0.098-0.707-0.293c-0.391-0.391-0.391-1.023,0-1.414l1.42-1.42
		c0.391-0.391,1.023-0.391,1.414,0s0.391,1.023,0,1.414l-1.42,1.42C18.872,12.542,18.616,12.64,18.36,12.64z"/>
</g>
<g>
	<path d="M23,23H1c-0.552,0-1-0.447-1-1s0.448-1,1-1h22c0.553,0,1,0.447,1,1S23.553,23,23,23z"/>
</g>
<g>
	<path d="M16,7c-0.256,0-0.512-0.098-0.707-0.293L12,3.414L8.707,6.707c-0.391,0.391-1.023,0.391-1.414,0s-0.391-1.023,0-1.414l4-4
		c0.391-0.391,1.023-0.391,1.414,0l4,4c0.391,0.391,0.391,1.023,0,1.414C16.512,6.902,16.256,7,16,7z"/>
</g>
</svg>
