<?xml version="1.0" encoding="iso-8859-1"?>
<!-- Generator: Adobe Illustrator 24.2.1, SVG Export Plug-In . SVG Version: 6.00 Build 0)  -->
<svg version="1.1" id="Camada_1" xmlns="http://www.w3.org/2000/svg" xmlns:xlink="http://www.w3.org/1999/xlink" x="0px" y="0px"
	 viewBox="0 0 24 24" style="enable-background:new 0 0 24 24;" xml:space="preserve">
<g>
	<path d="M18,23H6c-1.654,0-3-1.346-3-3V4c0-1.654,1.346-3,3-3h12c1.654,0,3,1.346,3,3v16C21,21.654,19.654,23,18,23z M6,3
		C5.449,3,5,3.449,5,4v16c0,0.552,0.449,1,1,1h12c0.552,0,1-0.448,1-1V4c0-0.551-0.448-1-1-1H6z"/>
</g>
<g>
	<path d="M12.01,19c-0.552,0-1.005-0.447-1.005-1s0.443-1,0.995-1h0.01c0.552,0,1,0.447,1,1S12.562,19,12.01,19z"/>
</g>
</svg>
