<?xml version="1.0" encoding="iso-8859-1"?>
<!-- Generator: Adobe Illustrator 24.2.1, SVG Export Plug-In . SVG Version: 6.00 Build 0)  -->
<svg version="1.1" id="Camada_1" xmlns="http://www.w3.org/2000/svg" xmlns:xlink="http://www.w3.org/1999/xlink" x="0px" y="0px"
	 viewBox="0 0 24 24" style="enable-background:new 0 0 24 24;" xml:space="preserve">
<g>
	<path d="M12.005,22.165c-0.768,0-1.535-0.292-2.12-0.875l-8.592-8.583C1.105,12.52,1,12.266,1,12V2c0-0.552,0.448-1,1-1h10
		c0.265,0,0.52,0.105,0.707,0.293l8.59,8.59c1.161,1.168,1.161,3.066,0.002,4.232c0,0.001-0.001,0.001-0.002,0.002l-7.17,7.17
		C13.542,21.872,12.773,22.165,12.005,22.165z M3,11.585l8.296,8.288c0.393,0.391,1.026,0.391,1.416,0l7.168-7.168
		c0.386-0.389,0.386-1.021,0-1.41L11.586,3H3V11.585z M20.59,13.41h0.01H20.59z"/>
</g>
<g>
	<path d="M7.01,8C6.458,8,6.005,7.552,6.005,7S6.448,6,7,6h0.01c0.552,0,1,0.448,1,1S7.562,8,7.01,8z"/>
</g>
</svg>
