<?xml version="1.0" encoding="iso-8859-1"?>
<!-- Generator: Adobe Illustrator 24.2.1, SVG Export Plug-In . SVG Version: 6.00 Build 0)  -->
<svg version="1.1" id="Camada_1" xmlns="http://www.w3.org/2000/svg" xmlns:xlink="http://www.w3.org/1999/xlink" x="0px" y="0px"
	 viewBox="0 0 24 24" style="enable-background:new 0 0 24 24;" xml:space="preserve">
<g>
	<path d="M4,18c-0.256,0-0.512-0.098-0.707-0.293c-0.391-0.391-0.391-1.023,0-1.414L8.586,11L3.293,5.707
		c-0.391-0.391-0.391-1.023,0-1.414s1.023-0.391,1.414,0l6,6c0.391,0.391,0.391,1.023,0,1.414l-6,6C4.512,17.902,4.256,18,4,18z"/>
</g>
<g>
	<path d="M20,20h-8c-0.552,0-1-0.447-1-1s0.448-1,1-1h8c0.553,0,1,0.447,1,1S20.553,20,20,20z"/>
</g>
</svg>
