<?xml version="1.0" encoding="iso-8859-1"?>
<!-- Generator: Adobe Illustrator 24.2.1, SVG Export Plug-In . SVG Version: 6.00 Build 0)  -->
<svg version="1.1" id="Camada_1" xmlns="http://www.w3.org/2000/svg" xmlns:xlink="http://www.w3.org/1999/xlink" x="0px" y="0px"
	 viewBox="0 0 24 24" style="enable-background:new 0 0 24 24;" xml:space="preserve">
<g>
	<path d="M11.511,24.003c-0.36,0-0.723-0.035-1.084-0.106c-1.441-0.287-2.684-1.117-3.5-2.339C5.346,19.191,5.848,16.031,8,14.259
		V3.5C8,1.57,9.57,0,11.5,0S15,1.57,15,3.5v10.759c0.414,0.34,0.773,0.738,1.073,1.188c1.685,2.521,1.004,5.942-1.518,7.627
		C13.641,23.687,12.587,24.003,11.511,24.003z M11.5,2C10.673,2,10,2.673,10,3.5v11.26c0,0.334-0.167,0.646-0.444,0.831
		c-0.777,0.52-1.306,1.311-1.488,2.229c-0.183,0.917,0.003,1.85,0.522,2.627c1.072,1.605,3.25,2.035,4.854,0.966
		c1.604-1.072,2.037-3.25,0.966-4.854c-0.257-0.385-0.581-0.71-0.966-0.966C13.167,15.406,13,15.094,13,14.76V3.5
		C13,2.673,12.327,2,11.5,2z"/>
</g>
</svg>
