<?xml version="1.0" encoding="iso-8859-1"?>
<!-- Generator: Adobe Illustrator 24.2.1, SVG Export Plug-In . SVG Version: 6.00 Build 0)  -->
<svg version="1.1" id="Camada_1" xmlns="http://www.w3.org/2000/svg" xmlns:xlink="http://www.w3.org/1999/xlink" x="0px" y="0px"
	 viewBox="0 0 24 24" style="enable-background:new 0 0 24 24;" xml:space="preserve">
<g>
	<path d="M13,23c-2.206,0-4-1.794-4-4v-3H4.34c-0.153-0.001-0.315-0.01-0.476-0.034c-1.632-0.248-2.76-1.78-2.513-3.416l1.381-9.001
		C2.954,2.08,4.244,1.017,5.731,1H19.67c0.02,0,0.039,0,0.058,0c1.637,0,3.041,1.223,3.264,2.866C22.997,3.91,23,3.955,23,4v7
		c0,0.045-0.003,0.09-0.009,0.134c-0.226,1.663-1.669,2.87-3.339,2.866h-2.003l-3.735,8.406C13.753,22.768,13.396,23,13,23z M10,14
		c0.552,0,1,0.447,1,1v4c0,0.891,0.585,1.647,1.392,1.905L16,12.788V3H5.72C5.235,3.022,4.783,3.36,4.709,3.85l-1.381,9.001
		c-0.082,0.544,0.294,1.055,0.839,1.138C4.224,13.998,4.285,14,4.331,14H10z M18,12h1.67c0.66,0.008,1.217-0.448,1.33-1.077V4.077
		C20.886,3.448,20.33,2.94,19.688,3H18V12z"/>
</g>
</svg>
