<?xml version="1.0" encoding="iso-8859-1"?>
<!-- Generator: Adobe Illustrator 24.2.1, SVG Export Plug-In . SVG Version: 6.00 Build 0)  -->
<svg version="1.1" id="Camada_1" xmlns="http://www.w3.org/2000/svg" xmlns:xlink="http://www.w3.org/1999/xlink" x="0px" y="0px"
	 viewBox="0 0 24 24" style="enable-background:new 0 0 24 24;" xml:space="preserve">
<g>
	<path d="M18.304,23c-0.012,0-0.023,0-0.035,0H4c-1.654,0-3-1.346-3-3v-7c0-1.654,1.346-3,3-3h2.35l3.736-8.406
		C10.247,1.233,10.605,1,11,1c2.206,0,4,1.794,4,4v3h4.66c0.154,0.002,0.312,0.01,0.472,0.034c0.793,0.121,1.491,0.542,1.967,1.187
		c0.476,0.646,0.671,1.437,0.55,2.229l-1.38,9.001C21.048,21.909,19.776,23,18.304,23z M8,21h10.28c0.004,0,0.008,0,0.012,0
		c0.502,0,0.926-0.363,1-0.85l1.38-9.002c0.04-0.263-0.025-0.526-0.184-0.741c-0.158-0.215-0.392-0.356-0.656-0.396
		C19.78,10.003,19.728,9.999,19.674,10H14c-0.553,0-1-0.448-1-1V5c0-0.891-0.585-1.647-1.392-1.906L8,11.212V21z M4,12
		c-0.551,0-1,0.449-1,1v7c0,0.552,0.449,1,1,1h2v-9H4z"/>
</g>
</svg>
