<?xml version="1.0" encoding="iso-8859-1"?>
<!-- Generator: Adobe Illustrator 24.2.1, SVG Export Plug-In . SVG Version: 6.00 Build 0)  -->
<svg version="1.1" id="Camada_1" xmlns="http://www.w3.org/2000/svg" xmlns:xlink="http://www.w3.org/1999/xlink" x="0px" y="0px"
	 viewBox="0 0 24 24" style="enable-background:new 0 0 24 24;" xml:space="preserve">
<g>
	<path d="M16,20H8c-4.411,0-8-3.589-8-8s3.589-8,8-8h8c4.411,0,8,3.589,8,8S20.411,20,16,20z M8,6c-3.309,0-6,2.691-6,6s2.691,6,6,6
		h8c3.309,0,6-2.691,6-6s-2.691-6-6-6H8z"/>
</g>
<g>
	<path d="M8,16c-2.206,0-4-1.794-4-4c0-2.206,1.794-4,4-4s4,1.794,4,4C12,14.206,10.206,16,8,16z M8,10c-1.103,0-2,0.897-2,2
		c0,1.103,0.897,2,2,2s2-0.897,2-2C10,10.897,9.103,10,8,10z"/>
</g>
</svg>
