<?xml version="1.0" encoding="iso-8859-1"?>
<!-- Generator: Adobe Illustrator 24.2.1, SVG Export Plug-In . SVG Version: 6.00 Build 0)  -->
<svg version="1.1" id="Camada_1" xmlns="http://www.w3.org/2000/svg" xmlns:xlink="http://www.w3.org/1999/xlink" x="0px" y="0px"
	 viewBox="0 0 24 24" style="enable-background:new 0 0 24 24;" xml:space="preserve">
<g>
	<path d="M5.12,21.999C4.32,22,3.521,21.695,2.913,21.087c-0.59-0.589-0.915-1.373-0.915-2.207s0.325-1.618,0.915-2.207l6.447-6.447
		c-1.132-3.362,0.451-7.114,3.75-8.607c1.834-0.83,3.938-0.83,5.771,0c0.299,0.135,0.513,0.409,0.571,0.732
		c0.06,0.323-0.044,0.654-0.276,0.886l-3.76,3.76L14.7,6.3l0.715,0.699L15.414,7l1.593,1.592l3.756-3.77
		c0.232-0.232,0.558-0.333,0.887-0.277c0.322,0.059,0.596,0.272,0.731,0.572c0.771,1.703,0.832,3.605,0.173,5.354
		c-0.659,1.75-1.961,3.138-3.664,3.909c-1.619,0.732-3.447,0.817-5.114,0.259l-6.448,6.447C6.719,21.695,5.919,21.999,5.12,21.999z
		 M15.996,2.996c-0.703,0-1.406,0.148-2.062,0.445c-2.511,1.137-3.63,4.105-2.494,6.617c0.171,0.379,0.09,0.825-0.204,1.119
		l-6.91,6.91c-0.212,0.212-0.329,0.493-0.329,0.793s0.117,0.581,0.329,0.793c0.437,0.438,1.148,0.438,1.586,0l6.91-6.91
		c0.295-0.295,0.743-0.374,1.119-0.204c1.311,0.594,2.812,0.594,4.123,0c1.217-0.55,2.146-1.542,2.617-2.792
		c0.284-0.754,0.381-1.549,0.291-2.327l-2.566,2.567c-0.779,0.764-2.037,0.765-2.808,0.007l-1.606-1.606
		c-0.763-0.779-0.763-2.035-0.008-2.807c0.003-0.003,0.005-0.005,0.008-0.008l2.564-2.565C16.371,3.007,16.184,2.996,15.996,2.996z"
		/>
</g>
</svg>
