<?xml version="1.0" encoding="iso-8859-1"?>
<!-- Generator: Adobe Illustrator 24.2.1, SVG Export Plug-In . SVG Version: 6.00 Build 0)  -->
<svg version="1.1" id="Camada_1" xmlns="http://www.w3.org/2000/svg" xmlns:xlink="http://www.w3.org/1999/xlink" x="0px" y="0px"
	 viewBox="0 0 24 24" style="enable-background:new 0 0 24 24;" xml:space="preserve">
<g>
	<path d="M21,7H3C2.448,7,2,6.552,2,6s0.448-1,1-1h18c0.553,0,1,0.448,1,1S21.553,7,21,7z"/>
</g>
<g>
	<path d="M17,23H7c-1.654,0-3-1.346-3-3V6c0-0.552,0.448-1,1-1s1,0.448,1,1v14c0,0.552,0.449,1,1,1h10c0.552,0,1-0.448,1-1V6
		c0-0.552,0.447-1,1-1s1,0.448,1,1v14C20,21.654,18.654,23,17,23z M16,7c-0.553,0-1-0.448-1-1V4c0-0.551-0.448-1-1-1h-4
		C9.449,3,9,3.449,9,4v2c0,0.552-0.448,1-1,1S7,6.552,7,6V4c0-1.654,1.346-3,3-3h4c1.654,0,3,1.346,3,3v2C17,6.552,16.553,7,16,7z"
		/>
</g>
</svg>
