<?xml version="1.0" encoding="iso-8859-1"?>
<!-- Generator: Adobe Illustrator 24.2.1, SVG Export Plug-In . SVG Version: 6.00 Build 0)  -->
<svg version="1.1" id="Camada_1" xmlns="http://www.w3.org/2000/svg" xmlns:xlink="http://www.w3.org/1999/xlink" x="0px" y="0px"
	 viewBox="0 0 24 24" style="enable-background:new 0 0 24 24;" xml:space="preserve">
<g>
	<path d="M23,19c-0.256,0-0.512-0.098-0.707-0.293L13.5,9.914l-4.293,4.293c-0.391,0.391-1.023,0.391-1.414,0l-7.5-7.5
		c-0.391-0.391-0.391-1.023,0-1.414s1.023-0.391,1.414,0L8.5,12.086l4.293-4.293c0.391-0.391,1.023-0.391,1.414,0l9.5,9.5
		c0.391,0.391,0.391,1.023,0,1.414C23.512,18.902,23.256,19,23,19z"/>
</g>
<g>
	<path d="M23,19h-6c-0.553,0-1-0.447-1-1s0.447-1,1-1h5v-5c0-0.552,0.447-1,1-1s1,0.448,1,1v6C24,18.553,23.553,19,23,19z"/>
</g>
</svg>
