<?xml version="1.0" encoding="iso-8859-1"?>
<!-- Generator: Adobe Illustrator 24.2.1, SVG Export Plug-In . SVG Version: 6.00 Build 0)  -->
<svg version="1.1" id="Camada_1" xmlns="http://www.w3.org/2000/svg" xmlns:xlink="http://www.w3.org/1999/xlink" x="0px" y="0px"
	 viewBox="0 0 24 24" style="enable-background:new 0 0 24 24;" xml:space="preserve">
<g>
	<path d="M1,19c-0.256,0-0.512-0.098-0.707-0.293c-0.391-0.391-0.391-1.023,0-1.414l7.5-7.5c0.391-0.391,1.023-0.391,1.414,0
		l4.293,4.293l8.793-8.793c0.391-0.391,1.023-0.391,1.414,0s0.391,1.023,0,1.414l-9.5,9.5c-0.391,0.391-1.023,0.391-1.414,0
		L8.5,11.914l-6.793,6.793C1.512,18.902,1.256,19,1,19z"/>
</g>
<g>
	<path d="M23,13c-0.553,0-1-0.448-1-1V7h-5c-0.553,0-1-0.448-1-1s0.447-1,1-1h6c0.553,0,1,0.448,1,1v6C24,12.552,23.553,13,23,13z"
		/>
</g>
</svg>
