<?xml version="1.0" encoding="iso-8859-1"?>
<!-- Generator: Adobe Illustrator 24.2.1, SVG Export Plug-In . SVG Version: 6.00 Build 0)  -->
<svg version="1.1" id="Camada_1" xmlns="http://www.w3.org/2000/svg" xmlns:xlink="http://www.w3.org/1999/xlink" x="0px" y="0px"
	 viewBox="0 0 24 24" style="enable-background:new 0 0 24 24;" xml:space="preserve">
<g>
	<path d="M3.53,22c-0.526-0.006-1.033-0.145-1.478-0.401C0.62,20.771,0.127,18.933,0.954,17.5L9.432,3.346
		c0.001-0.002,0.002-0.004,0.003-0.005c0.25-0.412,0.599-0.761,1.01-1.009c0.683-0.415,1.489-0.541,2.268-0.348
		c0.778,0.19,1.436,0.672,1.851,1.357l8.473,14.146c0.266,0.46,0.405,0.967,0.411,1.48c0.009,0.803-0.296,1.559-0.856,2.132
		c-0.561,0.572-1.311,0.893-2.111,0.901H3.53z M11.146,4.377L2.678,18.514c-0.268,0.464-0.103,1.077,0.375,1.353
		C3.2,19.952,3.369,19.998,3.541,20H20.47c0.257-0.003,0.506-0.109,0.693-0.301c0.187-0.19,0.288-0.443,0.285-0.71
		c-0.002-0.171-0.049-0.34-0.135-0.489L12.852,4.374c-0.284-0.466-0.9-0.619-1.37-0.331C11.345,4.125,11.229,4.241,11.146,4.377z"/>
</g>
</svg>
