<?xml version="1.0" encoding="iso-8859-1"?>
<!-- Generator: Adobe Illustrator 24.2.1, SVG Export Plug-In . SVG Version: 6.00 Build 0)  -->
<svg version="1.1" id="Camada_1" xmlns="http://www.w3.org/2000/svg" xmlns:xlink="http://www.w3.org/1999/xlink" x="0px" y="0px"
	 viewBox="0 0 24 24" style="enable-background:new 0 0 24 24;" xml:space="preserve">
<g>
	<path d="M16,17H1c-0.552,0-1-0.447-1-1V3c0-0.552,0.448-1,1-1h15c0.553,0,1,0.448,1,1v13C17,16.553,16.553,17,16,17z M2,15h13V4H2
		V15z"/>
</g>
<g>
	<path d="M23,17h-7c-0.553,0-1-0.447-1-1V8c0-0.552,0.447-1,1-1h4c0.266,0,0.52,0.105,0.707,0.293l3,3C23.895,10.48,24,10.735,24,11
		v5C24,16.553,23.553,17,23,17z M17,15h5v-3.586L19.586,9H17V15z"/>
</g>
<g>
	<path d="M5.5,22C3.57,22,2,20.43,2,18.5S3.57,15,5.5,15S9,16.57,9,18.5S7.43,22,5.5,22z M5.5,17C4.673,17,4,17.673,4,18.5
		S4.673,20,5.5,20S7,19.327,7,18.5S6.327,17,5.5,17z"/>
</g>
<g>
	<path d="M18.5,22c-1.93,0-3.5-1.57-3.5-3.5s1.57-3.5,3.5-3.5s3.5,1.57,3.5,3.5S20.43,22,18.5,22z M18.5,17
		c-0.827,0-1.5,0.673-1.5,1.5s0.673,1.5,1.5,1.5s1.5-0.673,1.5-1.5S19.327,17,18.5,17z"/>
</g>
</svg>
