<?xml version="1.0" encoding="iso-8859-1"?>
<!-- Generator: Adobe Illustrator 24.2.1, SVG Export Plug-In . SVG Version: 6.00 Build 0)  -->
<svg version="1.1" id="Camada_1" xmlns="http://www.w3.org/2000/svg" xmlns:xlink="http://www.w3.org/1999/xlink" x="0px" y="0px"
	 viewBox="0 0 24 24" style="enable-background:new 0 0 24 24;" xml:space="preserve">
<g>
	<path d="M20,23H4c-1.654,0-3-1.346-3-3V9c0-1.654,1.346-3,3-3h16c1.654,0,3,1.346,3,3v11C23,21.654,21.654,23,20,23z M4,8
		C3.449,8,3,8.449,3,9v11c0,0.552,0.449,1,1,1h16c0.552,0,1-0.448,1-1V9c0-0.551-0.448-1-1-1H4z"/>
</g>
<g>
	<path d="M12,8c-0.256,0-0.512-0.098-0.707-0.293l-5-5c-0.391-0.391-0.391-1.023,0-1.414s1.023-0.391,1.414,0L12,5.586l4.293-4.293
		c0.391-0.391,1.023-0.391,1.414,0s0.391,1.023,0,1.414l-5,5C12.512,7.902,12.256,8,12,8z"/>
</g>
</svg>
