<?xml version="1.0" encoding="iso-8859-1"?>
<!-- Generator: Adobe Illustrator 24.2.1, SVG Export Plug-In . SVG Version: 6.00 Build 0)  -->
<svg version="1.1" id="Camada_1" xmlns="http://www.w3.org/2000/svg" xmlns:xlink="http://www.w3.org/1999/xlink" x="0px" y="0px"
	 viewBox="0 0 24 24" style="enable-background:new 0 0 24 24;" xml:space="preserve">
<g>
	<path d="M8.264,21.948c-2.599,0-5.262-0.692-7.75-2.074c-0.405-0.225-0.602-0.698-0.477-1.144c0.125-0.447,0.561-0.769,1.002-0.729
		c1.705,0.069,3.36-0.264,4.877-0.967C2.2,14.742,1.238,11.501,1.126,9.045c-0.134-2.952,0.916-5.351,0.96-5.452
		C2.232,3.265,2.544,3.04,2.903,3.005C3.26,2.969,3.611,3.13,3.818,3.425C5.495,5.812,8.129,7.293,11,7.507
		c-0.014-1.593,0.671-3.118,1.884-4.172c2.104-1.831,5.222-1.765,7.25,0.05c0.812-0.298,1.579-0.701,2.29-1.202
		c0.341-0.24,0.794-0.244,1.139-0.009s0.508,0.658,0.409,1.063c-0.343,1.407-1.028,2.703-1.995,3.774
		C21.992,7.172,21.999,7.334,22,7.497c0,5.484-2.428,10.056-6.661,12.547C13.18,21.314,10.751,21.948,8.264,21.948z M4.959,19.521
		c3.25,0.836,6.577,0.44,9.366-1.201C17.932,16.197,20,12.254,20,7.5c-0.001-0.215-0.021-0.431-0.062-0.641
		c-0.063-0.329,0.041-0.667,0.279-0.901c0.223-0.22,0.43-0.454,0.618-0.701c-0.227,0.083-0.455,0.16-0.688,0.23
		c-0.373,0.114-0.784-0.004-1.043-0.301c-1.258-1.448-3.461-1.602-4.909-0.342C13.422,5.517,12.986,6.491,13,7.517V8.53
		c0,0.542-0.432,0.985-0.974,1c-3.279,0.096-6.383-1.197-8.63-3.493C2.8,8.59,2.564,13.49,8.406,16.086
		c0.332,0.147,0.558,0.464,0.59,0.825s-0.134,0.712-0.435,0.916C7.442,18.587,6.229,19.155,4.959,19.521z"/>
</g>
</svg>
