<?xml version="1.0" encoding="iso-8859-1"?>
<!-- Generator: Adobe Illustrator 24.2.1, SVG Export Plug-In . SVG Version: 6.00 Build 0)  -->
<svg version="1.1" id="Camada_1" xmlns="http://www.w3.org/2000/svg" xmlns:xlink="http://www.w3.org/1999/xlink" x="0px" y="0px"
	 viewBox="0 0 24 24" style="enable-background:new 0 0 24 24;" xml:space="preserve">
<g>
	<path d="M8,23c-0.129,0-0.259-0.024-0.383-0.076C7.244,22.77,7,22.404,7,22v-3H3c-0.552,0-1-0.447-1-1V2c0-0.552,0.448-1,1-1h18
		c0.553,0,1,0.448,1,1v12c0,0.266-0.105,0.52-0.293,0.707l-4,4C17.52,18.895,17.266,19,17,19h-4.586l-3.707,3.707
		C8.516,22.898,8.26,23,8,23z M4,17h4c0.552,0,1,0.447,1,1v1.586l2.293-2.293C11.48,17.105,11.735,17,12,17h4.586L20,13.586V3H4V17z
		 M16,12c-0.553,0-1-0.448-1-1V7c0-0.552,0.447-1,1-1s1,0.448,1,1v4C17,11.552,16.553,12,16,12z M11,12c-0.552,0-1-0.448-1-1V7
		c0-0.552,0.448-1,1-1s1,0.448,1,1v4C12,11.552,11.552,12,11,12z"/>
</g>
</svg>
