<?xml version="1.0" encoding="iso-8859-1"?>
<!-- Generator: Adobe Illustrator 24.2.1, SVG Export Plug-In . SVG Version: 6.00 Build 0)  -->
<svg version="1.1" id="Camada_1" xmlns="http://www.w3.org/2000/svg" xmlns:xlink="http://www.w3.org/1999/xlink" x="0px" y="0px"
	 viewBox="0 0 24 24" style="enable-background:new 0 0 24 24;" xml:space="preserve">
<g>
	<path d="M20,8c-0.553,0-1-0.448-1-1V5H5v2c0,0.552-0.448,1-1,1S3,7.552,3,7V4c0-0.552,0.448-1,1-1h16c0.553,0,1,0.448,1,1v3
		C21,7.552,20.553,8,20,8z"/>
</g>
<g>
	<path d="M15,21H9c-0.552,0-1-0.447-1-1s0.448-1,1-1h6c0.553,0,1,0.447,1,1S15.553,21,15,21z"/>
</g>
<g>
	<path d="M12,21c-0.552,0-1-0.447-1-1V4c0-0.552,0.448-1,1-1s1,0.448,1,1v16C13,20.553,12.552,21,12,21z"/>
</g>
</svg>
