<?xml version="1.0" encoding="iso-8859-1"?>
<!-- Generator: Adobe Illustrator 24.2.1, SVG Export Plug-In . SVG Version: 6.00 Build 0)  -->
<svg version="1.1" id="Camada_1" xmlns="http://www.w3.org/2000/svg" xmlns:xlink="http://www.w3.org/1999/xlink" x="0px" y="0px"
	 viewBox="0 0 24 24" style="enable-background:new 0 0 24 24;" xml:space="preserve">
<g>
	<path d="M15,23c-2.206,0-4-1.794-4-4v-6H1c-0.282,0-0.55-0.119-0.74-0.327c-0.19-0.208-0.283-0.487-0.256-0.768
		C0.552,6.166,5.116,1.602,10.855,1.054c6.619-0.621,12.509,4.237,13.14,10.851c0.027,0.281-0.065,0.56-0.255,0.768S23.282,13,23,13
		H13v6c0,1.103,0.897,2,2,2s2-0.897,2-2c0-0.553,0.447-1,1-1s1,0.447,1,1C19,21.206,17.206,23,15,23z M12,11h9.839
		c-1.026-4.948-5.661-8.443-10.793-7.955C6.63,3.467,3.049,6.738,2.161,11H12z"/>
</g>
</svg>
