<?xml version="1.0" encoding="iso-8859-1"?>
<!-- Generator: Adobe Illustrator 24.2.1, SVG Export Plug-In . SVG Version: 6.00 Build 0)  -->
<svg version="1.1" id="Camada_1" xmlns="http://www.w3.org/2000/svg" xmlns:xlink="http://www.w3.org/1999/xlink" x="0px" y="0px"
	 viewBox="0 0 24 24" style="enable-background:new 0 0 24 24;" xml:space="preserve">
<g>
	<path d="M12,17c-3.86,0-7-3.141-7-7V3c0-0.552,0.448-1,1-1s1,0.448,1,1v7c0,2.757,2.243,5,5,5s5-2.243,5-5V3c0-0.552,0.447-1,1-1
		s1,0.448,1,1v7C19,13.859,15.859,17,12,17z"/>
</g>
<g>
	<path d="M20,22H4c-0.552,0-1-0.447-1-1s0.448-1,1-1h16c0.553,0,1,0.447,1,1S20.553,22,20,22z"/>
</g>
</svg>
