<?xml version="1.0" encoding="iso-8859-1"?>
<!-- Generator: Adobe Illustrator 24.2.1, SVG Export Plug-In . SVG Version: 6.00 Build 0)  -->
<svg version="1.1" id="Camada_1" xmlns="http://www.w3.org/2000/svg" xmlns:xlink="http://www.w3.org/1999/xlink" x="0px" y="0px"
	 viewBox="0 0 24 24" style="enable-background:new 0 0 24 24;" xml:space="preserve">
<g>
	<path d="M19,23H5c-1.654,0-3-1.346-3-3v-7c0-1.654,1.346-3,3-3h14c1.654,0,3,1.346,3,3v7C22,21.654,20.654,23,19,23z M5,12
		c-0.551,0-1,0.449-1,1v7c0,0.552,0.449,1,1,1h14c0.552,0,1-0.448,1-1v-7c0-0.551-0.448-1-1-1H5z"/>
</g>
<g>
	<path d="M7,12c-0.552,0-1-0.448-1-1V7C5.999,5.398,6.621,3.891,7.753,2.757c1.132-1.135,2.639-1.76,4.241-1.762
		c0.002,0,0.004,0,0.006,0c2.842,0,5.314,2.02,5.88,4.806C17.99,6.342,17.641,6.87,17.1,6.98c-0.545,0.115-1.069-0.24-1.18-0.781
		C15.543,4.342,13.895,2.995,12,2.995c-0.001,0-0.002,0-0.004,0c-1.068,0.001-2.073,0.418-2.828,1.174
		C8.414,4.926,7.999,5.931,8,6.999V11C8,11.552,7.552,12,7,12z"/>
</g>
</svg>
