<?xml version="1.0" encoding="iso-8859-1"?>
<!-- Generator: Adobe Illustrator 24.2.1, SVG Export Plug-In . SVG Version: 6.00 Build 0)  -->
<svg version="1.1" id="Camada_1" xmlns="http://www.w3.org/2000/svg" xmlns:xlink="http://www.w3.org/1999/xlink" x="0px" y="0px"
	 viewBox="0 0 24 24" style="enable-background:new 0 0 24 24;" xml:space="preserve">
<g>
	<path d="M16,17c-0.256,0-0.512-0.098-0.707-0.293L12,13.414l-3.293,3.293c-0.391,0.391-1.023,0.391-1.414,0s-0.391-1.023,0-1.414
		l4-4c0.391-0.391,1.023-0.391,1.414,0l4,4c0.391,0.391,0.391,1.023,0,1.414C16.512,16.902,16.256,17,16,17z"/>
</g>
<g>
	<path d="M12,22c-0.552,0-1-0.447-1-1v-9c0-0.552,0.448-1,1-1s1,0.448,1,1v9C13,21.553,12.552,22,12,22z"/>
</g>
<g>
	<path d="M20.391,19.39c-0.354,0-0.697-0.188-0.879-0.521c-0.265-0.485-0.086-1.093,0.399-1.356
		c0.938-0.512,1.621-1.357,1.923-2.382c0.302-1.025,0.186-2.106-0.325-3.044c-0.7-1.286-2.045-2.084-3.51-2.085H16.74
		c-0.456,0-0.854-0.308-0.968-0.75c-0.967-3.737-4.795-5.991-8.53-5.025c-1.811,0.468-3.33,1.613-4.279,3.224
		C2.015,9.06,1.75,10.944,2.218,12.754c0.275,1.064,0.804,2.061,1.531,2.883c0.366,0.413,0.327,1.046-0.086,1.411
		c-0.415,0.365-1.047,0.326-1.412-0.087c-0.935-1.058-1.616-2.339-1.97-3.707C-0.32,10.928,0.02,8.505,1.24,6.434
		s3.174-3.543,5.501-4.145c4.55-1.174,9.202,1.36,10.738,5.711H18c2.197,0.001,4.214,1.2,5.265,3.128
		c0.767,1.407,0.94,3.029,0.487,4.566c-0.452,1.537-1.477,2.807-2.884,3.573C20.716,19.351,20.552,19.39,20.391,19.39z"/>
</g>
<g>
	<path d="M16,17c-0.256,0-0.512-0.098-0.707-0.293L12,13.414l-3.293,3.293c-0.391,0.391-1.023,0.391-1.414,0s-0.391-1.023,0-1.414
		l4-4c0.391-0.391,1.023-0.391,1.414,0l4,4c0.391,0.391,0.391,1.023,0,1.414C16.512,16.902,16.256,17,16,17z"/>
</g>
</svg>
