<?xml version="1.0" encoding="iso-8859-1"?>
<!-- Generator: Adobe Illustrator 24.2.1, SVG Export Plug-In . SVG Version: 6.00 Build 0)  -->
<svg version="1.1" id="Camada_1" xmlns="http://www.w3.org/2000/svg" xmlns:xlink="http://www.w3.org/1999/xlink" x="0px" y="0px"
	 viewBox="0 0 24 24" style="enable-background:new 0 0 24 24;" xml:space="preserve">
<g>
	<path d="M20,22c-0.553,0-1-0.447-1-1v-2c0-1.654-1.346-3-3-3H8c-1.654,0-3,1.346-3,3v2c0,0.553-0.448,1-1,1s-1-0.447-1-1v-2
		c0-2.757,2.243-5,5-5h8c2.757,0,5,2.243,5,5v2C21,21.553,20.553,22,20,22z"/>
</g>
<g>
	<path d="M12,12c-2.757,0-5-2.243-5-5s2.243-5,5-5s5,2.243,5,5S14.757,12,12,12z M12,4c-1.654,0-3,1.346-3,3s1.346,3,3,3
		s3-1.346,3-3S13.654,4,12,4z"/>
</g>
</svg>
