<?xml version="1.0" encoding="iso-8859-1"?>
<!-- Generator: Adobe Illustrator 24.2.1, SVG Export Plug-In . SVG Version: 6.00 Build 0)  -->
<svg version="1.1" id="Camada_1" xmlns="http://www.w3.org/2000/svg" xmlns:xlink="http://www.w3.org/1999/xlink" x="0px" y="0px"
	 viewBox="0 0 24 24" style="enable-background:new 0 0 24 24;" xml:space="preserve">
<g>
	<path d="M16,22c-0.553,0-1-0.447-1-1v-2c0-1.654-1.346-3-3-3H5c-1.654,0-3,1.346-3,3v2c0,0.553-0.448,1-1,1s-1-0.447-1-1v-2
		c0-2.757,2.243-5,5-5h7c2.757,0,5,2.243,5,5v2C17,21.553,16.553,22,16,22z"/>
</g>
<g>
	<path d="M8.5,12c-2.757,0-5-2.243-5-5s2.243-5,5-5s5,2.243,5,5S11.257,12,8.5,12z M8.5,4c-1.654,0-3,1.346-3,3s1.346,3,3,3
		s3-1.346,3-3S10.154,4,8.5,4z"/>
</g>
<g>
	<path d="M20,15c-0.553,0-1-0.447-1-1V8c0-0.552,0.447-1,1-1s1,0.448,1,1v6C21,14.553,20.553,15,20,15z"/>
</g>
<g>
	<path d="M23,12h-6c-0.553,0-1-0.448-1-1s0.447-1,1-1h6c0.553,0,1,0.448,1,1S23.553,12,23,12z"/>
</g>
</svg>
