<?xml version="1.0" encoding="iso-8859-1"?>
<!-- Generator: Adobe Illustrator 24.2.1, SVG Export Plug-In . SVG Version: 6.00 Build 0)  -->
<svg version="1.1" id="Camada_1" xmlns="http://www.w3.org/2000/svg" xmlns:xlink="http://www.w3.org/1999/xlink" x="0px" y="0px"
	 viewBox="0 0 24 24" style="enable-background:new 0 0 24 24;" xml:space="preserve">
<g>
	<path d="M17,22c-0.553,0-1-0.447-1-1v-2c0-1.654-1.346-3-3-3H5c-1.654,0-3,1.346-3,3v2c0,0.553-0.448,1-1,1s-1-0.447-1-1v-2
		c0-2.757,2.243-5,5-5h8c2.757,0,5,2.243,5,5v2C18,21.553,17.553,22,17,22z"/>
</g>
<g>
	<path d="M9,12c-2.757,0-5-2.243-5-5s2.243-5,5-5s5,2.243,5,5S11.757,12,9,12z M9,4C7.346,4,6,5.346,6,7s1.346,3,3,3s3-1.346,3-3
		S10.654,4,9,4z"/>
</g>
<g>
	<path d="M23,22c-0.553,0-1-0.447-1-1v-2c-0.001-1.366-0.926-2.56-2.25-2.902c-0.535-0.138-0.856-0.684-0.718-1.218
		c0.138-0.535,0.683-0.86,1.218-0.718c2.207,0.57,3.749,2.56,3.75,4.837V21C24,21.553,23.553,22,23,22z"/>
</g>
<g>
	<path d="M15.999,11.88c-0.445,0-0.853-0.3-0.968-0.752c-0.137-0.535,0.186-1.08,0.721-1.217c1.062-0.272,1.891-1.1,2.162-2.162
		c0.41-1.603-0.56-3.24-2.162-3.65c-0.535-0.137-0.857-0.682-0.721-1.217c0.137-0.535,0.684-0.859,1.217-0.721
		c2.671,0.684,4.287,3.413,3.604,6.084c-0.453,1.77-1.834,3.15-3.604,3.604C16.165,11.87,16.081,11.88,15.999,11.88z"/>
</g>
</svg>
