<?xml version="1.0" encoding="iso-8859-1"?>
<!-- Generator: Adobe Illustrator 24.2.1, SVG Export Plug-In . SVG Version: 6.00 Build 0)  -->
<svg version="1.1" id="Camada_1" xmlns="http://www.w3.org/2000/svg" xmlns:xlink="http://www.w3.org/1999/xlink" x="0px" y="0px"
	 viewBox="0 0 24 24" style="enable-background:new 0 0 24 24;" xml:space="preserve">
<g>
	<path d="M14,20H3c-1.654,0-3-1.346-3-3V7c0-1.654,1.346-3,3-3h2c0.552,0,1,0.448,1,1S5.552,6,5,6H3C2.449,6,2,6.449,2,7v10
		c0,0.552,0.449,1,1,1h11c0.552,0,1-0.448,1-1v-1c0-0.553,0.447-1,1-1s1,0.447,1,1v1C17,18.654,15.654,20,14,20z M23,18
		c-0.553,0-1-0.447-1-1V8.958l-4.414,3.192c-0.396,0.289-0.946,0.245-1.293-0.103l-1-1C15.105,10.859,15,10.605,15,10.34V7
		c0-0.551-0.448-1-1-1h-3.34c-0.552,0-1-0.448-1-1s0.448-1,1-1H14c1.654,0,3,1.346,3,3v2.926l0.104,0.104l5.31-3.84
		c0.305-0.22,0.707-0.251,1.041-0.081C23.789,6.28,24,6.625,24,7v10C24,17.553,23.553,18,23,18z"/>
</g>
<g>
	<path d="M23,24c-0.256,0-0.512-0.098-0.707-0.293l-22-22c-0.391-0.391-0.391-1.023,0-1.414s1.023-0.391,1.414,0l22,22
		c0.391,0.391,0.391,1.023,0,1.414C23.512,23.902,23.256,24,23,24z"/>
</g>
</svg>
