<?xml version="1.0" encoding="iso-8859-1"?>
<!-- Generator: Adobe Illustrator 24.2.1, SVG Export Plug-In . SVG Version: 6.00 Build 0)  -->
<svg version="1.1" id="Camada_1" xmlns="http://www.w3.org/2000/svg" xmlns:xlink="http://www.w3.org/1999/xlink" x="0px" y="0px"
	 viewBox="0 0 24 24" style="enable-background:new 0 0 24 24;" xml:space="preserve">
<g>
	<path d="M23,18c-0.205,0-0.408-0.062-0.581-0.187l-7-5C15.156,12.626,15,12.323,15,12s0.156-0.626,0.419-0.814l7-5
		c0.305-0.217,0.704-0.247,1.039-0.075C23.791,6.282,24,6.625,24,7v10c0,0.375-0.209,0.718-0.542,0.89
		C23.313,17.963,23.156,18,23,18z M17.721,12L22,15.057V8.943L17.721,12z"/>
</g>
<g>
	<path d="M14,20H3c-1.654,0-3-1.346-3-3V7c0-1.654,1.346-3,3-3h11c1.654,0,3,1.346,3,3v10C17,18.654,15.654,20,14,20z M3,6
		C2.449,6,2,6.449,2,7v10c0,0.552,0.449,1,1,1h11c0.552,0,1-0.448,1-1V7c0-0.551-0.448-1-1-1H3z"/>
</g>
</svg>
