<?xml version="1.0" encoding="iso-8859-1"?>
<!-- Generator: Adobe Illustrator 24.2.1, SVG Export Plug-In . SVG Version: 6.00 Build 0)  -->
<svg version="1.1" id="Camada_1" xmlns="http://www.w3.org/2000/svg" xmlns:xlink="http://www.w3.org/1999/xlink" x="0px" y="0px"
	 viewBox="0 0 24 24" style="enable-background:new 0 0 24 24;" xml:space="preserve">
<g>
	<path d="M5.5,17C2.467,17,0,14.532,0,11.5C0,8.467,2.467,6,5.5,6S11,8.467,11,11.5C11,14.532,8.533,17,5.5,17z M5.5,8
		C3.57,8,2,9.57,2,11.5S3.57,15,5.5,15S9,13.43,9,11.5S7.43,8,5.5,8z"/>
</g>
<g>
	<path d="M18.5,17c-3.032,0-5.5-2.468-5.5-5.5C13,8.467,15.468,6,18.5,6S24,8.467,24,11.5C24,14.532,21.532,17,18.5,17z M18.5,8
		C16.57,8,15,9.57,15,11.5s1.57,3.5,3.5,3.5s3.5-1.57,3.5-3.5S20.43,8,18.5,8z"/>
</g>
<g>
	<path d="M18.5,17h-13c-0.552,0-1-0.447-1-1s0.448-1,1-1h13c0.553,0,1,0.447,1,1S19.053,17,18.5,17z"/>
</g>
</svg>
