<?xml version="1.0" encoding="iso-8859-1"?>
<!-- Generator: Adobe Illustrator 24.2.1, SVG Export Plug-In . SVG Version: 6.00 Build 0)  -->
<svg version="1.1" id="Camada_1" xmlns="http://www.w3.org/2000/svg" xmlns:xlink="http://www.w3.org/1999/xlink" x="0px" y="0px"
	 viewBox="0 0 24 24" style="enable-background:new 0 0 24 24;" xml:space="preserve">
<g>
	<path d="M11,20c-0.223,0-0.444-0.074-0.625-0.219L5.649,16H2c-0.552,0-1-0.447-1-1V9c0-0.552,0.448-1,1-1h3.649l4.726-3.781
		c0.3-0.24,0.711-0.286,1.058-0.121C11.78,4.265,12,4.616,12,5v14c0,0.385-0.22,0.734-0.567,0.901C11.295,19.968,11.147,20,11,20z
		 M3,14h3c0.227,0,0.447,0.077,0.625,0.219l3.375,2.7V7.081l-3.375,2.7C6.447,9.923,6.227,10,6,10H3V14z"/>
</g>
<g>
	<path d="M15.54,16.53c-0.256,0-0.512-0.098-0.707-0.293c-0.391-0.391-0.391-1.023,0-1.414c1.559-1.56,1.559-4.097,0-5.656
		c-0.391-0.391-0.391-1.024,0-1.414c0.391-0.391,1.023-0.391,1.414,0c2.339,2.339,2.339,6.145,0,8.484
		C16.052,16.433,15.796,16.53,15.54,16.53z"/>
</g>
</svg>
