<?xml version="1.0" encoding="iso-8859-1"?>
<!-- Generator: Adobe Illustrator 24.2.1, SVG Export Plug-In . SVG Version: 6.00 Build 0)  -->
<svg version="1.1" id="Camada_1" xmlns="http://www.w3.org/2000/svg" xmlns:xlink="http://www.w3.org/1999/xlink" x="0px" y="0px"
	 viewBox="0 0 24 24" style="enable-background:new 0 0 24 24;" xml:space="preserve">
<g>
	<path d="M12,20c-4.411,0-8-3.589-8-8s3.589-8,8-8s8,3.589,8,8S16.411,20,12,20z M12,6c-3.309,0-6,2.691-6,6s2.691,6,6,6
		s6-2.691,6-6S15.309,6,12,6z"/>
</g>
<g>
	<path d="M13.5,14.5c-0.256,0-0.512-0.098-0.707-0.293l-1.5-1.5C11.105,12.52,11,12.265,11,12V9c0-0.552,0.448-1,1-1s1,0.448,1,1
		v2.586l1.207,1.207c0.391,0.391,0.391,1.023,0,1.414C14.012,14.402,13.756,14.5,13.5,14.5z"/>
</g>
<g>
	<path d="M9.818,24c-1.56,0-2.844-1.172-2.984-2.73l-0.35-3.829c-0.05-0.55,0.354-1.036,0.905-1.087
		c0.556-0.05,1.036,0.355,1.087,0.905l0.35,3.83C8.873,21.609,9.301,22,9.822,22c0.001,0,0.003,0,0.004,0h4.334
		c0.001,0,0.003,0,0.004,0c0.525,0,0.953-0.391,1-0.91l0.35-3.831c0.051-0.55,0.529-0.954,1.087-0.905
		c0.55,0.051,0.955,0.537,0.905,1.087l-0.35,3.83C17.015,22.828,15.731,24,14.168,24c-0.004,0-0.008,0-0.012,0H9.83
		C9.826,24,9.822,24,9.818,24z M16.529,7.65c-0.512,0-0.947-0.39-0.995-0.909l-0.351-3.83c-0.047-0.523-0.455-0.876-1-0.911H9.83
		c-0.52,0-0.947,0.392-0.994,0.91l-0.35,3.831c-0.051,0.55-0.531,0.952-1.087,0.905c-0.55-0.05-0.955-0.537-0.905-1.087l0.35-3.83
		C6.985,1.175,8.268,0.001,9.829,0h4.351c0.004,0,0.009,0,0.014,0c1.56,0,2.843,1.171,2.982,2.73l0.351,3.828
		c0.05,0.55-0.354,1.037-0.905,1.087C16.591,7.648,16.56,7.65,16.529,7.65z"/>
</g>
</svg>
