<?xml version="1.0" encoding="iso-8859-1"?>
<!-- Generator: Adobe Illustrator 24.2.1, SVG Export Plug-In . SVG Version: 6.00 Build 0)  -->
<svg version="1.1" id="Camada_1" xmlns="http://www.w3.org/2000/svg" xmlns:xlink="http://www.w3.org/1999/xlink" x="0px" y="0px"
	 viewBox="0 0 24 24" style="enable-background:new 0 0 24 24;" xml:space="preserve">
<g>
	<path d="M23,24c-0.256,0-0.512-0.098-0.707-0.293l-22-22c-0.391-0.391-0.391-1.023,0-1.414s1.023-0.391,1.414,0l22,22
		c0.391,0.391,0.391,1.023,0,1.414C23.512,23.902,23.256,24,23,24z"/>
</g>
<g>
	<path d="M18.999,13.55c-0.228,0-0.458-0.078-0.646-0.237c-0.632-0.536-1.329-0.991-2.072-1.354
		c-0.496-0.242-0.702-0.841-0.46-1.337s0.844-0.702,1.337-0.46c0.893,0.435,1.729,0.982,2.488,1.625
		c0.422,0.357,0.474,0.988,0.116,1.409C19.565,13.43,19.283,13.55,18.999,13.55z"/>
</g>
<g>
	<path d="M5,13.55c-0.286,0-0.57-0.122-0.768-0.358c-0.354-0.424-0.298-1.055,0.126-1.409c1.615-1.351,3.566-2.252,5.642-2.608
		c0.55-0.09,1.062,0.273,1.155,0.817c0.093,0.544-0.272,1.062-0.817,1.155c-1.728,0.296-3.353,1.047-4.698,2.171
		C5.454,13.474,5.227,13.55,5,13.55z"/>
</g>
<g>
	<path d="M22.58,10c-0.235,0-0.472-0.083-0.661-0.25c-3.037-2.678-7.09-4.026-11.129-3.704C10.242,6.096,9.758,5.681,9.713,5.13
		c-0.044-0.55,0.366-1.033,0.917-1.077c4.581-0.365,9.171,1.162,12.611,4.197c0.415,0.365,0.454,0.998,0.089,1.412
		C23.133,9.886,22.856,10,22.58,10z"/>
</g>
<g>
	<path d="M1.42,10c-0.277,0-0.552-0.114-0.75-0.338C0.305,9.249,0.344,8.617,0.758,8.25c1.479-1.307,3.16-2.337,4.996-3.061
		C6.268,4.988,6.849,5.24,7.05,5.753C7.253,6.267,7,6.848,6.487,7.05C4.868,7.688,3.386,8.597,2.082,9.75
		C1.892,9.917,1.656,10,1.42,10z"/>
</g>
<g>
	<path d="M15.479,17.11c-0.2,0-0.402-0.06-0.578-0.185c-1.731-1.229-4.06-1.231-5.792,0c-0.451,0.32-1.074,0.213-1.395-0.236
		c-0.32-0.45-0.214-1.074,0.236-1.395c2.423-1.722,5.682-1.724,8.109,0c0.45,0.32,0.556,0.944,0.236,1.395
		C16.101,16.964,15.792,17.11,15.479,17.11z"/>
</g>
<g>
	<path d="M12.01,21c-0.552,0-1.005-0.447-1.005-1s0.443-1,0.995-1h0.01c0.552,0,1,0.447,1,1S12.562,21,12.01,21z"/>
</g>
</svg>
