<?xml version="1.0" encoding="iso-8859-1"?>
<!-- Generator: Adobe Illustrator 24.2.1, SVG Export Plug-In . SVG Version: 6.00 Build 0)  -->
<svg version="1.1" id="Camada_1" xmlns="http://www.w3.org/2000/svg" xmlns:xlink="http://www.w3.org/1999/xlink" x="0px" y="0px"
	 viewBox="0 0 24 24" style="enable-background:new 0 0 24 24;" xml:space="preserve">
<g>
	<path d="M5,13.55c-0.287,0-0.571-0.122-0.769-0.36c-0.354-0.424-0.296-1.055,0.128-1.408c4.45-3.706,10.911-3.706,15.36,0
		c0.425,0.354,0.482,0.984,0.129,1.408c-0.354,0.424-0.984,0.482-1.408,0.129c-3.71-3.089-9.093-3.088-12.8,0
		C5.453,13.474,5.226,13.55,5,13.55z"/>
</g>
<g>
	<path d="M1.42,10c-0.277,0-0.553-0.115-0.75-0.339C0.305,9.247,0.344,8.615,0.759,8.25c6.408-5.649,16.074-5.649,22.482,0
		c0.414,0.365,0.454,0.997,0.089,1.411c-0.364,0.416-0.996,0.455-1.411,0.089c-5.654-4.983-14.184-4.983-19.838,0
		C1.891,9.917,1.655,10,1.42,10z"/>
</g>
<g>
	<path d="M15.479,17.11c-0.2,0-0.402-0.06-0.578-0.185c-1.731-1.229-4.06-1.231-5.792,0c-0.451,0.32-1.074,0.213-1.395-0.236
		c-0.32-0.45-0.214-1.074,0.236-1.395c2.423-1.722,5.682-1.724,8.109,0c0.45,0.32,0.556,0.944,0.236,1.395
		C16.101,16.964,15.792,17.11,15.479,17.11z"/>
</g>
<g>
	<path d="M12.01,21c-0.552,0-1.005-0.447-1.005-1s0.443-1,0.995-1h0.01c0.552,0,1,0.447,1,1S12.562,21,12.01,21z"/>
</g>
</svg>
