<?xml version="1.0" encoding="iso-8859-1"?>
<!-- Generator: Adobe Illustrator 24.2.1, SVG Export Plug-In . SVG Version: 6.00 Build 0)  -->
<svg version="1.1" id="Camada_1" xmlns="http://www.w3.org/2000/svg" xmlns:xlink="http://www.w3.org/1999/xlink" x="0px" y="0px"
	 viewBox="0 0 24 24" style="enable-background:new 0 0 24 24;" xml:space="preserve">
<g>
	<path d="M14.009,21c-0.003,0-0.006,0-0.009,0c-0.802-0.002-1.554-0.316-2.119-0.885c-0.39-0.392-0.388-1.024,0.003-1.414
		c0.392-0.391,1.024-0.388,1.415,0.004c0.188,0.189,0.439,0.294,0.706,0.295c0.001,0,0.002,0,0.003,0
		c0.267,0,0.517-0.104,0.705-0.291c0.19-0.188,0.295-0.439,0.296-0.706c0-0.268-0.103-0.519-0.291-0.708
		C14.531,17.107,14.272,17,14.007,17c-0.001,0-0.002,0-0.003,0H2c-0.552,0-1-0.447-1-1s0.448-1,1-1h12c0.004,0,0.007,0,0.011,0
		c0.791,0,1.567,0.322,2.126,0.886c0.564,0.567,0.874,1.321,0.871,2.123c-0.002,0.802-0.316,1.555-0.886,2.119
		C15.558,20.69,14.807,21,14.009,21z M19.502,13H2c-0.552,0-1-0.448-1-1s0.448-1,1-1h17.5c0.392,0,0.776-0.16,1.054-0.438
		c0.586-0.584,0.588-1.536,0.004-2.122c-0.585-0.585-1.537-0.587-2.121-0.002c-0.391,0.39-1.023,0.39-1.414-0.002
		c-0.39-0.391-0.39-1.024,0.002-1.414c1.365-1.362,3.586-1.361,4.949,0.006c1.362,1.367,1.359,3.587-0.007,4.95
		C21.318,12.626,20.42,12.999,19.502,13z M11.009,9C11.004,9,11,9,10.996,9H2C1.448,9,1,8.552,1,8s0.448-1,1-1h9
		c0.001,0,0.003,0,0.004,0c0.269,0,0.527-0.107,0.713-0.295c0.388-0.391,0.387-1.026-0.004-1.414C11.525,5.103,11.274,5,11.008,5
		c-0.001,0-0.002,0-0.003,0c-0.267,0-0.518,0.105-0.707,0.295C9.91,5.687,9.276,5.689,8.885,5.299
		C8.493,4.91,8.491,4.276,8.881,3.885C9.446,3.316,10.198,3.002,11,3c0.792-0.018,1.556,0.307,2.125,0.873
		c1.172,1.165,1.178,3.068,0.013,4.242C12.576,8.678,11.801,9,11.009,9z"/>
</g>
</svg>
