<?xml version="1.0" encoding="iso-8859-1"?>
<!-- Generator: Adobe Illustrator 24.2.1, SVG Export Plug-In . SVG Version: 6.00 Build 0)  -->
<svg version="1.1" id="Camada_1" xmlns="http://www.w3.org/2000/svg" xmlns:xlink="http://www.w3.org/1999/xlink" x="0px" y="0px"
	 viewBox="0 0 24 24" style="enable-background:new 0 0 24 24;" xml:space="preserve">
<g>
	<path d="M12,20.46c-0.718,0-7.063-0.014-8.858-0.494c-1.273-0.349-2.283-1.349-2.644-2.611c-0.35-1.911-0.51-3.766-0.498-5.611
		c-0.009-1.82,0.151-3.661,0.476-5.461c0.342-1.375,1.353-2.417,2.652-2.785C4.937,3.014,11.282,3,12,3
		c0.716,0,7.052,0.013,8.837,0.448c1.334,0.376,2.345,1.418,2.673,2.729c0.006,0.021,0.011,0.043,0.015,0.065
		c0.326,1.812,0.486,3.667,0.476,5.514c0.006,1.811-0.154,3.638-0.476,5.422c-0.343,1.375-1.354,2.417-2.652,2.784
		C19.063,20.446,12.718,20.46,12,20.46z M12,5C9.287,5,4.827,5.114,3.658,5.426C3.061,5.595,2.584,6.086,2.43,6.703
		C2.141,8.318,1.992,10.036,2,11.745c-0.011,1.733,0.139,3.465,0.444,5.157c0.147,0.499,0.624,0.97,1.22,1.133
		C4.827,18.347,9.287,18.46,12,18.46s7.173-0.113,8.341-0.426c0.599-0.17,1.074-0.66,1.229-1.277c0.286-1.6,0.436-3.305,0.43-5.003
		c0.011-1.722-0.137-3.441-0.438-5.12C21.4,6.03,20.93,5.552,20.328,5.382C19.048,5.07,13.88,5,12,5z"/>
</g>
<g>
	<path d="M9.75,16.02c-0.174,0-0.348-0.045-0.503-0.136C8.939,15.705,8.75,15.376,8.75,15.02V8.48c0-0.356,0.189-0.686,0.497-0.864
		s0.688-0.182,0.997-0.005l5.75,3.27c0.312,0.178,0.506,0.51,0.506,0.869c0,0.36-0.193,0.691-0.506,0.869l-5.75,3.27
		C10.091,15.976,9.92,16.02,9.75,16.02z M10.75,10.199v3.102l2.727-1.551L10.75,10.199z"/>
</g>
</svg>
