<?xml version="1.0" encoding="iso-8859-1"?>
<!-- Generator: Adobe Illustrator 24.2.1, SVG Export Plug-In . SVG Version: 6.00 Build 0)  -->
<svg version="1.1" id="Camada_1" xmlns="http://www.w3.org/2000/svg" xmlns:xlink="http://www.w3.org/1999/xlink" x="0px" y="0px"
	 viewBox="0 0 24 24" style="enable-background:new 0 0 24 24;" xml:space="preserve">
<g>
	<path d="M12.412,7.75c-0.042,0-0.083-0.002-0.125-0.008c-0.548-0.068-0.938-0.567-0.869-1.115l0.169-1.367L11.338,5.56
		c-0.354,0.425-0.984,0.482-1.408,0.129C9.506,5.335,9.448,4.705,9.801,4.28l2.43-2.92c0.285-0.342,0.762-0.454,1.166-0.278
		c0.407,0.176,0.649,0.6,0.595,1.041l-0.59,4.75C13.34,7.379,12.909,7.75,12.412,7.75z"/>
</g>
<g>
	<path d="M18.569,13.91c-0.226,0-0.453-0.076-0.64-0.232c-0.424-0.354-0.481-0.984-0.127-1.409L18.862,11H15.66
		c-0.553,0-1-0.448-1-1s0.447-1,1-1H21c0.389,0,0.741,0.225,0.906,0.576c0.164,0.352,0.11,0.767-0.139,1.065l-2.43,2.91
		C19.141,13.788,18.856,13.91,18.569,13.91z"/>
</g>
<g>
	<path d="M11,23c-0.134,0-0.269-0.027-0.397-0.083c-0.407-0.177-0.649-0.601-0.594-1.041L10.867,15H3
		c-0.388,0-0.741-0.225-0.906-0.576c-0.165-0.351-0.111-0.766,0.138-1.064l5-6C7.585,6.936,8.215,6.878,8.64,7.232
		C9.064,7.585,9.122,8.216,8.768,8.64L5.135,13H12c0.287,0,0.56,0.123,0.75,0.338c0.19,0.216,0.279,0.502,0.243,0.786l-0.577,4.615
		l2.816-3.38c0.354-0.424,0.983-0.48,1.409-0.128c0.424,0.354,0.481,0.984,0.128,1.409l-5,6C11.574,22.873,11.29,23,11,23z"/>
</g>
<g>
	<path d="M23,24c-0.256,0-0.512-0.098-0.707-0.293l-22-22c-0.391-0.391-0.391-1.023,0-1.414s1.023-0.391,1.414,0l22,22
		c0.391,0.391,0.391,1.023,0,1.414C23.512,23.902,23.256,24,23,24z"/>
</g>
</svg>
