<?xml version="1.0" encoding="iso-8859-1"?>
<!-- Generator: Adobe Illustrator 24.2.1, SVG Export Plug-In . SVG Version: 6.00 Build 0)  -->
<svg version="1.1" id="Camada_1" xmlns="http://www.w3.org/2000/svg" xmlns:xlink="http://www.w3.org/1999/xlink" x="0px" y="0px"
	 viewBox="0 0 24 24" style="enable-background:new 0 0 24 24;" xml:space="preserve">
<g>
	<path d="M11,20c-4.962,0-9-4.037-9-9c0-4.962,4.038-9,9-9c4.963,0,9,4.038,9,9C20,15.963,15.963,20,11,20z M11,4
		c-3.86,0-7,3.14-7,7c0,3.859,3.14,7,7,7c3.859,0,7-3.141,7-7C18,7.14,14.859,4,11,4z"/>
</g>
<g>
	<path d="M21,22c-0.256,0-0.512-0.098-0.707-0.293l-4.35-4.35c-0.391-0.391-0.391-1.023,0-1.414s1.023-0.391,1.414,0l4.35,4.35
		c0.391,0.391,0.391,1.023,0,1.414C21.512,21.902,21.256,22,21,22z"/>
</g>
<g>
	<path d="M11,15c-0.552,0-1-0.447-1-1V8c0-0.552,0.448-1,1-1s1,0.448,1,1v6C12,14.553,11.552,15,11,15z"/>
</g>
<g>
	<path d="M14,12H8c-0.552,0-1-0.448-1-1s0.448-1,1-1h6c0.553,0,1,0.448,1,1S14.553,12,14,12z"/>
</g>
</svg>
