<?xml version="1.0" encoding="utf-8"?>
<!-- Generator: Adobe Illustrator 25.0.0, SVG Export Plug-In . SVG Version: 6.00 Build 0)  -->
<svg version="1.1" id="Camada_1" xmlns="http://www.w3.org/2000/svg" xmlns:xlink="http://www.w3.org/1999/xlink" x="0px" y="0px"
	 viewBox="0 0 24 24" style="enable-background:new 0 0 24 24;" xml:space="preserve">
<g>
	<path d="M15,22c-0.4,0-0.8-0.3-0.9-0.7L9,6.2l-2.1,6.2C6.8,12.7,6.4,13,6,13H2c-0.6,0-1-0.4-1-1s0.4-1,1-1h3.3l2.8-8.3
		C8.2,2.3,8.6,2,9,2s0.8,0.3,0.9,0.7L15,17.8l2.1-6.2c0.1-0.4,0.5-0.7,0.9-0.7h4c0.6,0,1,0.4,1,1s-0.4,1-1,1h-3.3l-2.8,8.3
		C15.8,21.7,15.4,22,15,22z"/>
</g>
</svg>
