<svg width="24" height="24" viewBox="0 0 24 24" fill="none" xmlns="http://www.w3.org/2000/svg">
<path d="M15 22.0077C14.7904 22.0083 14.5858 21.9429 14.4154 21.8209C14.2449 21.6989 14.1171 21.5264 14.05 21.3277L9 6.16775L7 12.3278C6.93042 12.5347 6.795 12.7132 6.61443 12.836C6.43386 12.9588 6.21807 13.0191 6 13.0078H2C1.73478 13.0078 1.48043 12.9024 1.29289 12.7149C1.10536 12.5273 1 12.273 1 12.0078C1 11.7425 1.10536 11.4882 1.29289 11.3006C1.48043 11.1131 1.73478 11.0078 2 11.0078H5.28L8.05 2.68775C8.11576 2.48768 8.243 2.31348 8.41359 2.18998C8.58418 2.06649 8.7894 2 9 2C9.2106 2 9.41582 2.06649 9.58641 2.18998C9.757 2.31348 9.88424 2.48768 9.95 2.68775L15 17.8478L17.05 11.6878C17.1171 11.4891 17.2449 11.3166 17.4154 11.1946C17.5858 11.0726 17.7904 11.0072 18 11.0078H22C22.2652 11.0078 22.5196 11.1131 22.7071 11.3006C22.8946 11.4882 23 11.7425 23 12.0078C23 12.273 22.8946 12.5273 22.7071 12.7149C22.5196 12.9024 22.2652 13.0078 22 13.0078H18.72L16 21.3277C15.9304 21.5347 15.795 21.7132 15.6144 21.836C15.4339 21.9588 15.2181 22.0191 15 22.0077Z" fill="black"/>
</svg>
