<svg xmlns="http://www.w3.org/2000/svg" fill="currentColor" width="24" height="25.09" viewBox="0 0 24 25.09">
  <path id="icons8-angularjs" d="M14.962,2a.56.56,0,0,0-.178.03L3.367,6.006A.544.544,0,0,0,3,6.586l1.8,14.795a.543.543,0,0,0,.28.413l9.627,5.232a.545.545,0,0,0,.522,0l9.676-5.3a.545.545,0,0,0,.279-.412L27,6.516a.545.545,0,0,0-.366-.583L15.139,2.03A.55.55,0,0,0,14.962,2ZM15,4.728,22.091,20h-2.42l-1.517-3.268H11.847L10.33,20H7.909ZM15,9.91l-2.138,4.636h4.276Z" transform="translate(-3 -2.002)"/>
</svg>
