<svg width="24" height="24" viewBox="0 0 24 24" fill="none" xmlns="http://www.w3.org/2000/svg">
<path fill-rule="evenodd" clip-rule="evenodd" d="M11.3696 6.54545L13.7949 2.34551C16.4442 2.83495 18.7208 4.38806 20.1649 6.54545H14.5401C14.5262 6.54518 14.5122 6.54518 14.4984 6.54545H11.3696ZM6.96031 9.81806L8.5259 7.10688C8.53162 7.09666 8.53745 7.08653 8.54345 7.0765L11.358 2.20247C8.631 2.37848 6.20719 3.66782 4.53646 5.62068L6.96031 9.81806ZM6.03446 12.5778L7.59072 15.2727H2.74049C2.37868 14.2491 2.18182 13.1475 2.18182 12C2.18182 10.4405 2.54544 8.96585 3.1925 7.65631L5.99798 12.5146C6.00941 12.536 6.02158 12.5571 6.03446 12.5778ZM12.6306 17.4546H9.50018C9.48766 17.4548 9.47513 17.4548 9.46262 17.4546H3.83515C5.27926 19.6119 7.55575 21.165 10.2052 21.6546L12.6306 17.4546ZM13.8904 15.2727H10.1102L8.22002 11.9996L10.1097 8.72726H13.8904L15.7803 12L13.8904 15.2727ZM15.4586 16.9201C15.4632 16.9124 15.4678 16.9045 15.4722 16.8966L17.0401 14.1815L19.4639 18.3789C17.7932 20.3319 15.3693 21.6215 12.6421 21.7976L15.4586 16.9201ZM10.7315 23.9338C11.1483 23.9775 11.5715 24 12 24C15.9222 24 19.405 22.1183 21.5946 19.2083C21.6406 19.1571 21.681 19.102 21.7161 19.0441C23.1527 17.0658 24 14.6319 24 12C24 10.3183 23.6541 8.71747 23.0295 7.26466C23.0136 7.22081 22.995 7.17828 22.9739 7.13724C21.2907 3.34457 17.6991 0.586862 13.418 0.0828912C13.3681 0.0737878 13.3179 0.0682495 13.2678 0.0661802C12.8512 0.0224304 12.4282 0 12 0C8.07581 0 4.59156 1.88362 2.40209 4.79604C2.35914 4.84447 2.32094 4.89631 2.2877 4.95077C0.848753 6.9299 0 9.36583 0 12C0 13.6818 0.345967 15.2828 0.970615 16.7356C0.986443 16.7793 1.00498 16.8216 1.02601 16.8625C2.70919 20.6556 6.30122 23.4135 10.583 23.9172C10.6323 23.9262 10.6819 23.9317 10.7315 23.9338ZM17.9934 11.4693L20.8078 16.343C21.4547 15.0337 21.8182 13.5594 21.8182 12C21.8182 10.8525 21.6213 9.75091 21.2595 8.72726H16.41L17.9752 11.4378C17.9814 11.4482 17.9874 11.4587 17.9934 11.4693Z" fill="black"/>
</svg>
