<svg width="24" height="24" viewBox="0 0 24 24" fill="none" xmlns="http://www.w3.org/2000/svg">
<path fill-rule="evenodd" clip-rule="evenodd" d="M6.29502 6.29078C6.2936 6.29219 6.29219 6.2936 6.29078 6.29502C6.29148 6.29431 6.29219 6.2936 6.29289 6.29289C6.2936 6.29219 6.29431 6.29148 6.29502 6.29078ZM6.07588 6.61722C6.02699 6.73512 6 6.86441 6 7V17C6 17.5523 6.44772 18 7 18C7.55228 18 8 17.5523 8 17V9.41421L6.29289 7.70711C6.09763 7.51184 6 7.25592 6 7C6 6.86974 6.02529 6.73948 6.07588 6.61722ZM9.41421 8H17C17.5523 8 18 7.55228 18 7C18 6.44772 17.5523 6 17 6H7.00017H7C6.86441 6 6.73512 6.02699 6.61722 6.07588C6.73953 6.02527 6.86985 5.99998 7.00017 6C7.25604 6.00004 7.51189 6.09768 7.70711 6.29289L9.41421 8Z" fill="black"/>
<path fill-rule="evenodd" clip-rule="evenodd" d="M6.29289 6.29289C6.68342 5.90237 7.31658 5.90237 7.70711 6.29289L17.7071 16.2929C18.0976 16.6834 18.0976 17.3166 17.7071 17.7071C17.3166 18.0976 16.6834 18.0976 16.2929 17.7071L6.29289 7.70711C5.90237 7.31658 5.90237 6.68342 6.29289 6.29289Z" fill="black"/>
</svg>
