<svg width="24" height="24" viewBox="0 0 24 24" fill="none" xmlns="http://www.w3.org/2000/svg">
<path fill-rule="evenodd" clip-rule="evenodd" d="M9.41402 16L17.7069 7.70711C18.0974 7.31658 18.0974 6.68342 17.7069 6.29289C17.3164 5.90237 16.6832 5.90237 16.2927 6.29289L7.9998 14.5858V16H9.41402ZM6.29058 17.705C6.19945 17.6133 6.12598 17.5041 6.07568 17.3828C6.12412 17.4999 6.19576 17.6096 6.29058 17.705Z" fill="black"/>
<path fill-rule="evenodd" clip-rule="evenodd" d="M7 6C7.55228 6 8 6.44772 8 7V16H17C17.5523 16 18 16.4477 18 17C18 17.5523 17.5523 18 17 18H7C6.44772 18 6 17.5523 6 17V7C6 6.44772 6.44772 6 7 6Z" fill="black"/>
</svg>
