<svg width="24" height="24" viewBox="0 0 24 24" fill="none" xmlns="http://www.w3.org/2000/svg">
<path fill-rule="evenodd" clip-rule="evenodd" d="M12 3C7.02944 3 3 7.02944 3 12C3 16.9706 7.02944 21 12 21C16.9706 21 21 16.9706 21 12C21 7.02944 16.9706 3 12 3ZM1 12C1 5.92487 5.92487 1 12 1C18.0751 1 23 5.92487 23 12C23 18.0751 18.0751 23 12 23C5.92487 23 1 18.0751 1 12Z" fill="black"/>
<path fill-rule="evenodd" clip-rule="evenodd" d="M11.295 7.29082C11.3904 7.196 11.5001 7.12437 11.6172 7.07593C11.4959 7.12622 11.3867 7.1997 11.295 7.29082ZM12.7075 7.29334C12.8882 7.47427 13 7.72411 13 8.00005V10.4143L15.2929 12.7072C15.6834 13.0977 16.3166 13.0977 16.7071 12.7072C17.0976 12.3166 17.0976 11.6835 16.7071 11.2929L12.7075 7.29334ZM11 10.4143L8.70711 12.7072C8.31658 13.0977 7.68342 13.0977 7.29289 12.7072C6.90237 12.3166 6.90237 11.6835 7.29289 11.2929L11.2925 7.29334C11.1118 7.47427 11 7.72411 11 8.00005V10.4143Z" fill="black"/>
<path fill-rule="evenodd" clip-rule="evenodd" d="M12 7C12.5523 7 13 7.44772 13 8V16C13 16.5523 12.5523 17 12 17C11.4477 17 11 16.5523 11 16V8C11 7.44772 11.4477 7 12 7Z" fill="black"/>
</svg>
