<svg width="24" height="24" viewBox="0 0 24 24" fill="none" xmlns="http://www.w3.org/2000/svg">
<path fill-rule="evenodd" clip-rule="evenodd" d="M7.41421 11L6.41421 12L7.41421 13H19C19.5523 13 20 12.5523 20 12C20 11.4477 19.5523 11 19 11H7.41421ZM4.29078 12.705C4.19965 12.6133 4.12617 12.5041 4.07588 12.3828C3.92627 12.0212 3.9979 11.5896 4.29078 11.295" fill="black"/>
<path fill-rule="evenodd" clip-rule="evenodd" d="M12.7071 4.29289C13.0976 4.68342 13.0976 5.31658 12.7071 5.70711L6.41421 12L12.7071 18.2929C13.0976 18.6834 13.0976 19.3166 12.7071 19.7071C12.3166 20.0976 11.6834 20.0976 11.2929 19.7071L4.29289 12.7071C3.90237 12.3166 3.90237 11.6834 4.29289 11.2929L11.2929 4.29289C11.6834 3.90237 12.3166 3.90237 12.7071 4.29289Z" fill="black"/>
</svg>
