<svg width="24" height="24" viewBox="0 0 24 24" fill="none" xmlns="http://www.w3.org/2000/svg">
<path fill-rule="evenodd" clip-rule="evenodd" d="M7.70711 6.29289C7.31658 5.90237 6.68342 5.90237 6.29289 6.29289C5.90237 6.68342 5.90237 7.31658 6.29289 7.70711L14.5858 16H16V14.5858L7.70711 6.29289ZM17.7005 17.7136C17.6098 17.8027 17.5021 17.8746 17.3828 17.9241C17.498 17.8764 17.6062 17.8063 17.7005 17.7136Z" fill="black"/>
<path fill-rule="evenodd" clip-rule="evenodd" d="M17 6C17.5523 6 18 6.44772 18 7V17C18 17.5523 17.5523 18 17 18H7C6.44772 18 6 17.5523 6 17C6 16.4477 6.44772 16 7 16H16V7C16 6.44772 16.4477 6 17 6Z" fill="black"/>
</svg>
