<svg width="24" height="24" viewBox="0 0 24 24" fill="none" xmlns="http://www.w3.org/2000/svg">
<path fill-rule="evenodd" clip-rule="evenodd" d="M12 3C7.02944 3 3 7.02944 3 12C3 16.9706 7.02944 21 12 21C16.9706 21 21 16.9706 21 12C21 7.02944 16.9706 3 12 3ZM1 12C1 5.92487 5.92487 1 12 1C18.0751 1 23 5.92487 23 12C23 18.0751 18.0751 23 12 23C5.92487 23 1 18.0751 1 12Z" fill="black"/>
<path fill-rule="evenodd" clip-rule="evenodd" d="M10.4142 11L9.41421 12L10.4142 13H16C16.5523 13 17 12.5523 17 12C17 11.4477 16.5523 11 16 11H10.4142ZM7.29078 12.705C7.19965 12.6133 7.12617 12.5041 7.07588 12.3828C7.02568 12.2615 7.00039 12.1323 7 12.003C7 12.001 7 11.999 7 11.997C7.00081 11.7231 7.11171 11.4752 7.29078 11.295" fill="black"/>
<path fill-rule="evenodd" clip-rule="evenodd" d="M12.7071 7.29289C13.0976 7.68342 13.0976 8.31658 12.7071 8.70711L9.41421 12L12.7071 15.2929C13.0976 15.6834 13.0976 16.3166 12.7071 16.7071C12.3166 17.0976 11.6834 17.0976 11.2929 16.7071L7.29289 12.7071C6.90237 12.3166 6.90237 11.6834 7.29289 11.2929L11.2929 7.29289C11.6834 6.90237 12.3166 6.90237 12.7071 7.29289Z" fill="black"/>
</svg>
