<svg width="24" height="24" viewBox="0 0 24 24" fill="none" xmlns="http://www.w3.org/2000/svg">
<path fill-rule="evenodd" clip-rule="evenodd" d="M11.6172 4.07588C11.9788 3.92627 12.4104 3.9979 12.705 4.29078C12.7057 4.29148 12.7064 4.29219 12.7071 4.29289M12.7075 4.29326C12.7066 4.29243 12.7058 4.2916 12.705 4.29078C12.5242 4.11106 12.2751 4 12 4C11.8644 4 11.7351 4.02699 11.6172 4.07588M13 7.41421V19C13 19.5523 12.5523 20 12 20C11.4477 20 11 19.5523 11 19V7.41421L12 6.41421L13 7.41421ZM11.2929 4.29289C11.2936 4.29219 11.2943 4.29148 11.295 4.29078Z" fill="black"/>
<path fill-rule="evenodd" clip-rule="evenodd" d="M11.2929 4.29289C11.6834 3.90237 12.3166 3.90237 12.7071 4.29289L19.7071 11.2929C20.0976 11.6834 20.0976 12.3166 19.7071 12.7071C19.3166 13.0976 18.6834 13.0976 18.2929 12.7071L12 6.41421L5.70711 12.7071C5.31658 13.0976 4.68342 13.0976 4.29289 12.7071C3.90237 12.3166 3.90237 11.6834 4.29289 11.2929L11.2929 4.29289Z" fill="black"/>
</svg>
