<svg width="24" height="24" viewBox="0 0 24 24" fill="none" xmlns="http://www.w3.org/2000/svg">
<path fill-rule="evenodd" clip-rule="evenodd" d="M13 5C13 4.44772 12.5523 4 12 4C11.4477 4 11 4.44772 11 5V16.5858L12 17.5858L13 16.5858V5ZM12.7005 19.7136C12.5208 19.8901 12.2746 19.9992 12.003 20C12.001 20 11.999 20 11.997 20C11.8677 19.9996 11.7385 19.9743 11.6172 19.9241C11.4979 19.8746 11.3902 19.8027 11.2995 19.7136C11.2973 19.7115 11.2951 19.7093 11.2929 19.7071L11.2923 19.7065" fill="black"/>
<path fill-rule="evenodd" clip-rule="evenodd" d="M4.29289 11.2929C4.68342 10.9024 5.31658 10.9024 5.70711 11.2929L12 17.5858L18.2929 11.2929C18.6834 10.9024 19.3166 10.9024 19.7071 11.2929C20.0976 11.6834 20.0976 12.3166 19.7071 12.7071L12.7071 19.7071C12.3166 20.0976 11.6834 20.0976 11.2929 19.7071L4.29289 12.7071C3.90237 12.3166 3.90237 11.6834 4.29289 11.2929Z" fill="black"/>
</svg>
