<svg width="24" height="24" viewBox="0 0 24 24" fill="none" xmlns="http://www.w3.org/2000/svg">
<path fill-rule="evenodd" clip-rule="evenodd" d="M1.70711 0.292924C1.31658 -0.0976006 0.683417 -0.0976006 0.292893 0.292924C-0.0976311 0.683448 -0.0976311 1.31661 0.292893 1.70714L5.58027 6.99452L5 8.00111C4.99985 11.3531 4.28286 13.4348 3.6221 14.6462C3.29031 15.2545 2.96723 15.6535 2.7428 15.8904C2.63032 16.0091 2.54194 16.0879 2.48872 16.1322C2.4621 16.1544 2.44425 16.168 2.43655 16.1737L2.43369 16.1758C2.0752 16.4221 1.91657 16.8725 2.04291 17.2898C2.17061 17.7116 2.55933 18 3 18H16.5858L22.2929 23.7071C22.6834 24.0977 23.3166 24.0977 23.7071 23.7071C24.0976 23.3166 24.0976 22.6834 23.7071 22.2929L6.98063 5.56645C6.97141 5.55685 6.962 5.54743 6.95238 5.53819L1.70711 0.292924ZM6.99664 8.41089C6.94036 11.83 6.18515 14.1239 5.3779 15.6039C5.3018 15.7434 5.22541 15.8754 5.14932 16H14.5858L6.99664 8.41089ZM11.6627 0.999259C12.9293 0.938156 14.1888 1.22227 15.3065 1.82126C16.4242 2.42025 17.3582 3.3116 18.0087 4.40012C18.6588 5.48794 19.0014 6.73182 19 7.99907L19 8.00151L19 8.00553L18.9999 8.01601C18.9744 9.6097 19.1747 11.199 19.5947 12.7365C19.7402 13.2693 19.4263 13.8192 18.8935 13.9647C18.3607 14.1102 17.8109 13.7963 17.6653 13.2635C17.1963 11.5465 16.9723 9.77173 17 7.99198C17.0002 7.08847 16.7555 6.20176 16.2919 5.42612C15.8273 4.64861 15.1601 4.01193 14.3618 3.58408C13.5634 3.15623 12.6638 2.95329 11.7591 2.99694C10.8544 3.04058 9.97847 3.32917 9.225 3.83188C8.76558 4.1384 8.14467 4.01445 7.83815 3.55503C7.53163 3.09561 7.65558 2.4747 8.115 2.16818C9.16986 1.46439 10.3961 1.06036 11.6627 0.999259ZM9.76823 20.135C10.246 19.8579 10.8579 20.0205 11.135 20.4983C11.2229 20.6498 11.3491 20.7756 11.5009 20.863C11.6527 20.9505 11.8248 20.9965 12 20.9965C12.1752 20.9965 12.3473 20.9505 12.4991 20.863C12.6509 20.7756 12.7771 20.6498 12.865 20.4983C13.1421 20.0205 13.754 19.8579 14.2318 20.135C14.7095 20.4122 14.8721 21.0241 14.595 21.5018C14.3313 21.9564 13.9528 22.3338 13.4973 22.5961C13.0419 22.8584 12.5256 22.9965 12 22.9965C11.4744 22.9965 10.9581 22.8584 10.5027 22.5961C10.0472 22.3338 9.66872 21.9564 9.405 21.5018C9.12788 21.0241 9.2905 20.4122 9.76823 20.135Z" fill="black"/>
</svg>
