<svg width="24" height="24" viewBox="0 0 24 24" fill="none" xmlns="http://www.w3.org/2000/svg">
<g clip-path="url(#clip0)">
<path fill-rule="evenodd" clip-rule="evenodd" d="M11.8624 0.0729766C12.2205 -0.0753548 12.6327 0.00663592 12.9068 0.280717L18.1776 5.55154C18.5519 5.92579 18.5519 6.53257 18.1776 6.90682L13.5844 11.5L18.1776 16.0932C18.5519 16.4674 18.5519 17.0742 18.1776 17.4485L12.9068 22.7193C12.6327 22.9934 12.2205 23.0754 11.8624 22.927C11.5043 22.7787 11.2708 22.4293 11.2708 22.0416V13.8136L7.63597 17.4485C7.26172 17.8227 6.65494 17.8227 6.28069 17.4485C5.90644 17.0742 5.90644 16.4674 6.28069 16.0932L10.8739 11.5L6.28069 6.90682C5.90644 6.53257 5.90644 5.92579 6.28069 5.55154C6.65494 5.17729 7.26172 5.17729 7.63597 5.55154L11.2708 9.18639V0.958359C11.2708 0.57075 11.5043 0.221308 11.8624 0.0729766ZM13.1875 13.8136L16.1447 16.7708L13.1875 19.728V13.8136ZM13.1875 9.18639V3.27197L16.1447 6.22918L13.1875 9.18639Z" fill="black"/>
</g>
<defs>
<clipPath id="clip0">
<rect width="24" height="24" fill="white"/>
</clipPath>
</defs>
</svg>
