<svg width="24" height="24" viewBox="0 0 24 24" fill="none" xmlns="http://www.w3.org/2000/svg">
<path fill-rule="evenodd" clip-rule="evenodd" d="M11.6075 1.0698C11.95 0.927922 12.3443 1.00635 12.6065 1.26851L17.6481 6.31016C18.0062 6.66814 18.0062 7.24854 17.6481 7.60652L13.2546 12L17.6481 16.3935C18.0062 16.7514 18.0062 17.3318 17.6481 17.6899L12.6065 22.7315C12.3443 22.9937 11.95 23.0721 11.6075 22.9302C11.265 22.7883 11.0416 22.4541 11.0416 22.0832V14.213L7.56484 17.6899C7.20686 18.0478 6.62646 18.0478 6.26848 17.6899C5.91051 17.3318 5.91051 16.7514 6.26848 16.3935L10.662 12L6.26848 7.60652C5.91051 7.24854 5.91051 6.66814 6.26848 6.31016C6.62646 5.95219 7.20686 5.95219 7.56484 6.31016L11.0416 9.78697V1.91669C11.0416 1.54593 11.265 1.21169 11.6075 1.0698ZM12.875 14.213L15.7036 17.0416L12.875 19.8702V14.213ZM12.875 9.78697V4.12971L15.7036 6.95834L12.875 9.78697Z" fill="black"/>
</svg>
