<svg width="24" height="24" viewBox="0 0 24 24" fill="none" xmlns="http://www.w3.org/2000/svg">
<path fill-rule="evenodd" clip-rule="evenodd" d="M3.99995 5C3.73474 5 3.48038 5.10536 3.29285 5.29289C3.10531 5.48043 2.99995 5.73478 2.99995 6V8C2.99995 8.55228 2.55224 9 1.99995 9C1.44767 9 0.999953 8.55228 0.999953 8V6C0.999953 5.20435 1.31602 4.44129 1.87863 3.87868C2.44124 3.31607 3.2043 3 3.99995 3H20C20.7956 3 21.5587 3.31607 22.1213 3.87868C22.6839 4.44129 23 5.20435 23 6V18C23 18.7957 22.6839 19.5587 22.1213 20.1213C21.5587 20.6839 20.7956 21 20 21H14C13.4477 21 13 20.5523 13 20C13 19.4477 13.4477 19 14 19H20C20.2652 19 20.5195 18.8946 20.7071 18.7071C20.8946 18.5196 21 18.2652 21 18V6C21 5.73478 20.8946 5.48043 20.7071 5.29289C20.5195 5.10536 20.2652 5 20 5H3.99995ZM1.00608 11.9395C1.06713 11.3906 1.56159 10.9951 2.11049 11.0561C4.36692 11.3071 6.4708 12.3184 8.07617 13.9238C9.68155 15.5292 10.6929 17.633 10.9438 19.8895C11.0049 20.4384 10.6094 20.9328 10.0605 20.9939C9.51159 21.0549 9.01713 20.6594 8.95608 20.1105C8.75531 18.3054 7.94626 16.6223 6.66196 15.338C5.37766 14.0537 3.69456 13.2446 1.88941 13.0439C1.34051 12.9828 0.945032 12.4884 1.00608 11.9395ZM1.02012 15.9002C1.13049 15.359 1.65864 15.0098 2.19978 15.1202C3.35285 15.3553 4.41131 15.9244 5.24344 16.7565C6.07557 17.5886 6.64462 18.6471 6.87978 19.8002C6.99015 20.3413 6.64093 20.8695 6.09978 20.9798C5.55864 21.0902 5.03049 20.741 4.92012 20.1998C4.76335 19.4311 4.38398 18.7255 3.82923 18.1707C3.27448 17.616 2.56884 17.2366 1.80012 17.0798C1.25898 16.9695 0.909759 16.4413 1.02012 15.9002Z" fill="black"/>
<path fill-rule="evenodd" clip-rule="evenodd" d="M1 20C1 19.4477 1.44772 19 2 19H2.01C2.56228 19 3.01 19.4477 3.01 20C3.01 20.5523 2.56228 21 2.01 21H2C1.44772 21 1 20.5523 1 20Z" fill="black"/>
</svg>
