<svg width="24" height="24" viewBox="0 0 24 24" fill="none" xmlns="http://www.w3.org/2000/svg">
<path fill-rule="evenodd" clip-rule="evenodd" d="M12 3C9.26171 3 6.80904 4.2229 5.15835 6.15237L7.40173 10.0331C8.16565 8.24953 9.9369 7 12 7H19.4845C17.8699 4.58803 15.1204 3 12 3ZM1 12C1 9.58716 1.77686 7.35576 3.09409 5.54229C3.12593 5.48954 3.16283 5.43947 3.20457 5.39285C5.21175 2.72514 8.40441 1 12 1C16.4881 1 20.3484 3.68785 22.059 7.54165C22.0787 7.57978 22.096 7.61934 22.1108 7.66014C22.683 8.99165 23 10.4588 23 12C23 18.0751 18.0751 23 12 23C11.6069 23 11.2187 22.9794 10.8362 22.9392C10.7915 22.9372 10.7466 22.9323 10.702 22.9242C5.2386 22.282 1 17.636 1 12ZM12.5875 20.9811C17.2843 20.6785 21 16.7732 21 12C21 10.9481 20.8195 9.93834 20.4879 9H16.0004C16.6281 9.83566 17 10.8744 17 12C17 12.9834 16.7161 13.9005 16.2258 14.6738L12.5875 20.9811ZM12.5953 16.9649L10.3544 20.8499C6.16967 20.0767 3 16.4085 3 12C3 10.5703 3.33338 9.2184 3.92665 8.0179L7.56842 14.3176C8.40403 15.9121 10.075 17 12 17C12.2014 17 12.4001 16.9881 12.5953 16.9649ZM14.6365 13.4326C14.6215 13.4544 14.6073 13.477 14.5938 13.5003L14.5191 13.6297C13.9845 14.4544 13.056 15 12 15C10.9176 15 9.96914 14.4268 9.44152 13.5674C9.43051 13.5445 9.41855 13.5219 9.40562 13.4995L9.32738 13.3642C9.11807 12.9549 9 12.4912 9 12C9 10.3431 10.3431 9 12 9C13.6569 9 15 10.3431 15 12C15 12.5188 14.8683 13.0069 14.6365 13.4326Z" fill="black"/>
</svg>
