<svg width="24" height="22" viewBox="0 0 24 22" fill="none" xmlns="http://www.w3.org/2000/svg">
<path fill-rule="evenodd" clip-rule="evenodd" d="M8.08827 0.0463016C9.50715 -0.0981788 10.9401 0.0966147 12.2689 0.614627C13.5977 1.13264 14.7844 1.95904 15.7311 3.0257C16.5039 3.89638 17.0987 4.90678 17.4852 5.99971H18.0071C19.3842 6.00133 20.7189 6.47666 21.7871 7.34592C22.8553 8.21517 23.5919 9.42542 23.8734 10.7735C24.1548 12.1216 23.9639 13.5255 23.3328 14.7496C22.7016 15.9736 21.6686 16.9432 20.4071 17.4957C19.9012 17.7173 19.3115 17.4868 19.0899 16.9809C18.8683 16.475 19.0988 15.8853 19.6047 15.6637C20.4457 15.2954 21.1344 14.649 21.5552 13.8329C21.976 13.0169 22.1032 12.081 21.9156 11.1823C21.728 10.2835 21.2369 9.47668 20.5248 8.89718C19.8127 8.31776 18.9231 8.00088 18.0051 7.99971C18.005 7.99971 18.0052 7.99971 18.0051 7.99971H16.7459C16.2899 7.99971 15.8917 7.69125 15.7777 7.24975C15.5003 6.1757 14.9717 5.18295 14.2353 4.35332C13.499 3.52369 12.576 2.88094 11.5425 2.47804C10.5089 2.07515 9.39445 1.92364 8.29088 2.03601C7.18731 2.14839 6.12624 2.52142 5.19514 3.12437C4.26404 3.72732 3.48956 4.54292 2.93555 5.50395C2.38153 6.46497 2.06384 7.5439 2.00867 8.65181C1.95349 9.75971 2.1624 10.8649 2.61818 11.8762C3.07397 12.8875 3.76357 13.776 4.63016 14.4685C5.06161 14.8133 5.13188 15.4425 4.78711 15.874C4.44234 16.3054 3.81308 16.3757 3.38163 16.0309C2.26745 15.1406 1.38082 13.9982 0.794809 12.6979C0.208801 11.3977 -0.0598009 9.97677 0.0111423 8.55232C0.0820855 7.12787 0.490543 5.74068 1.20285 4.50507C1.91515 3.26947 2.91091 2.22084 4.10804 1.44562C5.30517 0.670399 6.66939 0.190782 8.08827 0.0463016Z" fill="black"/>
<path fill-rule="evenodd" clip-rule="evenodd" d="M7.00586 14.9998C7.00586 14.4475 7.45357 13.9998 8.00586 13.9998H8.01586C8.56814 13.9998 9.01586 14.4475 9.01586 14.9998C9.01586 15.552 8.56814 15.9998 8.01586 15.9998H8.00586C7.45357 15.9998 7.00586 15.552 7.00586 14.9998Z" fill="black"/>
<path fill-rule="evenodd" clip-rule="evenodd" d="M7.00586 18.9998C7.00586 18.4475 7.45357 17.9998 8.00586 17.9998H8.01586C8.56814 17.9998 9.01586 18.4475 9.01586 18.9998C9.01586 19.552 8.56814 19.9998 8.01586 19.9998H8.00586C7.45357 19.9998 7.00586 19.552 7.00586 18.9998Z" fill="black"/>
<path fill-rule="evenodd" clip-rule="evenodd" d="M11.0059 16.9998C11.0059 16.4475 11.4536 15.9998 12.0059 15.9998H12.0159C12.5681 15.9998 13.0159 16.4475 13.0159 16.9998C13.0159 17.552 12.5681 17.9998 12.0159 17.9998H12.0059C11.4536 17.9998 11.0059 17.552 11.0059 16.9998Z" fill="black"/>
<path fill-rule="evenodd" clip-rule="evenodd" d="M11.0059 20.9998C11.0059 20.4475 11.4536 19.9998 12.0059 19.9998H12.0159C12.5681 19.9998 13.0159 20.4475 13.0159 20.9998C13.0159 21.552 12.5681 21.9998 12.0159 21.9998H12.0059C11.4536 21.9998 11.0059 21.552 11.0059 20.9998Z" fill="black"/>
<path fill-rule="evenodd" clip-rule="evenodd" d="M15.0059 14.9998C15.0059 14.4475 15.4536 13.9998 16.0059 13.9998H16.0159C16.5681 13.9998 17.0159 14.4475 17.0159 14.9998C17.0159 15.552 16.5681 15.9998 16.0159 15.9998H16.0059C15.4536 15.9998 15.0059 15.552 15.0059 14.9998Z" fill="black"/>
<path fill-rule="evenodd" clip-rule="evenodd" d="M15.0059 18.9998C15.0059 18.4475 15.4536 17.9998 16.0059 17.9998H16.0159C16.5681 17.9998 17.0159 18.4475 17.0159 18.9998C17.0159 19.552 16.5681 19.9998 16.0159 19.9998H16.0059C15.4536 19.9998 15.0059 19.552 15.0059 18.9998Z" fill="black"/>
</svg>
