<svg width="24" height="24" viewBox="0 0 24 24" fill="none" xmlns="http://www.w3.org/2000/svg">
<g clip-path="url(#clip0)">
<path fill-rule="evenodd" clip-rule="evenodd" d="M8 18C8.55228 18 9 18.4477 9 19V21C9 21.5523 8.55228 22 8 22C7.44772 22 7 21.5523 7 21V19C7 18.4477 7.44772 18 8 18Z" fill="black"/>
<path fill-rule="evenodd" clip-rule="evenodd" d="M8 12C8.55228 12 9 12.4477 9 13V15C9 15.5523 8.55228 16 8 16C7.44772 16 7 15.5523 7 15V13C7 12.4477 7.44772 12 8 12Z" fill="black"/>
<path fill-rule="evenodd" clip-rule="evenodd" d="M16 18C16.5523 18 17 18.4477 17 19V21C17 21.5523 16.5523 22 16 22C15.4477 22 15 21.5523 15 21V19C15 18.4477 15.4477 18 16 18Z" fill="black"/>
<path fill-rule="evenodd" clip-rule="evenodd" d="M16 12C16.5523 12 17 12.4477 17 13V15C17 15.5523 16.5523 16 16 16C15.4477 16 15 15.5523 15 15V13C15 12.4477 15.4477 12 16 12Z" fill="black"/>
<path fill-rule="evenodd" clip-rule="evenodd" d="M12 20C12.5523 20 13 20.4477 13 21V23C13 23.5523 12.5523 24 12 24C11.4477 24 11 23.5523 11 23V21C11 20.4477 11.4477 20 12 20Z" fill="black"/>
<path fill-rule="evenodd" clip-rule="evenodd" d="M12 14C12.5523 14 13 14.4477 13 15V17C13 17.5523 12.5523 18 12 18C11.4477 18 11 17.5523 11 17V15C11 14.4477 11.4477 14 12 14Z" fill="black"/>
<path fill-rule="evenodd" clip-rule="evenodd" d="M8.08241 0.0465457C9.50129 -0.0979346 10.9342 0.0968592 12.263 0.614871C13.5918 1.13288 14.7785 1.95928 15.7252 3.02595C16.498 3.89662 17.0929 4.90703 17.4793 5.99996H18.0012C19.3784 6.00158 20.7131 6.47691 21.7813 7.34616C22.8494 8.21541 23.5861 9.42567 23.8675 10.7738C24.149 12.1219 23.9581 13.5258 23.3269 14.7498C22.6957 15.9738 21.6627 16.9435 20.4012 17.496C19.8953 17.7175 19.3056 17.487 19.084 16.9811C18.8625 16.4752 19.093 15.8855 19.5989 15.664C20.4399 15.2956 21.1285 14.6492 21.5493 13.8332C21.9701 13.0172 22.0974 12.0812 21.9097 11.1825C21.7221 10.2838 21.231 9.47693 20.5189 8.89742C19.8069 8.31801 18.9172 8.00113 17.9992 7.99996C17.9991 7.99996 17.9994 7.99996 17.9992 7.99996H16.74C16.284 7.99996 15.8858 7.69149 15.7718 7.24999C15.4944 6.17595 14.9658 5.1832 14.2294 4.35357C13.4931 3.52394 12.5701 2.88119 11.5366 2.47829C10.5031 2.07539 9.38859 1.92388 8.28502 2.03626C7.18145 2.14863 6.12038 2.52167 5.18928 3.12462C4.25818 3.72757 3.4837 4.54317 2.92969 5.50419C2.37567 6.46521 2.05799 7.54414 2.00281 8.65205C1.94763 9.75996 2.15654 10.8651 2.61233 11.8764C3.06811 12.8877 3.75771 13.7763 4.6243 14.4687C5.05575 14.8135 5.12602 15.4428 4.78125 15.8742C4.43648 16.3057 3.80722 16.3759 3.37577 16.0312C2.26159 15.1408 1.37496 13.9985 0.78895 12.6982C0.202942 11.3979 -0.0656603 9.97702 0.00528293 8.55257C0.0762262 7.12812 0.484683 5.74092 1.19699 4.50532C1.90929 3.26972 2.90505 2.22109 4.10218 1.44587C5.29931 0.670643 6.66353 0.191026 8.08241 0.0465457Z" fill="black"/>
</g>
<defs>
<clipPath id="clip0">
<rect width="24" height="24" fill="white"/>
</clipPath>
</defs>
</svg>
