<svg width="24" height="24" viewBox="0 0 24 24" fill="none" xmlns="http://www.w3.org/2000/svg">
<path fill-rule="evenodd" clip-rule="evenodd" d="M16.0059 11.9998C16.5582 11.9998 17.0059 12.4475 17.0059 12.9998V20.9998C17.0059 21.5521 16.5582 21.9998 16.0059 21.9998C15.4536 21.9998 15.0059 21.5521 15.0059 20.9998V12.9998C15.0059 12.4475 15.4536 11.9998 16.0059 11.9998Z" fill="black"/>
<path fill-rule="evenodd" clip-rule="evenodd" d="M8.00586 11.9998C8.55814 11.9998 9.00586 12.4475 9.00586 12.9998V20.9998C9.00586 21.5521 8.55814 21.9998 8.00586 21.9998C7.45358 21.9998 7.00586 21.5521 7.00586 20.9998V12.9998C7.00586 12.4475 7.45358 11.9998 8.00586 11.9998Z" fill="black"/>
<path fill-rule="evenodd" clip-rule="evenodd" d="M12.0059 13.9998C12.5582 13.9998 13.0059 14.4475 13.0059 14.9998V22.9998C13.0059 23.5521 12.5582 23.9998 12.0059 23.9998C11.4536 23.9998 11.0059 23.5521 11.0059 22.9998V14.9998C11.0059 14.4475 11.4536 13.9998 12.0059 13.9998Z" fill="black"/>
<path fill-rule="evenodd" clip-rule="evenodd" d="M8.08827 0.0463015C9.50715 -0.0981788 10.9401 0.096615 12.2689 0.614627C13.5977 1.13264 14.7844 1.95904 15.7311 3.02571C16.5039 3.89638 17.0988 4.90679 17.4852 5.99972H18.0071C19.3843 6.00134 20.719 6.47667 21.7872 7.34592C22.8553 8.21517 23.592 9.42543 23.8734 10.7736C24.1549 12.1217 23.964 13.5256 23.3328 14.7496C22.7016 15.9736 21.6686 16.9433 20.4071 17.4958C19.9012 17.7173 19.3115 17.4868 19.0899 16.9809C18.8684 16.475 19.0989 15.8853 19.6048 15.6638C20.4458 15.2954 21.1344 14.649 21.5552 13.833C21.976 13.017 22.1033 12.081 21.9156 11.1823C21.728 10.2836 21.2369 9.47669 20.5248 8.89718C19.8128 8.31777 18.9231 8.00089 18.0051 7.99972C18.005 7.99972 18.0053 7.99972 18.0051 7.99972H16.7459C16.2899 7.99972 15.8917 7.69125 15.7777 7.24975C15.5003 6.17571 14.9717 5.18296 14.2353 4.35333C13.499 3.5237 12.576 2.88095 11.5425 2.47805C10.509 2.07515 9.39445 1.92364 8.29088 2.03602C7.18731 2.14839 6.12624 2.52143 5.19514 3.12438C4.26404 3.72733 3.48956 4.54293 2.93555 5.50395C2.38153 6.46497 2.06385 7.5439 2.00867 8.65181C1.95349 9.75972 2.1624 10.8649 2.61819 11.8762C3.07397 12.8875 3.76357 13.7761 4.63016 14.4685C5.06161 14.8133 5.13188 15.4426 4.78711 15.874C4.44234 16.3055 3.81308 16.3757 3.38163 16.031C2.26745 15.1406 1.38082 13.9983 0.794809 12.698C0.208801 11.3977 -0.0598009 9.97678 0.0111423 8.55233C0.0820856 7.12788 0.490542 5.74068 1.20285 4.50508C1.91515 3.26948 2.91091 2.22085 4.10804 1.44563C5.30517 0.670399 6.66939 0.190782 8.08827 0.0463015Z" fill="black"/>
</svg>
