<svg id="Camada_1" data-name="Camada 1" xmlns="http://www.w3.org/2000/svg" viewBox="0 0 24.02 24"><path d="M19,17.9a1,1,0,0,1-.2-2A4,4,0,0,0,18,8H16.74a1,1,0,0,1-1-.75A7,7,0,0,0,3,5.45a6.93,6.93,0,0,0-.74,5.3A7,7,0,0,0,5.6,15.12a1,1,0,1,1-1,1.76A9.08,9.08,0,0,1,.28,11.25,9,9,0,0,1,17.48,6H18A6,6,0,0,1,19.2,17.88Z" transform="translate(0.01 0)"/><path d="M11,24a.94.94,0,0,1-.55-.17,1,1,0,0,1-.28-1.38l3-4.45H9a1,1,0,0,1-.88-.53,1,1,0,0,1,.05-1l4-6a1,1,0,0,1,1.66,1.1l-3,4.45H15a1,1,0,0,1,.88.53,1,1,0,0,1-.05,1l-4,6A1,1,0,0,1,11,24Z" transform="translate(0.01 0)"/></svg>