<svg width="24" height="24" viewBox="0 0 24 24" fill="none" xmlns="http://www.w3.org/2000/svg">
<g clip-path="url(#clip0)">
<path fill-rule="evenodd" clip-rule="evenodd" d="M8.08241 1.04655C9.50129 0.902065 10.9342 1.09686 12.263 1.61487C13.5918 2.13288 14.7785 2.95928 15.7252 4.02595C16.498 4.89662 17.0929 5.90703 17.4793 6.99996H18.0012C19.3784 7.00158 20.7131 7.47691 21.7813 8.34616C22.8494 9.21541 23.5861 10.4257 23.8675 11.7738C24.149 13.1219 23.9581 14.5258 23.3269 15.7498C22.6957 16.9738 21.6627 17.9435 20.4012 18.496C19.8953 18.7175 19.3056 18.487 19.084 17.9811C18.8625 17.4752 19.093 16.8855 19.5989 16.664C20.4399 16.2956 21.1285 15.6492 21.5493 14.8332C21.9701 14.0172 22.0974 13.0812 21.9097 12.1825C21.7221 11.2838 21.231 10.4769 20.5189 9.89742C19.8069 9.31801 18.9172 9.00113 17.9992 8.99996C17.9991 8.99996 17.9994 8.99996 17.9992 8.99996H16.74C16.284 8.99996 15.8858 8.69149 15.7718 8.24999C15.4944 7.17595 14.9658 6.1832 14.2294 5.35357C13.4931 4.52394 12.5701 3.88119 11.5366 3.47829C10.5031 3.07539 9.38859 2.92388 8.28502 3.03626C7.18145 3.14863 6.12038 3.52167 5.18928 4.12462C4.25818 4.72757 3.4837 5.54317 2.92969 6.50419C2.37567 7.46521 2.05799 8.54414 2.00281 9.65205C1.94763 10.76 2.15654 11.8651 2.61233 12.8764C3.06811 13.8877 3.75771 14.7763 4.6243 15.4687C5.05575 15.8135 5.12602 16.4428 4.78125 16.8742C4.43648 17.3057 3.80722 17.3759 3.37577 17.0312C2.26159 16.1408 1.37496 14.9985 0.78895 13.6982C0.202942 12.3979 -0.0656603 10.977 0.00528293 9.55257C0.0762262 8.12812 0.484683 6.74092 1.19699 5.50532C1.90929 4.26972 2.90505 3.22109 4.10218 2.44586C5.29931 1.67064 6.66353 1.19103 8.08241 1.04655Z" fill="black"/>
<path fill-rule="evenodd" clip-rule="evenodd" d="M7 16C7 15.4477 7.44772 15 8 15H8.01C8.56229 15 9.01 15.4477 9.01 16C9.01 16.5523 8.56229 17 8.01 17H8C7.44772 17 7 16.5523 7 16Z" fill="black"/>
<path fill-rule="evenodd" clip-rule="evenodd" d="M7 20C7 19.4477 7.44772 19 8 19H8.01C8.56229 19 9.01 19.4477 9.01 20C9.01 20.5523 8.56229 21 8.01 21H8C7.44772 21 7 20.5523 7 20Z" fill="black"/>
<path fill-rule="evenodd" clip-rule="evenodd" d="M11 18C11 17.4477 11.4477 17 12 17H12.01C12.5623 17 13.01 17.4477 13.01 18C13.01 18.5523 12.5623 19 12.01 19H12C11.4477 19 11 18.5523 11 18Z" fill="black"/>
<path fill-rule="evenodd" clip-rule="evenodd" d="M11 22C11 21.4477 11.4477 21 12 21H12.01C12.5623 21 13.01 21.4477 13.01 22C13.01 22.5523 12.5623 23 12.01 23H12C11.4477 23 11 22.5523 11 22Z" fill="black"/>
<path fill-rule="evenodd" clip-rule="evenodd" d="M15 16C15 15.4477 15.4477 15 16 15H16.01C16.5623 15 17.01 15.4477 17.01 16C17.01 16.5523 16.5623 17 16.01 17H16C15.4477 17 15 16.5523 15 16Z" fill="black"/>
<path fill-rule="evenodd" clip-rule="evenodd" d="M15 20C15 19.4477 15.4477 19 16 19H16.01C16.5623 19 17.01 19.4477 17.01 20C17.01 20.5523 16.5623 21 16.01 21H16C15.4477 21 15 20.5523 15 20Z" fill="black"/>
</g>
<defs>
<clipPath id="clip0">
<rect width="24" height="24" fill="white"/>
</clipPath>
</defs>
</svg>
