<svg width="24" height="24" viewBox="0 0 24 24" fill="none" xmlns="http://www.w3.org/2000/svg">
<path fill-rule="evenodd" clip-rule="evenodd" d="M12.557 1.16939C12.3978 1.06242 12.2062 1 12 1C11.7938 1 11.6022 1.06242 11.443 1.16939L1.46905 7.65243C1.39947 7.69598 1.33456 7.7486 1.2762 7.80996C1.21002 7.87939 1.15444 7.95771 1.1109 8.0423C1.03649 8.18637 1.0003 8.34242 1 8.49732L1 8.5V15.5L1 15.5027C1.00031 15.6687 1.04185 15.8361 1.12749 15.9886C1.1608 16.0481 1.20021 16.1042 1.24518 16.1559C1.31207 16.2331 1.38884 16.2979 1.47224 16.3496L11.443 22.8306C11.6022 22.9376 11.7938 23 12 23C12.2062 23 12.3978 22.9376 12.557 22.8306L22.5245 16.3518C22.6375 16.2823 22.7384 16.189 22.8193 16.0735C22.9453 15.8935 23.0038 15.6864 23 15.4823V8.51775C23.0038 8.31369 22.9453 8.10662 22.8193 7.92662C22.739 7.81192 22.639 7.71923 22.5271 7.64992L12.557 1.16939ZM11 3.84269L3.78764 8.53072L7.00003 10.7794L11 7.9794V3.84269ZM13 7.97928V3.84269L20.2125 8.53078L17.0001 10.7794L13 7.97928ZM18.7439 12L21 10.4208V13.5793L18.7439 12ZM12.0001 9.72066L8.74382 12L12.0001 14.2794L15.2564 12L12.0001 9.72066ZM3 10.4207L5.25623 12L3 13.5794V10.4207ZM7.00003 13.2207L3.78771 15.4693L11 20.1573V16.0207L7.00003 13.2207ZM20.2124 15.4693L17.0001 13.2207L13 16.0208V20.1573L20.2124 15.4693Z" fill="black"/>
</svg>
