<svg width="24" height="24" viewBox="0 0 24 24" fill="none" xmlns="http://www.w3.org/2000/svg">
<path fill-rule="evenodd" clip-rule="evenodd" d="M12 1.00195C11.4742 1.00195 10.9577 1.14014 10.5021 1.40264L7.30627 3.22885C7.0963 3.27043 6.90043 3.37889 6.7529 3.54506L3.50386 5.40165L3.5 5.40388C3.12981 5.61761 2.81057 5.90738 2.56265 6.25285C2.50255 6.31308 2.4492 6.38202 2.40458 6.45916C2.36618 6.52553 2.33627 6.59449 2.3145 6.66476C2.10849 7.07848 2.00048 7.53503 2 7.99888V11.999V16.0009C2.00054 16.527 2.13941 17.0437 2.40269 17.4992C2.66597 17.9547 3.04439 18.3329 3.5 18.5959L3.50386 18.5981L6.75339 20.455C6.89573 20.6147 7.08854 20.7285 7.30679 20.7712L10.5 22.5959L10.5019 22.597C10.819 22.7798 11.1657 22.9023 11.5245 22.9599C11.6659 23.0365 11.8279 23.08 12 23.08C12.1721 23.08 12.3341 23.0365 12.4755 22.9599C12.8343 22.9023 13.1811 22.7798 13.4982 22.597L13.5 22.5959L16.6931 20.7713C16.9116 20.7286 17.1045 20.6147 17.247 20.4548L20.4961 18.5981L20.5 18.5959C20.9556 18.3329 21.334 17.9547 21.5973 17.4992C21.8606 17.0437 21.9995 16.527 22 16.0009V12.0172C22.0002 12.0051 22.0002 11.9929 22 11.9807V7.99888C21.9995 7.53576 21.8918 7.07992 21.6865 6.66672C21.6647 6.59577 21.6345 6.52615 21.5958 6.45916C21.5509 6.38149 21.4971 6.31213 21.4365 6.25161C21.1887 5.90669 20.8697 5.61735 20.5 5.40387L17.2478 3.54547C17.1001 3.37893 16.9039 3.27028 16.6935 3.22874L13.5 1.40388L13.4979 1.40267C13.0424 1.14015 12.5258 1.00195 12 1.00195ZM13 20.5782L15.5 19.1496V14.5999C15.5 14.2428 15.6905 13.9127 15.9997 13.7341L20 11.4228V8.53753L13 12.5868V20.5782ZM11 12.5866L4 8.53731V11.4227L8.00044 13.7341C8.30969 13.9127 8.50017 14.2428 8.50017 14.5999V19.1497L11 20.5782V12.5866ZM12.0002 10.8546L18.9611 6.82798L16.4506 5.39343L12.5004 7.67575C12.1909 7.8546 11.8094 7.8546 11.4999 7.67575L7.54956 5.39333L5.03909 6.82788L12.0002 10.8546ZM17.5 18.0067L19.5 16.8639L19.5016 16.863C19.6527 16.7753 19.7783 16.6496 19.8658 16.4983C19.9535 16.3465 19.9998 16.1742 20 15.9989V13.7326L17.5 15.1771V18.0067ZM4 15.9993V13.7325L6.50017 15.1771V18.0068L4.5 16.8639L4.49842 16.863C4.34726 16.7753 4.22169 16.6496 4.13423 16.4983C4.04654 16.3466 4.00025 16.1745 4 15.9993ZM14.4407 4.2449L12.5 3.13594C12.348 3.04817 12.1755 3.00195 12 3.00195C11.8245 3.00195 11.652 3.04816 11.5 3.13593L11.4961 3.13815L9.5595 4.2448L12.0002 5.65497L14.4407 4.2449Z" fill="black"/>
</svg>
