<svg width="24" height="24" viewBox="0 0 24 24" fill="none" xmlns="http://www.w3.org/2000/svg">
<path fill-rule="evenodd" clip-rule="evenodd" d="M5 4C5 3.44772 4.55228 3 4 3C3.44772 3 3 3.44772 3 4V11C3 12.3261 3.52678 13.5979 4.46447 14.5355C5.40215 15.4732 6.67392 16 8 16H17.5858L18.5858 15L17.5858 14H8C7.20435 14 6.44129 13.6839 5.87868 13.1213C5.31607 12.5587 5 11.7956 5 11V4ZM21 14.9908C21 14.9938 21 14.9969 21 15Z" fill="black"/>
<path fill-rule="evenodd" clip-rule="evenodd" d="M14.2929 9.29289C14.6834 8.90237 15.3166 8.90237 15.7071 9.29289L20.7071 14.2929C21.0976 14.6834 21.0976 15.3166 20.7071 15.7071L15.7071 20.7071C15.3166 21.0976 14.6834 21.0976 14.2929 20.7071C13.9024 20.3166 13.9024 19.6834 14.2929 19.2929L18.5858 15L14.2929 10.7071C13.9024 10.3166 13.9024 9.68342 14.2929 9.29289Z" fill="black"/>
</svg>
