<svg width="24" height="24" viewBox="0 0 24 24" fill="none" xmlns="http://www.w3.org/2000/svg">
<path fill-rule="evenodd" clip-rule="evenodd" d="M13 3C11.6739 3 10.4021 3.52678 9.46447 4.46447C8.52678 5.40215 8 6.67392 8 8V17.5858L9 18.5858L10 17.5858V8C10 7.20435 10.3161 6.44129 10.8787 5.87868C11.4413 5.31607 12.2044 5 13 5H20C20.5523 5 21 4.55228 21 4C21 3.44772 20.5523 3 20 3H13ZM9.00923 21C9.00616 21 9.00308 21 9 21ZM8.99077 21C8.85854 20.9988 8.73244 20.9719 8.61722 20.9241C8.73659 20.9735 8.86359 20.9988 8.99077 21Z" fill="black"/>
<path fill-rule="evenodd" clip-rule="evenodd" d="M3.29289 14.2929C3.68342 13.9024 4.31658 13.9024 4.70711 14.2929L9 18.5858L13.2929 14.2929C13.6834 13.9024 14.3166 13.9024 14.7071 14.2929C15.0976 14.6834 15.0976 15.3166 14.7071 15.7071L9.70711 20.7071C9.31658 21.0976 8.68342 21.0976 8.29289 20.7071L3.29289 15.7071C2.90237 15.3166 2.90237 14.6834 3.29289 14.2929Z" fill="black"/>
</svg>
