<svg width="24" height="24" viewBox="0 0 24 24" fill="none" xmlns="http://www.w3.org/2000/svg">
<path fill-rule="evenodd" clip-rule="evenodd" d="M14.2995 3.28639C14.2973 3.28854 14.2951 3.29071 14.2929 3.29289L14.2923 3.29346L9.29289 8.29289C8.90237 8.68342 8.90237 9.31658 9.29289 9.70711C9.68342 10.0976 10.3166 10.0976 10.7071 9.70711L14 6.41421V16C14 16.7956 13.6839 17.5587 13.1213 18.1213C12.5587 18.6839 11.7956 19 11 19H4C3.44772 19 3 19.4477 3 20C3 20.5523 3.44772 21 4 21H11C12.3261 21 13.5979 20.4732 14.5355 19.5355C15.4732 18.5979 16 17.3261 16 16V6.41421L19.2929 9.70711C19.6834 10.0976 20.3166 10.0976 20.7071 9.70711C21.0976 9.31658 21.0976 8.68342 20.7071 8.29289L15.7077 3.29346L15.7071 3.29289L15.701 3.28683C15.6048 3.19223 15.4942 3.12102 15.3763 3.07322C15.3785 3.0741 15.3806 3.07499 15.3828 3.07588C15.2649 3.02699 15.1356 3 15 3C14.8642 3 14.7346 3.02708 14.6166 3.07615M14.2995 3.28639C14.3935 3.19403 14.5013 3.12402 14.6161 3.07634Z" fill="black"/>
</svg>
