<svg width="24" height="24" viewBox="0 0 24 24" fill="none" xmlns="http://www.w3.org/2000/svg">
<path fill-rule="evenodd" clip-rule="evenodd" d="M21 4C21 3.44772 20.5523 3 20 3C19.4477 3 19 3.44772 19 4V11C19 11.7956 18.6839 12.5587 18.1213 13.1213C17.5587 13.6839 16.7956 14 16 14H6.41421L5.41421 15L6.41421 16H16C17.3261 16 18.5979 15.4732 19.5355 14.5355C20.4732 13.5979 21 12.3261 21 11V4ZM3.29346 15.7077L3.29289 15.7071C3.29072 15.7049 3.28855 15.7027 3.2864 15.7005C2.99719 15.4061 2.92702 14.977 3.07588 14.6172C3.02699 14.7351 3 14.8644 3 15C3 15.2728 3.10925 15.5201 3.2864 15.7005C3.28874 15.7029 3.29109 15.7053 3.29346 15.7077ZM3.2864 14.2995C3.28855 14.2973 3.29072 14.2951 3.29289 14.2929L3.29346 14.2923C3.29109 14.2947 3.28874 14.2971 3.2864 14.2995Z" fill="black"/>
<path fill-rule="evenodd" clip-rule="evenodd" d="M9.70711 9.29289C10.0976 9.68342 10.0976 10.3166 9.70711 10.7071L5.41421 15L9.70711 19.2929C10.0976 19.6834 10.0976 20.3166 9.70711 20.7071C9.31658 21.0976 8.68342 21.0976 8.29289 20.7071L3.29289 15.7071C2.90237 15.3166 2.90237 14.6834 3.29289 14.2929L8.29289 9.29289C8.68342 8.90237 9.31658 8.90237 9.70711 9.29289Z" fill="black"/>
</svg>
