<svg width="24" height="24" viewBox="0 0 24 24" fill="none" xmlns="http://www.w3.org/2000/svg">
<path fill-rule="evenodd" clip-rule="evenodd" d="M9.7071 4.70711C10.0976 4.31658 10.0976 3.68342 9.7071 3.29289C9.31658 2.90237 8.68341 2.90237 8.29289 3.29289L3.29289 8.29289C3.29218 8.2936 3.29148 8.29431 3.29077 8.29502C3.11171 8.47515 3.0008 8.72313 3 8.997V8.99706C2.99999 8.99902 2.99999 9.00098 3 9.00294V9.003C3.00001 9.00481 3.00002 9.00662 3.00003 9.00844C3.00028 9.03761 3.00179 9.06678 3.00457 9.09585C3.01394 9.19376 3.03771 9.29055 3.07587 9.38278C3.12431 9.49986 3.19595 9.6096 3.29077 9.70498C3.29148 9.70569 3.29218 9.7064 3.29289 9.70711L8.29289 14.7071C8.68341 15.0976 9.31658 15.0976 9.7071 14.7071C10.0976 14.3166 10.0976 13.6834 9.7071 13.2929L6.41421 10H16C16.7956 10 17.5587 10.3161 18.1213 10.8787C18.6839 11.4413 19 12.2044 19 13V20C19 20.5523 19.4477 21 20 21C20.5523 21 21 20.5523 21 20V13C21 11.6739 20.4732 10.4021 19.5355 9.46447C18.5978 8.52678 17.3261 8 16 8H6.41421L9.7071 4.70711Z" fill="black"/>
</svg>
