<svg width="24" height="24" viewBox="0 0 24 24" fill="none" xmlns="http://www.w3.org/2000/svg">
<path fill-rule="evenodd" clip-rule="evenodd" d="M4 3C3.44772 3 3 3.44772 3 4C3 4.55228 3.44772 5 4 5H11C11.7956 5 12.5587 5.31607 13.1213 5.87868C13.6839 6.44129 14 7.20435 14 8V17.5858L15 18.5858L16 17.5858V8C16 6.67392 15.4732 5.40215 14.5355 4.46447C13.5979 3.52678 12.3261 3 11 3H4ZM15.0092 21C15.0062 21 15.0031 21 15 21Z" fill="black"/>
<path fill-rule="evenodd" clip-rule="evenodd" d="M9.29289 14.2929C9.68342 13.9024 10.3166 13.9024 10.7071 14.2929L15 18.5858L19.2929 14.2929C19.6834 13.9024 20.3166 13.9024 20.7071 14.2929C21.0976 14.6834 21.0976 15.3166 20.7071 15.7071L15.7071 20.7071C15.3166 21.0976 14.6834 21.0976 14.2929 20.7071L9.29289 15.7071C8.90237 15.3166 8.90237 14.6834 9.29289 14.2929Z" fill="black"/>
</svg>
