<svg width="24" height="24" viewBox="0 0 24 24" fill="none" xmlns="http://www.w3.org/2000/svg">
<path fill-rule="evenodd" clip-rule="evenodd" d="M8.61722 3.07588C8.97882 2.92627 9.41038 2.9979 9.70498 3.29078C9.70569 3.29148 9.7064 3.29219 9.70711 3.29289M9.7075 3.29329C9.70667 3.29245 9.70582 3.29161 9.70498 3.29078C9.52419 3.11106 9.27506 3 9 3C8.86441 3 8.73512 3.02699 8.61722 3.07588M10 6.41421L9 5.41421L8 6.41421V16C8 17.3261 8.52678 18.5979 9.46447 19.5355C10.4021 20.4732 11.6739 21 13 21H20C20.5523 21 21 20.5523 21 20C21 19.4477 20.5523 19 20 19H13C12.2044 19 11.4413 18.6839 10.8787 18.1213C10.3161 17.5587 10 16.7956 10 16V6.41421ZM8.29289 3.29289C8.2936 3.29219 8.29431 3.29148 8.29502 3.29078Z" fill="black"/>
<path fill-rule="evenodd" clip-rule="evenodd" d="M8.29289 3.29289C8.68342 2.90237 9.31658 2.90237 9.70711 3.29289L14.7071 8.29289C15.0976 8.68342 15.0976 9.31658 14.7071 9.70711C14.3166 10.0976 13.6834 10.0976 13.2929 9.70711L9 5.41421L4.70711 9.70711C4.31658 10.0976 3.68342 10.0976 3.29289 9.70711C2.90237 9.31658 2.90237 8.68342 3.29289 8.29289L8.29289 3.29289Z" fill="black"/>
</svg>
