<svg width="24" height="24" viewBox="0 0 24 24" fill="none" xmlns="http://www.w3.org/2000/svg">
<path fill-rule="evenodd" clip-rule="evenodd" d="M7.12996 1.00867C7.13475 0.456403 6.69093 0.00482466 6.13867 3.83509e-05C5.5864 -0.0047479 5.13482 0.43907 5.13004 0.991334L5.09448 5.09449L0.991334 5.13004C0.43907 5.13482 -0.0047479 5.5864 3.83509e-05 6.13867C0.00482466 6.69093 0.456403 7.13475 1.00867 7.12996L5.07714 7.0947L5.00004 15.9913L5 15.9913V16C5 16.7957 5.31607 17.5587 5.87868 18.1213C6.44129 18.6839 7.20435 19 8 19H17V23C17 23.5523 17.4477 24 18 24C18.5523 24 19 23.5523 19 23V19H23C23.5523 19 24 18.5523 24 18C24 17.4477 23.5523 17 23 17H19V8C19 7.20435 18.6839 6.44129 18.1213 5.87868C17.5587 5.31607 16.7957 5 16 5L7.0947 5.07716L7.12996 1.00867ZM7.07737 7.07737L7.00001 16.0036C7.00095 16.2675 7.1062 16.5204 7.29289 16.7071C7.48043 16.8946 7.73478 17 8 17H17V8C17 7.73478 16.8946 7.48043 16.7071 7.29289C16.5204 7.1062 16.2675 7.00095 16.0036 7.00001L7.07737 7.07737Z" fill="black"/>
</svg>
