<svg width="24" height="18" viewBox="0 0 24 18" fill="none" xmlns="http://www.w3.org/2000/svg">
<path fill-rule="evenodd" clip-rule="evenodd" d="M7.24742 0.341495C7.43731 0.12448 7.71164 0 8 0H21C21.7957 0 22.5587 0.31607 23.1213 0.87868C23.6839 1.44129 24 2.20435 24 3V15C24 15.7957 23.6839 16.5587 23.1213 17.1213C22.5587 17.6839 21.7957 18 21 18H8C7.71164 18 7.43731 17.8755 7.24742 17.6585L0.247423 9.6585C-0.0824744 9.28148 -0.0824744 8.71852 0.247423 8.3415L7.24742 0.341495ZM8.45377 2L2.32877 9L8.45377 16H21C21.2652 16 21.5196 15.8946 21.7071 15.7071C21.8946 15.5196 22 15.2652 22 15V3C22 2.73478 21.8946 2.48043 21.7071 2.29289C21.5196 2.10536 21.2652 2 21 2H8.45377Z" fill="black"/>
<path fill-rule="evenodd" clip-rule="evenodd" d="M18.7071 6.70711C19.0976 6.31658 19.0976 5.68342 18.7071 5.29289C18.3166 4.90237 17.6834 4.90237 17.2929 5.29289L15 7.58579L12.7071 5.29289C12.3166 4.90237 11.6834 4.90237 11.2929 5.29289C10.9024 5.68342 10.9024 6.31658 11.2929 6.70711L13.5858 9L11.2929 11.2929C10.9024 11.6834 10.9024 12.3166 11.2929 12.7071C11.6834 13.0976 12.3166 13.0976 12.7071 12.7071L15 10.4142L17.2929 12.7071C17.6834 13.0976 18.3166 13.0976 18.7071 12.7071C19.0976 12.3166 19.0976 11.6834 18.7071 11.2929L16.4142 9L18.7071 6.70711Z" fill="black"/>
</svg>
