<svg width="24" height="24" viewBox="0 0 24 24" fill="none" xmlns="http://www.w3.org/2000/svg">
<g clip-path="url(#clip0)">
<path fill-rule="evenodd" clip-rule="evenodd" d="M8.66752 1.9941C10.028 1.94517 11.3819 2.20552 12.6272 2.75554C13.8725 3.30556 14.9768 4.13092 15.8569 5.16948C16.5674 6.00784 17.1169 6.96749 17.4804 7.99993L17.9992 7.99993C19.2743 7.9991 20.5173 8.40453 21.5464 9.15741C22.5758 9.91044 23.3384 10.9719 23.7236 12.1877C24.1088 13.4036 24.0966 14.7105 23.6887 15.9189C23.2808 17.1273 22.4984 18.1743 21.4552 18.9079C21.0034 19.2256 20.3796 19.1169 20.0619 18.6652C19.7442 18.2134 19.8529 17.5896 20.3047 17.2719C21.0002 16.7828 21.5218 16.0849 21.7937 15.2793C22.0657 14.4736 22.0738 13.6023 21.817 12.7918C21.5602 11.9812 21.0518 11.2736 20.3656 10.7716C19.6793 10.2696 18.851 9.99927 18.0007 9.99993H16.7399C16.2834 9.99993 15.8848 9.69071 15.7713 9.24848C15.5081 8.22287 15.0157 7.27032 14.3312 6.46255C13.6466 5.65478 12.7877 5.01283 11.8191 4.58504C10.8505 4.15724 9.79755 3.95475 8.7394 3.9928C7.68124 4.03086 6.64551 4.30846 5.71017 4.80472C4.77483 5.30099 3.96426 6.00297 3.33948 6.85783C2.71469 7.71269 2.29198 8.69814 2.10317 9.74001C1.91435 10.7819 1.96435 11.853 2.24939 12.8727C2.53444 13.8925 3.04711 14.8343 3.74881 15.6272C4.11481 16.0408 4.07623 16.6728 3.66264 17.0388C3.24904 17.4048 2.61706 17.3662 2.25105 16.9526C1.34887 15.9331 0.689722 14.7223 0.323231 13.4112C-0.0432598 12.1001 -0.107542 10.7229 0.135222 9.38336C0.377987 8.04382 0.921473 6.7768 1.72476 5.6777C2.52806 4.57859 3.57022 3.67604 4.7728 3.03799C5.97538 2.39994 7.30704 2.04302 8.66752 1.9941Z" fill="black"/>
<path fill-rule="evenodd" clip-rule="evenodd" d="M13 12C13 11.4477 12.5523 11 12 11C11.4477 11 11 11.4477 11 12V18.5858L12 19.5858L13 18.5858V12ZM12.7005 21.7136C12.5208 21.8901 12.2746 21.9992 12.003 22C12.001 22 11.999 22 11.997 22C11.8677 21.9996 11.7385 21.9743 11.6172 21.9241C11.4979 21.8746 11.3902 21.8027 11.2995 21.7136C11.2973 21.7115 11.2951 21.7093 11.2929 21.7071L11.2923 21.7065" fill="black"/>
<path fill-rule="evenodd" clip-rule="evenodd" d="M7.29289 16.2929C7.68342 15.9024 8.31658 15.9024 8.70711 16.2929L12 19.5858L15.2929 16.2929C15.6834 15.9024 16.3166 15.9024 16.7071 16.2929C17.0976 16.6834 17.0976 17.3166 16.7071 17.7071L12.7071 21.7071C12.3166 22.0976 11.6834 22.0976 11.2929 21.7071L7.29289 17.7071C6.90237 17.3166 6.90237 16.6834 7.29289 16.2929Z" fill="black"/>
</g>
<defs>
<clipPath id="clip0">
<rect width="24" height="24" fill="white"/>
</clipPath>
</defs>
</svg>
