<svg width="24" height="21" viewBox="0 0 24 21" fill="none" xmlns="http://www.w3.org/2000/svg">
<path fill-rule="evenodd" clip-rule="evenodd" d="M8.66752 0.994096C10.028 0.94517 11.3819 1.20552 12.6272 1.75554C13.8725 2.30556 14.9768 3.13092 15.8569 4.16948C16.5674 5.00784 17.1169 5.96749 17.4804 6.99993L17.9992 6.99993C19.2743 6.9991 20.5173 7.40453 21.5464 8.15741C22.5758 8.91044 23.3384 9.97189 23.7236 11.1877C24.1088 12.4036 24.0966 13.7105 23.6887 14.9189C23.2808 16.1273 22.4984 17.1743 21.4552 17.9079C21.0034 18.2256 20.3796 18.1169 20.0619 17.6652C19.7442 17.2134 19.8529 16.5896 20.3047 16.2719C21.0002 15.7828 21.5218 15.0849 21.7937 14.2793C22.0657 13.4736 22.0738 12.6023 21.817 11.7918C21.5602 10.9812 21.0518 10.2736 20.3656 9.77158C19.6793 9.26956 18.851 8.99927 18.0007 8.99993H16.7399C16.2834 8.99993 15.8848 8.69071 15.7713 8.24848C15.5081 7.22287 15.0157 6.27032 14.3312 5.46255C13.6466 4.65478 12.7877 4.01283 11.8191 3.58504C10.8505 3.15724 9.79755 2.95475 8.7394 2.9928C7.68124 3.03086 6.64551 3.30846 5.71017 3.80472C4.77483 4.30099 3.96426 5.00297 3.33948 5.85783C2.71469 6.71269 2.29198 7.69814 2.10317 8.74001C1.91435 9.78187 1.96435 10.853 2.24939 11.8727C2.53444 12.8925 3.04711 13.8343 3.74881 14.6272C4.11481 15.0408 4.07623 15.6728 3.66264 16.0388C3.24904 16.4048 2.61706 16.3662 2.25105 15.9526C1.34887 14.9331 0.689722 13.7223 0.323231 12.4112C-0.0432598 11.1001 -0.107542 9.7229 0.135222 8.38336C0.377987 7.04382 0.921473 5.7768 1.72476 4.6777C2.52806 3.57859 3.57022 2.67604 4.7728 2.03799C5.97538 1.39994 7.30704 1.04302 8.66752 0.994096Z" fill="black"/>
<path fill-rule="evenodd" clip-rule="evenodd" d="M13 11C13 10.4477 12.5523 10 12 10C11.4477 10 11 10.4477 11 11V17.5858L12 18.5858L13 17.5858V11ZM12.7005 20.7136C12.5208 20.8901 12.2746 20.9992 12.003 21C12.001 21 11.999 21 11.997 21C11.8677 20.9996 11.7385 20.9743 11.6172 20.9241C11.4979 20.8746 11.3902 20.8027 11.2995 20.7136C11.2973 20.7115 11.2951 20.7093 11.2929 20.7071L11.2923 20.7065" fill="black"/>
<path fill-rule="evenodd" clip-rule="evenodd" d="M7.29289 15.2929C7.68342 14.9024 8.31658 14.9024 8.70711 15.2929L12 18.5858L15.2929 15.2929C15.6834 14.9024 16.3166 14.9024 16.7071 15.2929C17.0976 15.6834 17.0976 16.3166 16.7071 16.7071L12.7071 20.7071C12.3166 21.0976 11.6834 21.0976 11.2929 20.7071L7.29289 16.7071C6.90237 16.3166 6.90237 15.6834 7.29289 15.2929Z" fill="black"/>
</svg>
