<svg width="16" height="23" viewBox="0 0 16 23" fill="none" xmlns="http://www.w3.org/2000/svg">
<path fill-rule="evenodd" clip-rule="evenodd" d="M4.5 2C3.83696 2 3.20107 2.26339 2.73223 2.73223C2.26339 3.20107 2 3.83696 2 4.5C2 5.16304 2.26339 5.79893 2.73223 6.26777C3.20107 6.73661 3.83696 7 4.5 7H7V2H4.5ZM7 16H4.5C3.83696 16 3.20107 16.2634 2.73223 16.7322C2.26339 17.2011 2 17.837 2 18.5C2 19.163 2.26339 19.7989 2.73223 20.2678C3.20107 20.7366 3.83696 21 4.5 21C5.16304 21 5.79893 20.7366 6.26777 20.2678C6.73661 19.7989 7 19.163 7 18.5V16ZM1.67155 15C1.54875 15.0992 1.4307 15.2053 1.31802 15.318C0.474106 16.1619 0 17.3065 0 18.5C0 19.6935 0.474106 20.8381 1.31802 21.682C2.16193 22.5259 3.30653 23 4.5 23C5.69347 23 6.83807 22.5259 7.68198 21.682C8.52589 20.8381 9 19.6935 9 18.5V15.2417C9.24448 15.405 9.50497 15.5444 9.77793 15.6575C10.3239 15.8836 10.9091 16 11.5 16C12.0909 16 12.6761 15.8836 13.2221 15.6575C13.768 15.4313 14.2641 15.0998 14.682 14.682C15.0998 14.2641 15.4313 13.768 15.6575 13.2221C15.8836 12.6761 16 12.091 16 11.5C16 10.909 15.8836 10.3239 15.6575 9.77793C15.4313 9.23196 15.0998 8.73588 14.682 8.31802C14.5696 8.20564 14.4516 8.09952 14.3284 8C14.4516 7.90049 14.5696 7.79436 14.682 7.68198C15.0998 7.26412 15.4313 6.76804 15.6575 6.22208C15.8836 5.67611 16 5.09095 16 4.5C16 3.90905 15.8836 3.32389 15.6575 2.77792C15.4313 2.23196 15.0998 1.73588 14.682 1.31802C14.2641 0.900155 13.768 0.568688 13.2221 0.342542C12.6761 0.116396 12.0909 0 11.5 0H8H4.5C3.30653 0 2.16193 0.474106 1.31802 1.31802C0.474106 2.16193 0 3.30653 0 4.5C0 5.69347 0.474106 6.83807 1.31802 7.68198C1.4307 7.79466 1.54875 7.90075 1.67155 8C1.54875 8.09925 1.4307 8.20534 1.31802 8.31802C0.474106 9.16193 0 10.3065 0 11.5C0 12.6935 0.474106 13.8381 1.31802 14.682C1.4307 14.7947 1.54875 14.9007 1.67155 15ZM4.5 9C3.83696 9 3.20107 9.26339 2.73223 9.73223C2.26339 10.2011 2 10.837 2 11.5C2 12.163 2.26339 12.7989 2.73223 13.2678C3.20107 13.7366 3.83696 14 4.5 14H7V11.5V9H4.5ZM9 11.5C9 11.8283 9.06466 12.1534 9.1903 12.4567C9.31594 12.76 9.50009 13.0356 9.73223 13.2678C9.96438 13.4999 10.24 13.6841 10.5433 13.8097C10.8466 13.9353 11.1717 14 11.5 14C11.8283 14 12.1534 13.9353 12.4567 13.8097C12.76 13.6841 13.0356 13.4999 13.2678 13.2678C13.4999 13.0356 13.6841 12.76 13.8097 12.4567C13.9353 12.1534 14 11.8283 14 11.5C14 11.1717 13.9353 10.8466 13.8097 10.5433C13.6841 10.24 13.4999 9.96438 13.2678 9.73223C13.0356 9.50009 12.76 9.31594 12.4567 9.1903C12.1534 9.06466 11.8283 9 11.5 9C11.1717 9 10.8466 9.06466 10.5433 9.1903C10.24 9.31594 9.96438 9.50009 9.73223 9.73223C9.50009 9.96438 9.31594 10.24 9.1903 10.5433C9.06466 10.8466 9 11.1717 9 11.5ZM11.5 7C11.8283 7 12.1534 6.93534 12.4567 6.8097C12.76 6.68406 13.0356 6.49991 13.2678 6.26777C13.4999 6.03562 13.6841 5.76002 13.8097 5.45671C13.9353 5.15339 14 4.8283 14 4.5C14 4.1717 13.9353 3.84661 13.8097 3.54329C13.6841 3.23998 13.4999 2.96438 13.2678 2.73223C13.0356 2.50009 12.76 2.31594 12.4567 2.1903C12.1534 2.06466 11.8283 2 11.5 2H9V7H11.5Z" fill="black"/>
</svg>
